<svg width="92" height="44" viewBox="0 0 92 44" fill="none" xmlns="http://www.w3.org/2000/svg">
<path d="M5.6709 43.0362H86.4372C89.2358 43.0362 91.5158 40.7863 91.5158 37.9941V5.88484C91.5158 3.10628 89.2495 0.842773 86.4372 0.842773H5.6709C2.8722 0.842773 0.592285 3.09273 0.592285 5.88484V37.9941C0.592285 40.7863 2.8722 43.0362 5.6709 43.0362Z" fill="#699DEE"/>
<path d="M35.5418 20.3605C35.5418 23.3694 34.5179 26.1344 32.8114 28.3437C32.238 29.0757 31.5963 29.7533 30.8864 30.3497C28.5929 32.2879 25.6167 33.4536 22.3675 33.4536C19.4186 33.4536 16.7018 32.4912 14.5038 30.8648C13.5345 30.1464 12.6744 29.3061 11.9372 28.3573C10.217 26.148 9.20679 23.383 9.20679 20.374C9.20679 13.1497 15.1045 7.29443 22.3811 7.29443C29.6577 7.29443 35.5418 13.1362 35.5418 20.3605Z" fill="white"/>
<path d="M27.6509 26.5409C27.6099 26.5002 27.5826 26.4595 27.5417 26.4324C27.3915 26.3105 27.2413 26.2427 26.627 26.1478C26.313 26.0936 25.8898 26.0394 25.2754 25.958C25.2754 25.958 25.1389 25.9445 25.0706 25.9445C25.0297 25.9445 24.9751 25.9309 24.9205 25.9309C24.743 25.8361 24.702 25.1177 24.702 24.3587C24.702 24.3045 24.702 24.2503 24.702 24.1825C24.702 23.8979 24.7157 23.6132 24.7293 23.3557C24.7293 23.3421 24.7293 23.3286 24.7293 23.315C25.1116 23.3421 25.3573 23.3421 25.3573 23.3421C26.0536 23.2879 26.4905 21.4175 26.6543 19.913C26.6543 19.913 26.9956 19.0862 26.9956 18.1916C26.9956 17.6901 26.8864 17.1615 26.5451 16.7549C26.3676 16.538 26.2038 16.4025 26.0536 16.3212C26.0126 16.2805 25.9717 16.2399 25.9171 16.1992C25.2618 15.4808 22.6132 12.7836 20.8658 14.3423C20.8248 14.1932 20.2514 12.4312 17.5073 13.014C17.6848 13.0005 18.8998 12.8785 19.2548 13.3664C19.2002 13.3393 18.149 12.8785 17.4664 13.2851C17.1524 13.4748 16.9612 13.8679 16.852 14.2745C16.852 14.2745 16.852 14.2745 16.852 14.2881C16.852 14.2881 16.852 14.2881 16.852 14.3016V14.3152C16.8384 14.3694 16.8247 14.4236 16.811 14.4778C16.811 14.4914 16.811 14.4914 16.811 14.505C16.811 14.505 16.811 14.505 16.811 14.5185C16.7291 14.9387 16.7291 15.3453 16.7838 15.5486C16.893 15.9688 17.6438 17.2429 18.149 17.2429C18.3401 17.2429 18.5449 17.1751 18.7224 17.1073C18.6404 17.3377 18.5722 17.5817 18.5176 17.8528C17.9851 20.3467 19.6507 22.2443 20.5108 21.7699C21.0705 21.4717 21.4801 22.434 21.4801 22.434C21.3982 24.2638 20.8931 25.443 20.5244 25.7412C20.3879 25.7547 20.1012 25.7954 19.7326 25.8496C19.7326 25.8496 18.463 25.9852 17.4937 26.4053C17.48 26.4053 17.48 26.4053 17.4664 26.4189C17.2479 26.5138 17.0568 26.6086 16.9203 26.7171C16.852 26.7713 16.7837 26.8391 16.7428 26.9068C16.7155 26.9339 16.7018 26.961 16.6882 26.9882C16.3605 27.5981 16.0329 28.5198 15.7189 29.6041C17.5756 30.9866 19.8964 31.7998 22.3948 31.7998C25.1525 31.7998 27.6646 30.8104 29.6168 29.1703C28.9206 27.6387 28.1014 26.8662 27.6509 26.5409Z" fill="#2B478B"/>
<path d="M59.5288 13.7596H44.5523C44.0336 13.7596 43.6104 13.3394 43.6104 12.8244V12.3771C43.6104 11.8621 44.0336 11.4419 44.5523 11.4419H59.5288C60.0476 11.4419 60.4708 11.8621 60.4708 12.3771V12.8244C60.4708 13.3394 60.0476 13.7596 59.5288 13.7596Z" fill="white"/>
<path d="M59.7063 22.1089H44.3749C43.9517 22.1089 43.6104 21.77 43.6104 21.3498C43.6104 20.9297 43.9517 20.5908 44.3749 20.5908H59.7063C60.1295 20.5908 60.4708 20.9297 60.4708 21.3498C60.4708 21.77 60.1295 22.1089 59.7063 22.1089Z" fill="white"/>
<path d="M52.9211 25.687H44.1974C43.8697 25.687 43.6104 25.4295 43.6104 25.1042V24.7518C43.6104 24.4265 43.8697 24.1689 44.1974 24.1689H52.9211C53.2488 24.1689 53.5082 24.4265 53.5082 24.7518V25.1042C53.5082 25.4159 53.2351 25.687 52.9211 25.687Z" fill="white"/>
<path d="M70.6962 25.687H56.6072C56.2113 25.687 55.87 25.3617 55.87 24.9551V24.9009C55.87 24.5078 56.1976 24.1689 56.6072 24.1689H70.6962C71.0922 24.1689 71.4334 24.4942 71.4334 24.9009V24.9551C71.4198 25.3617 71.0922 25.687 70.6962 25.687Z" fill="white"/>
<path d="M83.857 22.1089H63.761C63.3378 22.1089 62.9965 21.77 62.9965 21.3498C62.9965 20.9297 63.3378 20.5908 63.761 20.5908H83.857C84.2802 20.5908 84.6215 20.9297 84.6215 21.3498C84.6215 21.77 84.2802 22.1089 83.857 22.1089Z" fill="white"/>
<path d="M59.7063 29.2651H44.3749C43.9517 29.2651 43.6104 28.9263 43.6104 28.5061C43.6104 28.0859 43.9517 27.7471 44.3749 27.7471H59.7063C60.1295 27.7471 60.4708 28.0859 60.4708 28.5061C60.4708 28.9263 60.1295 29.2651 59.7063 29.2651Z" fill="white"/>
<path d="M83.857 29.2651H63.761C63.3378 29.2651 62.9965 28.9263 62.9965 28.5061C62.9965 28.0859 63.3378 27.7471 63.761 27.7471H83.857C84.2802 27.7471 84.6215 28.0859 84.6215 28.5061C84.6215 28.9263 84.2802 29.2651 83.857 29.2651Z" fill="white"/>
<path d="M74.1093 13.7596H63.365C62.9145 13.7596 62.5596 13.3936 62.5596 12.9599V12.2416C62.5596 11.7943 62.9282 11.4419 63.365 11.4419H74.1093C74.5598 11.4419 74.9147 11.8078 74.9147 12.2416V12.9599C74.9147 13.4072 74.5461 13.7596 74.1093 13.7596Z" fill="white"/>
</svg>
