<svg width="273" height="28" viewBox="0 0 273 28" fill="none" xmlns="http://www.w3.org/2000/svg">
<path d="M0 4C0 1.79086 1.79086 0 4 0H273V24C273 26.2091 271.209 28 269 28H4C1.79086 28 0 26.2091 0 24V4Z" fill="#F5F7F8"/>
<path d="M18.38 16.274H19.205V18.474H18.435V17H12.935V18.474H12.165V16.274H12.792C13.298 15.68 13.551 14.7633 13.551 13.524V9.3H18.38V16.274ZM13.705 16.274H17.61V10.026H14.321V13.546C14.321 14.7633 14.1157 15.6727 13.705 16.274ZM24.8799 11.5H25.6059V17H24.8799V15.922C24.3739 16.7287 23.6332 17.132 22.6579 17.132C21.8732 17.132 21.2022 16.8533 20.6449 16.296C20.0949 15.7387 19.8199 15.0567 19.8199 14.25C19.8199 13.4433 20.0949 12.7613 20.6449 12.204C21.2022 11.6467 21.8732 11.368 22.6579 11.368C23.6332 11.368 24.3739 11.7713 24.8799 12.578V11.5ZM21.1729 15.801C21.5909 16.219 22.1042 16.428 22.7129 16.428C23.3215 16.428 23.8349 16.219 24.2529 15.801C24.6709 15.3757 24.8799 14.8587 24.8799 14.25C24.8799 13.6413 24.6709 13.128 24.2529 12.71C23.8349 12.2847 23.3215 12.072 22.7129 12.072C22.1042 12.072 21.5909 12.2847 21.1729 12.71C20.7549 13.128 20.5459 13.6413 20.5459 14.25C20.5459 14.8587 20.7549 15.3757 21.1729 15.801ZM28.353 16.065L27.693 18.54H27.033L27.473 16.065H28.353ZM36.0336 14.173C36.635 14.393 36.9356 14.822 36.9356 15.46C36.9356 15.9073 36.7853 16.2777 36.4846 16.571C36.1913 16.857 35.766 17 35.2086 17H32.5356V11.5H34.9886C35.524 11.5 35.9383 11.6393 36.2316 11.918C36.525 12.1893 36.6716 12.5413 36.6716 12.974C36.6716 13.524 36.459 13.9237 36.0336 14.173ZM34.9886 12.204H33.2616V13.876H34.9886C35.6266 13.876 35.9456 13.59 35.9456 13.018C35.9456 12.7613 35.8613 12.5633 35.6926 12.424C35.5313 12.2773 35.2966 12.204 34.9886 12.204ZM35.2086 16.296C35.5313 16.296 35.777 16.219 35.9456 16.065C36.1216 15.911 36.2096 15.6947 36.2096 15.416C36.2096 15.1593 36.1216 14.9577 35.9456 14.811C35.777 14.657 35.5313 14.58 35.2086 14.58H33.2616V16.296H35.2086ZM40.2686 13.59C40.782 13.59 41.2146 13.7513 41.5666 14.074C41.926 14.3893 42.1056 14.7963 42.1056 15.295C42.1056 15.7937 41.926 16.2043 41.5666 16.527C41.2146 16.8423 40.782 17 40.2686 17H38.0356V11.5H38.7616V13.59H40.2686ZM42.8756 11.5H43.6016V17H42.8756V11.5ZM40.2686 16.296C40.5766 16.296 40.837 16.2043 41.0496 16.021C41.2696 15.8377 41.3796 15.5957 41.3796 15.295C41.3796 14.9943 41.2696 14.7523 41.0496 14.569C40.837 14.3857 40.5766 14.294 40.2686 14.294H38.7616V16.296H40.2686ZM53.287 11.5V17H52.561V12.611L50.636 15.735H50.548L48.623 12.611V17H47.897V11.5H48.733L50.592 14.514L52.451 11.5H53.287ZM59.4347 16.307C58.8773 16.857 58.1953 17.132 57.3887 17.132C56.582 17.132 55.8963 16.857 55.3317 16.307C54.7743 15.7497 54.4957 15.064 54.4957 14.25C54.4957 13.436 54.7743 12.754 55.3317 12.204C55.8963 11.6467 56.582 11.368 57.3887 11.368C58.1953 11.368 58.8773 11.6467 59.4347 12.204C59.9993 12.754 60.2817 13.436 60.2817 14.25C60.2817 15.064 59.9993 15.7497 59.4347 16.307ZM55.8487 15.801C56.2667 16.219 56.78 16.428 57.3887 16.428C57.9973 16.428 58.5107 16.219 58.9287 15.801C59.3467 15.3757 59.5557 14.8587 59.5557 14.25C59.5557 13.6413 59.3467 13.128 58.9287 12.71C58.5107 12.2847 57.9973 12.072 57.3887 12.072C56.78 12.072 56.2667 12.2847 55.8487 12.71C55.4307 13.128 55.2217 13.6413 55.2217 14.25C55.2217 14.8587 55.4307 15.3757 55.8487 15.801ZM67.4801 17H66.6001L64.3561 14.349V17H63.6301V14.349L61.3861 17H60.5061L62.9701 14.14L60.6161 11.5H61.4961L63.6301 13.942V11.5H64.3561V13.942L66.4901 11.5H67.3701L65.0161 14.14L67.4801 17ZM70.5688 11.368C71.3828 11.368 72.0391 11.6577 72.5378 12.237C73.0438 12.809 73.2968 13.4873 73.2968 14.272C73.2968 14.3527 73.2895 14.4663 73.2748 14.613H68.4458C68.5191 15.1703 68.7538 15.614 69.1498 15.944C69.5531 16.2667 70.0481 16.428 70.6348 16.428C71.0528 16.428 71.4121 16.3437 71.7128 16.175C72.0208 15.999 72.2518 15.7717 72.4058 15.493L73.0438 15.867C72.8018 16.2557 72.4718 16.5637 72.0538 16.791C71.6358 17.0183 71.1591 17.132 70.6238 17.132C69.7585 17.132 69.0545 16.8607 68.5118 16.318C67.9691 15.7753 67.6978 15.086 67.6978 14.25C67.6978 13.4287 67.9655 12.743 68.5008 12.193C69.0361 11.643 69.7255 11.368 70.5688 11.368ZM70.5688 12.072C69.9968 12.072 69.5165 12.2443 69.1278 12.589C68.7465 12.9263 68.5191 13.3663 68.4458 13.909H72.5488C72.4755 13.3297 72.2518 12.8787 71.8778 12.556C71.5038 12.2333 71.0675 12.072 70.5688 12.072ZM78.1968 11.5V12.204H76.2498V17H75.5238V12.204H73.5768V11.5H78.1968ZM81.4077 11.368C82.2217 11.368 82.878 11.6577 83.3767 12.237C83.8827 12.809 84.1357 13.4873 84.1357 14.272C84.1357 14.3527 84.1283 14.4663 84.1137 14.613H79.2847C79.358 15.1703 79.5927 15.614 79.9887 15.944C80.392 16.2667 80.887 16.428 81.4737 16.428C81.8917 16.428 82.251 16.3437 82.5517 16.175C82.8597 15.999 83.0907 15.7717 83.2447 15.493L83.8827 15.867C83.6407 16.2557 83.3107 16.5637 82.8927 16.791C82.4747 17.0183 81.998 17.132 81.4627 17.132C80.5973 17.132 79.8933 16.8607 79.3507 16.318C78.808 15.7753 78.5367 15.086 78.5367 14.25C78.5367 13.4287 78.8043 12.743 79.3397 12.193C79.875 11.643 80.5643 11.368 81.4077 11.368ZM81.4077 12.072C80.8357 12.072 80.3553 12.2443 79.9667 12.589C79.5853 12.9263 79.358 13.3663 79.2847 13.909H83.3877C83.3143 13.3297 83.0907 12.8787 82.7167 12.556C82.3427 12.2333 81.9063 12.072 81.4077 12.072ZM91.9345 11.5H92.6605V17H91.9345V14.602H88.7665V17H88.0405V11.5H88.7665V13.898H91.9345V11.5ZM98.9258 11.5H99.6518V17H98.9258V15.922C98.4198 16.7287 97.6791 17.132 96.7038 17.132C95.9191 17.132 95.2481 16.8533 94.6908 16.296C94.1408 15.7387 93.8658 15.0567 93.8658 14.25C93.8658 13.4433 94.1408 12.7613 94.6908 12.204C95.2481 11.6467 95.9191 11.368 96.7038 11.368C97.6791 11.368 98.4198 11.7713 98.9258 12.578V11.5ZM95.2188 15.801C95.6368 16.219 96.1501 16.428 96.7588 16.428C97.3674 16.428 97.8808 16.219 98.2988 15.801C98.7168 15.3757 98.9258 14.8587 98.9258 14.25C98.9258 13.6413 98.7168 13.128 98.2988 12.71C97.8808 12.2847 97.3674 12.072 96.7588 12.072C96.1501 12.072 95.6368 12.2847 95.2188 12.71C94.8008 13.128 94.5918 13.6413 94.5918 14.25C94.5918 14.8587 94.8008 15.3757 95.2188 15.801ZM103.752 17.132C102.923 17.132 102.234 16.857 101.684 16.307C101.134 15.7497 100.859 15.064 100.859 14.25C100.859 13.436 101.134 12.754 101.684 12.204C102.234 11.6467 102.923 11.368 103.752 11.368C104.295 11.368 104.782 11.5 105.215 11.764C105.648 12.0207 105.963 12.369 106.161 12.809L105.567 13.15C105.42 12.82 105.182 12.5597 104.852 12.369C104.529 12.171 104.163 12.072 103.752 12.072C103.143 12.072 102.63 12.2847 102.212 12.71C101.794 13.128 101.585 13.6413 101.585 14.25C101.585 14.8587 101.794 15.3757 102.212 15.801C102.63 16.219 103.143 16.428 103.752 16.428C104.163 16.428 104.529 16.3327 104.852 16.142C105.175 15.944 105.428 15.68 105.611 15.35L106.216 15.702C105.989 16.142 105.655 16.4903 105.215 16.747C104.775 17.0037 104.287 17.132 103.752 17.132ZM111.111 11.5V12.204H109.164V17H108.438V12.204H106.491V11.5H111.111ZM114.944 11.368C115.728 11.368 116.396 11.6467 116.946 12.204C117.503 12.7613 117.782 13.4433 117.782 14.25C117.782 15.0567 117.503 15.7387 116.946 16.296C116.396 16.8533 115.728 17.132 114.944 17.132C113.968 17.132 113.228 16.7287 112.722 15.922V19.2H111.996V11.5H112.722V12.578C113.228 11.7713 113.968 11.368 114.944 11.368ZM113.349 15.801C113.767 16.219 114.28 16.428 114.889 16.428C115.497 16.428 116.011 16.219 116.429 15.801C116.847 15.3757 117.056 14.8587 117.056 14.25C117.056 13.6413 116.847 13.128 116.429 12.71C116.011 12.2847 115.497 12.072 114.889 12.072C114.28 12.072 113.767 12.2847 113.349 12.71C112.931 13.128 112.722 13.6413 112.722 14.25C112.722 14.8587 112.931 15.3757 113.349 15.801ZM123.598 16.307C123.04 16.857 122.358 17.132 121.552 17.132C120.745 17.132 120.059 16.857 119.495 16.307C118.937 15.7497 118.659 15.064 118.659 14.25C118.659 13.436 118.937 12.754 119.495 12.204C120.059 11.6467 120.745 11.368 121.552 11.368C122.358 11.368 123.04 11.6467 123.598 12.204C124.162 12.754 124.445 13.436 124.445 14.25C124.445 15.064 124.162 15.7497 123.598 16.307ZM120.012 15.801C120.43 16.219 120.943 16.428 121.552 16.428C122.16 16.428 122.674 16.219 123.092 15.801C123.51 15.3757 123.719 14.8587 123.719 14.25C123.719 13.6413 123.51 13.128 123.092 12.71C122.674 12.2847 122.16 12.072 121.552 12.072C120.943 12.072 120.43 12.2847 120.012 12.71C119.594 13.128 119.385 13.6413 119.385 14.25C119.385 14.8587 119.594 15.3757 120.012 15.801ZM129.664 11.5H130.28V17H129.554V12.765L126.276 17H125.66V11.5H126.386V15.735L129.664 11.5ZM135.775 11.5V12.204H133.828V17H133.102V12.204H131.155V11.5H135.775ZM138.893 13.59C139.406 13.59 139.839 13.7513 140.191 14.074C140.55 14.3893 140.73 14.7963 140.73 15.295C140.73 15.7937 140.55 16.2043 140.191 16.527C139.839 16.8423 139.406 17 138.893 17H136.66V11.5H137.386V13.59H138.893ZM138.893 16.296C139.201 16.296 139.461 16.2043 139.674 16.021C139.894 15.8377 140.004 15.5957 140.004 15.295C140.004 14.9943 139.894 14.7523 139.674 14.569C139.461 14.3857 139.201 14.294 138.893 14.294H137.386V16.296H138.893ZM148.581 11.5H149.197V17H148.471V12.765L145.193 17H144.577V11.5H145.303V15.735L148.581 11.5ZM155.176 17H154.208L151.458 14.349V17H150.732V11.5H151.458V13.931L154.076 11.5H155.066L152.228 14.14L155.176 17ZM160.229 16.307C159.671 16.857 158.989 17.132 158.183 17.132C157.376 17.132 156.69 16.857 156.126 16.307C155.568 15.7497 155.29 15.064 155.29 14.25C155.29 13.436 155.568 12.754 156.126 12.204C156.69 11.6467 157.376 11.368 158.183 11.368C158.989 11.368 159.671 11.6467 160.229 12.204C160.793 12.754 161.076 13.436 161.076 14.25C161.076 15.064 160.793 15.7497 160.229 16.307ZM156.643 15.801C157.061 16.219 157.574 16.428 158.183 16.428C158.791 16.428 159.305 16.219 159.723 15.801C160.141 15.3757 160.35 14.8587 160.35 14.25C160.35 13.6413 160.141 13.128 159.723 12.71C159.305 12.2847 158.791 12.072 158.183 12.072C157.574 12.072 157.061 12.2847 156.643 12.71C156.225 13.128 156.016 13.6413 156.016 14.25C156.016 14.8587 156.225 15.3757 156.643 15.801ZM166.185 11.5H166.911V17H166.185V14.602H163.017V17H162.291V11.5H163.017V13.898H166.185V11.5ZM172.89 17H171.922L169.172 14.349V17H168.446V11.5H169.172V13.931L171.79 11.5H172.78L169.942 14.14L172.89 17ZM177.885 11.5H178.501V17H177.775V12.765L174.497 17H173.881V11.5H174.607V15.735L177.885 11.5ZM181.247 16.065L180.587 18.54H179.927L180.367 16.065H181.247ZM189.939 16.296H190.819V18.474H190.093V17H185.429V11.5H186.155V16.296H189.213V11.5H189.939V16.296ZM195.415 14.173C196.017 14.393 196.317 14.822 196.317 15.46C196.317 15.9073 196.167 16.2777 195.866 16.571C195.573 16.857 195.148 17 194.59 17H191.917V11.5H194.37C194.906 11.5 195.32 11.6393 195.613 11.918C195.907 12.1893 196.053 12.5413 196.053 12.974C196.053 13.524 195.841 13.9237 195.415 14.173ZM194.37 12.204H192.643V13.876H194.37C195.008 13.876 195.327 13.59 195.327 13.018C195.327 12.7613 195.243 12.5633 195.074 12.424C194.913 12.2773 194.678 12.204 194.37 12.204ZM194.59 16.296C194.913 16.296 195.159 16.219 195.327 16.065C195.503 15.911 195.591 15.6947 195.591 15.416C195.591 15.1593 195.503 14.9577 195.327 14.811C195.159 14.657 194.913 14.58 194.59 14.58H192.643V16.296H194.59ZM199.958 11.368C200.772 11.368 201.429 11.6577 201.927 12.237C202.433 12.809 202.686 13.4873 202.686 14.272C202.686 14.3527 202.679 14.4663 202.664 14.613H197.835C197.909 15.1703 198.143 15.614 198.539 15.944C198.943 16.2667 199.438 16.428 200.024 16.428C200.442 16.428 200.802 16.3437 201.102 16.175C201.41 15.999 201.641 15.7717 201.795 15.493L202.433 15.867C202.191 16.2557 201.861 16.5637 201.443 16.791C201.025 17.0183 200.549 17.132 200.013 17.132C199.148 17.132 198.444 16.8607 197.901 16.318C197.359 15.7753 197.087 15.086 197.087 14.25C197.087 13.4287 197.355 12.743 197.89 12.193C198.426 11.643 199.115 11.368 199.958 11.368ZM199.958 12.072C199.386 12.072 198.906 12.2443 198.517 12.589C198.136 12.9263 197.909 13.3663 197.835 13.909H201.938C201.865 13.3297 201.641 12.8787 201.267 12.556C200.893 12.2333 200.457 12.072 199.958 12.072ZM207.586 11.5V12.204H205.639V17H204.913V12.204H202.966V11.5H207.586ZM208.908 16.065L208.248 18.54H207.588L208.028 16.065H208.908ZM219.734 11.5H220.46V17H213.09V11.5H213.816V16.296H216.412V11.5H217.138V16.296H219.734V11.5ZM224.944 11.368C225.728 11.368 226.396 11.6467 226.946 12.204C227.503 12.7613 227.782 13.4433 227.782 14.25C227.782 15.0567 227.503 15.7387 226.946 16.296C226.396 16.8533 225.728 17.132 224.944 17.132C223.968 17.132 223.228 16.7287 222.722 15.922V19.2H221.996V11.5H222.722V12.578C223.228 11.7713 223.968 11.368 224.944 11.368ZM223.349 15.801C223.767 16.219 224.28 16.428 224.889 16.428C225.497 16.428 226.011 16.219 226.429 15.801C226.847 15.3757 227.056 14.8587 227.056 14.25C227.056 13.6413 226.847 13.128 226.429 12.71C226.011 12.2847 225.497 12.072 224.889 12.072C224.28 12.072 223.767 12.2847 223.349 12.71C222.931 13.128 222.722 13.6413 222.722 14.25C222.722 14.8587 222.931 15.3757 223.349 15.801ZM232.993 11.5H233.609V17H232.883V12.765L229.605 17H228.989V11.5H229.715V15.735L232.993 11.5ZM240.512 12.292C241.04 12.8273 241.304 13.48 241.304 14.25C241.304 15.02 241.04 15.6727 240.512 16.208C239.984 16.7433 239.287 17.0477 238.422 17.121V19.2H237.696V17.121C236.831 17.0477 236.134 16.7433 235.606 16.208C235.078 15.6727 234.814 15.02 234.814 14.25C234.814 13.48 235.078 12.8273 235.606 12.292C236.134 11.7567 236.831 11.4523 237.696 11.379V9.3H238.422V11.379C239.287 11.4523 239.984 11.7567 240.512 12.292ZM236.123 12.798C235.734 13.194 235.54 13.678 235.54 14.25C235.54 14.822 235.734 15.3097 236.123 15.713C236.512 16.109 237.036 16.34 237.696 16.406V12.094C237.036 12.16 236.512 12.3947 236.123 12.798ZM238.422 16.406C239.082 16.34 239.606 16.109 239.995 15.713C240.384 15.3097 240.578 14.822 240.578 14.25C240.578 13.678 240.384 13.194 239.995 12.798C239.606 12.3947 239.082 12.16 238.422 12.094V16.406ZM246.258 11.5V12.204H244.311V17H243.585V12.204H241.638V11.5H246.258Z" fill="#1D2530"/>
<path d="M253.429 15.1329H253.814V19.6193H253.365V15.6264L252.359 15.9276L252.244 15.5431L253.429 15.1329ZM255.607 15.1329H255.992V19.6193H255.543V15.6264L254.537 15.9276L254.422 15.5431L255.607 15.1329ZM257.491 16.9531C257.422 17.0214 257.339 17.0556 257.241 17.0556C257.142 17.0556 257.059 17.0214 256.991 16.9531C256.922 16.8847 256.888 16.8014 256.888 16.7031C256.888 16.6049 256.922 16.5215 256.991 16.4532C257.059 16.3848 257.142 16.3506 257.241 16.3506C257.339 16.3506 257.422 16.3848 257.491 16.4532C257.559 16.5215 257.593 16.6049 257.593 16.7031C257.593 16.8014 257.559 16.8847 257.491 16.9531ZM257.491 19.5808C257.422 19.6492 257.339 19.6834 257.241 19.6834C257.142 19.6834 257.059 19.6492 256.991 19.5808C256.922 19.5124 256.888 19.4291 256.888 19.3309C256.888 19.2326 256.922 19.1493 256.991 19.0809C257.059 19.0125 257.142 18.9784 257.241 18.9784C257.339 18.9784 257.422 19.0125 257.491 19.0809C257.559 19.1493 257.593 19.2326 257.593 19.3309C257.593 19.4291 257.559 19.5124 257.491 19.5808ZM261.249 19.0681C260.955 19.4868 260.538 19.6962 260 19.6962C259.461 19.6962 259.043 19.4868 258.743 19.0681C258.449 18.6451 258.301 18.0811 258.301 17.3761C258.301 16.6711 258.449 16.1092 258.743 15.6905C259.043 15.2675 259.461 15.056 260 15.056C260.538 15.056 260.955 15.2675 261.249 15.6905C261.548 16.1092 261.698 16.6711 261.698 17.3761C261.698 18.0811 261.548 18.6451 261.249 19.0681ZM259.077 18.7669C259.299 19.0959 259.607 19.2604 260 19.2604C260.393 19.2604 260.698 19.0959 260.916 18.7669C261.138 18.4379 261.249 17.9743 261.249 17.3761C261.249 16.7779 261.138 16.3143 260.916 15.9853C260.698 15.6563 260.393 15.4918 260 15.4918C259.607 15.4918 259.299 15.6563 259.077 15.9853C258.859 16.3143 258.75 16.7779 258.75 17.3761C258.75 17.9743 258.859 18.4379 259.077 18.7669ZM263.716 16.7352C264.156 16.7352 264.517 16.874 264.799 17.1518C265.081 17.4252 265.222 17.7799 265.222 18.2157C265.222 18.6515 265.081 19.0083 264.799 19.286C264.517 19.5594 264.156 19.6962 263.716 19.6962C263.276 19.6962 262.915 19.5594 262.633 19.286C262.351 19.0083 262.21 18.6515 262.21 18.2157C262.21 17.8781 262.302 17.579 262.486 17.3184L263.953 15.1329H264.46L263.357 16.7736C263.473 16.748 263.592 16.7352 263.716 16.7352ZM262.947 18.9719C263.144 19.1642 263.4 19.2604 263.716 19.2604C264.032 19.2604 264.287 19.1642 264.479 18.9719C264.675 18.7797 264.774 18.5276 264.774 18.2157C264.774 17.9038 264.675 17.6517 264.479 17.4594C264.287 17.2671 264.032 17.171 263.716 17.171C263.4 17.171 263.144 17.2671 262.947 17.4594C262.755 17.6517 262.659 17.9038 262.659 18.2157C262.659 18.5276 262.755 18.7797 262.947 18.9719Z" fill="#8E8E93"/>
</svg>
