<svg width="265" height="83" viewBox="0 0 265 83" fill="none" xmlns="http://www.w3.org/2000/svg">
<path d="M0 4C0 1.79086 1.79086 0 4 0H265V79C265 81.2091 263.209 83 261 83H4C1.79086 83 0 81.2091 0 79V4Z" fill="#F5F7F8"/>
<path d="M15.9935 15.0808H16.8185V17.2808H16.0485V15.8068H10.5485V17.2808H9.77846V15.0808H10.4055C10.9115 14.4868 11.1645 13.5702 11.1645 12.3308V8.10682H15.9935V15.0808ZM11.3185 15.0808H15.2235V8.83282H11.9345V12.3528C11.9345 13.5702 11.7291 14.4795 11.3185 15.0808ZM22.3723 15.1138C21.815 15.6638 21.133 15.9388 20.3263 15.9388C19.5197 15.9388 18.834 15.6638 18.2693 15.1138C17.712 14.5565 17.4333 13.8708 17.4333 13.0568C17.4333 12.2428 17.712 11.5608 18.2693 11.0108C18.834 10.4535 19.5197 10.1748 20.3263 10.1748C21.133 10.1748 21.815 10.4535 22.3723 11.0108C22.937 11.5608 23.2193 12.2428 23.2193 13.0568C23.2193 13.8708 22.937 14.5565 22.3723 15.1138ZM18.7863 14.6078C19.2043 15.0258 19.7177 15.2348 20.3263 15.2348C20.935 15.2348 21.4483 15.0258 21.8663 14.6078C22.2843 14.1825 22.4933 13.6655 22.4933 13.0568C22.4933 12.4482 22.2843 11.9348 21.8663 11.5168C21.4483 11.0915 20.935 10.8788 20.3263 10.8788C19.7177 10.8788 19.2043 11.0915 18.7863 11.5168C18.3683 11.9348 18.1593 12.4482 18.1593 13.0568C18.1593 13.6655 18.3683 14.1825 18.7863 14.6078ZM26.8762 15.9388C26.0842 15.9388 25.4242 15.6785 24.8962 15.1578C24.3682 14.6298 24.1042 13.9478 24.1042 13.1118C24.1042 12.1732 24.2436 11.4545 24.5222 10.9558C24.8009 10.4498 25.3656 9.99149 26.2162 9.58082C26.3776 9.50016 26.5902 9.40482 26.8542 9.29482C27.1256 9.18482 27.3272 9.09682 27.4592 9.03082C27.5986 8.96482 27.7489 8.88049 27.9102 8.77782C28.0716 8.66782 28.1926 8.54682 28.2732 8.41482C28.3539 8.28282 28.4052 8.12516 28.4272 7.94182L28.9992 8.27182C28.9699 8.44782 28.9112 8.61282 28.8232 8.76682C28.7352 8.92082 28.6436 9.04549 28.5482 9.14082C28.4602 9.23616 28.3172 9.34249 28.1192 9.45982C27.9286 9.56982 27.7782 9.65049 27.6682 9.70182C27.5656 9.74582 27.3822 9.82282 27.1182 9.93282C26.8616 10.0428 26.6892 10.1162 26.6012 10.1528C26.0879 10.3728 25.7102 10.6038 25.4682 10.8458C25.2262 11.0805 25.0539 11.3885 24.9512 11.7698C25.2006 11.4398 25.5159 11.1978 25.8972 11.0438C26.2859 10.8825 26.6636 10.8018 27.0302 10.8018C27.7636 10.8018 28.3686 11.0438 28.8452 11.5278C29.3292 12.0045 29.5712 12.6168 29.5712 13.3648C29.5712 14.1055 29.3146 14.7215 28.8012 15.2128C28.2952 15.6968 27.6536 15.9388 26.8762 15.9388ZM26.8762 15.2128C27.4482 15.2128 27.9176 15.0405 28.2842 14.6958C28.6582 14.3438 28.8452 13.9002 28.8452 13.3648C28.8452 12.8222 28.6692 12.3785 28.3172 12.0338C27.9726 11.6818 27.5106 11.5058 26.9312 11.5058C26.4106 11.5058 25.9376 11.6708 25.5122 12.0008C25.0869 12.3235 24.8742 12.7562 24.8742 13.2988C24.8742 13.8562 25.0649 14.3145 25.4462 14.6738C25.8349 15.0332 26.3116 15.2128 26.8762 15.2128ZM33.6235 10.1748C34.4081 10.1748 35.0755 10.4535 35.6255 11.0108C36.1828 11.5682 36.4615 12.2502 36.4615 13.0568C36.4615 13.8635 36.1828 14.5455 35.6255 15.1028C35.0755 15.6602 34.4081 15.9388 33.6235 15.9388C32.6481 15.9388 31.9075 15.5355 31.4015 14.7288V18.0068H30.6755V10.3068H31.4015V11.3848C31.9075 10.5782 32.6481 10.1748 33.6235 10.1748ZM32.0285 14.6078C32.4465 15.0258 32.9598 15.2348 33.5685 15.2348C34.1771 15.2348 34.6905 15.0258 35.1085 14.6078C35.5265 14.1825 35.7355 13.6655 35.7355 13.0568C35.7355 12.4482 35.5265 11.9348 35.1085 11.5168C34.6905 11.0915 34.1771 10.8788 33.5685 10.8788C32.9598 10.8788 32.4465 11.0915 32.0285 11.5168C31.6105 11.9348 31.4015 12.4482 31.4015 13.0568C31.4015 13.6655 31.6105 14.1825 32.0285 14.6078ZM39.9016 12.3968C40.415 12.3968 40.8476 12.5582 41.1996 12.8808C41.559 13.1962 41.7386 13.6032 41.7386 14.1018C41.7386 14.6005 41.559 15.0112 41.1996 15.3338C40.8476 15.6492 40.415 15.8068 39.9016 15.8068H37.6686V10.3068H38.3946V12.3968H39.9016ZM42.5086 10.3068H43.2346V15.8068H42.5086V10.3068ZM39.9016 15.1028C40.2096 15.1028 40.47 15.0112 40.6826 14.8278C40.9026 14.6445 41.0126 14.4025 41.0126 14.1018C41.0126 13.8012 40.9026 13.5592 40.6826 13.3758C40.47 13.1925 40.2096 13.1008 39.9016 13.1008H38.3946V15.1028H39.9016ZM45.6599 9.42682V8.78882H48.5199V9.42682H45.6599ZM48.7839 10.3068H49.3999V15.8068H48.6739V11.5718L45.3959 15.8068H44.7799V10.3068H45.5059V14.5418L48.7839 10.3068ZM58.3052 15.1028H59.0752V17.2808H58.3492V15.8068H53.8612V17.2808H53.1352V15.1028H53.8062C54.1802 14.6115 54.3672 13.9185 54.3672 13.0238V10.3068H58.3052V15.1028ZM54.6862 15.1028H57.5792V11.0108H55.0932V13.0238C55.0932 13.8672 54.9576 14.5602 54.6862 15.1028ZM62.4997 10.1748C63.3137 10.1748 63.97 10.4645 64.4687 11.0438C64.9747 11.6158 65.2277 12.2942 65.2277 13.0788C65.2277 13.1595 65.2203 13.2732 65.2057 13.4198H60.3767C60.45 13.9772 60.6847 14.4208 61.0807 14.7508C61.484 15.0735 61.979 15.2348 62.5657 15.2348C62.9837 15.2348 63.343 15.1505 63.6437 14.9818C63.9517 14.8058 64.1827 14.5785 64.3367 14.2998L64.9747 14.6738C64.7327 15.0625 64.4027 15.3705 63.9847 15.5978C63.5667 15.8252 63.09 15.9388 62.5547 15.9388C61.6893 15.9388 60.9853 15.6675 60.4427 15.1248C59.9 14.5822 59.6287 13.8928 59.6287 13.0568C59.6287 12.2355 59.8963 11.5498 60.4317 10.9998C60.967 10.4498 61.6563 10.1748 62.4997 10.1748ZM62.4997 10.8788C61.9277 10.8788 61.4473 11.0512 61.0587 11.3958C60.6773 11.7332 60.45 12.1732 60.3767 12.7158H64.4797C64.4063 12.1365 64.1827 11.6855 63.8087 11.3628C63.4347 11.0402 62.9983 10.8788 62.4997 10.8788ZM70.2765 10.3068H71.0025V15.8068H70.2765V13.4088H67.1085V15.8068H66.3825V10.3068H67.1085V12.7048H70.2765V10.3068ZM74.7708 12.3968C75.2841 12.3968 75.7168 12.5582 76.0688 12.8808C76.4281 13.1962 76.6078 13.6032 76.6078 14.1018C76.6078 14.6005 76.4281 15.0112 76.0688 15.3338C75.7168 15.6492 75.2841 15.8068 74.7708 15.8068H72.5378V10.3068H73.2638V12.3968H74.7708ZM74.7708 15.1028C75.0788 15.1028 75.3391 15.0112 75.5518 14.8278C75.7718 14.6445 75.8818 14.4025 75.8818 14.1018C75.8818 13.8012 75.7718 13.5592 75.5518 13.3758C75.3391 13.1925 75.0788 13.1008 74.7708 13.1008H73.2638V15.1028H74.7708ZM78.5213 15.7408C78.404 15.8582 78.261 15.9168 78.0923 15.9168C77.9237 15.9168 77.7807 15.8582 77.6633 15.7408C77.546 15.6235 77.4873 15.4805 77.4873 15.3118C77.4873 15.1432 77.546 15.0002 77.6633 14.8828C77.7807 14.7655 77.9237 14.7068 78.0923 14.7068C78.261 14.7068 78.404 14.7655 78.5213 14.8828C78.6387 15.0002 78.6973 15.1432 78.6973 15.3118C78.6973 15.4805 78.6387 15.6235 78.5213 15.7408ZM87.8325 8.10682V8.83282H85.4675V15.8068H84.6975V8.83282H82.3325V8.10682H87.8325ZM92.4436 15.1138C91.8863 15.6638 91.2043 15.9388 90.3976 15.9388C89.591 15.9388 88.9053 15.6638 88.3406 15.1138C87.7833 14.5565 87.5046 13.8708 87.5046 13.0568C87.5046 12.2428 87.7833 11.5608 88.3406 11.0108C88.9053 10.4535 89.591 10.1748 90.3976 10.1748C91.2043 10.1748 91.8863 10.4535 92.4436 11.0108C93.0083 11.5608 93.2906 12.2428 93.2906 13.0568C93.2906 13.8708 93.0083 14.5565 92.4436 15.1138ZM88.8576 14.6078C89.2756 15.0258 89.789 15.2348 90.3976 15.2348C91.0063 15.2348 91.5196 15.0258 91.9376 14.6078C92.3556 14.1825 92.5646 13.6655 92.5646 13.0568C92.5646 12.4482 92.3556 11.9348 91.9376 11.5168C91.5196 11.0915 91.0063 10.8788 90.3976 10.8788C89.789 10.8788 89.2756 11.0915 88.8576 11.5168C88.4396 11.9348 88.2306 12.4482 88.2306 13.0568C88.2306 13.6655 88.4396 14.1825 88.8576 14.6078ZM97.0685 15.9388C96.2399 15.9388 95.5505 15.6638 95.0005 15.1138C94.4505 14.5565 94.1755 13.8708 94.1755 13.0568C94.1755 12.2428 94.4505 11.5608 95.0005 11.0108C95.5505 10.4535 96.2399 10.1748 97.0685 10.1748C97.6112 10.1748 98.0989 10.3068 98.5315 10.5708C98.9642 10.8275 99.2795 11.1758 99.4775 11.6158L98.8835 11.9568C98.7369 11.6268 98.4985 11.3665 98.1685 11.1758C97.8459 10.9778 97.4792 10.8788 97.0685 10.8788C96.4599 10.8788 95.9465 11.0915 95.5285 11.5168C95.1105 11.9348 94.9015 12.4482 94.9015 13.0568C94.9015 13.6655 95.1105 14.1825 95.5285 14.6078C95.9465 15.0258 96.4599 15.2348 97.0685 15.2348C97.4792 15.2348 97.8459 15.1395 98.1685 14.9488C98.4912 14.7508 98.7442 14.4868 98.9275 14.1568L99.5325 14.5088C99.3052 14.9488 98.9715 15.2972 98.5315 15.5538C98.0915 15.8105 97.6039 15.9388 97.0685 15.9388ZM103.149 10.1748C103.816 10.1748 104.341 10.3802 104.722 10.7908C105.111 11.1942 105.305 11.7405 105.305 12.4298V15.8068H104.579V12.4298C104.579 11.9385 104.447 11.5572 104.183 11.2858C103.926 11.0145 103.56 10.8788 103.083 10.8788C102.555 10.8788 102.126 11.0475 101.796 11.3848C101.466 11.7148 101.301 12.2282 101.301 12.9248V15.8068H100.575V8.10682H101.301V11.1648C101.712 10.5048 102.328 10.1748 103.149 10.1748ZM111.439 10.3068H112.165V15.8068H111.439V14.7288C110.933 15.5355 110.192 15.9388 109.217 15.9388C108.432 15.9388 107.761 15.6602 107.204 15.1028C106.654 14.5455 106.379 13.8635 106.379 13.0568C106.379 12.2502 106.654 11.5682 107.204 11.0108C107.761 10.4535 108.432 10.1748 109.217 10.1748C110.192 10.1748 110.933 10.5782 111.439 11.3848V10.3068ZM107.732 14.6078C108.15 15.0258 108.663 15.2348 109.272 15.2348C109.88 15.2348 110.394 15.0258 110.812 14.6078C111.23 14.1825 111.439 13.6655 111.439 13.0568C111.439 12.4482 111.23 11.9348 110.812 11.5168C110.394 11.0915 109.88 10.8788 109.272 10.8788C108.663 10.8788 108.15 11.0915 107.732 11.5168C107.314 11.9348 107.105 12.4482 107.105 13.0568C107.105 13.6655 107.314 14.1825 107.732 14.6078ZM122.931 14.7838C122.161 15.5538 121.218 15.9388 120.104 15.9388C118.989 15.9388 118.047 15.5538 117.277 14.7838C116.507 14.0065 116.122 13.0642 116.122 11.9568C116.122 10.8495 116.507 9.91082 117.277 9.14082C118.047 8.36349 118.989 7.97482 120.104 7.97482C121.218 7.97482 122.161 8.36349 122.931 9.14082C123.701 9.91082 124.086 10.8495 124.086 11.9568C124.086 13.0642 123.701 14.0065 122.931 14.7838ZM117.816 14.2558C118.432 14.8792 119.194 15.1908 120.104 15.1908C121.013 15.1908 121.776 14.8792 122.392 14.2558C123.008 13.6252 123.316 12.8588 123.316 11.9568C123.316 11.0548 123.008 10.2922 122.392 9.66882C121.776 9.03816 121.013 8.72282 120.104 8.72282C119.194 8.72282 118.432 9.03816 117.816 9.66882C117.2 10.2922 116.892 11.0548 116.892 11.9568C116.892 12.8588 117.2 13.6252 117.816 14.2558ZM127.867 10.1748C128.534 10.1748 129.058 10.3802 129.44 10.7908C129.828 11.1942 130.023 11.7405 130.023 12.4298V15.8068H129.297V12.4298C129.297 11.9385 129.165 11.5572 128.901 11.2858C128.644 11.0145 128.277 10.8788 127.801 10.8788C127.273 10.8788 126.844 11.0475 126.514 11.3848C126.184 11.7148 126.019 12.2282 126.019 12.9248V15.8068H125.293V10.3068H126.019V11.1648C126.429 10.5048 127.045 10.1748 127.867 10.1748ZM131.426 15.8068V7.77682H132.152V15.8068H131.426ZM134.43 8.98682C134.327 9.08949 134.203 9.14082 134.056 9.14082C133.909 9.14082 133.785 9.08949 133.682 8.98682C133.579 8.88416 133.528 8.75949 133.528 8.61282C133.528 8.46616 133.579 8.34149 133.682 8.23882C133.785 8.13616 133.909 8.08482 134.056 8.08482C134.203 8.08482 134.327 8.13616 134.43 8.23882C134.533 8.34149 134.584 8.46616 134.584 8.61282C134.584 8.75949 134.533 8.88416 134.43 8.98682ZM133.693 15.8068V10.3068H134.419V15.8068H133.693ZM138.534 10.1748C139.201 10.1748 139.725 10.3802 140.107 10.7908C140.495 11.1942 140.69 11.7405 140.69 12.4298V15.8068H139.964V12.4298C139.964 11.9385 139.832 11.5572 139.568 11.2858C139.311 11.0145 138.944 10.8788 138.468 10.8788C137.94 10.8788 137.511 11.0475 137.181 11.3848C136.851 11.7148 136.686 12.2282 136.686 12.9248V15.8068H135.96V10.3068H136.686V11.1648C137.096 10.5048 137.712 10.1748 138.534 10.1748ZM144.634 10.1748C145.448 10.1748 146.105 10.4645 146.603 11.0438C147.109 11.6158 147.362 12.2942 147.362 13.0788C147.362 13.1595 147.355 13.2732 147.34 13.4198H142.511C142.585 13.9772 142.819 14.4208 143.215 14.7508C143.619 15.0735 144.114 15.2348 144.7 15.2348C145.118 15.2348 145.478 15.1505 145.778 14.9818C146.086 14.8058 146.317 14.5785 146.471 14.2998L147.109 14.6738C146.867 15.0625 146.537 15.3705 146.119 15.5978C145.701 15.8252 145.225 15.9388 144.689 15.9388C143.824 15.9388 143.12 15.6675 142.577 15.1248C142.035 14.5822 141.763 13.8928 141.763 13.0568C141.763 12.2355 142.031 11.5498 142.566 10.9998C143.102 10.4498 143.791 10.1748 144.634 10.1748ZM144.634 10.8788C144.062 10.8788 143.582 11.0512 143.193 11.3958C142.812 11.7332 142.585 12.1732 142.511 12.7158H146.614C146.541 12.1365 146.317 11.6855 145.943 11.3628C145.569 11.0402 145.133 10.8788 144.634 10.8788ZM151.377 12.7598V12.0558H157.977V12.7598H151.377ZM166.335 10.3068H167.105L164.751 16.3128C164.538 16.8555 164.234 17.2808 163.838 17.5888C163.449 17.9042 163.013 18.0435 162.529 18.0068V17.3248C163.189 17.3982 163.691 17.0168 164.036 16.1808L164.179 15.8398L161.715 10.3068H162.485L164.553 14.9158L166.335 10.3068ZM172.269 15.1028H173.039V17.2808H172.313V15.8068H167.825V17.2808H167.099V15.1028H167.77C168.144 14.6115 168.331 13.9185 168.331 13.0238V10.3068H172.269V15.1028ZM168.65 15.1028H171.543V11.0108H169.057V13.0238C169.057 13.8672 168.921 14.5602 168.65 15.1028ZM178.532 15.1138C177.974 15.6638 177.292 15.9388 176.486 15.9388C175.679 15.9388 174.993 15.6638 174.429 15.1138C173.871 14.5565 173.593 13.8708 173.593 13.0568C173.593 12.2428 173.871 11.5608 174.429 11.0108C174.993 10.4535 175.679 10.1748 176.486 10.1748C177.292 10.1748 177.974 10.4535 178.532 11.0108C179.096 11.5608 179.379 12.2428 179.379 13.0568C179.379 13.8708 179.096 14.5565 178.532 15.1138ZM174.946 14.6078C175.364 15.0258 175.877 15.2348 176.486 15.2348C177.094 15.2348 177.608 15.0258 178.026 14.6078C178.444 14.1825 178.653 13.6655 178.653 13.0568C178.653 12.4482 178.444 11.9348 178.026 11.5168C177.608 11.0915 177.094 10.8788 176.486 10.8788C175.877 10.8788 175.364 11.0915 174.946 11.5168C174.528 11.9348 174.319 12.4482 174.319 13.0568C174.319 13.6655 174.528 14.1825 174.946 14.6078ZM183.035 15.9388C182.243 15.9388 181.583 15.6785 181.055 15.1578C180.527 14.6298 180.263 13.9478 180.263 13.1118C180.263 12.1732 180.403 11.4545 180.681 10.9558C180.96 10.4498 181.525 9.99149 182.375 9.58082C182.537 9.50016 182.749 9.40482 183.013 9.29482C183.285 9.18482 183.486 9.09682 183.618 9.03082C183.758 8.96482 183.908 8.88049 184.069 8.77782C184.231 8.66782 184.352 8.54682 184.432 8.41482C184.513 8.28282 184.564 8.12516 184.586 7.94182L185.158 8.27182C185.129 8.44782 185.07 8.61282 184.982 8.76682C184.894 8.92082 184.803 9.04549 184.707 9.14082C184.619 9.23616 184.476 9.34249 184.278 9.45982C184.088 9.56982 183.937 9.65049 183.827 9.70182C183.725 9.74582 183.541 9.82282 183.277 9.93282C183.021 10.0428 182.848 10.1162 182.76 10.1528C182.247 10.3728 181.869 10.6038 181.627 10.8458C181.385 11.0805 181.213 11.3885 181.11 11.7698C181.36 11.4398 181.675 11.1978 182.056 11.0438C182.445 10.8825 182.823 10.8018 183.189 10.8018C183.923 10.8018 184.528 11.0438 185.004 11.5278C185.488 12.0045 185.73 12.6168 185.73 13.3648C185.73 14.1055 185.474 14.7215 184.96 15.2128C184.454 15.6968 183.813 15.9388 183.035 15.9388ZM183.035 15.2128C183.607 15.2128 184.077 15.0405 184.443 14.6958C184.817 14.3438 185.004 13.9002 185.004 13.3648C185.004 12.8222 184.828 12.3785 184.476 12.0338C184.132 11.6818 183.67 11.5058 183.09 11.5058C182.57 11.5058 182.097 11.6708 181.671 12.0008C181.246 12.3235 181.033 12.7562 181.033 13.2988C181.033 13.8562 181.224 14.3145 181.605 14.6738C181.994 15.0332 182.471 15.2128 183.035 15.2128ZM190.729 10.3068H191.455V15.8068H190.729V13.4088H187.561V15.8068H186.835V10.3068H187.561V12.7048H190.729V10.3068ZM195.223 12.3968C195.736 12.3968 196.169 12.5582 196.521 12.8808C196.88 13.1962 197.06 13.6032 197.06 14.1018C197.06 14.6005 196.88 15.0112 196.521 15.3338C196.169 15.6492 195.736 15.8068 195.223 15.8068H192.99V10.3068H193.716V12.3968H195.223ZM197.83 10.3068H198.556V15.8068H197.83V10.3068ZM195.223 15.1028C195.531 15.1028 195.791 15.0112 196.004 14.8278C196.224 14.6445 196.334 14.4025 196.334 14.1018C196.334 13.8012 196.224 13.5592 196.004 13.3758C195.791 13.1925 195.531 13.1008 195.223 13.1008H193.716V15.1028H195.223ZM200.981 9.42682V8.78882H203.841V9.42682H200.981ZM204.105 10.3068H204.721V15.8068H203.995V11.5718L200.717 15.8068H200.101V10.3068H200.827V14.5418L204.105 10.3068ZM14.3875 25.3068H15.0035V30.8068H14.2775V26.5718L10.9995 30.8068H10.3835V25.3068H11.1095V29.5418L14.3875 25.3068ZM20.4327 25.3068H21.1587V30.8068H20.4327V28.4088H17.2647V30.8068H16.5387V25.3068H17.2647V27.7048H20.4327V25.3068ZM25.257 30.9388C24.4283 30.9388 23.739 30.6638 23.189 30.1138C22.639 29.5565 22.364 28.8708 22.364 28.0568C22.364 27.2428 22.639 26.5608 23.189 26.0108C23.739 25.4535 24.4283 25.1748 25.257 25.1748C25.7997 25.1748 26.2873 25.3068 26.72 25.5708C27.1527 25.8275 27.468 26.1758 27.666 26.6158L27.072 26.9568C26.9253 26.6268 26.687 26.3665 26.357 26.1758C26.0343 25.9778 25.6677 25.8788 25.257 25.8788C24.6483 25.8788 24.135 26.0915 23.717 26.5168C23.299 26.9348 23.09 27.4482 23.09 28.0568C23.09 28.6655 23.299 29.1825 23.717 29.6078C24.135 30.0258 24.6483 30.2348 25.257 30.2348C25.6677 30.2348 26.0343 30.1395 26.357 29.9488C26.6797 29.7508 26.9327 29.4868 27.116 29.1568L27.721 29.5088C27.4937 29.9488 27.16 30.2972 26.72 30.5538C26.28 30.8105 25.7923 30.9388 25.257 30.9388ZM32.6159 25.3068V26.0108H30.6689V30.8068H29.9429V26.0108H27.9959V25.3068H32.6159ZM36.4487 25.1748C37.2333 25.1748 37.9007 25.4535 38.4507 26.0108C39.008 26.5682 39.2867 27.2502 39.2867 28.0568C39.2867 28.8635 39.008 29.5455 38.4507 30.1028C37.9007 30.6602 37.2333 30.9388 36.4487 30.9388C35.4733 30.9388 34.7327 30.5355 34.2267 29.7288V33.0068H33.5007V25.3068H34.2267V26.3848C34.7327 25.5782 35.4733 25.1748 36.4487 25.1748ZM34.8537 29.6078C35.2717 30.0258 35.785 30.2348 36.3937 30.2348C37.0023 30.2348 37.5157 30.0258 37.9337 29.6078C38.3517 29.1825 38.5607 28.6655 38.5607 28.0568C38.5607 27.4482 38.3517 26.9348 37.9337 26.5168C37.5157 26.0915 37.0023 25.8788 36.3937 25.8788C35.785 25.8788 35.2717 26.0915 34.8537 26.5168C34.4357 26.9348 34.2267 27.4482 34.2267 28.0568C34.2267 28.6655 34.4357 29.1825 34.8537 29.6078ZM44.239 25.3068H45.009L42.655 31.3128C42.4423 31.8555 42.138 32.2808 41.742 32.5888C41.3533 32.9042 40.917 33.0435 40.433 33.0068V32.3248C41.093 32.3982 41.5953 32.0168 41.94 31.1808L42.083 30.8398L39.619 25.3068H40.389L42.457 29.9158L44.239 25.3068ZM51.2764 25.3068V30.8068H50.5504V26.4178L48.6254 29.5418H48.5374L46.6124 26.4178V30.8068H45.8864V25.3068H46.7224L48.5814 28.3208L50.4404 25.3068H51.2764ZM55.3561 25.1748C56.1701 25.1748 56.8264 25.4645 57.3251 26.0438C57.8311 26.6158 58.0841 27.2942 58.0841 28.0788C58.0841 28.1595 58.0768 28.2732 58.0621 28.4198H53.2331C53.3064 28.9772 53.5411 29.4208 53.9371 29.7508C54.3404 30.0735 54.8354 30.2348 55.4221 30.2348C55.8401 30.2348 56.1994 30.1505 56.5001 29.9818C56.8081 29.8058 57.0391 29.5785 57.1931 29.2998L57.8311 29.6738C57.5891 30.0625 57.2591 30.3705 56.8411 30.5978C56.4231 30.8252 55.9464 30.9388 55.4111 30.9388C54.5458 30.9388 53.8418 30.6675 53.2991 30.1248C52.7564 29.5822 52.4851 28.8928 52.4851 28.0568C52.4851 27.2355 52.7528 26.5498 53.2881 25.9998C53.8234 25.4498 54.5128 25.1748 55.3561 25.1748ZM55.3561 25.8788C54.7841 25.8788 54.3038 26.0512 53.9151 26.3958C53.5338 26.7332 53.3064 27.1732 53.2331 27.7158H57.3361C57.2628 27.1365 57.0391 26.6855 56.6651 26.3628C56.2911 26.0402 55.8548 25.8788 55.3561 25.8788ZM63.1329 25.3068H63.8589V30.8068H63.1329V28.4088H59.9649V30.8068H59.2389V25.3068H59.9649V27.7048H63.1329V25.3068ZM69.3542 25.3068V26.0108H67.4072V30.8068H66.6812V26.0108H64.7342V25.3068H69.3542ZM77.6089 30.1028H78.3789V32.2808H77.6529V30.8068H73.1649V32.2808H72.4389V30.1028H73.1099C73.4839 29.6115 73.6709 28.9185 73.6709 28.0238V25.3068H77.6089V30.1028ZM73.9899 30.1028H76.8829V26.0108H74.3969V28.0238C74.3969 28.8672 74.2613 29.5602 73.9899 30.1028ZM83.9872 25.3068V30.8068H83.2612V26.0108H80.7752V28.4638C80.7752 29.3805 80.5992 30.0112 80.2472 30.3558C79.9025 30.7005 79.4259 30.8508 78.8172 30.8068V30.1248C79.2352 30.1688 79.5432 30.0698 79.7412 29.8278C79.9465 29.5858 80.0492 29.1312 80.0492 28.4638V25.3068H83.9872ZM89.4851 25.3068V30.8068H88.7591V28.6948H87.8131L86.1191 30.8068H85.1951L86.9331 28.6728C86.4931 28.6068 86.1301 28.4235 85.8441 28.1228C85.5581 27.8222 85.4151 27.4518 85.4151 27.0118C85.4151 26.5132 85.5911 26.1062 85.9431 25.7908C86.3024 25.4682 86.7387 25.3068 87.2521 25.3068H89.4851ZM87.2521 28.0128H88.7591V26.0108H87.2521C86.9441 26.0108 86.6801 26.1025 86.4601 26.2858C86.2474 26.4692 86.1411 26.7112 86.1411 27.0118C86.1411 27.3125 86.2474 27.5545 86.4601 27.7378C86.6801 27.9212 86.9441 28.0128 87.2521 28.0128ZM98.3841 30.1138C97.8267 30.6638 97.1447 30.9388 96.3381 30.9388C95.5314 30.9388 94.8457 30.6638 94.2811 30.1138C93.7237 29.5565 93.4451 28.8708 93.4451 28.0568C93.4451 27.2428 93.7237 26.5608 94.2811 26.0108C94.8457 25.4535 95.5314 25.1748 96.3381 25.1748C97.1447 25.1748 97.8267 25.4535 98.3841 26.0108C98.9487 26.5608 99.2311 27.2428 99.2311 28.0568C99.2311 28.8708 98.9487 29.5565 98.3841 30.1138ZM94.7981 29.6078C95.2161 30.0258 95.7294 30.2348 96.3381 30.2348C96.9467 30.2348 97.4601 30.0258 97.8781 29.6078C98.2961 29.1825 98.5051 28.6655 98.5051 28.0568C98.5051 27.4482 98.2961 26.9348 97.8781 26.5168C97.4601 26.0915 96.9467 25.8788 96.3381 25.8788C95.7294 25.8788 95.2161 26.0915 94.7981 26.5168C94.3801 26.9348 94.1711 27.4482 94.1711 28.0568C94.1711 28.6655 94.3801 29.1825 94.7981 29.6078ZM102.888 30.9388C102.096 30.9388 101.436 30.6785 100.908 30.1578C100.38 29.6298 100.116 28.9478 100.116 28.1118C100.116 27.1732 100.255 26.4545 100.534 25.9558C100.813 25.4498 101.377 24.9915 102.228 24.5808C102.389 24.5002 102.602 24.4048 102.866 24.2948C103.137 24.1848 103.339 24.0968 103.471 24.0308C103.61 23.9648 103.761 23.8805 103.922 23.7778C104.083 23.6678 104.204 23.5468 104.285 23.4148C104.366 23.2828 104.417 23.1252 104.439 22.9418L105.011 23.2718C104.982 23.4478 104.923 23.6128 104.835 23.7668C104.747 23.9208 104.655 24.0455 104.56 24.1408C104.472 24.2362 104.329 24.3425 104.131 24.4598C103.94 24.5698 103.79 24.6505 103.68 24.7018C103.577 24.7458 103.394 24.8228 103.13 24.9328C102.873 25.0428 102.701 25.1162 102.613 25.1528C102.1 25.3728 101.722 25.6038 101.48 25.8458C101.238 26.0805 101.066 26.3885 100.963 26.7698C101.212 26.4398 101.528 26.1978 101.909 26.0438C102.298 25.8825 102.675 25.8018 103.042 25.8018C103.775 25.8018 104.38 26.0438 104.857 26.5278C105.341 27.0045 105.583 27.6168 105.583 28.3648C105.583 29.1055 105.326 29.7215 104.813 30.2128C104.307 30.6968 103.665 30.9388 102.888 30.9388ZM102.888 30.2128C103.46 30.2128 103.929 30.0405 104.296 29.6958C104.67 29.3438 104.857 28.9002 104.857 28.3648C104.857 27.8222 104.681 27.3785 104.329 27.0338C103.984 26.6818 103.522 26.5058 102.943 26.5058C102.422 26.5058 101.949 26.6708 101.524 27.0008C101.099 27.3235 100.886 27.7562 100.886 28.2988C100.886 28.8562 101.077 29.3145 101.458 29.6738C101.847 30.0332 102.323 30.2128 102.888 30.2128ZM114.057 30.1028H114.827V32.2808H114.101V30.8068H106.687V25.3068H107.413V30.1028H110.009V25.3068H110.735V30.1028H113.331V25.3068H114.057V30.1028ZM118.252 25.1748C119.066 25.1748 119.722 25.4645 120.221 26.0438C120.727 26.6158 120.98 27.2942 120.98 28.0788C120.98 28.1595 120.972 28.2732 120.958 28.4198H116.129C116.202 28.9772 116.437 29.4208 116.833 29.7508C117.236 30.0735 117.731 30.2348 118.318 30.2348C118.736 30.2348 119.095 30.1505 119.396 29.9818C119.704 29.8058 119.935 29.5785 120.089 29.2998L120.727 29.6738C120.485 30.0625 120.155 30.3705 119.737 30.5978C119.319 30.8252 118.842 30.9388 118.307 30.9388C117.441 30.9388 116.737 30.6675 116.195 30.1248C115.652 29.5822 115.381 28.8928 115.381 28.0568C115.381 27.2355 115.648 26.5498 116.184 25.9998C116.719 25.4498 117.408 25.1748 118.252 25.1748ZM118.252 25.8788C117.68 25.8788 117.199 26.0512 116.811 26.3958C116.429 26.7332 116.202 27.1732 116.129 27.7158H120.232C120.158 27.1365 119.935 26.6855 119.561 26.3628C119.187 26.0402 118.75 25.8788 118.252 25.8788ZM126.028 25.3068H126.754V30.8068H126.028V28.4088H122.86V30.8068H122.134V25.3068H122.86V27.7048H126.028V25.3068ZM132.294 25.3068H132.91V30.8068H132.184V26.5718L128.906 30.8068H128.29V25.3068H129.016V29.5418L132.294 25.3068ZM138.405 25.3068V30.8068H137.679V28.6948H136.733L135.039 30.8068H134.115L135.853 28.6728C135.413 28.6068 135.05 28.4235 134.764 28.1228C134.478 27.8222 134.335 27.4518 134.335 27.0118C134.335 26.5132 134.511 26.1062 134.863 25.7908C135.222 25.4682 135.659 25.3068 136.172 25.3068H138.405ZM136.172 28.0128H137.679V26.0108H136.172C135.864 26.0108 135.6 26.1025 135.38 26.2858C135.167 26.4692 135.061 26.7112 135.061 27.0118C135.061 27.3125 135.167 27.5545 135.38 27.7378C135.6 27.9212 135.864 28.0128 136.172 28.0128ZM145.258 30.9388C144.429 30.9388 143.74 30.6638 143.19 30.1138C142.64 29.5565 142.365 28.8708 142.365 28.0568C142.365 27.2428 142.64 26.5608 143.19 26.0108C143.74 25.4535 144.429 25.1748 145.258 25.1748C145.801 25.1748 146.288 25.3068 146.721 25.5708C147.154 25.8275 147.469 26.1758 147.667 26.6158L147.073 26.9568C146.926 26.6268 146.688 26.3665 146.358 26.1758C146.035 25.9778 145.669 25.8788 145.258 25.8788C144.649 25.8788 144.136 26.0915 143.718 26.5168C143.3 26.9348 143.091 27.4482 143.091 28.0568C143.091 28.6655 143.3 29.1825 143.718 29.6078C144.136 30.0258 144.649 30.2348 145.258 30.2348C145.669 30.2348 146.035 30.1395 146.358 29.9488C146.681 29.7508 146.934 29.4868 147.117 29.1568L147.722 29.5088C147.495 29.9488 147.161 30.2972 146.721 30.5538C146.281 30.8105 145.793 30.9388 145.258 30.9388ZM155.958 30.8068H154.99L152.24 28.1558V30.8068H151.514V25.3068H152.24V27.7378L154.858 25.3068H155.848L153.01 27.9468L155.958 30.8068ZM161.46 25.3068V30.8068H160.734V26.0108H158.248V28.4638C158.248 29.3805 158.072 30.0112 157.72 30.3558C157.375 30.7005 156.899 30.8508 156.29 30.8068V30.1248C156.708 30.1688 157.016 30.0698 157.214 29.8278C157.419 29.5858 157.522 29.1312 157.522 28.4638V25.3068H161.46ZM167.002 25.3068H167.618V30.8068H166.892V26.5718L163.614 30.8068H162.998V25.3068H163.724V29.5418L167.002 25.3068ZM171.694 25.1748C172.508 25.1748 173.164 25.4645 173.663 26.0438C174.169 26.6158 174.422 27.2942 174.422 28.0788C174.422 28.1595 174.415 28.2732 174.4 28.4198H169.571C169.644 28.9772 169.879 29.4208 170.275 29.7508C170.678 30.0735 171.173 30.2348 171.76 30.2348C172.178 30.2348 172.537 30.1505 172.838 29.9818C173.146 29.8058 173.377 29.5785 173.531 29.2998L174.169 29.6738C173.927 30.0625 173.597 30.3705 173.179 30.5978C172.761 30.8252 172.284 30.9388 171.749 30.9388C170.884 30.9388 170.18 30.6675 169.637 30.1248C169.094 29.5822 168.823 28.8928 168.823 28.0568C168.823 27.2355 169.091 26.5498 169.626 25.9998C170.161 25.4498 170.851 25.1748 171.694 25.1748ZM171.694 25.8788C171.122 25.8788 170.642 26.0512 170.253 26.3958C169.872 26.7332 169.644 27.1732 169.571 27.7158H173.674C173.601 27.1365 173.377 26.6855 173.003 26.3628C172.629 26.0402 172.193 25.8788 171.694 25.8788ZM179.471 25.3068H180.197V30.8068H179.471V28.4088H176.303V30.8068H175.577V25.3068H176.303V27.7048H179.471V25.3068ZM185.692 25.3068V26.0108H183.745V30.8068H183.019V26.0108H181.072V25.3068H185.692ZM191.092 25.3068H191.818V30.8068H191.092V29.7288C190.586 30.5355 189.845 30.9388 188.87 30.9388C188.085 30.9388 187.414 30.6602 186.857 30.1028C186.307 29.5455 186.032 28.8635 186.032 28.0568C186.032 27.2502 186.307 26.5682 186.857 26.0108C187.414 25.4535 188.085 25.1748 188.87 25.1748C189.845 25.1748 190.586 25.5782 191.092 26.3848V25.3068ZM187.385 29.6078C187.803 30.0258 188.316 30.2348 188.925 30.2348C189.534 30.2348 190.047 30.0258 190.465 29.6078C190.883 29.1825 191.092 28.6655 191.092 28.0568C191.092 27.4482 190.883 26.9348 190.465 26.5168C190.047 26.0915 189.534 25.8788 188.925 25.8788C188.316 25.8788 187.803 26.0915 187.385 26.5168C186.967 26.9348 186.758 27.4482 186.758 28.0568C186.758 28.6655 186.967 29.1825 187.385 29.6078ZM198.745 25.3068V30.8068H198.019V26.4178L196.094 29.5418H196.006L194.081 26.4178V30.8068H193.355V25.3068H194.191L196.05 28.3208L197.909 25.3068H198.745ZM204.288 25.3068H204.904V30.8068H204.178V26.5718L200.9 30.8068H200.284V25.3068H201.01V29.5418L204.288 25.3068ZM212.687 27.9798C213.288 28.1998 213.589 28.6288 213.589 29.2668C213.589 29.7142 213.439 30.0845 213.138 30.3778C212.845 30.6638 212.419 30.8068 211.862 30.8068H209.189V25.3068H211.642C212.177 25.3068 212.592 25.4462 212.885 25.7248C213.178 25.9962 213.325 26.3482 213.325 26.7808C213.325 27.3308 213.112 27.7305 212.687 27.9798ZM211.642 26.0108H209.915V27.6828H211.642C212.28 27.6828 212.599 27.3968 212.599 26.8248C212.599 26.5682 212.515 26.3702 212.346 26.2308C212.185 26.0842 211.95 26.0108 211.642 26.0108ZM211.862 30.1028C212.185 30.1028 212.43 30.0258 212.599 29.8718C212.775 29.7178 212.863 29.5015 212.863 29.2228C212.863 28.9662 212.775 28.7645 212.599 28.6178C212.43 28.4638 212.185 28.3868 211.862 28.3868H209.915V30.1028H211.862ZM217.252 30.9388C216.423 30.9388 215.734 30.6638 215.184 30.1138C214.634 29.5565 214.359 28.8708 214.359 28.0568C214.359 27.2428 214.634 26.5608 215.184 26.0108C215.734 25.4535 216.423 25.1748 217.252 25.1748C217.795 25.1748 218.282 25.3068 218.715 25.5708C219.148 25.8275 219.463 26.1758 219.661 26.6158L219.067 26.9568C218.92 26.6268 218.682 26.3665 218.352 26.1758C218.029 25.9778 217.663 25.8788 217.252 25.8788C216.643 25.8788 216.13 26.0915 215.712 26.5168C215.294 26.9348 215.085 27.4482 215.085 28.0568C215.085 28.6655 215.294 29.1825 215.712 29.6078C216.13 30.0258 216.643 30.2348 217.252 30.2348C217.663 30.2348 218.029 30.1395 218.352 29.9488C218.675 29.7508 218.928 29.4868 219.111 29.1568L219.716 29.5088C219.489 29.9488 219.155 30.2972 218.715 30.5538C218.275 30.8105 217.787 30.9388 217.252 30.9388ZM223.246 25.1748C224.06 25.1748 224.716 25.4645 225.215 26.0438C225.721 26.6158 225.974 27.2942 225.974 28.0788C225.974 28.1595 225.966 28.2732 225.952 28.4198H221.123C221.196 28.9772 221.431 29.4208 221.827 29.7508C222.23 30.0735 222.725 30.2348 223.312 30.2348C223.73 30.2348 224.089 30.1505 224.39 29.9818C224.698 29.8058 224.929 29.5785 225.083 29.2998L225.721 29.6738C225.479 30.0625 225.149 30.3705 224.731 30.5978C224.313 30.8252 223.836 30.9388 223.301 30.9388C222.435 30.9388 221.731 30.6675 221.189 30.1248C220.646 29.5822 220.375 28.8928 220.375 28.0568C220.375 27.2355 220.642 26.5498 221.178 25.9998C221.713 25.4498 222.402 25.1748 223.246 25.1748ZM223.246 25.8788C222.674 25.8788 222.193 26.0512 221.805 26.3958C221.423 26.7332 221.196 27.1732 221.123 27.7158H225.226C225.152 27.1365 224.929 26.6855 224.555 26.3628C224.181 26.0402 223.744 25.8788 223.246 25.8788ZM230.649 25.3068V26.0108H227.855V30.8068H227.129V25.3068H230.649ZM235.927 30.1138C235.37 30.6638 234.688 30.9388 233.881 30.9388C233.074 30.9388 232.389 30.6638 231.824 30.1138C231.267 29.5565 230.988 28.8708 230.988 28.0568C230.988 27.2428 231.267 26.5608 231.824 26.0108C232.389 25.4535 233.074 25.1748 233.881 25.1748C234.688 25.1748 235.37 25.4535 235.927 26.0108C236.492 26.5608 236.774 27.2428 236.774 28.0568C236.774 28.8708 236.492 29.5565 235.927 30.1138ZM232.341 29.6078C232.759 30.0258 233.272 30.2348 233.881 30.2348C234.49 30.2348 235.003 30.0258 235.421 29.6078C235.839 29.1825 236.048 28.6655 236.048 28.0568C236.048 27.4482 235.839 26.9348 235.421 26.5168C235.003 26.0915 234.49 25.8788 233.881 25.8788C233.272 25.8788 232.759 26.0915 232.341 26.5168C231.923 26.9348 231.714 27.4482 231.714 28.0568C231.714 28.6655 231.923 29.1825 232.341 29.6078ZM13.9475 40.3068H14.6735V45.8068H13.9475V43.7168C13.5221 43.9368 12.9978 44.0468 12.3745 44.0468C11.6558 44.0468 11.1058 43.8818 10.7245 43.5518C10.3505 43.2145 10.1635 42.7195 10.1635 42.0668V40.3068H10.8895V42.0668C10.8895 42.5288 11.0105 42.8625 11.2525 43.0678C11.4945 43.2658 11.8611 43.3648 12.3525 43.3648C12.9245 43.3648 13.4561 43.2585 13.9475 43.0458V40.3068ZM18.7575 40.1748C19.5715 40.1748 20.2278 40.4645 20.7265 41.0438C21.2325 41.6158 21.4855 42.2942 21.4855 43.0788C21.4855 43.1595 21.4781 43.2732 21.4635 43.4198H16.6345C16.7078 43.9772 16.9425 44.4208 17.3385 44.7508C17.7418 45.0735 18.2368 45.2348 18.8235 45.2348C19.2415 45.2348 19.6008 45.1505 19.9015 44.9818C20.2095 44.8058 20.4405 44.5785 20.5945 44.2998L21.2325 44.6738C20.9905 45.0625 20.6605 45.3705 20.2425 45.5978C19.8245 45.8252 19.3478 45.9388 18.8125 45.9388C17.9471 45.9388 17.2431 45.6675 16.7005 45.1248C16.1578 44.5822 15.8865 43.8928 15.8865 43.0568C15.8865 42.2355 16.1541 41.5498 16.6895 40.9998C17.2248 40.4498 17.9141 40.1748 18.7575 40.1748ZM18.7575 40.8788C18.1855 40.8788 17.7051 41.0512 17.3165 41.3958C16.9351 41.7332 16.7078 42.1732 16.6345 42.7158H20.7375C20.6641 42.1365 20.4405 41.6855 20.0665 41.3628C19.6925 41.0402 19.2561 40.8788 18.7575 40.8788ZM25.5883 40.1748C26.373 40.1748 27.0403 40.4535 27.5903 41.0108C28.1476 41.5682 28.4263 42.2502 28.4263 43.0568C28.4263 43.8635 28.1476 44.5455 27.5903 45.1028C27.0403 45.6602 26.373 45.9388 25.5883 45.9388C24.613 45.9388 23.8723 45.5355 23.3663 44.7288V48.0068H22.6403V40.3068H23.3663V41.3848C23.8723 40.5782 24.613 40.1748 25.5883 40.1748ZM23.9933 44.6078C24.4113 45.0258 24.9246 45.2348 25.5333 45.2348C26.142 45.2348 26.6553 45.0258 27.0733 44.6078C27.4913 44.1825 27.7003 43.6655 27.7003 43.0568C27.7003 42.4482 27.4913 41.9348 27.0733 41.5168C26.6553 41.0915 26.142 40.8788 25.5333 40.8788C24.9246 40.8788 24.4113 41.0915 23.9933 41.5168C23.5753 41.9348 23.3663 42.4482 23.3663 43.0568C23.3663 43.6655 23.5753 44.1825 23.9933 44.6078ZM32.1745 40.1748C32.9885 40.1748 33.6448 40.4645 34.1435 41.0438C34.6495 41.6158 34.9025 42.2942 34.9025 43.0788C34.9025 43.1595 34.8951 43.2732 34.8805 43.4198H30.0515C30.1248 43.9772 30.3595 44.4208 30.7555 44.7508C31.1588 45.0735 31.6538 45.2348 32.2405 45.2348C32.6585 45.2348 33.0178 45.1505 33.3185 44.9818C33.6265 44.8058 33.8575 44.5785 34.0115 44.2998L34.6495 44.6738C34.4075 45.0625 34.0775 45.3705 33.6595 45.5978C33.2415 45.8252 32.7648 45.9388 32.2295 45.9388C31.3641 45.9388 30.6601 45.6675 30.1175 45.1248C29.5748 44.5822 29.3035 43.8928 29.3035 43.0568C29.3035 42.2355 29.5711 41.5498 30.1065 40.9998C30.6418 40.4498 31.3311 40.1748 32.1745 40.1748ZM32.1745 40.8788C31.6025 40.8788 31.1221 41.0512 30.7335 41.3958C30.3521 41.7332 30.1248 42.1732 30.0515 42.7158H34.1545C34.0811 42.1365 33.8575 41.6855 33.4835 41.3628C33.1095 41.0402 32.6731 40.8788 32.1745 40.8788ZM38.7879 42.9798C39.4259 43.2218 39.7449 43.6618 39.7449 44.2998C39.7449 44.7545 39.5652 45.1432 39.2059 45.4658C38.8539 45.7812 38.3479 45.9388 37.6879 45.9388C36.5805 45.9388 35.8545 45.4988 35.5099 44.6188L36.1259 44.2558C36.3532 44.9085 36.8739 45.2348 37.6879 45.2348C38.1132 45.2348 38.4395 45.1432 38.6669 44.9598C38.9015 44.7765 39.0189 44.5418 39.0189 44.2558C39.0189 43.9992 38.9235 43.7902 38.7329 43.6288C38.5422 43.4675 38.2855 43.3868 37.9629 43.3868H37.1599V42.6828H37.7429C38.0582 42.6828 38.3039 42.6058 38.4799 42.4518C38.6632 42.2905 38.7549 42.0705 38.7549 41.7918C38.7549 41.5278 38.6485 41.3115 38.4359 41.1428C38.2232 40.9668 37.9372 40.8788 37.5779 40.8788C36.8885 40.8788 36.4302 41.1538 36.2029 41.7038L35.5979 41.3518C35.9645 40.5672 36.6245 40.1748 37.5779 40.1748C38.1572 40.1748 38.6192 40.3288 38.9639 40.6368C39.3085 40.9375 39.4809 41.3078 39.4809 41.7478C39.4809 42.3125 39.2499 42.7232 38.7879 42.9798ZM48.2073 45.1138C47.65 45.6638 46.968 45.9388 46.1613 45.9388C45.3546 45.9388 44.669 45.6638 44.1043 45.1138C43.547 44.5565 43.2683 43.8708 43.2683 43.0568C43.2683 42.2428 43.547 41.5608 44.1043 41.0108C44.669 40.4535 45.3546 40.1748 46.1613 40.1748C46.968 40.1748 47.65 40.4535 48.2073 41.0108C48.772 41.5608 49.0543 42.2428 49.0543 43.0568C49.0543 43.8708 48.772 44.5565 48.2073 45.1138ZM44.6213 44.6078C45.0393 45.0258 45.5526 45.2348 46.1613 45.2348C46.77 45.2348 47.2833 45.0258 47.7013 44.6078C48.1193 44.1825 48.3283 43.6655 48.3283 43.0568C48.3283 42.4482 48.1193 41.9348 47.7013 41.5168C47.2833 41.0915 46.77 40.8788 46.1613 40.8788C45.5526 40.8788 45.0393 41.0915 44.6213 41.5168C44.2033 41.9348 43.9943 42.4482 43.9943 43.0568C43.9943 43.6655 44.2033 44.1825 44.6213 44.6078ZM54.6744 45.1028H55.4444V47.2808H54.7184V45.8068H50.2304V47.2808H49.5044V45.1028H50.1754C50.5494 44.6115 50.7364 43.9185 50.7364 43.0238V40.3068H54.6744V45.1028ZM51.0554 45.1028H53.9484V41.0108H51.4624V43.0238C51.4624 43.8672 51.3267 44.5602 51.0554 45.1028ZM60.4366 40.3068H61.1626V45.8068H60.4366V43.4088H57.2686V45.8068H56.5426V40.3068H57.2686V42.7048H60.4366V40.3068ZM67.3069 45.1138C66.7496 45.6638 66.0676 45.9388 65.2609 45.9388C64.4543 45.9388 63.7686 45.6638 63.2039 45.1138C62.6466 44.5565 62.3679 43.8708 62.3679 43.0568C62.3679 42.2428 62.6466 41.5608 63.2039 41.0108C63.7686 40.4535 64.4543 40.1748 65.2609 40.1748C66.0676 40.1748 66.7496 40.4535 67.3069 41.0108C67.8716 41.5608 68.1539 42.2428 68.1539 43.0568C68.1539 43.8708 67.8716 44.5565 67.3069 45.1138ZM63.7209 44.6078C64.1389 45.0258 64.6523 45.2348 65.2609 45.2348C65.8696 45.2348 66.3829 45.0258 66.8009 44.6078C67.2189 44.1825 67.4279 43.6655 67.4279 43.0568C67.4279 42.4482 67.2189 41.9348 66.8009 41.5168C66.3829 41.0915 65.8696 40.8788 65.2609 40.8788C64.6523 40.8788 64.1389 41.0915 63.7209 41.5168C63.3029 41.9348 63.0939 42.4482 63.0939 43.0568C63.0939 43.6655 63.3029 44.1825 63.7209 44.6078ZM76.7388 40.3068V45.8068H76.0128V41.0108H72.8448V45.8068H72.1188V40.3068H76.7388ZM81.2221 40.1748C82.0068 40.1748 82.6741 40.4535 83.2241 41.0108C83.7814 41.5682 84.0601 42.2502 84.0601 43.0568C84.0601 43.8635 83.7814 44.5455 83.2241 45.1028C82.6741 45.6602 82.0068 45.9388 81.2221 45.9388C80.2468 45.9388 79.5061 45.5355 79.0001 44.7288V48.0068H78.2741V40.3068H79.0001V41.3848C79.5061 40.5782 80.2468 40.1748 81.2221 40.1748ZM79.6271 44.6078C80.0451 45.0258 80.5584 45.2348 81.1671 45.2348C81.7758 45.2348 82.2891 45.0258 82.7071 44.6078C83.1251 44.1825 83.3341 43.6655 83.3341 43.0568C83.3341 42.4482 83.1251 41.9348 82.7071 41.5168C82.2891 41.0915 81.7758 40.8788 81.1671 40.8788C80.5584 40.8788 80.0451 41.0915 79.6271 41.5168C79.2091 41.9348 79.0001 42.4482 79.0001 43.0568C79.0001 43.6655 79.2091 44.1825 79.6271 44.6078ZM89.2713 40.3068H89.8873V45.8068H89.1613V41.5718L85.8833 45.8068H85.2673V40.3068H85.9933V44.5418L89.2713 40.3068ZM95.9325 40.3068V45.8068H95.2065V41.0108H92.7205V43.4638C92.7205 44.3805 92.5445 45.0112 92.1925 45.3558C91.8479 45.7005 91.3712 45.8508 90.7625 45.8068V45.1248C91.1805 45.1688 91.4885 45.0698 91.6865 44.8278C91.8919 44.5858 91.9945 44.1312 91.9945 43.4638V40.3068H95.9325ZM102.079 45.1138C101.522 45.6638 100.84 45.9388 100.033 45.9388C99.2267 45.9388 98.541 45.6638 97.9764 45.1138C97.419 44.5565 97.1404 43.8708 97.1404 43.0568C97.1404 42.2428 97.419 41.5608 97.9764 41.0108C98.541 40.4535 99.2267 40.1748 100.033 40.1748C100.84 40.1748 101.522 40.4535 102.079 41.0108C102.644 41.5608 102.926 42.2428 102.926 43.0568C102.926 43.8708 102.644 44.5565 102.079 45.1138ZM98.4934 44.6078C98.9114 45.0258 99.4247 45.2348 100.033 45.2348C100.642 45.2348 101.155 45.0258 101.573 44.6078C101.991 44.1825 102.2 43.6655 102.2 43.0568C102.2 42.4482 101.991 41.9348 101.573 41.5168C101.155 41.0915 100.642 40.8788 100.033 40.8788C99.4247 40.8788 98.9114 41.0915 98.4934 41.5168C98.0754 41.9348 97.8664 42.4482 97.8664 43.0568C97.8664 43.6655 98.0754 44.1825 98.4934 44.6078ZM110.125 45.8068H109.245L107.001 43.1558V45.8068H106.275V43.1558L104.031 45.8068H103.151L105.615 42.9468L103.261 40.3068H104.141L106.275 42.7488V40.3068H107.001V42.7488L109.135 40.3068H110.015L107.661 42.9468L110.125 45.8068ZM113.214 40.1748C114.028 40.1748 114.684 40.4645 115.183 41.0438C115.689 41.6158 115.942 42.2942 115.942 43.0788C115.942 43.1595 115.934 43.2732 115.92 43.4198H111.091C111.164 43.9772 111.399 44.4208 111.795 44.7508C112.198 45.0735 112.693 45.2348 113.28 45.2348C113.698 45.2348 114.057 45.1505 114.358 44.9818C114.666 44.8058 114.897 44.5785 115.051 44.2998L115.689 44.6738C115.447 45.0625 115.117 45.3705 114.699 45.5978C114.281 45.8252 113.804 45.9388 113.269 45.9388C112.403 45.9388 111.699 45.6675 111.157 45.1248C110.614 44.5822 110.343 43.8928 110.343 43.0568C110.343 42.2355 110.61 41.5498 111.146 40.9998C111.681 40.4498 112.37 40.1748 113.214 40.1748ZM113.214 40.8788C112.642 40.8788 112.161 41.0512 111.773 41.3958C111.391 41.7332 111.164 42.1732 111.091 42.7158H115.194C115.12 42.1365 114.897 41.6855 114.523 41.3628C114.149 41.0402 113.712 40.8788 113.214 40.8788ZM120.99 40.3068H121.716V45.8068H120.99V43.4088H117.822V45.8068H117.096V40.3068H117.822V42.7048H120.99V40.3068ZM127.256 40.3068H127.872V45.8068H127.146V41.5718L123.868 45.8068H123.252V40.3068H123.978V44.5418L127.256 40.3068ZM131.948 40.1748C132.762 40.1748 133.418 40.4645 133.917 41.0438C134.423 41.6158 134.676 42.2942 134.676 43.0788C134.676 43.1595 134.669 43.2732 134.654 43.4198H129.825C129.898 43.9772 130.133 44.4208 130.529 44.7508C130.932 45.0735 131.427 45.2348 132.014 45.2348C132.432 45.2348 132.791 45.1505 133.092 44.9818C133.4 44.8058 133.631 44.5785 133.785 44.2998L134.423 44.6738C134.181 45.0625 133.851 45.3705 133.433 45.5978C133.015 45.8252 132.538 45.9388 132.003 45.9388C131.138 45.9388 130.434 45.6675 129.891 45.1248C129.348 44.5822 129.077 43.8928 129.077 43.0568C129.077 42.2355 129.345 41.5498 129.88 40.9998C130.415 40.4498 131.105 40.1748 131.948 40.1748ZM131.948 40.8788C131.376 40.8788 130.896 41.0512 130.507 41.3958C130.126 41.7332 129.898 42.1732 129.825 42.7158H133.928C133.855 42.1365 133.631 41.6855 133.257 41.3628C132.883 41.0402 132.447 40.8788 131.948 40.8788ZM136.314 45.7408C136.197 45.8582 136.054 45.9168 135.885 45.9168C135.717 45.9168 135.574 45.8582 135.456 45.7408C135.339 45.6235 135.28 45.4805 135.28 45.3118C135.28 45.1432 135.339 45.0002 135.456 44.8828C135.574 44.7655 135.717 44.7068 135.885 44.7068C136.054 44.7068 136.197 44.7655 136.314 44.8828C136.432 45.0002 136.49 45.1432 136.49 45.3118C136.49 45.4805 136.432 45.6235 136.314 45.7408ZM145.13 38.1068H145.9V45.8068H145.13V42.5618C144.463 42.8918 143.766 43.0568 143.04 43.0568C142.307 43.0568 141.72 42.8515 141.28 42.4408C140.84 42.0302 140.62 41.5022 140.62 40.8568V38.1068H141.39V40.8568C141.39 41.3042 141.533 41.6635 141.819 41.9348C142.113 42.1988 142.52 42.3308 143.04 42.3308C143.766 42.3308 144.463 42.1658 145.13 41.8358V38.1068ZM152.28 40.3068H153.006V45.8068H152.28V44.7288C151.774 45.5355 151.034 45.9388 150.058 45.9388C149.274 45.9388 148.603 45.6602 148.045 45.1028C147.495 44.5455 147.22 43.8635 147.22 43.0568C147.22 42.2502 147.495 41.5682 148.045 41.0108C148.603 40.4535 149.274 40.1748 150.058 40.1748C151.034 40.1748 151.774 40.5782 152.28 41.3848V40.3068ZM148.573 44.6078C148.991 45.0258 149.505 45.2348 150.113 45.2348C150.722 45.2348 151.235 45.0258 151.653 44.6078C152.071 44.1825 152.28 43.6655 152.28 43.0568C152.28 42.4482 152.071 41.9348 151.653 41.5168C151.235 41.0915 150.722 40.8788 150.113 40.8788C149.505 40.8788 148.991 41.0915 148.573 41.5168C148.155 41.9348 147.946 42.4482 147.946 43.0568C147.946 43.6655 148.155 44.1825 148.573 44.6078ZM158.504 40.3068V41.0108H156.557V45.8068H155.831V41.0108H153.884V40.3068H158.504ZM166.648 40.3068V45.8068H165.922V41.0108H163.436V43.4638C163.436 44.3805 163.26 45.0112 162.908 45.3558C162.564 45.7005 162.087 45.8508 161.478 45.8068V45.1248C161.896 45.1688 162.204 45.0698 162.402 44.8278C162.608 44.5858 162.71 44.1312 162.71 43.4638V40.3068H166.648ZM170.727 40.1748C171.541 40.1748 172.198 40.4645 172.696 41.0438C173.202 41.6158 173.455 42.2942 173.455 43.0788C173.455 43.1595 173.448 43.2732 173.433 43.4198H168.604C168.678 43.9772 168.912 44.4208 169.308 44.7508C169.712 45.0735 170.207 45.2348 170.793 45.2348C171.211 45.2348 171.571 45.1505 171.871 44.9818C172.179 44.8058 172.41 44.5785 172.564 44.2998L173.202 44.6738C172.96 45.0625 172.63 45.3705 172.212 45.5978C171.794 45.8252 171.318 45.9388 170.782 45.9388C169.917 45.9388 169.213 45.6675 168.67 45.1248C168.128 44.5822 167.856 43.8928 167.856 43.0568C167.856 42.2355 168.124 41.5498 168.659 40.9998C169.195 40.4498 169.884 40.1748 170.727 40.1748ZM170.727 40.8788C170.155 40.8788 169.675 41.0512 169.286 41.3958C168.905 41.7332 168.678 42.1732 168.604 42.7158H172.707C172.634 42.1365 172.41 41.6855 172.036 41.3628C171.662 41.0402 171.226 40.8788 170.727 40.8788ZM178.13 40.3068V41.0108H175.336V45.8068H174.61V40.3068H178.13ZM183.458 45.8068H182.49L179.74 43.1558V45.8068H179.014V40.3068H179.74V42.7378L182.358 40.3068H183.348L180.51 42.9468L183.458 45.8068ZM188.511 45.1138C187.954 45.6638 187.272 45.9388 186.465 45.9388C185.658 45.9388 184.973 45.6638 184.408 45.1138C183.851 44.5565 183.572 43.8708 183.572 43.0568C183.572 42.2428 183.851 41.5608 184.408 41.0108C184.973 40.4535 185.658 40.1748 186.465 40.1748C187.272 40.1748 187.954 40.4535 188.511 41.0108C189.076 41.5608 189.358 42.2428 189.358 43.0568C189.358 43.8708 189.076 44.5565 188.511 45.1138ZM184.925 44.6078C185.343 45.0258 185.856 45.2348 186.465 45.2348C187.074 45.2348 187.587 45.0258 188.005 44.6078C188.423 44.1825 188.632 43.6655 188.632 43.0568C188.632 42.4482 188.423 41.9348 188.005 41.5168C187.587 41.0915 187.074 40.8788 186.465 40.8788C185.856 40.8788 185.343 41.0915 184.925 41.5168C184.507 41.9348 184.298 42.4482 184.298 43.0568C184.298 43.6655 184.507 44.1825 184.925 44.6078ZM15.0035 55.3068V60.8068H14.2775V56.0108H11.1095V60.8068H10.3835V55.3068H15.0035ZM21.1477 60.1138C20.5904 60.6638 19.9084 60.9388 19.1017 60.9388C18.2951 60.9388 17.6094 60.6638 17.0447 60.1138C16.4874 59.5565 16.2087 58.8708 16.2087 58.0568C16.2087 57.2428 16.4874 56.5608 17.0447 56.0108C17.6094 55.4535 18.2951 55.1748 19.1017 55.1748C19.9084 55.1748 20.5904 55.4535 21.1477 56.0108C21.7124 56.5608 21.9947 57.2428 21.9947 58.0568C21.9947 58.8708 21.7124 59.5565 21.1477 60.1138ZM17.5617 59.6078C17.9797 60.0258 18.4931 60.2348 19.1017 60.2348C19.7104 60.2348 20.2237 60.0258 20.6417 59.6078C21.0597 59.1825 21.2687 58.6655 21.2687 58.0568C21.2687 57.4482 21.0597 56.9348 20.6417 56.5168C20.2237 56.0915 19.7104 55.8788 19.1017 55.8788C18.4931 55.8788 17.9797 56.0915 17.5617 56.5168C17.1437 56.9348 16.9347 57.4482 16.9347 58.0568C16.9347 58.6655 17.1437 59.1825 17.5617 59.6078ZM27.6148 60.1028H28.3848V62.2808H27.6588V60.8068H23.1708V62.2808H22.4448V60.1028H23.1158C23.4898 59.6115 23.6768 58.9185 23.6768 58.0238V55.3068H27.6148V60.1028ZM23.9958 60.1028H26.8888V56.0108H24.4028V58.0238C24.4028 58.8672 24.2671 59.5602 23.9958 60.1028ZM33.9271 60.8068H32.9591L30.2091 58.1558V60.8068H29.4831V55.3068H30.2091V57.7378L32.8271 55.3068H33.8171L30.9791 57.9468L33.9271 60.8068ZM39.4286 55.3068V60.8068H38.7026V56.0108H36.2166V58.4638C36.2166 59.3805 36.0406 60.0112 35.6886 60.3558C35.344 60.7005 34.8673 60.8508 34.2586 60.8068V60.1248C34.6766 60.1688 34.9846 60.0698 35.1826 59.8278C35.388 59.5858 35.4906 59.1312 35.4906 58.4638V55.3068H39.4286ZM45.6635 55.1748C46.4701 55.1748 47.1521 55.4535 47.7095 56.0108C48.2741 56.5608 48.5565 57.2428 48.5565 58.0568C48.5565 58.8708 48.2741 59.5565 47.7095 60.1138C47.1521 60.6638 46.4701 60.9388 45.6635 60.9388C44.9228 60.9388 44.2848 60.7005 43.7495 60.2238C43.2215 59.7398 42.9171 59.1348 42.8365 58.4088H41.6925V60.8068H40.9665V55.3068H41.6925V57.7048H42.8365C42.9171 56.9788 43.2215 56.3775 43.7495 55.9008C44.2848 55.4168 44.9228 55.1748 45.6635 55.1748ZM44.1235 59.6078C44.5415 60.0258 45.0548 60.2348 45.6635 60.2348C46.2721 60.2348 46.7855 60.0258 47.2035 59.6078C47.6215 59.1825 47.8305 58.6655 47.8305 58.0568C47.8305 57.4482 47.6215 56.9348 47.2035 56.5168C46.7855 56.0915 46.2721 55.8788 45.6635 55.8788C45.0548 55.8788 44.5415 56.0915 44.1235 56.5168C43.7055 56.9348 43.4965 57.4482 43.4965 58.0568C43.4965 58.6655 43.7055 59.1825 44.1235 59.6078ZM53.2209 55.3068H53.9469V60.8068H53.2209V58.7168C52.7956 58.9368 52.2712 59.0468 51.6479 59.0468C50.9292 59.0468 50.3792 58.8818 49.9979 58.5518C49.6239 58.2145 49.4369 57.7195 49.4369 57.0668V55.3068H50.1629V57.0668C50.1629 57.5288 50.2839 57.8625 50.5259 58.0678C50.7679 58.2658 51.1346 58.3648 51.6259 58.3648C52.1979 58.3648 52.7296 58.2585 53.2209 58.0458V55.3068ZM59.4939 55.3068H60.1099V60.8068H59.3839V56.5718L56.1059 60.8068H55.4899V55.3068H56.2159V59.5418L59.4939 55.3068ZM65.6052 55.3068V56.0108H63.6582V60.8068H62.9322V56.0108H60.9852V55.3068H65.6052ZM68.7229 57.3968C69.2362 57.3968 69.6689 57.5582 70.0209 57.8808C70.3802 58.1962 70.5599 58.6032 70.5599 59.1018C70.5599 59.6005 70.3802 60.0112 70.0209 60.3338C69.6689 60.6492 69.2362 60.8068 68.7229 60.8068H66.4899V55.3068H67.2159V57.3968H68.7229ZM68.7229 60.1028C69.0309 60.1028 69.2912 60.0112 69.5039 59.8278C69.7239 59.6445 69.8339 59.4025 69.8339 59.1018C69.8339 58.8012 69.7239 58.5592 69.5039 58.3758C69.2912 58.1925 69.0309 58.1008 68.7229 58.1008H67.2159V60.1028H68.7229ZM78.3009 55.3068H79.0269V60.8068H78.3009V58.4088H75.1329V60.8068H74.4069V55.3068H75.1329V57.7048H78.3009V55.3068ZM85.2922 55.3068H86.0182V60.8068H85.2922V59.7288C84.7862 60.5355 84.0455 60.9388 83.0702 60.9388C82.2855 60.9388 81.6145 60.6602 81.0572 60.1028C80.5072 59.5455 80.2322 58.8635 80.2322 58.0568C80.2322 57.2502 80.5072 56.5682 81.0572 56.0108C81.6145 55.4535 82.2855 55.1748 83.0702 55.1748C84.0455 55.1748 84.7862 55.5782 85.2922 56.3848V55.3068ZM81.5852 59.6078C82.0032 60.0258 82.5165 60.2348 83.1252 60.2348C83.7338 60.2348 84.2472 60.0258 84.6652 59.6078C85.0832 59.1825 85.2922 58.6655 85.2922 58.0568C85.2922 57.4482 85.0832 56.9348 84.6652 56.5168C84.2472 56.0915 83.7338 55.8788 83.1252 55.8788C82.5165 55.8788 82.0032 56.0915 81.5852 56.5168C81.1672 56.9348 80.9582 57.4482 80.9582 58.0568C80.9582 58.6655 81.1672 59.1825 81.5852 59.6078ZM92.8683 60.9388C92.0397 60.9388 91.3503 60.6638 90.8003 60.1138C90.2503 59.5565 89.9753 58.8708 89.9753 58.0568C89.9753 57.2428 90.2503 56.5608 90.8003 56.0108C91.3503 55.4535 92.0397 55.1748 92.8683 55.1748C93.411 55.1748 93.8987 55.3068 94.3313 55.5708C94.764 55.8275 95.0793 56.1758 95.2773 56.6158L94.6833 56.9568C94.5367 56.6268 94.2983 56.3665 93.9683 56.1758C93.6457 55.9778 93.279 55.8788 92.8683 55.8788C92.2597 55.8788 91.7463 56.0915 91.3283 56.5168C90.9103 56.9348 90.7013 57.4482 90.7013 58.0568C90.7013 58.6655 90.9103 59.1825 91.3283 59.6078C91.7463 60.0258 92.2597 60.2348 92.8683 60.2348C93.279 60.2348 93.6457 60.1395 93.9683 59.9488C94.291 59.7508 94.544 59.4868 94.7273 59.1568L95.3323 59.5088C95.105 59.9488 94.7713 60.2972 94.3313 60.5538C93.8913 60.8105 93.4037 60.9388 92.8683 60.9388ZM101.051 55.3068H101.777V60.8068H101.051V59.7288C100.545 60.5355 99.8043 60.9388 98.829 60.9388C98.0443 60.9388 97.3733 60.6602 96.816 60.1028C96.266 59.5455 95.991 58.8635 95.991 58.0568C95.991 57.2502 96.266 56.5682 96.816 56.0108C97.3733 55.4535 98.0443 55.1748 98.829 55.1748C99.8043 55.1748 100.545 55.5782 101.051 56.3848V55.3068ZM97.344 59.6078C97.762 60.0258 98.2753 60.2348 98.884 60.2348C99.4926 60.2348 100.006 60.0258 100.424 59.6078C100.842 59.1825 101.051 58.6655 101.051 58.0568C101.051 57.4482 100.842 56.9348 100.424 56.5168C100.006 56.0915 99.4926 55.8788 98.884 55.8788C98.2753 55.8788 97.762 56.0915 97.344 56.5168C96.926 56.9348 96.717 57.4482 96.717 58.0568C96.717 58.6655 96.926 59.1825 97.344 59.6078ZM104.194 54.4268V53.7888H107.054V54.4268H104.194ZM107.318 55.3068H107.934V60.8068H107.208V56.5718L103.93 60.8068H103.314V55.3068H104.04V59.5418L107.318 55.3068ZM113.429 55.3068V56.0108H111.482V60.8068H110.756V56.0108H108.809V55.3068H113.429ZM114.751 59.8718L114.091 62.3468H113.431L113.871 59.8718H114.751ZM123.663 55.3068H124.389V60.8068H123.663V59.7288C123.157 60.5355 122.417 60.9388 121.441 60.9388C120.657 60.9388 119.986 60.6602 119.428 60.1028C118.878 59.5455 118.603 58.8635 118.603 58.0568C118.603 57.2502 118.878 56.5682 119.428 56.0108C119.986 55.4535 120.657 55.1748 121.441 55.1748C122.417 55.1748 123.157 55.5782 123.663 56.3848V55.3068ZM119.956 59.6078C120.374 60.0258 120.888 60.2348 121.496 60.2348C122.105 60.2348 122.618 60.0258 123.036 59.6078C123.454 59.1825 123.663 58.6655 123.663 58.0568C123.663 57.4482 123.454 56.9348 123.036 56.5168C122.618 56.0915 122.105 55.8788 121.496 55.8788C120.888 55.8788 120.374 56.0915 119.956 56.5168C119.538 56.9348 119.329 57.4482 119.329 58.0568C119.329 58.6655 119.538 59.1825 119.956 59.6078ZM133.285 60.1138C132.728 60.6638 132.046 60.9388 131.239 60.9388C130.433 60.9388 129.747 60.6638 129.182 60.1138C128.625 59.5565 128.346 58.8708 128.346 58.0568C128.346 57.2428 128.625 56.5608 129.182 56.0108C129.747 55.4535 130.433 55.1748 131.239 55.1748C132.046 55.1748 132.728 55.4535 133.285 56.0108C133.85 56.5608 134.132 57.2428 134.132 58.0568C134.132 58.8708 133.85 59.5565 133.285 60.1138ZM129.699 59.6078C130.117 60.0258 130.631 60.2348 131.239 60.2348C131.848 60.2348 132.361 60.0258 132.779 59.6078C133.197 59.1825 133.406 58.6655 133.406 58.0568C133.406 57.4482 133.197 56.9348 132.779 56.5168C132.361 56.0915 131.848 55.8788 131.239 55.8788C130.631 55.8788 130.117 56.0915 129.699 56.5168C129.281 56.9348 129.072 57.4482 129.072 58.0568C129.072 58.6655 129.281 59.1825 129.699 59.6078ZM139.967 55.3068V60.8068H139.241V56.0108H136.073V60.8068H135.347V55.3068H139.967ZM144.044 55.1748C144.858 55.1748 145.514 55.4645 146.013 56.0438C146.519 56.6158 146.772 57.2942 146.772 58.0788C146.772 58.1595 146.764 58.2732 146.75 58.4198H141.921C141.994 58.9772 142.229 59.4208 142.625 59.7508C143.028 60.0735 143.523 60.2348 144.11 60.2348C144.528 60.2348 144.887 60.1505 145.188 59.9818C145.496 59.8058 145.727 59.5785 145.881 59.2998L146.519 59.6738C146.277 60.0625 145.947 60.3705 145.529 60.5978C145.111 60.8252 144.634 60.9388 144.099 60.9388C143.233 60.9388 142.529 60.6675 141.987 60.1248C141.444 59.5822 141.173 58.8928 141.173 58.0568C141.173 57.2355 141.44 56.5498 141.976 55.9998C142.511 55.4498 143.2 55.1748 144.044 55.1748ZM144.044 55.8788C143.472 55.8788 142.991 56.0512 142.603 56.3958C142.221 56.7332 141.994 57.1732 141.921 57.7158H146.024C145.95 57.1365 145.727 56.6855 145.353 56.3628C144.979 56.0402 144.542 55.8788 144.044 55.8788ZM150.874 55.1748C151.659 55.1748 152.326 55.4535 152.876 56.0108C153.434 56.5682 153.712 57.2502 153.712 58.0568C153.712 58.8635 153.434 59.5455 152.876 60.1028C152.326 60.6602 151.659 60.9388 150.874 60.9388C149.899 60.9388 149.158 60.5355 148.652 59.7288V63.0068H147.926V55.3068H148.652V56.3848C149.158 55.5782 149.899 55.1748 150.874 55.1748ZM149.279 59.6078C149.697 60.0258 150.211 60.2348 150.819 60.2348C151.428 60.2348 151.941 60.0258 152.359 59.6078C152.777 59.1825 152.986 58.6655 152.986 58.0568C152.986 57.4482 152.777 56.9348 152.359 56.5168C151.941 56.0915 151.428 55.8788 150.819 55.8788C150.211 55.8788 149.697 56.0915 149.279 56.5168C148.861 56.9348 148.652 57.4482 148.652 58.0568C148.652 58.6655 148.861 59.1825 149.279 59.6078ZM159.65 55.3068H160.376V60.8068H159.65V59.7288C159.144 60.5355 158.403 60.9388 157.428 60.9388C156.643 60.9388 155.972 60.6602 155.415 60.1028C154.865 59.5455 154.59 58.8635 154.59 58.0568C154.59 57.2502 154.865 56.5682 155.415 56.0108C155.972 55.4535 156.643 55.1748 157.428 55.1748C158.403 55.1748 159.144 55.5782 159.65 56.3848V55.3068ZM155.943 59.6078C156.361 60.0258 156.874 60.2348 157.483 60.2348C158.091 60.2348 158.605 60.0258 159.023 59.6078C159.441 59.1825 159.65 58.6655 159.65 58.0568C159.65 57.4482 159.441 56.9348 159.023 56.5168C158.605 56.0915 158.091 55.8788 157.483 55.8788C156.874 55.8788 156.361 56.0915 155.943 56.5168C155.525 56.9348 155.316 57.4482 155.316 58.0568C155.316 58.6655 155.525 59.1825 155.943 59.6078ZM165.873 55.3068V56.0108H163.926V60.8068H163.2V56.0108H161.253V55.3068H165.873ZM171.152 60.1138C170.594 60.6638 169.912 60.9388 169.106 60.9388C168.299 60.9388 167.613 60.6638 167.049 60.1138C166.491 59.5565 166.213 58.8708 166.213 58.0568C166.213 57.2428 166.491 56.5608 167.049 56.0108C167.613 55.4535 168.299 55.1748 169.106 55.1748C169.912 55.1748 170.594 55.4535 171.152 56.0108C171.716 56.5608 171.999 57.2428 171.999 58.0568C171.999 58.8708 171.716 59.5565 171.152 60.1138ZM167.566 59.6078C167.984 60.0258 168.497 60.2348 169.106 60.2348C169.714 60.2348 170.228 60.0258 170.646 59.6078C171.064 59.1825 171.273 58.6655 171.273 58.0568C171.273 57.4482 171.064 56.9348 170.646 56.5168C170.228 56.0915 169.714 55.8788 169.106 55.8788C168.497 55.8788 167.984 56.0915 167.566 56.5168C167.148 56.9348 166.939 57.4482 166.939 58.0568C166.939 58.6655 167.148 59.1825 167.566 59.6078ZM176.162 55.1748C176.946 55.1748 177.614 55.4535 178.164 56.0108C178.721 56.5682 179 57.2502 179 58.0568C179 58.8635 178.721 59.5455 178.164 60.1028C177.614 60.6602 176.946 60.9388 176.162 60.9388C175.186 60.9388 174.446 60.5355 173.94 59.7288V63.0068H173.214V55.3068H173.94V56.3848C174.446 55.5782 175.186 55.1748 176.162 55.1748ZM174.567 59.6078C174.985 60.0258 175.498 60.2348 176.107 60.2348C176.715 60.2348 177.229 60.0258 177.647 59.6078C178.065 59.1825 178.274 58.6655 178.274 58.0568C178.274 57.4482 178.065 56.9348 177.647 56.5168C177.229 56.0915 176.715 55.8788 176.107 55.8788C175.498 55.8788 174.985 56.0915 174.567 56.5168C174.149 56.9348 173.94 57.4482 173.94 58.0568C173.94 58.6655 174.149 59.1825 174.567 59.6078ZM183.952 55.3068H184.722L182.368 61.3128C182.155 61.8555 181.851 62.2808 181.455 62.5888C181.066 62.9042 180.63 63.0435 180.146 63.0068V62.3248C180.806 62.3982 181.308 62.0168 181.653 61.1808L181.796 60.8398L179.332 55.3068H180.102L182.17 59.9158L183.952 55.3068ZM192.243 55.3068H192.969V60.8068H192.243V58.4088H189.075V60.8068H188.349V55.3068H189.075V57.7048H192.243V55.3068ZM197.046 55.1748C197.86 55.1748 198.516 55.4645 199.015 56.0438C199.521 56.6158 199.774 57.2942 199.774 58.0788C199.774 58.1595 199.766 58.2732 199.752 58.4198H194.923C194.996 58.9772 195.231 59.4208 195.627 59.7508C196.03 60.0735 196.525 60.2348 197.112 60.2348C197.53 60.2348 197.889 60.1505 198.19 59.9818C198.498 59.8058 198.729 59.5785 198.883 59.2998L199.521 59.6738C199.279 60.0625 198.949 60.3705 198.531 60.5978C198.113 60.8252 197.636 60.9388 197.101 60.9388C196.235 60.9388 195.531 60.6675 194.989 60.1248C194.446 59.5822 194.175 58.8928 194.175 58.0568C194.175 57.2355 194.442 56.5498 194.978 55.9998C195.513 55.4498 196.202 55.1748 197.046 55.1748ZM197.046 55.8788C196.474 55.8788 195.993 56.0512 195.605 56.3958C195.223 56.7332 194.996 57.1732 194.923 57.7158H199.026C198.952 57.1365 198.729 56.6855 198.355 56.3628C197.981 56.0402 197.544 55.8788 197.046 55.8788ZM207.572 55.3068H208.298V60.8068H207.572V58.4088H204.404V60.8068H203.678V55.3068H204.404V57.7048H207.572V55.3068ZM213.794 55.3068H214.564L212.21 61.3128C211.997 61.8555 211.693 62.2808 211.297 62.5888C210.908 62.9042 210.472 63.0435 209.988 63.0068V62.3248C210.648 62.3982 211.15 62.0168 211.495 61.1808L211.638 60.8398L209.174 55.3068H209.944L212.012 59.9158L213.794 55.3068ZM221.758 60.8068H220.878L218.634 58.1558V60.8068H217.908V58.1558L215.664 60.8068H214.784L217.248 57.9468L214.894 55.3068H215.774L217.908 57.7488V55.3068H218.634V57.7488L220.768 55.3068H221.648L219.294 57.9468L221.758 60.8068ZM226.64 55.3068H227.366V60.8068H226.64V58.4088H223.472V60.8068H222.746V55.3068H223.472V57.7048H226.64V55.3068ZM233.51 60.1138C232.953 60.6638 232.271 60.9388 231.464 60.9388C230.657 60.9388 229.972 60.6638 229.407 60.1138C228.85 59.5565 228.571 58.8708 228.571 58.0568C228.571 57.2428 228.85 56.5608 229.407 56.0108C229.972 55.4535 230.657 55.1748 231.464 55.1748C232.271 55.1748 232.953 55.4535 233.51 56.0108C234.075 56.5608 234.357 57.2428 234.357 58.0568C234.357 58.8708 234.075 59.5565 233.51 60.1138ZM229.924 59.6078C230.342 60.0258 230.855 60.2348 231.464 60.2348C232.073 60.2348 232.586 60.0258 233.004 59.6078C233.422 59.1825 233.631 58.6655 233.631 58.0568C233.631 57.4482 233.422 56.9348 233.004 56.5168C232.586 56.0915 232.073 55.8788 231.464 55.8788C230.855 55.8788 230.342 56.0915 229.924 56.5168C229.506 56.9348 229.297 57.4482 229.297 58.0568C229.297 58.6655 229.506 59.1825 229.924 59.6078ZM14.3435 70.3068H15.1135L12.7595 76.3128C12.5468 76.8555 12.2425 77.2808 11.8465 77.5888C11.4578 77.9042 11.0215 78.0435 10.5375 78.0068V77.3248C11.1975 77.3982 11.6998 77.0168 12.0445 76.1808L12.1875 75.8398L9.72346 70.3068H10.4935L12.5615 74.9158L14.3435 70.3068ZM19.5549 70.3068H20.2809V75.8068H19.5549V73.7168C19.1296 73.9368 18.6052 74.0468 17.9819 74.0468C17.2632 74.0468 16.7132 73.8818 16.3319 73.5518C15.9579 73.2145 15.7709 72.7195 15.7709 72.0668V70.3068H16.4969V72.0668C16.4969 72.5288 16.6179 72.8625 16.8599 73.0678C17.1019 73.2658 17.4686 73.3648 17.9599 73.3648C18.5319 73.3648 19.0636 73.2585 19.5549 73.0458V70.3068ZM25.8279 70.3068H26.4439V75.8068H25.7179V71.5718L22.4399 75.8068H21.8239V70.3068H22.5499V74.5418L25.8279 70.3068ZM31.9392 70.3068V71.0108H29.9922V75.8068H29.2662V71.0108H27.3192V70.3068H31.9392ZM35.0569 72.3968C35.5702 72.3968 36.0029 72.5582 36.3549 72.8808C36.7142 73.1962 36.8939 73.6032 36.8939 74.1018C36.8939 74.6005 36.7142 75.0112 36.3549 75.3338C36.0029 75.6492 35.5702 75.8068 35.0569 75.8068H32.8239V70.3068H33.5499V72.3968H35.0569ZM35.0569 75.1028C35.3649 75.1028 35.6252 75.0112 35.8379 74.8278C36.0579 74.6445 36.1679 74.4025 36.1679 74.1018C36.1679 73.8012 36.0579 73.5592 35.8379 73.3758C35.6252 73.1925 35.3649 73.1008 35.0569 73.1008H33.5499V75.1028H35.0569ZM40.5002 75.9388C39.6715 75.9388 38.9822 75.6638 38.4322 75.1138C37.8822 74.5565 37.6072 73.8708 37.6072 73.0568C37.6072 72.2428 37.8822 71.5608 38.4322 71.0108C38.9822 70.4535 39.6715 70.1748 40.5002 70.1748C41.0428 70.1748 41.5305 70.3068 41.9632 70.5708C42.3958 70.8275 42.7112 71.1758 42.9092 71.6158L42.3152 71.9568C42.1685 71.6268 41.9302 71.3665 41.6002 71.1758C41.2775 70.9778 40.9108 70.8788 40.5002 70.8788C39.8915 70.8788 39.3782 71.0915 38.9602 71.5168C38.5422 71.9348 38.3332 72.4482 38.3332 73.0568C38.3332 73.6655 38.5422 74.1825 38.9602 74.6078C39.3782 75.0258 39.8915 75.2348 40.5002 75.2348C40.9108 75.2348 41.2775 75.1395 41.6002 74.9488C41.9228 74.7508 42.1758 74.4868 42.3592 74.1568L42.9642 74.5088C42.7368 74.9488 42.4032 75.2972 41.9632 75.5538C41.5232 75.8105 41.0355 75.9388 40.5002 75.9388ZM47.8591 70.3068V75.8068H47.1331V73.6948H46.1871L44.4931 75.8068H43.5691L45.3071 73.6728C44.8671 73.6068 44.5041 73.4235 44.2181 73.1228C43.9321 72.8222 43.7891 72.4518 43.7891 72.0118C43.7891 71.5132 43.9651 71.1062 44.3171 70.7908C44.6764 70.4682 45.1128 70.3068 45.6261 70.3068H47.8591ZM45.6261 73.0128H47.1331V71.0108H45.6261C45.3181 71.0108 45.0541 71.1025 44.8341 71.2858C44.6214 71.4692 44.5151 71.7112 44.5151 72.0118C44.5151 72.3125 44.6214 72.5545 44.8341 72.7378C45.0541 72.9212 45.3181 73.0128 45.6261 73.0128ZM55.0971 70.1748C55.8818 70.1748 56.5491 70.4535 57.0991 71.0108C57.6564 71.5682 57.9351 72.2502 57.9351 73.0568C57.9351 73.8635 57.6564 74.5455 57.0991 75.1028C56.5491 75.6602 55.8818 75.9388 55.0971 75.9388C54.1218 75.9388 53.3811 75.5355 52.8751 74.7288V78.0068H52.1491V70.3068H52.8751V71.3848C53.3811 70.5782 54.1218 70.1748 55.0971 70.1748ZM53.5021 74.6078C53.9201 75.0258 54.4334 75.2348 55.0421 75.2348C55.6508 75.2348 56.1641 75.0258 56.5821 74.6078C57.0001 74.1825 57.2091 73.6655 57.2091 73.0568C57.2091 72.4482 57.0001 71.9348 56.5821 71.5168C56.1641 71.0915 55.6508 70.8788 55.0421 70.8788C54.4334 70.8788 53.9201 71.0915 53.5021 71.5168C53.0841 71.9348 52.8751 72.4482 52.8751 73.0568C52.8751 73.6655 53.0841 74.1825 53.5021 74.6078ZM63.8723 70.3068H64.5983V75.8068H63.8723V74.7288C63.3663 75.5355 62.6256 75.9388 61.6503 75.9388C60.8656 75.9388 60.1946 75.6602 59.6373 75.1028C59.0873 74.5455 58.8123 73.8635 58.8123 73.0568C58.8123 72.2502 59.0873 71.5682 59.6373 71.0108C60.1946 70.4535 60.8656 70.1748 61.6503 70.1748C62.6256 70.1748 63.3663 70.5782 63.8723 71.3848V70.3068ZM60.1653 74.6078C60.5833 75.0258 61.0966 75.2348 61.7053 75.2348C62.3139 75.2348 62.8273 75.0258 63.2453 74.6078C63.6633 74.1825 63.8723 73.6655 63.8723 73.0568C63.8723 72.4482 63.6633 71.9348 63.2453 71.5168C62.8273 71.0915 62.3139 70.8788 61.7053 70.8788C61.0966 70.8788 60.5833 71.0915 60.1653 71.5168C59.7473 71.9348 59.5383 72.4482 59.5383 73.0568C59.5383 73.6655 59.7473 74.1825 60.1653 74.6078ZM68.5774 75.9388C67.7854 75.9388 67.1254 75.6785 66.5974 75.1578C66.0694 74.6298 65.8054 73.9478 65.8054 73.1118C65.8054 72.1732 65.9448 71.4545 66.2234 70.9558C66.5021 70.4498 67.0668 69.9915 67.9174 69.5808C68.0788 69.5002 68.2914 69.4048 68.5554 69.2948C68.8268 69.1848 69.0284 69.0968 69.1604 69.0308C69.2998 68.9648 69.4501 68.8805 69.6114 68.7778C69.7728 68.6678 69.8938 68.5468 69.9744 68.4148C70.0551 68.2828 70.1064 68.1252 70.1284 67.9418L70.7004 68.2718C70.6711 68.4478 70.6124 68.6128 70.5244 68.7668C70.4364 68.9208 70.3448 69.0455 70.2494 69.1408C70.1614 69.2362 70.0184 69.3425 69.8204 69.4598C69.6298 69.5698 69.4794 69.6505 69.3694 69.7018C69.2668 69.7458 69.0834 69.8228 68.8194 69.9328C68.5628 70.0428 68.3904 70.1162 68.3024 70.1528C67.7891 70.3728 67.4114 70.6038 67.1694 70.8458C66.9274 71.0805 66.7551 71.3885 66.6524 71.7698C66.9018 71.4398 67.2171 71.1978 67.5984 71.0438C67.9871 70.8825 68.3648 70.8018 68.7314 70.8018C69.4648 70.8018 70.0698 71.0438 70.5464 71.5278C71.0304 72.0045 71.2724 72.6168 71.2724 73.3648C71.2724 74.1055 71.0158 74.7215 70.5024 75.2128C69.9964 75.6968 69.3548 75.9388 68.5774 75.9388ZM68.5774 75.2128C69.1494 75.2128 69.6188 75.0405 69.9854 74.6958C70.3594 74.3438 70.5464 73.9002 70.5464 73.3648C70.5464 72.8222 70.3704 72.3785 70.0184 72.0338C69.6738 71.6818 69.2118 71.5058 68.6324 71.5058C68.1118 71.5058 67.6388 71.6708 67.2134 72.0008C66.7881 72.3235 66.5754 72.7562 66.5754 73.2988C66.5754 73.8562 66.7661 74.3145 67.1474 74.6738C67.5361 75.0332 68.0128 75.2128 68.5774 75.2128ZM76.9856 75.1138C76.4283 75.6638 75.7463 75.9388 74.9396 75.9388C74.133 75.9388 73.4473 75.6638 72.8826 75.1138C72.3253 74.5565 72.0466 73.8708 72.0466 73.0568C72.0466 72.2428 72.3253 71.5608 72.8826 71.0108C73.4473 70.4535 74.133 70.1748 74.9396 70.1748C75.7463 70.1748 76.4283 70.4535 76.9856 71.0108C77.5503 71.5608 77.8326 72.2428 77.8326 73.0568C77.8326 73.8708 77.5503 74.5565 76.9856 75.1138ZM73.3996 74.6078C73.8176 75.0258 74.331 75.2348 74.9396 75.2348C75.5483 75.2348 76.0616 75.0258 76.4796 74.6078C76.8976 74.1825 77.1066 73.6655 77.1066 73.0568C77.1066 72.4482 76.8976 71.9348 76.4796 71.5168C76.0616 71.0915 75.5483 70.8788 74.9396 70.8788C74.331 70.8788 73.8176 71.0915 73.3996 71.5168C72.9816 71.9348 72.7726 72.4482 72.7726 73.0568C72.7726 73.6655 72.9816 74.1825 73.3996 74.6078ZM82.7927 70.3068V71.0108H80.8457V75.8068H80.1197V71.0108H78.1727V70.3068H82.7927ZM88.1926 70.3068H88.9186V75.8068H88.1926V74.7288C87.6866 75.5355 86.9459 75.9388 85.9706 75.9388C85.1859 75.9388 84.5149 75.6602 83.9576 75.1028C83.4076 74.5455 83.1326 73.8635 83.1326 73.0568C83.1326 72.2502 83.4076 71.5682 83.9576 71.0108C84.5149 70.4535 85.1859 70.1748 85.9706 70.1748C86.9459 70.1748 87.6866 70.5782 88.1926 71.3848V70.3068ZM84.4856 74.6078C84.9036 75.0258 85.4169 75.2348 86.0256 75.2348C86.6342 75.2348 87.1476 75.0258 87.5656 74.6078C87.9836 74.1825 88.1926 73.6655 88.1926 73.0568C88.1926 72.4482 87.9836 71.9348 87.5656 71.5168C87.1476 71.0915 86.6342 70.8788 86.0256 70.8788C85.4169 70.8788 84.9036 71.0915 84.4856 71.5168C84.0676 71.9348 83.8586 72.4482 83.8586 73.0568C83.8586 73.6655 84.0676 74.1825 84.4856 74.6078ZM94.4157 70.3068V71.0108H92.4687V75.8068H91.7427V71.0108H89.7957V70.3068H94.4157ZM97.5335 72.3968C98.0468 72.3968 98.4795 72.5582 98.8315 72.8808C99.1908 73.1962 99.3705 73.6032 99.3705 74.1018C99.3705 74.6005 99.1908 75.0112 98.8315 75.3338C98.4795 75.6492 98.0468 75.8068 97.5335 75.8068H95.3005V70.3068H96.0265V72.3968H97.5335ZM97.5335 75.1028C97.8415 75.1028 98.1018 75.0112 98.3145 74.8278C98.5345 74.6445 98.6445 74.4025 98.6445 74.1018C98.6445 73.8012 98.5345 73.5592 98.3145 73.3758C98.1018 73.1925 97.8415 73.1008 97.5335 73.1008H96.0265V75.1028H97.5335ZM105.78 75.9388C104.952 75.9388 104.262 75.6638 103.712 75.1138C103.162 74.5565 102.887 73.8708 102.887 73.0568C102.887 72.2428 103.162 71.5608 103.712 71.0108C104.262 70.4535 104.952 70.1748 105.78 70.1748C106.323 70.1748 106.811 70.3068 107.243 70.5708C107.676 70.8275 107.991 71.1758 108.189 71.6158L107.595 71.9568C107.449 71.6268 107.21 71.3665 106.88 71.1758C106.558 70.9778 106.191 70.8788 105.78 70.8788C105.172 70.8788 104.658 71.0915 104.24 71.5168C103.822 71.9348 103.613 72.4482 103.613 73.0568C103.613 73.6655 103.822 74.1825 104.24 74.6078C104.658 75.0258 105.172 75.2348 105.78 75.2348C106.191 75.2348 106.558 75.1395 106.88 74.9488C107.203 74.7508 107.456 74.4868 107.639 74.1568L108.244 74.5088C108.017 74.9488 107.683 75.2972 107.243 75.5538C106.803 75.8105 106.316 75.9388 105.78 75.9388ZM115.601 70.3068H116.327V75.8068H115.601V73.7168C115.175 73.9368 114.651 74.0468 114.028 74.0468C113.309 74.0468 112.759 73.8818 112.378 73.5518C112.004 73.2145 111.817 72.7195 111.817 72.0668V70.3068H112.543V72.0668C112.543 72.5288 112.664 72.8625 112.906 73.0678C113.148 73.2658 113.514 73.3648 114.006 73.3648C114.578 73.3648 115.109 73.2585 115.601 73.0458V70.3068ZM122.6 70.3068H123.326V75.8068H122.6V74.7288C122.094 75.5355 121.353 75.9388 120.378 75.9388C119.593 75.9388 118.922 75.6602 118.365 75.1028C117.815 74.5455 117.54 73.8635 117.54 73.0568C117.54 72.2502 117.815 71.5682 118.365 71.0108C118.922 70.4535 119.593 70.1748 120.378 70.1748C121.353 70.1748 122.094 70.5782 122.6 71.3848V70.3068ZM118.893 74.6078C119.311 75.0258 119.824 75.2348 120.433 75.2348C121.041 75.2348 121.555 75.0258 121.973 74.6078C122.391 74.1825 122.6 73.6655 122.6 73.0568C122.6 72.4482 122.391 71.9348 121.973 71.5168C121.555 71.0915 121.041 70.8788 120.433 70.8788C119.824 70.8788 119.311 71.0915 118.893 71.5168C118.475 71.9348 118.266 72.4482 118.266 73.0568C118.266 73.6655 118.475 74.1825 118.893 74.6078ZM128.823 70.3068V71.0108H126.876V75.8068H126.15V71.0108H124.203V70.3068H128.823ZM134.102 75.1138C133.545 75.6638 132.863 75.9388 132.056 75.9388C131.249 75.9388 130.564 75.6638 129.999 75.1138C129.442 74.5565 129.163 73.8708 129.163 73.0568C129.163 72.2428 129.442 71.5608 129.999 71.0108C130.564 70.4535 131.249 70.1748 132.056 70.1748C132.863 70.1748 133.545 70.4535 134.102 71.0108C134.667 71.5608 134.949 72.2428 134.949 73.0568C134.949 73.8708 134.667 74.5565 134.102 75.1138ZM130.516 74.6078C130.934 75.0258 131.447 75.2348 132.056 75.2348C132.665 75.2348 133.178 75.0258 133.596 74.6078C134.014 74.1825 134.223 73.6655 134.223 73.0568C134.223 72.4482 134.014 71.9348 133.596 71.5168C133.178 71.0915 132.665 70.8788 132.056 70.8788C131.447 70.8788 130.934 71.0915 130.516 71.5168C130.098 71.9348 129.889 72.4482 129.889 73.0568C129.889 73.6655 130.098 74.1825 130.516 74.6078ZM141.554 70.3068V75.8068H140.828V71.4178L138.903 74.5418H138.815L136.89 71.4178V75.8068H136.164V70.3068H137L138.859 73.3208L140.718 70.3068H141.554ZM144.016 75.7408C143.899 75.8582 143.756 75.9168 143.587 75.9168C143.419 75.9168 143.276 75.8582 143.158 75.7408C143.041 75.6235 142.982 75.4805 142.982 75.3118C142.982 75.1432 143.041 75.0002 143.158 74.8828C143.276 74.7655 143.419 74.7068 143.587 74.7068C143.756 74.7068 143.899 74.7655 144.016 74.8828C144.134 75.0002 144.192 75.1432 144.192 75.3118C144.192 75.4805 144.134 75.6235 144.016 75.7408Z" fill="#1D2530"/>
<path d="M243.4 71.1H243.82V76H243.33V71.639L242.231 71.968L242.105 71.548L243.4 71.1ZM245.779 71.1H246.199V76H245.709V71.639L244.61 71.968L244.484 71.548L245.779 71.1ZM247.836 73.088C247.761 73.1627 247.67 73.2 247.563 73.2C247.455 73.2 247.364 73.1627 247.29 73.088C247.215 73.0133 247.178 72.9223 247.178 72.815C247.178 72.7077 247.215 72.6167 247.29 72.542C247.364 72.4673 247.455 72.43 247.563 72.43C247.67 72.43 247.761 72.4673 247.836 72.542C247.91 72.6167 247.948 72.7077 247.948 72.815C247.948 72.9223 247.91 73.0133 247.836 73.088ZM247.836 75.958C247.761 76.0327 247.67 76.07 247.563 76.07C247.455 76.07 247.364 76.0327 247.29 75.958C247.215 75.8833 247.178 75.7923 247.178 75.685C247.178 75.5777 247.215 75.4867 247.29 75.412C247.364 75.3373 247.455 75.3 247.563 75.3C247.67 75.3 247.761 75.3373 247.836 75.412C247.91 75.4867 247.948 75.5777 247.948 75.685C247.948 75.7923 247.91 75.8833 247.836 75.958ZM251.941 75.398C251.619 75.8553 251.164 76.084 250.576 76.084C249.988 76.084 249.531 75.8553 249.204 75.398C248.882 74.936 248.721 74.32 248.721 73.55C248.721 72.78 248.882 72.1663 249.204 71.709C249.531 71.247 249.988 71.016 250.576 71.016C251.164 71.016 251.619 71.247 251.941 71.709C252.268 72.1663 252.431 72.78 252.431 73.55C252.431 74.32 252.268 74.936 251.941 75.398ZM249.568 75.069C249.811 75.4283 250.147 75.608 250.576 75.608C251.005 75.608 251.339 75.4283 251.577 75.069C251.82 74.7097 251.941 74.2033 251.941 73.55C251.941 72.8967 251.82 72.3903 251.577 72.031C251.339 71.6717 251.005 71.492 250.576 71.492C250.147 71.492 249.811 71.6717 249.568 72.031C249.33 72.3903 249.211 72.8967 249.211 73.55C249.211 74.2033 249.33 74.7097 249.568 75.069ZM254.723 73.137C255.115 73.1883 255.437 73.34 255.689 73.592C255.945 73.8393 256.074 74.1683 256.074 74.579C256.074 75.0457 255.913 75.4143 255.591 75.685C255.273 75.951 254.886 76.084 254.429 76.084C254.065 76.084 253.74 76 253.456 75.832C253.171 75.664 252.97 75.4237 252.854 75.111L253.26 74.873C253.339 75.1157 253.481 75.3 253.687 75.426C253.892 75.5473 254.139 75.608 254.429 75.608C254.765 75.608 255.04 75.5193 255.255 75.342C255.474 75.16 255.584 74.9057 255.584 74.579C255.584 74.2523 255.474 74.0003 255.255 73.823C255.04 73.641 254.765 73.55 254.429 73.55V73.543L254.422 73.55H254.289L254.079 73.228L255.297 71.562H252.994V71.1H255.864V71.562L254.723 73.137Z" fill="#8E8E93"/>
</svg>
