<svg width="339" height="34" viewBox="0 0 339 34" fill="none" xmlns="http://www.w3.org/2000/svg">
<path d="M0 0H334C336.761 0 339 2.23858 339 5V29C339 31.7614 336.761 34 334 34H5.00001C2.23859 34 0 31.7614 0 29V0Z" fill="#EFFCDE"/>
<path d="M16.3743 16.5558C16.8256 16.7269 17.1757 16.9876 17.4247 17.3377C17.6736 17.6878 17.7981 18.1002 17.7981 18.5748C17.7981 19.2595 17.5414 19.8236 17.0278 20.2671C16.5221 20.7028 15.8374 20.9206 14.9738 20.9206C14.1957 20.9206 13.5733 20.7456 13.1065 20.3954C12.6396 20.0453 12.3167 19.6057 12.1378 19.0766L12.838 18.6798C12.9392 19.0922 13.157 19.4423 13.4916 19.7302C13.8339 20.0103 14.328 20.1504 14.9738 20.1504C15.6118 20.1504 16.1059 20.0064 16.456 19.7185C16.8061 19.4229 16.9812 19.0416 16.9812 18.5748C16.9812 18.108 16.8178 17.7306 16.491 17.4427C16.172 17.1471 15.7285 16.9992 15.1605 16.9992H14.2269V16.229H14.8688C15.4212 16.229 15.8608 16.0889 16.1876 15.8088C16.5143 15.5287 16.6777 15.1669 16.6777 14.7234C16.6777 14.2877 16.5182 13.9337 16.1992 13.6614C15.888 13.3813 15.4601 13.2413 14.9154 13.2413C13.9117 13.2413 13.2504 13.6692 12.9314 14.525L12.2545 14.1282C12.4568 13.6303 12.7758 13.2296 13.2115 12.9261C13.655 12.6227 14.223 12.471 14.9154 12.471C15.6857 12.471 16.3081 12.6888 16.7828 13.1245C17.2574 13.5525 17.4947 14.0893 17.4947 14.7351C17.4947 15.5521 17.1212 16.1589 16.3743 16.5558ZM23.8747 20.0336H24.6916V22.3445H23.9214V20.7806H19.1597V22.3445H18.3894V20.0336H19.1013C19.4981 19.5124 19.6965 18.7771 19.6965 17.8279V14.9452H23.8747V20.0336ZM20.035 20.0336H23.1044V15.6921H20.4668V17.8279C20.4668 18.7226 20.3229 19.4579 20.035 20.0336ZM28.9847 14.8051C29.8172 14.8051 30.5252 15.1008 31.1087 15.6921C31.7001 16.2834 31.9957 17.007 31.9957 17.8629C31.9957 18.7187 31.7001 19.4423 31.1087 20.0336C30.5252 20.625 29.8172 20.9206 28.9847 20.9206C27.9498 20.9206 27.164 20.4927 26.6272 19.6368V23.1147H25.8569V14.9452H26.6272V16.0889C27.164 15.2331 27.9498 14.8051 28.9847 14.8051ZM27.2924 19.5085C27.7359 19.952 28.2805 20.1737 28.9263 20.1737C29.5721 20.1737 30.1167 19.952 30.5602 19.5085C31.0037 19.0572 31.2254 18.5087 31.2254 17.8629C31.2254 17.2171 31.0037 16.6725 30.5602 16.229C30.1167 15.7777 29.5721 15.5521 28.9263 15.5521C28.2805 15.5521 27.7359 15.7777 27.2924 16.229C26.8489 16.6725 26.6272 17.2171 26.6272 17.8629C26.6272 18.5087 26.8489 19.0572 27.2924 19.5085ZM38.2949 14.9452H39.0652V20.7806H38.2949V19.6368C37.7581 20.4927 36.9722 20.9206 35.9374 20.9206C35.1049 20.9206 34.393 20.625 33.8017 20.0336C33.2181 19.4423 32.9264 18.7187 32.9264 17.8629C32.9264 17.007 33.2181 16.2834 33.8017 15.6921C34.393 15.1008 35.1049 14.8051 35.9374 14.8051C36.9722 14.8051 37.7581 15.2331 38.2949 16.0889V14.9452ZM34.3619 19.5085C34.8054 19.952 35.35 20.1737 35.9958 20.1737C36.6416 20.1737 37.1862 19.952 37.6297 19.5085C38.0732 19.0572 38.2949 18.5087 38.2949 17.8629C38.2949 17.2171 38.0732 16.6725 37.6297 16.229C37.1862 15.7777 36.6416 15.5521 35.9958 15.5521C35.35 15.5521 34.8054 15.7777 34.3619 16.229C33.9184 16.6725 33.6966 17.2171 33.6966 17.8629C33.6966 18.5087 33.9184 19.0572 34.3619 19.5085ZM44.4074 17.7812C45.0454 18.0146 45.3644 18.4698 45.3644 19.1467C45.3644 19.6213 45.2049 20.0142 44.8859 20.3254C44.5747 20.6289 44.1234 20.7806 43.5321 20.7806H40.6961V14.9452H43.2987C43.8667 14.9452 44.3063 15.093 44.6175 15.3887C44.9287 15.6766 45.0843 16.05 45.0843 16.5091C45.0843 17.0926 44.8587 17.5167 44.4074 17.7812ZM43.2987 15.6921H41.4664V17.4661H43.2987C43.9756 17.4661 44.314 17.1626 44.314 16.5558C44.314 16.2834 44.2246 16.0734 44.0456 15.9255C43.8744 15.7699 43.6255 15.6921 43.2987 15.6921ZM43.5321 20.0336C43.8744 20.0336 44.1351 19.952 44.314 19.7886C44.5008 19.6252 44.5941 19.3956 44.5941 19.1C44.5941 18.8277 44.5008 18.6137 44.314 18.4581C44.1351 18.2947 43.8744 18.213 43.5321 18.213H41.4664V20.0336H43.5321ZM49.2508 20.9206C48.3716 20.9206 47.6402 20.6289 47.0567 20.0453C46.4731 19.454 46.1814 18.7265 46.1814 17.8629C46.1814 16.9992 46.4731 16.2757 47.0567 15.6921C47.6402 15.1008 48.3716 14.8051 49.2508 14.8051C49.8265 14.8051 50.3439 14.9452 50.803 15.2253C51.262 15.4976 51.5966 15.8672 51.8067 16.334L51.1765 16.6958C51.0208 16.3457 50.768 16.0695 50.4179 15.8672C50.0755 15.6571 49.6865 15.5521 49.2508 15.5521C48.605 15.5521 48.0604 15.7777 47.6169 16.229C47.1734 16.6725 46.9516 17.2171 46.9516 17.8629C46.9516 18.5087 47.1734 19.0572 47.6169 19.5085C48.0604 19.952 48.605 20.1737 49.2508 20.1737C49.6865 20.1737 50.0755 20.0726 50.4179 19.8703C50.7602 19.6602 51.0286 19.3801 51.2231 19.03L51.865 19.4034C51.6238 19.8703 51.2698 20.2398 50.803 20.5122C50.3362 20.7845 49.8188 20.9206 49.2508 20.9206ZM57.0584 14.9452V15.6921H54.9927V20.7806H54.2224V15.6921H52.1567V14.9452H57.0584ZM61.7084 17.7812C62.3464 18.0146 62.6654 18.4698 62.6654 19.1467C62.6654 19.6213 62.5059 20.0142 62.1869 20.3254C61.8757 20.6289 61.4244 20.7806 60.8331 20.7806H57.9971V14.9452H60.5997C61.1677 14.9452 61.6073 15.093 61.9185 15.3887C62.2297 15.6766 62.3853 16.05 62.3853 16.5091C62.3853 17.0926 62.1597 17.5167 61.7084 17.7812ZM60.5997 15.6921H58.7674V17.4661H60.5997C61.2766 17.4661 61.6151 17.1626 61.6151 16.5558C61.6151 16.2834 61.5256 16.0734 61.3466 15.9255C61.1755 15.7699 60.9265 15.6921 60.5997 15.6921ZM60.8331 20.0336C61.1755 20.0336 61.4361 19.952 61.6151 19.7886C61.8018 19.6252 61.8952 19.3956 61.8952 19.1C61.8952 18.8277 61.8018 18.6137 61.6151 18.4581C61.4361 18.2947 61.1755 18.213 60.8331 18.213H58.7674V20.0336H60.8331ZM67.806 14.9452H68.623L66.1255 21.3174C65.8998 21.8932 65.5769 22.3445 65.1568 22.6712C64.7444 23.0058 64.2815 23.1536 63.768 23.1147V22.3911C64.4682 22.469 65.0012 22.0644 65.3669 21.1774L65.5186 20.8156L62.9043 14.9452H63.7213L65.9154 19.8352L67.806 14.9452ZM70.4876 14.0115V13.3346H73.522V14.0115H70.4876ZM73.8021 14.9452H74.4557V20.7806H73.6854V16.2873L70.2075 20.7806H69.5539V14.9452H70.3242V19.4384L73.8021 14.9452ZM80.286 14.9452V15.6921H78.2203V20.7806H77.45V15.6921H75.3843V14.9452H80.286ZM83.6927 14.8051C84.5564 14.8051 85.2527 15.1125 85.7818 15.7271C86.3186 16.334 86.5871 17.0537 86.5871 17.8862C86.5871 17.9718 86.5793 18.0924 86.5637 18.248H81.4403C81.5181 18.8393 81.767 19.3101 82.1872 19.6602C82.6151 20.0025 83.1403 20.1737 83.7627 20.1737C84.2062 20.1737 84.5875 20.0842 84.9065 19.9053C85.2333 19.7185 85.4783 19.4773 85.6417 19.1817L86.3186 19.5785C86.0619 19.9909 85.7118 20.3176 85.2683 20.5588C84.8248 20.8 84.319 20.9206 83.7511 20.9206C82.833 20.9206 82.086 20.6327 81.5103 20.057C80.9345 19.4812 80.6466 18.7499 80.6466 17.8629C80.6466 16.9915 80.9306 16.264 81.4986 15.6804C82.0666 15.0969 82.798 14.8051 83.6927 14.8051ZM83.6927 15.5521C83.0858 15.5521 82.5762 15.7349 82.1638 16.1006C81.7593 16.4585 81.5181 16.9253 81.4403 17.5011H85.7935C85.7156 16.8864 85.4783 16.4079 85.0815 16.0656C84.6847 15.7232 84.2218 15.5521 83.6927 15.5521ZM88.0457 18.5631L87.8707 14.9452V12.611H88.8043V14.9452L88.6293 18.5631H88.0457ZM88.7927 20.7106C88.6682 20.835 88.5165 20.8973 88.3375 20.8973C88.1585 20.8973 88.0068 20.835 87.8823 20.7106C87.7579 20.5861 87.6956 20.4343 87.6956 20.2554C87.6956 20.0764 87.7579 19.9247 87.8823 19.8002C88.0068 19.6757 88.1585 19.6135 88.3375 19.6135C88.5165 19.6135 88.6682 19.6757 88.7927 19.8002C88.9171 19.9247 88.9794 20.0764 88.9794 20.2554C88.9794 20.4343 88.9171 20.5861 88.7927 20.7106ZM98.4382 14.9452H99.2085V20.7806H98.4382V19.6368C97.9013 20.4927 97.1155 20.9206 96.0807 20.9206C95.2482 20.9206 94.5363 20.625 93.9449 20.0336C93.3614 19.4423 93.0696 18.7187 93.0696 17.8629C93.0696 17.007 93.3614 16.2834 93.9449 15.6921C94.5363 15.1008 95.2482 14.8051 96.0807 14.8051C97.1155 14.8051 97.9013 15.2331 98.4382 16.0889V14.9452ZM94.5051 19.5085C94.9486 19.952 95.4933 20.1737 96.1391 20.1737C96.7848 20.1737 97.3295 19.952 97.773 19.5085C98.2165 19.0572 98.4382 18.5087 98.4382 17.8629C98.4382 17.2171 98.2165 16.6725 97.773 16.229C97.3295 15.7777 96.7848 15.5521 96.1391 15.5521C95.4933 15.5521 94.9486 15.7777 94.5051 16.229C94.0617 16.6725 93.8399 17.2171 93.8399 17.8629C93.8399 18.5087 94.0617 19.0572 94.5051 19.5085ZM106.885 14.8051C107.717 14.8051 108.425 15.1008 109.009 15.6921C109.6 16.2834 109.896 17.007 109.896 17.8629C109.896 18.7187 109.6 19.4423 109.009 20.0336C108.425 20.625 107.717 20.9206 106.885 20.9206C105.85 20.9206 105.064 20.4927 104.527 19.6368V23.1147H103.757V14.9452H104.527V16.0889C105.064 15.2331 105.85 14.8051 106.885 14.8051ZM105.193 19.5085C105.636 19.952 106.181 20.1737 106.826 20.1737C107.472 20.1737 108.017 19.952 108.46 19.5085C108.904 19.0572 109.126 18.5087 109.126 17.8629C109.126 17.2171 108.904 16.6725 108.46 16.229C108.017 15.7777 107.472 15.5521 106.826 15.5521C106.181 15.5521 105.636 15.7777 105.193 16.229C104.749 16.6725 104.527 17.2171 104.527 17.8629C104.527 18.5087 104.749 19.0572 105.193 19.5085ZM116.195 14.9452H116.965V20.7806H116.195V19.6368C115.658 20.4927 114.872 20.9206 113.838 20.9206C113.005 20.9206 112.293 20.625 111.702 20.0336C111.118 19.4423 110.827 18.7187 110.827 17.8629C110.827 17.007 111.118 16.2834 111.702 15.6921C112.293 15.1008 113.005 14.8051 113.838 14.8051C114.872 14.8051 115.658 15.2331 116.195 16.0889V14.9452ZM112.262 19.5085C112.706 19.952 113.25 20.1737 113.896 20.1737C114.542 20.1737 115.086 19.952 115.53 19.5085C115.973 19.0572 116.195 18.5087 116.195 17.8629C116.195 17.2171 115.973 16.6725 115.53 16.229C115.086 15.7777 114.542 15.5521 113.896 15.5521C113.25 15.5521 112.706 15.7777 112.262 16.229C111.819 16.6725 111.597 17.2171 111.597 17.8629C111.597 18.5087 111.819 19.0572 112.262 19.5085ZM121.316 20.9206C120.436 20.9206 119.705 20.6289 119.121 20.0453C118.538 19.454 118.246 18.7265 118.246 17.8629C118.246 16.9992 118.538 16.2757 119.121 15.6921C119.705 15.1008 120.436 14.8051 121.316 14.8051C121.891 14.8051 122.409 14.9452 122.868 15.2253C123.327 15.4976 123.661 15.8672 123.871 16.334L123.241 16.6958C123.086 16.3457 122.833 16.0695 122.483 15.8672C122.14 15.6571 121.751 15.5521 121.316 15.5521C120.67 15.5521 120.125 15.7777 119.682 16.229C119.238 16.6725 119.016 17.2171 119.016 17.8629C119.016 18.5087 119.238 19.0572 119.682 19.5085C120.125 19.952 120.67 20.1737 121.316 20.1737C121.751 20.1737 122.14 20.0726 122.483 19.8703C122.825 19.6602 123.093 19.3801 123.288 19.03L123.93 19.4034C123.689 19.8703 123.335 20.2398 122.868 20.5122C122.401 20.7845 121.884 20.9206 121.316 20.9206ZM127.698 20.9206C126.819 20.9206 126.087 20.6289 125.504 20.0453C124.92 19.454 124.629 18.7265 124.629 17.8629C124.629 16.9992 124.92 16.2757 125.504 15.6921C126.087 15.1008 126.819 14.8051 127.698 14.8051C128.274 14.8051 128.791 14.9452 129.25 15.2253C129.709 15.4976 130.044 15.8672 130.254 16.334L129.624 16.6958C129.468 16.3457 129.215 16.0695 128.865 15.8672C128.523 15.6571 128.134 15.5521 127.698 15.5521C127.052 15.5521 126.508 15.7777 126.064 16.229C125.621 16.6725 125.399 17.2171 125.399 17.8629C125.399 18.5087 125.621 19.0572 126.064 19.5085C126.508 19.952 127.052 20.1737 127.698 20.1737C128.134 20.1737 128.523 20.0726 128.865 19.8703C129.207 19.6602 129.476 19.3801 129.67 19.03L130.312 19.4034C130.071 19.8703 129.717 20.2398 129.25 20.5122C128.783 20.7845 128.266 20.9206 127.698 20.9206ZM136.133 20.7806H135.106L132.188 17.9679V20.7806H131.418V14.9452H132.188V17.5244L134.966 14.9452H136.016L133.005 17.7462L136.133 20.7806ZM141.622 14.9452H142.393V20.7806H141.622V19.6368C141.086 20.4927 140.3 20.9206 139.265 20.9206C138.432 20.9206 137.72 20.625 137.129 20.0336C136.546 19.4423 136.254 18.7187 136.254 17.8629C136.254 17.007 136.546 16.2834 137.129 15.6921C137.72 15.1008 138.432 14.8051 139.265 14.8051C140.3 14.8051 141.086 15.2331 141.622 16.0889V14.9452ZM137.689 19.5085C138.133 19.952 138.677 20.1737 139.323 20.1737C139.969 20.1737 140.514 19.952 140.957 19.5085C141.401 19.0572 141.622 18.5087 141.622 17.8629C141.622 17.2171 141.401 16.6725 140.957 16.229C140.514 15.7777 139.969 15.5521 139.323 15.5521C138.677 15.5521 138.133 15.7777 137.689 16.229C137.246 16.6725 137.024 17.2171 137.024 17.8629C137.024 18.5087 137.246 19.0572 137.689 19.5085ZM150.839 20.7806H149.906L147.525 17.9679V20.7806H146.754V17.9679L144.374 20.7806H143.44L146.054 17.7462L143.557 14.9452H144.49L146.754 17.5361V14.9452H147.525V17.5361L149.789 14.9452H150.723L148.225 17.7462L150.839 20.7806ZM156.136 14.9452H156.789V20.7806H156.019V16.2873L152.541 20.7806H151.888V14.9452H152.658V19.4384L156.136 14.9452ZM162.62 14.9452V15.6921H160.554V20.7806H159.784V15.6921H157.718V14.9452H162.62ZM166.026 14.8051C166.89 14.8051 167.586 15.1125 168.115 15.7271C168.652 16.334 168.921 17.0537 168.921 17.8862C168.921 17.9718 168.913 18.0924 168.897 18.248H163.774C163.852 18.8393 164.101 19.3101 164.521 19.6602C164.949 20.0025 165.474 20.1737 166.096 20.1737C166.54 20.1737 166.921 20.0842 167.24 19.9053C167.567 19.7185 167.812 19.4773 167.975 19.1817L168.652 19.5785C168.396 19.9909 168.045 20.3176 167.602 20.5588C167.158 20.8 166.653 20.9206 166.085 20.9206C165.167 20.9206 164.42 20.6327 163.844 20.057C163.268 19.4812 162.98 18.7499 162.98 17.8629C162.98 16.9915 163.264 16.264 163.832 15.6804C164.4 15.0969 165.132 14.8051 166.026 14.8051ZM166.026 15.5521C165.42 15.5521 164.91 15.7349 164.498 16.1006C164.093 16.4585 163.852 16.9253 163.774 17.5011H168.127C168.049 16.8864 167.812 16.4079 167.415 16.0656C167.018 15.7232 166.555 15.5521 166.026 15.5521ZM177.954 20.0453C177.362 20.6289 176.639 20.9206 175.783 20.9206C174.927 20.9206 174.2 20.6289 173.601 20.0453C173.009 19.454 172.714 18.7265 172.714 17.8629C172.714 16.9992 173.009 16.2757 173.601 15.6921C174.2 15.1008 174.927 14.8051 175.783 14.8051C176.639 14.8051 177.362 15.1008 177.954 15.6921C178.553 16.2757 178.852 16.9992 178.852 17.8629C178.852 18.7265 178.553 19.454 177.954 20.0453ZM174.149 19.5085C174.593 19.952 175.137 20.1737 175.783 20.1737C176.429 20.1737 176.973 19.952 177.417 19.5085C177.86 19.0572 178.082 18.5087 178.082 17.8629C178.082 17.2171 177.86 16.6725 177.417 16.229C176.973 15.7777 176.429 15.5521 175.783 15.5521C175.137 15.5521 174.593 15.7777 174.149 16.229C173.706 16.6725 173.484 17.2171 173.484 17.8629C173.484 18.5087 173.706 19.0572 174.149 19.5085ZM186.187 14.8051C187.019 14.8051 187.727 15.1008 188.311 15.6921C188.902 16.2834 189.198 17.007 189.198 17.8629C189.198 18.7187 188.902 19.4423 188.311 20.0336C187.727 20.625 187.019 20.9206 186.187 20.9206C185.152 20.9206 184.366 20.4927 183.829 19.6368V23.1147H183.059V14.9452H183.829V16.0889C184.366 15.2331 185.152 14.8051 186.187 14.8051ZM184.495 19.5085C184.938 19.952 185.483 20.1737 186.129 20.1737C186.774 20.1737 187.319 19.952 187.762 19.5085C188.206 19.0572 188.428 18.5087 188.428 17.8629C188.428 17.2171 188.206 16.6725 187.762 16.229C187.319 15.7777 186.774 15.5521 186.129 15.5521C185.483 15.5521 184.938 15.7777 184.495 16.229C184.051 16.6725 183.829 17.2171 183.829 17.8629C183.829 18.5087 184.051 19.0572 184.495 19.5085ZM195.497 14.9452H196.267V20.7806H195.497V19.6368C194.96 20.4927 194.174 20.9206 193.14 20.9206C192.307 20.9206 191.595 20.625 191.004 20.0336C190.42 19.4423 190.129 18.7187 190.129 17.8629C190.129 17.007 190.42 16.2834 191.004 15.6921C191.595 15.1008 192.307 14.8051 193.14 14.8051C194.174 14.8051 194.96 15.2331 195.497 16.0889V14.9452ZM191.564 19.5085C192.008 19.952 192.552 20.1737 193.198 20.1737C193.844 20.1737 194.388 19.952 194.832 19.5085C195.275 19.0572 195.497 18.5087 195.497 17.8629C195.497 17.2171 195.275 16.6725 194.832 16.229C194.388 15.7777 193.844 15.5521 193.198 15.5521C192.552 15.5521 192.008 15.7777 191.564 16.229C191.121 16.6725 190.899 17.2171 190.899 17.8629C190.899 18.5087 191.121 19.0572 191.564 19.5085ZM200.489 20.9206C199.649 20.9206 198.949 20.6444 198.388 20.092C197.828 19.5318 197.548 18.8082 197.548 17.9212C197.548 16.9253 197.696 16.1628 197.992 15.6338C198.287 15.0969 198.886 14.6106 199.789 14.1749C199.96 14.0893 200.186 13.9882 200.466 13.8715C200.754 13.7548 200.968 13.6614 201.108 13.5914C201.256 13.5214 201.415 13.4319 201.586 13.3229C201.757 13.2062 201.886 13.0779 201.971 12.9378C202.057 12.7978 202.111 12.6305 202.135 12.436L202.742 12.7861C202.711 12.9728 202.648 13.1479 202.555 13.3113C202.462 13.4747 202.364 13.6069 202.263 13.7081C202.17 13.8092 202.018 13.922 201.808 14.0465C201.606 14.1632 201.446 14.2488 201.33 14.3033C201.221 14.35 201.026 14.4317 200.746 14.5484C200.474 14.6651 200.291 14.7429 200.197 14.7818C199.653 15.0152 199.252 15.2603 198.995 15.5171C198.739 15.766 198.556 16.0928 198.447 16.4974C198.711 16.1473 199.046 15.8905 199.451 15.7271C199.863 15.556 200.264 15.4704 200.653 15.4704C201.431 15.4704 202.073 15.7271 202.578 16.2406C203.092 16.7464 203.349 17.3961 203.349 18.1897C203.349 18.9755 203.076 19.6291 202.532 20.1504C201.995 20.6639 201.314 20.9206 200.489 20.9206ZM200.489 20.1504C201.096 20.1504 201.594 19.9675 201.983 19.6018C202.38 19.2284 202.578 18.7576 202.578 18.1897C202.578 17.6139 202.392 17.1432 202.018 16.7775C201.652 16.404 201.162 16.2173 200.548 16.2173C199.995 16.2173 199.493 16.3924 199.042 16.7425C198.591 17.0848 198.365 17.5439 198.365 18.1196C198.365 18.711 198.567 19.1972 198.972 19.5785C199.384 19.9597 199.89 20.1504 200.489 20.1504ZM209.41 20.0453C208.819 20.6289 208.095 20.9206 207.239 20.9206C206.384 20.9206 205.656 20.6289 205.057 20.0453C204.466 19.454 204.17 18.7265 204.17 17.8629C204.17 16.9992 204.466 16.2757 205.057 15.6921C205.656 15.1008 206.384 14.8051 207.239 14.8051C208.095 14.8051 208.819 15.1008 209.41 15.6921C210.009 16.2757 210.309 16.9992 210.309 17.8629C210.309 18.7265 210.009 19.454 209.41 20.0453ZM205.605 19.5085C206.049 19.952 206.594 20.1737 207.239 20.1737C207.885 20.1737 208.43 19.952 208.873 19.5085C209.317 19.0572 209.539 18.5087 209.539 17.8629C209.539 17.2171 209.317 16.6725 208.873 16.229C208.43 15.7777 207.885 15.5521 207.239 15.5521C206.594 15.5521 206.049 15.7777 205.605 16.229C205.162 16.6725 204.94 17.2171 204.94 17.8629C204.94 18.5087 205.162 19.0572 205.605 19.5085ZM215.571 14.9452V15.6921H213.506V20.7806H212.735V15.6921H210.67V14.9452H215.571ZM218.978 14.8051C219.842 14.8051 220.538 15.1125 221.067 15.7271C221.604 16.334 221.872 17.0537 221.872 17.8862C221.872 17.9718 221.865 18.0924 221.849 18.248H216.726C216.803 18.8393 217.052 19.3101 217.472 19.6602C217.9 20.0025 218.426 20.1737 219.048 20.1737C219.492 20.1737 219.873 20.0842 220.192 19.9053C220.519 19.7185 220.764 19.4773 220.927 19.1817L221.604 19.5785C221.347 19.9909 220.997 20.3176 220.554 20.5588C220.11 20.8 219.604 20.9206 219.036 20.9206C218.118 20.9206 217.371 20.6327 216.796 20.057C216.22 19.4812 215.932 18.7499 215.932 17.8629C215.932 16.9915 216.216 16.264 216.784 15.6804C217.352 15.0969 218.083 14.8051 218.978 14.8051ZM218.978 15.5521C218.371 15.5521 217.862 15.7349 217.449 16.1006C217.045 16.4585 216.803 16.9253 216.726 17.5011H221.079C221.001 16.8864 220.764 16.4079 220.367 16.0656C219.97 15.7232 219.507 15.5521 218.978 15.5521ZM231.267 12.611V13.3813H228.758V20.7806H227.941V13.3813H225.432V12.611H231.267ZM236.16 20.0453C235.568 20.6289 234.845 20.9206 233.989 20.9206C233.133 20.9206 232.405 20.6289 231.806 20.0453C231.215 19.454 230.919 18.7265 230.919 17.8629C230.919 16.9992 231.215 16.2757 231.806 15.6921C232.405 15.1008 233.133 14.8051 233.989 14.8051C234.845 14.8051 235.568 15.1008 236.16 15.6921C236.759 16.2757 237.058 16.9992 237.058 17.8629C237.058 18.7265 236.759 19.454 236.16 20.0453ZM232.355 19.5085C232.798 19.952 233.343 20.1737 233.989 20.1737C234.635 20.1737 235.179 19.952 235.623 19.5085C236.066 19.0572 236.288 18.5087 236.288 17.8629C236.288 17.2171 236.066 16.6725 235.623 16.229C235.179 15.7777 234.635 15.5521 233.989 15.5521C233.343 15.5521 232.798 15.7777 232.355 16.229C231.911 16.6725 231.69 17.2171 231.69 17.8629C231.69 18.5087 231.911 19.0572 232.355 19.5085ZM241.066 20.9206C240.187 20.9206 239.456 20.6289 238.872 20.0453C238.289 19.454 237.997 18.7265 237.997 17.8629C237.997 16.9992 238.289 16.2757 238.872 15.6921C239.456 15.1008 240.187 14.8051 241.066 14.8051C241.642 14.8051 242.16 14.9452 242.619 15.2253C243.078 15.4976 243.412 15.8672 243.622 16.334L242.992 16.6958C242.836 16.3457 242.584 16.0695 242.234 15.8672C241.891 15.6571 241.502 15.5521 241.066 15.5521C240.421 15.5521 239.876 15.7777 239.433 16.229C238.989 16.6725 238.767 17.2171 238.767 17.8629C238.767 18.5087 238.989 19.0572 239.433 19.5085C239.876 19.952 240.421 20.1737 241.066 20.1737C241.502 20.1737 241.891 20.0726 242.234 19.8703C242.576 19.6602 242.844 19.3801 243.039 19.03L243.681 19.4034C243.439 19.8703 243.085 20.2398 242.619 20.5122C242.152 20.7845 241.634 20.9206 241.066 20.9206ZM247.518 14.8051C248.226 14.8051 248.782 15.023 249.186 15.4587C249.599 15.8866 249.805 16.4663 249.805 17.1976V20.7806H249.035V17.1976C249.035 16.6764 248.895 16.2718 248.615 15.9839C248.342 15.696 247.953 15.5521 247.448 15.5521C246.887 15.5521 246.432 15.731 246.082 16.0889C245.732 16.439 245.557 16.9837 245.557 17.7228V20.7806H244.787V12.611H245.557V15.8555C245.993 15.1553 246.646 14.8051 247.518 14.8051ZM256.313 14.9452H257.083V20.7806H256.313V19.6368C255.776 20.4927 254.99 20.9206 253.955 20.9206C253.123 20.9206 252.411 20.625 251.82 20.0336C251.236 19.4423 250.944 18.7187 250.944 17.8629C250.944 17.007 251.236 16.2834 251.82 15.6921C252.411 15.1008 253.123 14.8051 253.955 14.8051C254.99 14.8051 255.776 15.2331 256.313 16.0889V14.9452ZM252.38 19.5085C252.823 19.952 253.368 20.1737 254.014 20.1737C254.659 20.1737 255.204 19.952 255.648 19.5085C256.091 19.0572 256.313 18.5087 256.313 17.8629C256.313 17.2171 256.091 16.6725 255.648 16.229C255.204 15.7777 254.659 15.5521 254.014 15.5521C253.368 15.5521 252.823 15.7777 252.38 16.229C251.936 16.6725 251.715 17.2171 251.715 17.8629C251.715 18.5087 251.936 19.0572 252.38 19.5085ZM268.506 19.6952C267.689 20.5122 266.689 20.9206 265.506 20.9206C264.324 20.9206 263.324 20.5122 262.507 19.6952C261.69 18.8705 261.282 17.8707 261.282 16.6958C261.282 15.5209 261.69 14.525 262.507 13.7081C263.324 12.8834 264.324 12.471 265.506 12.471C266.689 12.471 267.689 12.8834 268.506 13.7081C269.323 14.525 269.731 15.5209 269.731 16.6958C269.731 17.8707 269.323 18.8705 268.506 19.6952ZM263.079 19.135C263.732 19.7963 264.542 20.127 265.506 20.127C266.471 20.127 267.28 19.7963 267.934 19.135C268.587 18.4659 268.914 17.6528 268.914 16.6958C268.914 15.7388 268.587 14.9296 267.934 14.2683C267.28 13.5992 266.471 13.2646 265.506 13.2646C264.542 13.2646 263.732 13.5992 263.079 14.2683C262.425 14.9296 262.099 15.7388 262.099 16.6958C262.099 17.6528 262.425 18.4659 263.079 19.135ZM273.743 14.8051C274.451 14.8051 275.007 15.023 275.412 15.4587C275.824 15.8866 276.03 16.4663 276.03 17.1976V20.7806H275.26V17.1976C275.26 16.6764 275.12 16.2718 274.84 15.9839C274.567 15.696 274.178 15.5521 273.673 15.5521C273.112 15.5521 272.657 15.731 272.307 16.0889C271.957 16.439 271.782 16.9837 271.782 17.7228V20.7806H271.012V14.9452H271.782V15.8555C272.218 15.1553 272.871 14.8051 273.743 14.8051ZM277.519 20.7806V12.2609H278.29V20.7806H277.519ZM280.706 13.5447C280.597 13.6536 280.465 13.7081 280.309 13.7081C280.154 13.7081 280.022 13.6536 279.913 13.5447C279.804 13.4358 279.749 13.3035 279.749 13.1479C279.749 12.9923 279.804 12.86 279.913 12.7511C280.022 12.6422 280.154 12.5877 280.309 12.5877C280.465 12.5877 280.597 12.6422 280.706 12.7511C280.815 12.86 280.87 12.9923 280.87 13.1479C280.87 13.3035 280.815 13.4358 280.706 13.5447ZM279.924 20.7806V14.9452H280.695V20.7806H279.924ZM285.06 14.8051C285.768 14.8051 286.324 15.023 286.729 15.4587C287.141 15.8866 287.348 16.4663 287.348 17.1976V20.7806H286.577V17.1976C286.577 16.6764 286.437 16.2718 286.157 15.9839C285.885 15.696 285.496 15.5521 284.99 15.5521C284.43 15.5521 283.975 15.731 283.625 16.0889C283.274 16.439 283.099 16.9837 283.099 17.7228V20.7806H282.329V14.9452H283.099V15.8555C283.535 15.1553 284.189 14.8051 285.06 14.8051ZM291.533 14.8051C292.397 14.8051 293.093 15.1125 293.622 15.7271C294.159 16.334 294.427 17.0537 294.427 17.8862C294.427 17.9718 294.419 18.0924 294.404 18.248H289.28C289.358 18.8393 289.607 19.3101 290.027 19.6602C290.455 20.0025 290.98 20.1737 291.603 20.1737C292.046 20.1737 292.428 20.0842 292.747 19.9053C293.073 19.7185 293.319 19.4773 293.482 19.1817L294.159 19.5785C293.902 19.9909 293.552 20.3176 293.108 20.5588C292.665 20.8 292.159 20.9206 291.591 20.9206C290.673 20.9206 289.926 20.6327 289.35 20.057C288.775 19.4812 288.487 18.7499 288.487 17.8629C288.487 16.9915 288.771 16.264 289.339 15.6804C289.907 15.0969 290.638 14.8051 291.533 14.8051ZM291.533 15.5521C290.926 15.5521 290.416 15.7349 290.004 16.1006C289.599 16.4585 289.358 16.9253 289.28 17.5011H293.634C293.556 16.8864 293.319 16.4079 292.922 16.0656C292.525 15.7232 292.062 15.5521 291.533 15.5521ZM296.166 20.7106C296.041 20.835 295.889 20.8973 295.71 20.8973C295.531 20.8973 295.38 20.835 295.255 20.7106C295.131 20.5861 295.069 20.4343 295.069 20.2554C295.069 20.0764 295.131 19.9247 295.255 19.8002C295.38 19.6757 295.531 19.6135 295.71 19.6135C295.889 19.6135 296.041 19.6757 296.166 19.8002C296.29 19.9247 296.352 20.0764 296.352 20.2554C296.352 20.4343 296.29 20.5861 296.166 20.7106Z" fill="#1D2530"/>
<path d="M315.695 22.9775H316.161V28.4238H315.617V23.5766L314.395 23.9422L314.255 23.4754L315.695 22.9775ZM318.339 22.9775H318.806V28.4238H318.261V23.5766L317.039 23.9422L316.899 23.4754L318.339 22.9775ZM320.625 25.1871C320.542 25.2701 320.441 25.3116 320.322 25.3116C320.202 25.3116 320.101 25.2701 320.018 25.1871C319.935 25.1041 319.894 25.003 319.894 24.8837C319.894 24.7644 319.935 24.6632 320.018 24.5803C320.101 24.4973 320.202 24.4558 320.322 24.4558C320.441 24.4558 320.542 24.4973 320.625 24.5803C320.708 24.6632 320.75 24.7644 320.75 24.8837C320.75 25.003 320.708 25.1041 320.625 25.1871ZM320.625 28.3771C320.542 28.4601 320.441 28.5016 320.322 28.5016C320.202 28.5016 320.101 28.4601 320.018 28.3771C319.935 28.2942 319.894 28.193 319.894 28.0737C319.894 27.9544 319.935 27.8533 320.018 27.7703C320.101 27.6873 320.202 27.6458 320.322 27.6458C320.441 27.6458 320.542 27.6873 320.625 27.7703C320.708 27.8533 320.75 27.9544 320.75 28.0737C320.75 28.193 320.708 28.2942 320.625 28.3771ZM325.188 27.7547C324.83 28.263 324.324 28.5172 323.671 28.5172C323.017 28.5172 322.509 28.263 322.146 27.7547C321.788 27.2412 321.609 26.5565 321.609 25.7006C321.609 24.8448 321.788 24.1627 322.146 23.6544C322.509 23.1409 323.017 22.8841 323.671 22.8841C324.324 22.8841 324.83 23.1409 325.188 23.6544C325.551 24.1627 325.733 24.8448 325.733 25.7006C325.733 26.5565 325.551 27.2412 325.188 27.7547ZM322.551 27.389C322.82 27.7884 323.194 27.9881 323.671 27.9881C324.148 27.9881 324.519 27.7884 324.784 27.389C325.053 26.9896 325.188 26.4268 325.188 25.7006C325.188 24.9745 325.053 24.4117 324.784 24.0123C324.519 23.6129 324.148 23.4132 323.671 23.4132C323.194 23.4132 322.82 23.6129 322.551 24.0123C322.286 24.4117 322.154 24.9745 322.154 25.7006C322.154 26.4268 322.286 26.9896 322.551 27.389ZM326.356 28.4238V27.9337L328.317 25.9574C328.877 25.3972 329.157 24.9174 329.157 24.518C329.157 24.1705 329.048 23.9008 328.83 23.7088C328.618 23.5117 328.361 23.4132 328.06 23.4132C327.5 23.4132 327.093 23.6699 326.838 24.1834L326.379 23.9111C326.551 23.574 326.784 23.3198 327.08 23.1486C327.375 22.9723 327.702 22.8841 328.06 22.8841C328.496 22.8841 328.877 23.0319 329.204 23.3276C329.536 23.6181 329.702 24.0149 329.702 24.518C329.702 24.8344 329.614 25.1379 329.437 25.4283C329.261 25.7188 329.012 26.0248 328.69 26.3464L327.134 27.8948H329.818V28.4238H326.356Z" fill="#8E8E93"/>
</svg>
