<svg width="266" height="39" viewBox="0 0 266 39" fill="none" xmlns="http://www.w3.org/2000/svg">
<path d="M0 4C0 1.79086 1.79086 0 4 0H266V35C266 37.2091 264.209 39 262 39H4C1.79086 39 0 37.2091 0 35V4Z" fill="#F5F7F8"/>
<path d="M15.8835 15.8068H14.8715L11.2635 12.0778V15.8068H10.4935V8.10682H11.2635V11.6268L14.7615 8.10682H15.7735L12.0775 11.8468L15.8835 15.8068ZM20.8792 15.1138C20.3218 15.6638 19.6398 15.9388 18.8332 15.9388C18.0265 15.9388 17.3408 15.6638 16.7762 15.1138C16.2188 14.5565 15.9402 13.8708 15.9402 13.0568C15.9402 12.2428 16.2188 11.5608 16.7762 11.0108C17.3408 10.4535 18.0265 10.1748 18.8332 10.1748C19.6398 10.1748 20.3218 10.4535 20.8792 11.0108C21.4439 11.5608 21.7262 12.2428 21.7262 13.0568C21.7262 13.8708 21.4439 14.5565 20.8792 15.1138ZM17.2932 14.6078C17.7112 15.0258 18.2245 15.2348 18.8332 15.2348C19.4418 15.2348 19.9552 15.0258 20.3732 14.6078C20.7912 14.1825 21.0002 13.6655 21.0002 13.0568C21.0002 12.4482 20.7912 11.9348 20.3732 11.5168C19.9552 11.0915 19.4418 10.8788 18.8332 10.8788C18.2245 10.8788 17.7112 11.0915 17.2932 11.5168C16.8752 11.9348 16.6662 12.4482 16.6662 13.0568C16.6662 13.6655 16.8752 14.1825 17.2932 14.6078ZM26.8351 10.3068H27.5611V15.8068H26.8351V13.4088H23.6671V15.8068H22.9411V10.3068H23.6671V12.7048H26.8351V10.3068ZM31.6374 10.1748C32.4514 10.1748 33.1077 10.4645 33.6064 11.0438C34.1124 11.6158 34.3654 12.2942 34.3654 13.0788C34.3654 13.1595 34.358 13.2732 34.3434 13.4198H29.5144C29.5877 13.9772 29.8224 14.4208 30.2184 14.7508C30.6217 15.0735 31.1167 15.2348 31.7034 15.2348C32.1214 15.2348 32.4807 15.1505 32.7814 14.9818C33.0894 14.8058 33.3204 14.5785 33.4744 14.2998L34.1124 14.6738C33.8704 15.0625 33.5404 15.3705 33.1224 15.5978C32.7044 15.8252 32.2277 15.9388 31.6924 15.9388C30.827 15.9388 30.123 15.6675 29.5804 15.1248C29.0377 14.5822 28.7664 13.8928 28.7664 13.0568C28.7664 12.2355 29.034 11.5498 29.5694 10.9998C30.1047 10.4498 30.794 10.1748 31.6374 10.1748ZM31.6374 10.8788C31.0654 10.8788 30.585 11.0512 30.1964 11.3958C29.815 11.7332 29.5877 12.1732 29.5144 12.7158H33.6174C33.544 12.1365 33.3204 11.6855 32.9464 11.3628C32.5724 11.0402 32.136 10.8788 31.6374 10.8788ZM39.0842 10.3068H39.8102V15.8068H39.0842V13.7168C38.6589 13.9368 38.1345 14.0468 37.5112 14.0468C36.7925 14.0468 36.2425 13.8818 35.8612 13.5518C35.4872 13.2145 35.3002 12.7195 35.3002 12.0668V10.3068H36.0262V12.0668C36.0262 12.5288 36.1472 12.8625 36.3892 13.0678C36.6312 13.2658 36.9978 13.3648 37.4892 13.3648C38.0612 13.3648 38.5929 13.2585 39.0842 13.0458V10.3068ZM45.2472 10.3068H45.9732V15.8068H45.2472V13.4088H42.0792V15.8068H41.3532V10.3068H42.0792V12.7048H45.2472V10.3068ZM52.1175 15.1138C51.5601 15.6638 50.8781 15.9388 50.0715 15.9388C49.2648 15.9388 48.5791 15.6638 48.0145 15.1138C47.4571 14.5565 47.1785 13.8708 47.1785 13.0568C47.1785 12.2428 47.4571 11.5608 48.0145 11.0108C48.5791 10.4535 49.2648 10.1748 50.0715 10.1748C50.8781 10.1748 51.5601 10.4535 52.1175 11.0108C52.6821 11.5608 52.9645 12.2428 52.9645 13.0568C52.9645 13.8708 52.6821 14.5565 52.1175 15.1138ZM48.5315 14.6078C48.9495 15.0258 49.4628 15.2348 50.0715 15.2348C50.6801 15.2348 51.1935 15.0258 51.6115 14.6078C52.0295 14.1825 52.2385 13.6655 52.2385 13.0568C52.2385 12.4482 52.0295 11.9348 51.6115 11.5168C51.1935 11.0915 50.6801 10.8788 50.0715 10.8788C49.4628 10.8788 48.9495 11.0915 48.5315 11.5168C48.1135 11.9348 47.9045 12.4482 47.9045 13.0568C47.9045 13.6655 48.1135 14.1825 48.5315 14.6078ZM54.3994 13.7168L54.2344 10.3068V8.10682H55.1144V10.3068L54.9494 13.7168H54.3994ZM55.1034 15.7408C54.986 15.8582 54.843 15.9168 54.6744 15.9168C54.5057 15.9168 54.3627 15.8582 54.2454 15.7408C54.128 15.6235 54.0694 15.4805 54.0694 15.3118C54.0694 15.1432 54.128 15.0002 54.2454 14.8828C54.3627 14.7655 54.5057 14.7068 54.6744 14.7068C54.843 14.7068 54.986 14.7655 55.1034 14.8828C55.2207 15.0002 55.2794 15.1432 55.2794 15.3118C55.2794 15.4805 55.2207 15.6235 55.1034 15.7408ZM63.8425 11.8138C64.2165 11.9752 64.5135 12.2208 64.7335 12.5508C64.9609 12.8735 65.0745 13.2438 65.0745 13.6618C65.0745 14.2558 64.8655 14.7618 64.4475 15.1798C64.0295 15.5978 63.5235 15.8068 62.9295 15.8068H59.5745V8.10682H62.6765C63.2485 8.10682 63.7362 8.31216 64.1395 8.72282C64.5429 9.12616 64.7445 9.61016 64.7445 10.1748C64.7445 10.8935 64.4439 11.4398 63.8425 11.8138ZM62.6765 8.83282H60.3445V11.5168H62.6765C63.0359 11.5168 63.3402 11.3885 63.5895 11.1318C63.8462 10.8678 63.9745 10.5488 63.9745 10.1748C63.9745 9.80816 63.8462 9.49282 63.5895 9.22882C63.3402 8.96482 63.0359 8.83282 62.6765 8.83282ZM62.9295 15.0808C63.3109 15.0808 63.6335 14.9452 63.8975 14.6738C64.1689 14.3952 64.3045 14.0578 64.3045 13.6618C64.3045 13.2732 64.1689 12.9395 63.8975 12.6608C63.6335 12.3822 63.3109 12.2428 62.9295 12.2428H60.3445V15.0808H62.9295ZM68.5188 12.3968C69.0321 12.3968 69.4648 12.5582 69.8168 12.8808C70.1761 13.1962 70.3558 13.6032 70.3558 14.1018C70.3558 14.6005 70.1761 15.0112 69.8168 15.3338C69.4648 15.6492 69.0321 15.8068 68.5188 15.8068H66.2858V10.3068H67.0118V12.3968H68.5188ZM71.1258 10.3068H71.8518V15.8068H71.1258V10.3068ZM68.5188 15.1028C68.8268 15.1028 69.0871 15.0112 69.2998 14.8278C69.5198 14.6445 69.6298 14.4025 69.6298 14.1018C69.6298 13.8012 69.5198 13.5592 69.2998 13.3758C69.0871 13.1925 68.8268 13.1008 68.5188 13.1008H67.0118V15.1028H68.5188ZM81.5371 10.3068V15.8068H80.8111V11.4178L78.8861 14.5418H78.7981L76.8731 11.4178V15.8068H76.1471V10.3068H76.9831L78.8421 13.3208L80.7011 10.3068H81.5371ZM87.6848 15.1138C87.1275 15.6638 86.4455 15.9388 85.6388 15.9388C84.8322 15.9388 84.1465 15.6638 83.5818 15.1138C83.0245 14.5565 82.7458 13.8708 82.7458 13.0568C82.7458 12.2428 83.0245 11.5608 83.5818 11.0108C84.1465 10.4535 84.8322 10.1748 85.6388 10.1748C86.4455 10.1748 87.1275 10.4535 87.6848 11.0108C88.2495 11.5608 88.5318 12.2428 88.5318 13.0568C88.5318 13.8708 88.2495 14.5565 87.6848 15.1138ZM84.0988 14.6078C84.5168 15.0258 85.0302 15.2348 85.6388 15.2348C86.2475 15.2348 86.7608 15.0258 87.1788 14.6078C87.5968 14.1825 87.8058 13.6655 87.8058 13.0568C87.8058 12.4482 87.5968 11.9348 87.1788 11.5168C86.7608 11.0915 86.2475 10.8788 85.6388 10.8788C85.0302 10.8788 84.5168 11.0915 84.0988 11.5168C83.6808 11.9348 83.4718 12.4482 83.4718 13.0568C83.4718 13.6655 83.6808 14.1825 84.0988 14.6078ZM95.7303 15.8068H94.8503L92.6063 13.1558V15.8068H91.8803V13.1558L89.6363 15.8068H88.7563L91.2203 12.9468L88.8663 10.3068H89.7463L91.8803 12.7488V10.3068H92.6063V12.7488L94.7403 10.3068H95.6203L93.2663 12.9468L95.7303 15.8068ZM98.819 10.1748C99.633 10.1748 100.289 10.4645 100.788 11.0438C101.294 11.6158 101.547 12.2942 101.547 13.0788C101.547 13.1595 101.54 13.2732 101.525 13.4198H96.696C96.7693 13.9772 97.004 14.4208 97.4 14.7508C97.8033 15.0735 98.2983 15.2348 98.885 15.2348C99.303 15.2348 99.6623 15.1505 99.963 14.9818C100.271 14.8058 100.502 14.5785 100.656 14.2998L101.294 14.6738C101.052 15.0625 100.722 15.3705 100.304 15.5978C99.886 15.8252 99.4093 15.9388 98.874 15.9388C98.0087 15.9388 97.3047 15.6675 96.762 15.1248C96.2193 14.5822 95.948 13.8928 95.948 13.0568C95.948 12.2355 96.2157 11.5498 96.751 10.9998C97.2863 10.4498 97.9757 10.1748 98.819 10.1748ZM98.819 10.8788C98.247 10.8788 97.7667 11.0512 97.378 11.3958C96.9967 11.7332 96.7693 12.1732 96.696 12.7158H100.799C100.726 12.1365 100.502 11.6855 100.128 11.3628C99.754 11.0402 99.3177 10.8788 98.819 10.8788ZM106.447 10.3068V11.0108H104.5V15.8068H103.774V11.0108H101.827V10.3068H106.447ZM109.658 10.1748C110.472 10.1748 111.128 10.4645 111.627 11.0438C112.133 11.6158 112.386 12.2942 112.386 13.0788C112.386 13.1595 112.379 13.2732 112.364 13.4198H107.535C107.608 13.9772 107.843 14.4208 108.239 14.7508C108.642 15.0735 109.137 15.2348 109.724 15.2348C110.142 15.2348 110.501 15.1505 110.802 14.9818C111.11 14.8058 111.341 14.5785 111.495 14.2998L112.133 14.6738C111.891 15.0625 111.561 15.3705 111.143 15.5978C110.725 15.8252 110.248 15.9388 109.713 15.9388C108.848 15.9388 108.144 15.6675 107.601 15.1248C107.058 14.5822 106.787 13.8928 106.787 13.0568C106.787 12.2355 107.055 11.5498 107.59 10.9998C108.125 10.4498 108.815 10.1748 109.658 10.1748ZM109.658 10.8788C109.086 10.8788 108.606 11.0512 108.217 11.3958C107.836 11.7332 107.608 12.1732 107.535 12.7158H111.638C111.565 12.1365 111.341 11.6855 110.967 11.3628C110.593 11.0402 110.157 10.8788 109.658 10.8788ZM120.911 10.3068V15.8068H120.185V11.0108H117.017V15.8068H116.291V10.3068H120.911ZM127.055 15.1138C126.498 15.6638 125.816 15.9388 125.009 15.9388C124.202 15.9388 123.517 15.6638 122.952 15.1138C122.395 14.5565 122.116 13.8708 122.116 13.0568C122.116 12.2428 122.395 11.5608 122.952 11.0108C123.517 10.4535 124.202 10.1748 125.009 10.1748C125.816 10.1748 126.498 10.4535 127.055 11.0108C127.62 11.5608 127.902 12.2428 127.902 13.0568C127.902 13.8708 127.62 14.5565 127.055 15.1138ZM123.469 14.6078C123.887 15.0258 124.4 15.2348 125.009 15.2348C125.618 15.2348 126.131 15.0258 126.549 14.6078C126.967 14.1825 127.176 13.6655 127.176 13.0568C127.176 12.4482 126.967 11.9348 126.549 11.5168C126.131 11.0915 125.618 10.8788 125.009 10.8788C124.4 10.8788 123.887 11.0915 123.469 11.5168C123.051 11.9348 122.842 12.4482 122.842 13.0568C122.842 13.6655 123.051 14.1825 123.469 14.6078ZM133.522 15.1028H134.292V17.2808H133.566V15.8068H129.078V17.2808H128.352V15.1028H129.023C129.397 14.6115 129.584 13.9185 129.584 13.0238V10.3068H133.522V15.1028ZM129.903 15.1028H132.796V11.0108H130.31V13.0238C130.31 13.8672 130.174 14.5602 129.903 15.1028ZM139.834 15.8068H138.866L136.116 13.1558V15.8068H135.39V10.3068H136.116V12.7378L138.734 10.3068H139.724L136.886 12.9468L139.834 15.8068ZM145.336 10.3068V15.8068H144.61V11.0108H142.124V13.4638C142.124 14.3805 141.948 15.0112 141.596 15.3558C141.251 15.7005 140.775 15.8508 140.166 15.8068V15.1248C140.584 15.1688 140.892 15.0698 141.09 14.8278C141.295 14.5858 141.398 14.1312 141.398 13.4638V10.3068H145.336ZM151.571 10.1748C152.377 10.1748 153.059 10.4535 153.617 11.0108C154.181 11.5608 154.464 12.2428 154.464 13.0568C154.464 13.8708 154.181 14.5565 153.617 15.1138C153.059 15.6638 152.377 15.9388 151.571 15.9388C150.83 15.9388 150.192 15.7005 149.657 15.2238C149.129 14.7398 148.824 14.1348 148.744 13.4088H147.6V15.8068H146.874V10.3068H147.6V12.7048H148.744C148.824 11.9788 149.129 11.3775 149.657 10.9008C150.192 10.4168 150.83 10.1748 151.571 10.1748ZM150.031 14.6078C150.449 15.0258 150.962 15.2348 151.571 15.2348C152.179 15.2348 152.693 15.0258 153.111 14.6078C153.529 14.1825 153.738 13.6655 153.738 13.0568C153.738 12.4482 153.529 11.9348 153.111 11.5168C152.693 11.0915 152.179 10.8788 151.571 10.8788C150.962 10.8788 150.449 11.0915 150.031 11.5168C149.613 11.9348 149.404 12.4482 149.404 13.0568C149.404 13.6655 149.613 14.1825 150.031 14.6078ZM159.128 10.3068H159.854V15.8068H159.128V13.7168C158.703 13.9368 158.178 14.0468 157.555 14.0468C156.836 14.0468 156.286 13.8818 155.905 13.5518C155.531 13.2145 155.344 12.7195 155.344 12.0668V10.3068H156.07V12.0668C156.07 12.5288 156.191 12.8625 156.433 13.0678C156.675 13.2658 157.042 13.3648 157.533 13.3648C158.105 13.3648 158.637 13.2585 159.128 13.0458V10.3068ZM165.401 10.3068H166.017V15.8068H165.291V11.5718L162.013 15.8068H161.397V10.3068H162.123V14.5418L165.401 10.3068ZM171.512 10.3068V11.0108H169.565V15.8068H168.839V11.0108H166.892V10.3068H171.512ZM174.63 12.3968C175.143 12.3968 175.576 12.5582 175.928 12.8808C176.287 13.1962 176.467 13.6032 176.467 14.1018C176.467 14.6005 176.287 15.0112 175.928 15.3338C175.576 15.6492 175.143 15.8068 174.63 15.8068H172.397V10.3068H173.123V12.3968H174.63ZM174.63 15.1028C174.938 15.1028 175.198 15.0112 175.411 14.8278C175.631 14.6445 175.741 14.4025 175.741 14.1018C175.741 13.8012 175.631 13.5592 175.411 13.3758C175.198 13.1925 174.938 13.1008 174.63 13.1008H173.123V15.1028H174.63ZM14.2775 25.3068H15.0035V30.8068H14.2775V28.4088H11.1095V30.8068H10.3835V25.3068H11.1095V27.7048H14.2775V25.3068ZM19.0797 25.1748C19.8937 25.1748 20.5501 25.4645 21.0487 26.0438C21.5547 26.6158 21.8077 27.2942 21.8077 28.0788C21.8077 28.1595 21.8004 28.2732 21.7857 28.4198H16.9567C17.0301 28.9772 17.2647 29.4208 17.6607 29.7508C18.0641 30.0735 18.5591 30.2348 19.1457 30.2348C19.5637 30.2348 19.9231 30.1505 20.2237 29.9818C20.5317 29.8058 20.7627 29.5785 20.9167 29.2998L21.5547 29.6738C21.3127 30.0625 20.9827 30.3705 20.5647 30.5978C20.1467 30.8252 19.6701 30.9388 19.1347 30.9388C18.2694 30.9388 17.5654 30.6675 17.0227 30.1248C16.4801 29.5822 16.2087 28.8928 16.2087 28.0568C16.2087 27.2355 16.4764 26.5498 17.0117 25.9998C17.5471 25.4498 18.2364 25.1748 19.0797 25.1748ZM19.0797 25.8788C18.5077 25.8788 18.0274 26.0512 17.6387 26.3958C17.2574 26.7332 17.0301 27.1732 16.9567 27.7158H21.0597C20.9864 27.1365 20.7627 26.6855 20.3887 26.3628C20.0147 26.0402 19.5784 25.8788 19.0797 25.8788ZM27.5716 30.1138C27.0142 30.6638 26.3322 30.9388 25.5256 30.9388C24.7189 30.9388 24.0332 30.6638 23.4686 30.1138C22.9112 29.5565 22.6326 28.8708 22.6326 28.0568C22.6326 27.2428 22.9112 26.5608 23.4686 26.0108C24.0332 25.4535 24.7189 25.1748 25.5256 25.1748C26.3322 25.1748 27.0142 25.4535 27.5716 26.0108C28.1362 26.5608 28.4186 27.2428 28.4186 28.0568C28.4186 28.8708 28.1362 29.5565 27.5716 30.1138ZM23.9856 29.6078C24.4036 30.0258 24.9169 30.2348 25.5256 30.2348C26.1342 30.2348 26.6476 30.0258 27.0656 29.6078C27.4836 29.1825 27.6926 28.6655 27.6926 28.0568C27.6926 27.4482 27.4836 26.9348 27.0656 26.5168C26.6476 26.0915 26.1342 25.8788 25.5256 25.8788C24.9169 25.8788 24.4036 26.0915 23.9856 26.5168C23.5676 26.9348 23.3586 27.4482 23.3586 28.0568C23.3586 28.6655 23.5676 29.1825 23.9856 29.6078ZM33.1535 25.3068V26.0108H30.3595V30.8068H29.6335V25.3068H33.1535ZM36.9858 25.1748C37.7704 25.1748 38.4378 25.4535 38.9878 26.0108C39.5451 26.5682 39.8238 27.2502 39.8238 28.0568C39.8238 28.8635 39.5451 29.5455 38.9878 30.1028C38.4378 30.6602 37.7704 30.9388 36.9858 30.9388C36.0104 30.9388 35.2698 30.5355 34.7638 29.7288V33.0068H34.0378V25.3068H34.7638V26.3848C35.2698 25.5782 36.0104 25.1748 36.9858 25.1748ZM35.3908 29.6078C35.8088 30.0258 36.3221 30.2348 36.9308 30.2348C37.5394 30.2348 38.0528 30.0258 38.4708 29.6078C38.8888 29.1825 39.0978 28.6655 39.0978 28.0568C39.0978 27.4482 38.8888 26.9348 38.4708 26.5168C38.0528 26.0915 37.5394 25.8788 36.9308 25.8788C36.3221 25.8788 35.8088 26.0915 35.3908 26.5168C34.9728 26.9348 34.7638 27.4482 34.7638 28.0568C34.7638 28.6655 34.9728 29.1825 35.3908 29.6078ZM45.7609 25.3068H46.4869V30.8068H45.7609V29.7288C45.2549 30.5355 44.5143 30.9388 43.5389 30.9388C42.7543 30.9388 42.0833 30.6602 41.5259 30.1028C40.9759 29.5455 40.7009 28.8635 40.7009 28.0568C40.7009 27.2502 40.9759 26.5682 41.5259 26.0108C42.0833 25.4535 42.7543 25.1748 43.5389 25.1748C44.5143 25.1748 45.2549 25.5782 45.7609 26.3848V25.3068ZM42.0539 29.6078C42.4719 30.0258 42.9853 30.2348 43.5939 30.2348C44.2026 30.2348 44.7159 30.0258 45.1339 29.6078C45.5519 29.1825 45.7609 28.6655 45.7609 28.0568C45.7609 27.4482 45.5519 26.9348 45.1339 26.5168C44.7159 26.0915 44.2026 25.8788 43.5939 25.8788C42.9853 25.8788 42.4719 26.0915 42.0539 26.5168C41.6359 26.9348 41.4269 27.4482 41.4269 28.0568C41.4269 28.6655 41.6359 29.1825 42.0539 29.6078ZM51.9181 25.3068H52.6441V30.8068H51.9181V28.4088H48.7501V30.8068H48.0241V25.3068H48.7501V27.7048H51.9181V25.3068ZM58.1834 25.3068H58.7994V30.8068H58.0734V26.5718L54.7954 30.8068H54.1794V25.3068H54.9054V29.5418L58.1834 25.3068ZM63.8986 25.3068H64.6246V30.8068H63.8986V28.7168C63.4733 28.9368 62.949 29.0468 62.3256 29.0468C61.607 29.0468 61.057 28.8818 60.6756 28.5518C60.3016 28.2145 60.1146 27.7195 60.1146 27.0668V25.3068H60.8406V27.0668C60.8406 27.5288 60.9616 27.8625 61.2036 28.0678C61.4456 28.2658 61.8123 28.3648 62.3036 28.3648C62.8756 28.3648 63.4073 28.2585 63.8986 28.0458V25.3068ZM68.7086 25.1748C69.5226 25.1748 70.179 25.4645 70.6776 26.0438C71.1836 26.6158 71.4366 27.2942 71.4366 28.0788C71.4366 28.1595 71.4293 28.2732 71.4146 28.4198H66.5856C66.659 28.9772 66.8936 29.4208 67.2896 29.7508C67.693 30.0735 68.188 30.2348 68.7746 30.2348C69.1926 30.2348 69.552 30.1505 69.8526 29.9818C70.1606 29.8058 70.3916 29.5785 70.5456 29.2998L71.1836 29.6738C70.9416 30.0625 70.6116 30.3705 70.1936 30.5978C69.7756 30.8252 69.299 30.9388 68.7636 30.9388C67.8983 30.9388 67.1943 30.6675 66.6516 30.1248C66.109 29.5822 65.8376 28.8928 65.8376 28.0568C65.8376 27.2355 66.1053 26.5498 66.6406 25.9998C67.176 25.4498 67.8653 25.1748 68.7086 25.1748ZM68.7086 25.8788C68.1366 25.8788 67.6563 26.0512 67.2676 26.3958C66.8863 26.7332 66.659 27.1732 66.5856 27.7158H70.6886C70.6153 27.1365 70.3916 26.6855 70.0176 26.3628C69.6436 26.0402 69.2073 25.8788 68.7086 25.8788ZM76.4855 25.3068H77.2115V30.8068H76.4855V28.4088H73.3175V30.8068H72.5915V25.3068H73.3175V27.7048H76.4855V25.3068ZM82.6407 25.3068H83.3667V30.8068H82.6407V28.4088H79.4727V30.8068H78.7467V25.3068H79.4727V27.7048H82.6407V25.3068ZM89.511 30.1138C88.9537 30.6638 88.2717 30.9388 87.465 30.9388C86.6584 30.9388 85.9727 30.6638 85.408 30.1138C84.8507 29.5565 84.572 28.8708 84.572 28.0568C84.572 27.2428 84.8507 26.5608 85.408 26.0108C85.9727 25.4535 86.6584 25.1748 87.465 25.1748C88.2717 25.1748 88.9537 25.4535 89.511 26.0108C90.0757 26.5608 90.358 27.2428 90.358 28.0568C90.358 28.8708 90.0757 29.5565 89.511 30.1138ZM85.925 29.6078C86.343 30.0258 86.8564 30.2348 87.465 30.2348C88.0737 30.2348 88.587 30.0258 89.005 29.6078C89.423 29.1825 89.632 28.6655 89.632 28.0568C89.632 27.4482 89.423 26.9348 89.005 26.5168C88.587 26.0915 88.0737 25.8788 87.465 25.8788C86.8564 25.8788 86.343 26.0915 85.925 26.5168C85.507 26.9348 85.298 27.4482 85.298 28.0568C85.298 28.6655 85.507 29.1825 85.925 29.6078ZM94.1139 25.1748C94.9279 25.1748 95.5843 25.4645 96.0829 26.0438C96.5889 26.6158 96.8419 27.2942 96.8419 28.0788C96.8419 28.1595 96.8346 28.2732 96.8199 28.4198H91.9909C92.0643 28.9772 92.2989 29.4208 92.6949 29.7508C93.0983 30.0735 93.5933 30.2348 94.1799 30.2348C94.5979 30.2348 94.9573 30.1505 95.2579 29.9818C95.5659 29.8058 95.7969 29.5785 95.9509 29.2998L96.5889 29.6738C96.3469 30.0625 96.0169 30.3705 95.5989 30.5978C95.1809 30.8252 94.7043 30.9388 94.1689 30.9388C93.3036 30.9388 92.5996 30.6675 92.0569 30.1248C91.5143 29.5822 91.2429 28.8928 91.2429 28.0568C91.2429 27.2355 91.5106 26.5498 92.0459 25.9998C92.5813 25.4498 93.2706 25.1748 94.1139 25.1748ZM94.1139 25.8788C93.5419 25.8788 93.0616 26.0512 92.6729 26.3958C92.2916 26.7332 92.0643 27.1732 91.9909 27.7158H96.0939C96.0206 27.1365 95.7969 26.6855 95.4229 26.3628C95.0489 26.0402 94.6126 25.8788 94.1139 25.8788ZM105.191 30.8068H104.223L101.473 28.1558V30.8068H100.747V25.3068H101.473V27.7378L104.091 25.3068H105.081L102.243 27.9468L105.191 30.8068ZM110.243 30.1138C109.686 30.6638 109.004 30.9388 108.197 30.9388C107.391 30.9388 106.705 30.6638 106.14 30.1138C105.583 29.5565 105.304 28.8708 105.304 28.0568C105.304 27.2428 105.583 26.5608 106.14 26.0108C106.705 25.4535 107.391 25.1748 108.197 25.1748C109.004 25.1748 109.686 25.4535 110.243 26.0108C110.808 26.5608 111.09 27.2428 111.09 28.0568C111.09 28.8708 110.808 29.5565 110.243 30.1138ZM106.657 29.6078C107.075 30.0258 107.589 30.2348 108.197 30.2348C108.806 30.2348 109.319 30.0258 109.737 29.6078C110.155 29.1825 110.364 28.6655 110.364 28.0568C110.364 27.4482 110.155 26.9348 109.737 26.5168C109.319 26.0915 108.806 25.8788 108.197 25.8788C107.589 25.8788 107.075 26.0915 106.657 26.5168C106.239 26.9348 106.03 27.4482 106.03 28.0568C106.03 28.6655 106.239 29.1825 106.657 29.6078ZM116.6 25.3068V30.8068H115.874V26.0108H113.388V28.4638C113.388 29.3805 113.212 30.0112 112.86 30.3558C112.516 30.7005 112.039 30.8508 111.43 30.8068V30.1248C111.848 30.1688 112.156 30.0698 112.354 29.8278C112.56 29.5858 112.662 29.1312 112.662 28.4638V25.3068H116.6ZM122.142 25.3068H122.758V30.8068H122.032V26.5718L118.754 30.8068H118.138V25.3068H118.864V29.5418L122.142 25.3068ZM127.858 25.3068H128.584V30.8068H127.858V28.7168C127.432 28.9368 126.908 29.0468 126.285 29.0468C125.566 29.0468 125.016 28.8818 124.635 28.5518C124.261 28.2145 124.074 27.7195 124.074 27.0668V25.3068H124.8V27.0668C124.8 27.5288 124.921 27.8625 125.163 28.0678C125.405 28.2658 125.771 28.3648 126.263 28.3648C126.835 28.3648 127.366 28.2585 127.858 28.0458V25.3068ZM132.668 25.1748C133.482 25.1748 134.138 25.4645 134.637 26.0438C135.143 26.6158 135.396 27.2942 135.396 28.0788C135.396 28.1595 135.388 28.2732 135.374 28.4198H130.545C130.618 28.9772 130.853 29.4208 131.249 29.7508C131.652 30.0735 132.147 30.2348 132.734 30.2348C133.152 30.2348 133.511 30.1505 133.812 29.9818C134.12 29.8058 134.351 29.5785 134.505 29.2998L135.143 29.6738C134.901 30.0625 134.571 30.3705 134.153 30.5978C133.735 30.8252 133.258 30.9388 132.723 30.9388C131.857 30.9388 131.153 30.6675 130.611 30.1248C130.068 29.5822 129.797 28.8928 129.797 28.0568C129.797 27.2355 130.064 26.5498 130.6 25.9998C131.135 25.4498 131.824 25.1748 132.668 25.1748ZM132.668 25.8788C132.096 25.8788 131.615 26.0512 131.227 26.3958C130.845 26.7332 130.618 27.1732 130.545 27.7158H134.648C134.574 27.1365 134.351 26.6855 133.977 26.3628C133.603 26.0402 133.166 25.8788 132.668 25.8788ZM139.113 30.9388C138.285 30.9388 137.595 30.6638 137.045 30.1138C136.495 29.5565 136.22 28.8708 136.22 28.0568C136.22 27.2428 136.495 26.5608 137.045 26.0108C137.595 25.4535 138.285 25.1748 139.113 25.1748C139.656 25.1748 140.144 25.3068 140.576 25.5708C141.009 25.8275 141.324 26.1758 141.522 26.6158L140.928 26.9568C140.782 26.6268 140.543 26.3665 140.213 26.1758C139.891 25.9778 139.524 25.8788 139.113 25.8788C138.505 25.8788 137.991 26.0915 137.573 26.5168C137.155 26.9348 136.946 27.4482 136.946 28.0568C136.946 28.6655 137.155 29.1825 137.573 29.6078C137.991 30.0258 138.505 30.2348 139.113 30.2348C139.524 30.2348 139.891 30.1395 140.213 29.9488C140.536 29.7508 140.789 29.4868 140.972 29.1568L141.577 29.5088C141.35 29.9488 141.016 30.2972 140.576 30.5538C140.136 30.8105 139.649 30.9388 139.113 30.9388ZM146.472 25.3068V26.0108H144.525V30.8068H143.799V26.0108H141.852V25.3068H146.472ZM150.855 27.9798C151.456 28.1998 151.757 28.6288 151.757 29.2668C151.757 29.7142 151.607 30.0845 151.306 30.3778C151.013 30.6638 150.587 30.8068 150.03 30.8068H147.357V25.3068H149.81C150.345 25.3068 150.76 25.4462 151.053 25.7248C151.346 25.9962 151.493 26.3482 151.493 26.7808C151.493 27.3308 151.28 27.7305 150.855 27.9798ZM149.81 26.0108H148.083V27.6828H149.81C150.448 27.6828 150.767 27.3968 150.767 26.8248C150.767 26.5682 150.683 26.3702 150.514 26.2308C150.353 26.0842 150.118 26.0108 149.81 26.0108ZM150.03 30.1028C150.353 30.1028 150.598 30.0258 150.767 29.8718C150.943 29.7178 151.031 29.5015 151.031 29.2228C151.031 28.9662 150.943 28.7645 150.767 28.6178C150.598 28.4638 150.353 28.3868 150.03 28.3868H148.083V30.1028H150.03ZM157.466 30.1138C156.909 30.6638 156.227 30.9388 155.42 30.9388C154.613 30.9388 153.928 30.6638 153.363 30.1138C152.806 29.5565 152.527 28.8708 152.527 28.0568C152.527 27.2428 152.806 26.5608 153.363 26.0108C153.928 25.4535 154.613 25.1748 155.42 25.1748C156.227 25.1748 156.909 25.4535 157.466 26.0108C158.031 26.5608 158.313 27.2428 158.313 28.0568C158.313 28.8708 158.031 29.5565 157.466 30.1138ZM153.88 29.6078C154.298 30.0258 154.811 30.2348 155.42 30.2348C156.029 30.2348 156.542 30.0258 156.96 29.6078C157.378 29.1825 157.587 28.6655 157.587 28.0568C157.587 27.4482 157.378 26.9348 156.96 26.5168C156.542 26.0915 156.029 25.8788 155.42 25.8788C154.811 25.8788 154.298 26.0915 153.88 26.5168C153.462 26.9348 153.253 27.4482 153.253 28.0568C153.253 28.6655 153.462 29.1825 153.88 29.6078ZM167.008 25.3068H167.734V30.8068H167.008V29.7288C166.502 30.5355 165.761 30.9388 164.786 30.9388C164.001 30.9388 163.33 30.6602 162.773 30.1028C162.223 29.5455 161.948 28.8635 161.948 28.0568C161.948 27.2502 162.223 26.5682 162.773 26.0108C163.33 25.4535 164.001 25.1748 164.786 25.1748C165.761 25.1748 166.502 25.5782 167.008 26.3848V25.3068ZM163.301 29.6078C163.719 30.0258 164.232 30.2348 164.841 30.2348C165.45 30.2348 165.963 30.0258 166.381 29.6078C166.799 29.1825 167.008 28.6655 167.008 28.0568C167.008 27.4482 166.799 26.9348 166.381 26.5168C165.963 26.0915 165.45 25.8788 164.841 25.8788C164.232 25.8788 163.719 26.0915 163.301 26.5168C162.883 26.9348 162.674 27.4482 162.674 28.0568C162.674 28.6655 162.883 29.1825 163.301 29.6078ZM171.834 30.9388C171.005 30.9388 170.316 30.6638 169.766 30.1138C169.216 29.5565 168.941 28.8708 168.941 28.0568C168.941 27.2428 169.216 26.5608 169.766 26.0108C170.316 25.4535 171.005 25.1748 171.834 25.1748C172.377 25.1748 172.864 25.3068 173.297 25.5708C173.73 25.8275 174.045 26.1758 174.243 26.6158L173.649 26.9568C173.502 26.6268 173.264 26.3665 172.934 26.1758C172.611 25.9778 172.245 25.8788 171.834 25.8788C171.225 25.8788 170.712 26.0915 170.294 26.5168C169.876 26.9348 169.667 27.4482 169.667 28.0568C169.667 28.6655 169.876 29.1825 170.294 29.6078C170.712 30.0258 171.225 30.2348 171.834 30.2348C172.245 30.2348 172.611 30.1395 172.934 29.9488C173.257 29.7508 173.51 29.4868 173.693 29.1568L174.298 29.5088C174.071 29.9488 173.737 30.2972 173.297 30.5538C172.857 30.8105 172.369 30.9388 171.834 30.9388ZM177.85 30.9388C177.021 30.9388 176.332 30.6638 175.782 30.1138C175.232 29.5565 174.957 28.8708 174.957 28.0568C174.957 27.2428 175.232 26.5608 175.782 26.0108C176.332 25.4535 177.021 25.1748 177.85 25.1748C178.392 25.1748 178.88 25.3068 179.313 25.5708C179.745 25.8275 180.061 26.1758 180.259 26.6158L179.665 26.9568C179.518 26.6268 179.28 26.3665 178.95 26.1758C178.627 25.9778 178.26 25.8788 177.85 25.8788C177.241 25.8788 176.728 26.0915 176.31 26.5168C175.892 26.9348 175.683 27.4482 175.683 28.0568C175.683 28.6655 175.892 29.1825 176.31 29.6078C176.728 30.0258 177.241 30.2348 177.85 30.2348C178.26 30.2348 178.627 30.1395 178.95 29.9488C179.272 29.7508 179.525 29.4868 179.709 29.1568L180.314 29.5088C180.086 29.9488 179.753 30.2972 179.313 30.5538C178.873 30.8105 178.385 30.9388 177.85 30.9388ZM185.36 25.3068H185.976V30.8068H185.25V26.5718L181.972 30.8068H181.356V25.3068H182.082V29.5418L185.36 25.3068ZM190.074 30.9388C189.246 30.9388 188.556 30.6638 188.006 30.1138C187.456 29.5565 187.181 28.8708 187.181 28.0568C187.181 27.2428 187.456 26.5608 188.006 26.0108C188.556 25.4535 189.246 25.1748 190.074 25.1748C190.617 25.1748 191.105 25.3068 191.537 25.5708C191.97 25.8275 192.285 26.1758 192.483 26.6158L191.889 26.9568C191.743 26.6268 191.504 26.3665 191.174 26.1758C190.852 25.9778 190.485 25.8788 190.074 25.8788C189.466 25.8788 188.952 26.0915 188.534 26.5168C188.116 26.9348 187.907 27.4482 187.907 28.0568C187.907 28.6655 188.116 29.1825 188.534 29.6078C188.952 30.0258 189.466 30.2348 190.074 30.2348C190.485 30.2348 190.852 30.1395 191.174 29.9488C191.497 29.7508 191.75 29.4868 191.933 29.1568L192.538 29.5088C192.311 29.9488 191.977 30.2972 191.537 30.5538C191.097 30.8105 190.61 30.9388 190.074 30.9388ZM197.433 25.3068V26.0108H195.486V30.8068H194.76V26.0108H192.813V25.3068H197.433ZM200.644 25.1748C201.458 25.1748 202.115 25.4645 202.613 26.0438C203.119 26.6158 203.372 27.2942 203.372 28.0788C203.372 28.1595 203.365 28.2732 203.35 28.4198H198.521C198.595 28.9772 198.829 29.4208 199.225 29.7508C199.629 30.0735 200.124 30.2348 200.71 30.2348C201.128 30.2348 201.488 30.1505 201.788 29.9818C202.096 29.8058 202.327 29.5785 202.481 29.2998L203.119 29.6738C202.877 30.0625 202.547 30.3705 202.129 30.5978C201.711 30.8252 201.235 30.9388 200.699 30.9388C199.834 30.9388 199.13 30.6675 198.587 30.1248C198.045 29.5822 197.773 28.8928 197.773 28.0568C197.773 27.2355 198.041 26.5498 198.576 25.9998C199.112 25.4498 199.801 25.1748 200.644 25.1748ZM200.644 25.8788C200.072 25.8788 199.592 26.0512 199.203 26.3958C198.822 26.7332 198.595 27.1732 198.521 27.7158H202.624C202.551 27.1365 202.327 26.6855 201.953 26.3628C201.579 26.0402 201.143 25.8788 200.644 25.8788ZM208.421 25.3068H209.147V30.8068H208.421V28.4088H205.253V30.8068H204.527V25.3068H205.253V27.7048H208.421V25.3068ZM214.642 25.3068V26.0108H212.695V30.8068H211.969V26.0108H210.022V25.3068H214.642ZM219.921 30.1138C219.364 30.6638 218.682 30.9388 217.875 30.9388C217.069 30.9388 216.383 30.6638 215.818 30.1138C215.261 29.5565 214.982 28.8708 214.982 28.0568C214.982 27.2428 215.261 26.5608 215.818 26.0108C216.383 25.4535 217.069 25.1748 217.875 25.1748C218.682 25.1748 219.364 25.4535 219.921 26.0108C220.486 26.5608 220.768 27.2428 220.768 28.0568C220.768 28.8708 220.486 29.5565 219.921 30.1138ZM216.335 29.6078C216.753 30.0258 217.267 30.2348 217.875 30.2348C218.484 30.2348 218.997 30.0258 219.415 29.6078C219.833 29.1825 220.042 28.6655 220.042 28.0568C220.042 27.4482 219.833 26.9348 219.415 26.5168C218.997 26.0915 218.484 25.8788 217.875 25.8788C217.267 25.8788 216.753 26.0915 216.335 26.5168C215.917 26.9348 215.708 27.4482 215.708 28.0568C215.708 28.6655 215.917 29.1825 216.335 29.6078ZM225.481 27.9798C226.082 28.1998 226.383 28.6288 226.383 29.2668C226.383 29.7142 226.233 30.0845 225.932 30.3778C225.639 30.6638 225.213 30.8068 224.656 30.8068H221.983V25.3068H224.436C224.971 25.3068 225.386 25.4462 225.679 25.7248C225.972 25.9962 226.119 26.3482 226.119 26.7808C226.119 27.3308 225.906 27.7305 225.481 27.9798ZM224.436 26.0108H222.709V27.6828H224.436C225.074 27.6828 225.393 27.3968 225.393 26.8248C225.393 26.5682 225.309 26.3702 225.14 26.2308C224.979 26.0842 224.744 26.0108 224.436 26.0108ZM224.656 30.1028C224.979 30.1028 225.224 30.0258 225.393 29.8718C225.569 29.7178 225.657 29.5015 225.657 29.2228C225.657 28.9662 225.569 28.7645 225.393 28.6178C225.224 28.4638 224.979 28.3868 224.656 28.3868H222.709V30.1028H224.656ZM228.3 30.7408C228.182 30.8582 228.039 30.9168 227.871 30.9168C227.702 30.9168 227.559 30.8582 227.442 30.7408C227.324 30.6235 227.266 30.4805 227.266 30.3118C227.266 30.1432 227.324 30.0002 227.442 29.8828C227.559 29.7655 227.702 29.7068 227.871 29.7068C228.039 29.7068 228.182 29.7655 228.3 29.8828C228.417 30.0002 228.476 30.1432 228.476 30.3118C228.476 30.4805 228.417 30.6235 228.3 30.7408Z" fill="#1D2530"/>
<path d="M246.429 25.5478H246.814V30.0341H246.365V26.0413L245.359 26.3425L245.244 25.9579L246.429 25.5478ZM248.607 25.5478H248.992V30.0341H248.543V26.0413L247.537 26.3425L247.422 25.9579L248.607 25.5478ZM250.491 27.3679C250.422 27.4363 250.339 27.4705 250.241 27.4705C250.142 27.4705 250.059 27.4363 249.991 27.3679C249.922 27.2996 249.888 27.2163 249.888 27.118C249.888 27.0197 249.922 26.9364 249.991 26.868C250.059 26.7997 250.142 26.7655 250.241 26.7655C250.339 26.7655 250.422 26.7997 250.491 26.868C250.559 26.9364 250.593 27.0197 250.593 27.118C250.593 27.2163 250.559 27.2996 250.491 27.3679ZM250.491 29.9957C250.422 30.064 250.339 30.0982 250.241 30.0982C250.142 30.0982 250.059 30.064 249.991 29.9957C249.922 29.9273 249.888 29.844 249.888 29.7457C249.888 29.6474 249.922 29.5641 249.991 29.4958C250.059 29.4274 250.142 29.3932 250.241 29.3932C250.339 29.3932 250.422 29.4274 250.491 29.4958C250.559 29.5641 250.593 29.6474 250.593 29.7457C250.593 29.844 250.559 29.9273 250.491 29.9957ZM254.249 29.4829C253.955 29.9017 253.538 30.111 253 30.111C252.461 30.111 252.043 29.9017 251.743 29.4829C251.449 29.0599 251.301 28.4959 251.301 27.7909C251.301 27.0859 251.449 26.5241 251.743 26.1053C252.043 25.6823 252.461 25.4708 253 25.4708C253.538 25.4708 253.955 25.6823 254.249 26.1053C254.548 26.5241 254.698 27.0859 254.698 27.7909C254.698 28.4959 254.548 29.0599 254.249 29.4829ZM252.077 29.1817C252.299 29.5107 252.607 29.6752 253 29.6752C253.393 29.6752 253.698 29.5107 253.916 29.1817C254.138 28.8527 254.249 28.3891 254.249 27.7909C254.249 27.1928 254.138 26.7292 253.916 26.4002C253.698 26.0712 253.393 25.9067 253 25.9067C252.607 25.9067 252.299 26.0712 252.077 26.4002C251.859 26.7292 251.75 27.1928 251.75 27.7909C251.75 28.3891 251.859 28.8527 252.077 29.1817ZM256.716 27.3551C257.135 27.3551 257.489 27.479 257.78 27.7268C258.075 27.9704 258.222 28.3058 258.222 28.7331C258.222 29.1603 258.075 29.4979 257.78 29.7457C257.489 29.9893 257.135 30.111 256.716 30.111C256.379 30.111 256.077 30.0298 255.812 29.8675C255.548 29.7008 255.368 29.4637 255.274 29.1561L255.652 28.9382C255.716 29.1774 255.842 29.3612 256.03 29.4893C256.223 29.6133 256.451 29.6752 256.716 29.6752C257.024 29.6752 257.276 29.594 257.472 29.4317C257.673 29.265 257.774 29.0322 257.774 28.7331C257.774 28.434 257.673 28.2033 257.472 28.0409C257.276 27.8743 257.024 27.7909 256.716 27.7909H255.498L255.659 25.5478H258.062V25.9708H256.056L255.96 27.3551H256.716Z" fill="#8E8E93"/>
</svg>
