<svg width="256" height="32" viewBox="0 0 256 32" fill="none" xmlns="http://www.w3.org/2000/svg">
<path d="M0 0H251C253.761 0 256 2.23858 256 5V32H0V0Z" fill="#EFFCDE"/>
<path d="M15.9193 19.793C14.72 19.793 13.7281 19.397 12.9436 18.605C12.1592 17.813 11.767 16.8437 11.767 15.6972C11.767 14.5507 12.1592 13.5814 12.9436 12.7894C13.7281 11.9974 14.72 11.6014 15.9193 11.6014C16.651 11.6014 17.3223 11.7787 17.9332 12.1332C18.5442 12.4802 19.0156 12.9516 19.3475 13.5475L18.646 13.9548C18.3971 13.4721 18.0275 13.0874 17.5372 12.8007C17.047 12.5141 16.5076 12.3708 15.9193 12.3708C14.9312 12.3708 14.1241 12.6914 13.498 13.3325C12.872 13.9737 12.559 14.7619 12.559 15.6972C12.559 16.6325 12.872 17.4207 13.498 18.0619C14.1241 18.703 14.9312 19.0236 15.9193 19.0236C16.5076 19.0236 17.047 18.8803 17.5372 18.5937C18.0275 18.307 18.3971 17.9223 18.646 17.4396L19.3475 17.8356C19.0232 18.4315 18.5518 18.9067 17.9332 19.2612C17.3223 19.6157 16.651 19.793 15.9193 19.793ZM25.2889 14.0001V19.6572H24.5421V14.7242H21.2836V19.6572H20.5369V14.0001H25.2889ZM31.7331 14.0001H32.4799V19.6572H31.7331V18.5484C31.2127 19.3781 30.4508 19.793 29.4476 19.793C28.6406 19.793 27.9504 19.5063 27.3771 18.9331C26.8114 18.3598 26.5286 17.6583 26.5286 16.8286C26.5286 15.9989 26.8114 15.2974 27.3771 14.7242C27.9504 14.1509 28.6406 13.8643 29.4476 13.8643C30.4508 13.8643 31.2127 14.2791 31.7331 15.1089V14.0001ZM27.9202 18.4239C28.3502 18.8539 28.8782 19.0689 29.5042 19.0689C30.1303 19.0689 30.6583 18.8539 31.0882 18.4239C31.5182 17.9865 31.7331 17.4547 31.7331 16.8286C31.7331 16.2026 31.5182 15.6746 31.0882 15.2446C30.6583 14.8071 30.1303 14.5884 29.5042 14.5884C28.8782 14.5884 28.3502 14.8071 27.9202 15.2446C27.4903 15.6746 27.2753 16.2026 27.2753 16.8286C27.2753 17.4547 27.4903 17.9865 27.9202 18.4239ZM36.6972 19.793C35.8448 19.793 35.1358 19.5101 34.5701 18.9444C34.0044 18.3711 33.7215 17.6659 33.7215 16.8286C33.7215 15.9914 34.0044 15.2899 34.5701 14.7242C35.1358 14.1509 35.8448 13.8643 36.6972 13.8643C37.2554 13.8643 37.757 14.0001 38.202 14.2716C38.647 14.5356 38.9714 14.8939 39.175 15.3465L38.564 15.6972C38.4132 15.3578 38.168 15.09 37.8286 14.8939C37.4967 14.6902 37.1196 14.5884 36.6972 14.5884C36.0711 14.5884 35.5431 14.8071 35.1132 15.2446C34.6832 15.6746 34.4683 16.2026 34.4683 16.8286C34.4683 17.4547 34.6832 17.9865 35.1132 18.4239C35.5431 18.8539 36.0711 19.0689 36.6972 19.0689C37.1196 19.0689 37.4967 18.9708 37.8286 18.7747C38.1605 18.571 38.4207 18.2995 38.6093 17.9601L39.2316 18.3221C38.9978 18.7747 38.6546 19.133 38.202 19.397C37.7494 19.661 37.2478 19.793 36.6972 19.793ZM44.4221 14.0001H45.0557V19.6572H44.309V15.3012L40.9373 19.6572H40.3037V14.0001H41.0504V18.3561L44.4221 14.0001ZM49.1466 19.793C48.332 19.793 47.6531 19.5252 47.11 18.9897C46.5669 18.4466 46.2954 17.7451 46.2954 16.8852C46.2954 15.9197 46.4387 15.1805 46.7253 14.6676C47.012 14.1471 47.5928 13.6757 48.4677 13.2533C48.6337 13.1703 48.8524 13.0723 49.124 12.9591C49.4031 12.846 49.6105 12.7555 49.7463 12.6876C49.8896 12.6197 50.0442 12.533 50.2101 12.4274C50.3761 12.3142 50.5005 12.1898 50.5835 12.054C50.6665 11.9182 50.7193 11.7561 50.7419 11.5675L51.3303 11.9069C51.3001 12.0879 51.2397 12.2577 51.1492 12.4161C51.0587 12.5745 50.9644 12.7027 50.8664 12.8007C50.7759 12.8988 50.6288 13.0082 50.4251 13.1289C50.229 13.242 50.0744 13.325 49.9612 13.3778C49.8556 13.423 49.6671 13.5022 49.3955 13.6154C49.1315 13.7285 48.9543 13.8039 48.8637 13.8417C48.3357 14.0679 47.9473 14.3055 47.6984 14.5545C47.4495 14.7958 47.2722 15.1126 47.1666 15.5049C47.4231 15.1654 47.7474 14.9165 48.1396 14.7581C48.5394 14.5922 48.9279 14.5092 49.305 14.5092C50.0593 14.5092 50.6816 14.7581 51.1719 15.2559C51.6697 15.7462 51.9186 16.3761 51.9186 17.1454C51.9186 17.9073 51.6546 18.5409 51.1266 19.0462C50.6061 19.5441 49.9461 19.793 49.1466 19.793ZM49.1466 19.0462C49.7349 19.0462 50.2177 18.869 50.5948 18.5145C50.9795 18.1524 51.1719 17.6961 51.1719 17.1454C51.1719 16.5873 50.9908 16.1309 50.6288 15.7764C50.2743 15.4143 49.7991 15.2333 49.2032 15.2333C48.6676 15.2333 48.1811 15.403 47.7436 15.7425C47.3061 16.0743 47.0874 16.5194 47.0874 17.0775C47.0874 17.6508 47.2835 18.1222 47.6757 18.4918C48.0755 18.8614 48.5658 19.0462 49.1466 19.0462ZM57.795 18.9444C57.2218 19.5101 56.5203 19.793 55.6906 19.793C54.8609 19.793 54.1556 19.5101 53.5748 18.9444C53.0016 18.3711 52.7149 17.6659 52.7149 16.8286C52.7149 15.9914 53.0016 15.2899 53.5748 14.7242C54.1556 14.1509 54.8609 13.8643 55.6906 13.8643C56.5203 13.8643 57.2218 14.1509 57.795 14.7242C58.3758 15.2899 58.6662 15.9914 58.6662 16.8286C58.6662 17.6659 58.3758 18.3711 57.795 18.9444ZM54.1066 18.4239C54.5365 18.8539 55.0645 19.0689 55.6906 19.0689C56.3166 19.0689 56.8446 18.8539 57.2746 18.4239C57.7045 17.9865 57.9195 17.4547 57.9195 16.8286C57.9195 16.2026 57.7045 15.6746 57.2746 15.2446C56.8446 14.8071 56.3166 14.5884 55.6906 14.5884C55.0645 14.5884 54.5365 14.8071 54.1066 15.2446C53.6766 15.6746 53.4617 16.2026 53.4617 16.8286C53.4617 17.4547 53.6766 17.9865 54.1066 18.4239ZM60.1421 17.5075L59.9724 14.0001V11.7372H60.8776V14.0001L60.7079 17.5075H60.1421ZM60.8663 19.5893C60.7456 19.71 60.5985 19.7703 60.425 19.7703C60.2515 19.7703 60.1044 19.71 59.9837 19.5893C59.8631 19.4686 59.8027 19.3215 59.8027 19.1481C59.8027 18.9746 59.8631 18.8275 59.9837 18.7068C60.1044 18.5861 60.2515 18.5258 60.425 18.5258C60.5985 18.5258 60.7456 18.5861 60.8663 18.7068C60.9869 18.8275 61.0473 18.9746 61.0473 19.1481C61.0473 19.3215 60.9869 19.4686 60.8663 19.5893ZM69.1649 19.793C67.9656 19.793 66.9737 19.397 66.1893 18.605C65.4048 17.813 65.0126 16.8437 65.0126 15.6972C65.0126 14.5507 65.4048 13.5814 66.1893 12.7894C66.9737 11.9974 67.9656 11.6014 69.1649 11.6014C69.8966 11.6014 70.5679 11.7787 71.1789 12.1332C71.7898 12.4802 72.2613 12.9516 72.5931 13.5475L71.8917 13.9548C71.6427 13.4721 71.2731 13.0874 70.7829 12.8007C70.2926 12.5141 69.7533 12.3708 69.1649 12.3708C68.1768 12.3708 67.3697 12.6914 66.7437 13.3325C66.1176 13.9737 65.8046 14.7619 65.8046 15.6972C65.8046 16.6325 66.1176 17.4207 66.7437 18.0619C67.3697 18.703 68.1768 19.0236 69.1649 19.0236C69.7533 19.0236 70.2926 18.8803 70.7829 18.5937C71.2731 18.307 71.6427 17.9223 71.8917 17.4396L72.5931 17.8356C72.2688 18.4315 71.7974 18.9067 71.1789 19.2612C70.5679 19.6157 69.8966 19.793 69.1649 19.793ZM76.3408 13.8643C77.1781 13.8643 77.8532 14.1622 78.3661 14.7581C78.8865 15.3465 79.1468 16.0442 79.1468 16.8513C79.1468 16.9342 79.1392 17.0511 79.1241 17.202H74.1572C74.2326 17.7753 74.474 18.2316 74.8813 18.571C75.2961 18.9029 75.8053 19.0689 76.4087 19.0689C76.8387 19.0689 77.2083 18.9821 77.5175 18.8086C77.8343 18.6276 78.0719 18.3938 78.2303 18.1071L78.8865 18.4918C78.6376 18.8916 78.2982 19.2084 77.8683 19.4422C77.4383 19.6761 76.948 19.793 76.3974 19.793C75.5073 19.793 74.7832 19.5139 74.2251 18.9557C73.6669 18.3975 73.3878 17.6885 73.3878 16.8286C73.3878 15.9838 73.6631 15.2786 74.2137 14.7129C74.7644 14.1471 75.4734 13.8643 76.3408 13.8643ZM76.3408 14.5884C75.7525 14.5884 75.2584 14.7657 74.8587 15.1202C74.4664 15.4671 74.2326 15.9197 74.1572 16.4779H78.3774C78.302 15.882 78.0719 15.4181 77.6872 15.0862C77.3025 14.7543 76.8537 14.5884 76.3408 14.5884ZM81.2397 13.0949V12.4387H84.1814V13.0949H81.2397ZM84.453 14.0001H85.0866V19.6572H84.3398V15.3012L80.9682 19.6572H80.3346V14.0001H81.0813V18.3561L84.453 14.0001ZM90.3316 14.0001H91.0783V19.6572H90.3316V17.5075C89.8941 17.7338 89.3548 17.8469 88.7136 17.8469C87.9744 17.8469 87.4087 17.6772 87.0165 17.3378C86.6318 16.9908 86.4394 16.4817 86.4394 15.8103V14.0001H87.1862V15.8103C87.1862 16.2855 87.3106 16.6287 87.5596 16.8399C87.8085 17.0436 88.1856 17.1454 88.691 17.1454C89.2793 17.1454 89.8262 17.0361 90.3316 16.8173V14.0001ZM97.5305 14.0001H98.2773V19.6572H97.5305V18.5484C97.0101 19.3781 96.2482 19.793 95.245 19.793C94.438 19.793 93.7478 19.5063 93.1745 18.9331C92.6088 18.3598 92.326 17.6583 92.326 16.8286C92.326 15.9989 92.6088 15.2974 93.1745 14.7242C93.7478 14.1509 94.438 13.8643 95.245 13.8643C96.2482 13.8643 97.0101 14.2791 97.5305 15.1089V14.0001ZM93.7176 18.4239C94.1476 18.8539 94.6756 19.0689 95.3016 19.0689C95.9277 19.0689 96.4557 18.8539 96.8856 18.4239C97.3156 17.9865 97.5305 17.4547 97.5305 16.8286C97.5305 16.2026 97.3156 15.6746 96.8856 15.2446C96.4557 14.8071 95.9277 14.5884 95.3016 14.5884C94.6756 14.5884 94.1476 14.8071 93.7176 15.2446C93.2877 15.6746 93.0727 16.2026 93.0727 16.8286C93.0727 17.4547 93.2877 17.9865 93.7176 18.4239ZM102.495 19.793C101.642 19.793 100.933 19.5101 100.367 18.9444C99.8018 18.3711 99.5189 17.6659 99.5189 16.8286C99.5189 15.9914 99.8018 15.2899 100.367 14.7242C100.933 14.1509 101.642 13.8643 102.495 13.8643C103.053 13.8643 103.554 14.0001 103.999 14.2716C104.444 14.5356 104.769 14.8939 104.972 15.3465L104.361 15.6972C104.211 15.3578 103.965 15.09 103.626 14.8939C103.294 14.6902 102.917 14.5884 102.495 14.5884C101.869 14.5884 101.341 14.8071 100.911 15.2446C100.481 15.6746 100.266 16.2026 100.266 16.8286C100.266 17.4547 100.481 17.9865 100.911 18.4239C101.341 18.8539 101.869 19.0689 102.495 19.0689C102.917 19.0689 103.294 18.9708 103.626 18.7747C103.958 18.571 104.218 18.2995 104.407 17.9601L105.029 18.3221C104.795 18.7747 104.452 19.133 103.999 19.397C103.547 19.661 103.045 19.793 102.495 19.793ZM111.566 19.793C110.714 19.793 110.005 19.5101 109.439 18.9444C108.873 18.3711 108.59 17.6659 108.59 16.8286C108.59 15.9914 108.873 15.2899 109.439 14.7242C110.005 14.1509 110.714 13.8643 111.566 13.8643C112.124 13.8643 112.626 14.0001 113.071 14.2716C113.516 14.5356 113.84 14.8939 114.044 15.3465L113.433 15.6972C113.282 15.3578 113.037 15.09 112.697 14.8939C112.365 14.6902 111.988 14.5884 111.566 14.5884C110.94 14.5884 110.412 14.8071 109.982 15.2446C109.552 15.6746 109.337 16.2026 109.337 16.8286C109.337 17.4547 109.552 17.9865 109.982 18.4239C110.412 18.8539 110.94 19.0689 111.566 19.0689C111.988 19.0689 112.365 18.9708 112.697 18.7747C113.029 18.571 113.289 18.2995 113.478 17.9601L114.1 18.3221C113.866 18.7747 113.523 19.133 113.071 19.397C112.618 19.661 112.117 19.793 111.566 19.793ZM119.858 18.9444C119.285 19.5101 118.583 19.793 117.753 19.793C116.924 19.793 116.218 19.5101 115.638 18.9444C115.064 18.3711 114.778 17.6659 114.778 16.8286C114.778 15.9914 115.064 15.2899 115.638 14.7242C116.218 14.1509 116.924 13.8643 117.753 13.8643C118.583 13.8643 119.285 14.1509 119.858 14.7242C120.439 15.2899 120.729 15.9914 120.729 16.8286C120.729 17.6659 120.439 18.3711 119.858 18.9444ZM116.169 18.4239C116.599 18.8539 117.127 19.0689 117.753 19.0689C118.379 19.0689 118.907 18.8539 119.337 18.4239C119.767 17.9865 119.982 17.4547 119.982 16.8286C119.982 16.2026 119.767 15.6746 119.337 15.2446C118.907 14.8071 118.379 14.5884 117.753 14.5884C117.127 14.5884 116.599 14.8071 116.169 15.2446C115.739 15.6746 115.524 16.2026 115.524 16.8286C115.524 17.4547 115.739 17.9865 116.169 18.4239ZM124.677 16.7494C125.333 16.9983 125.661 17.4509 125.661 18.1071C125.661 18.5748 125.476 18.9746 125.107 19.3065C124.745 19.6308 124.224 19.793 123.545 19.793C122.406 19.793 121.66 19.3404 121.305 18.4353L121.939 18.0619C122.173 18.7332 122.708 19.0689 123.545 19.0689C123.983 19.0689 124.318 18.9746 124.552 18.786C124.794 18.5974 124.914 18.3561 124.914 18.0619C124.914 17.7979 124.816 17.5829 124.62 17.417C124.424 17.251 124.16 17.1681 123.828 17.1681H123.002V16.4439H123.602C123.926 16.4439 124.179 16.3647 124.36 16.2063C124.549 16.0404 124.643 15.8141 124.643 15.5275C124.643 15.2559 124.533 15.0334 124.315 14.8599C124.096 14.6789 123.802 14.5884 123.432 14.5884C122.723 14.5884 122.252 14.8713 122.018 15.437L121.396 15.0749C121.773 14.2678 122.452 13.8643 123.432 13.8643C124.028 13.8643 124.503 14.0227 124.858 14.3395C125.212 14.6487 125.39 15.0297 125.39 15.4822C125.39 16.063 125.152 16.4854 124.677 16.7494ZM131.438 18.9331H132.23V21.1733H131.483V19.6572H126.867V21.1733H126.12V18.9331H126.81C127.195 18.4277 127.387 17.7149 127.387 16.7947V14.0001H131.438V18.9331ZM127.715 18.9331H130.691V14.7242H128.134V16.7947C128.134 17.6621 127.994 18.3749 127.715 18.9331ZM138.003 14.0001H138.75V19.6572H138.003V18.5484C137.483 19.3781 136.721 19.793 135.718 19.793C134.911 19.793 134.221 19.5063 133.647 18.9331C133.082 18.3598 132.799 17.6583 132.799 16.8286C132.799 15.9989 133.082 15.2974 133.647 14.7242C134.221 14.1509 134.911 13.8643 135.718 13.8643C136.721 13.8643 137.483 14.2791 138.003 15.1089V14.0001ZM134.19 18.4239C134.62 18.8539 135.148 19.0689 135.774 19.0689C136.401 19.0689 136.929 18.8539 137.358 18.4239C137.788 17.9865 138.003 17.4547 138.003 16.8286C138.003 16.2026 137.788 15.6746 137.358 15.2446C136.929 14.8071 136.401 14.5884 135.774 14.5884C135.148 14.5884 134.62 14.8071 134.19 15.2446C133.761 15.6746 133.546 16.2026 133.546 16.8286C133.546 17.4547 133.761 17.9865 134.19 18.4239ZM145.875 14.0001V19.6572H145.128V15.1428L143.148 18.3561H143.058L141.078 15.1428V19.6572H140.331V14.0001H141.191L143.103 17.1002L145.015 14.0001H145.875ZM155.378 11.7372V12.4839H152.945V19.6572H152.153V12.4839H149.721V11.7372H155.378ZM157.994 13.8643C158.831 13.8643 159.506 14.1622 160.019 14.7581C160.539 15.3465 160.8 16.0442 160.8 16.8513C160.8 16.9342 160.792 17.0511 160.777 17.202H155.81C155.885 17.7753 156.127 18.2316 156.534 18.571C156.949 18.9029 157.458 19.0689 158.062 19.0689C158.492 19.0689 158.861 18.9821 159.17 18.8086C159.487 18.6276 159.725 18.3938 159.883 18.1071L160.539 18.4918C160.29 18.8916 159.951 19.2084 159.521 19.4422C159.091 19.6761 158.601 19.793 158.05 19.793C157.16 19.793 156.436 19.5139 155.878 18.9557C155.32 18.3975 155.041 17.6885 155.041 16.8286C155.041 15.9838 155.316 15.2786 155.867 14.7129C156.417 14.1471 157.126 13.8643 157.994 13.8643ZM157.994 14.5884C157.405 14.5884 156.911 14.7657 156.512 15.1202C156.119 15.4671 155.885 15.9197 155.81 16.4779H160.03C159.955 15.882 159.725 15.4181 159.34 15.0862C158.955 14.7543 158.507 14.5884 157.994 14.5884ZM161.987 19.6572V11.3978H162.734V19.6572H161.987ZM166.932 13.8643C167.77 13.8643 168.445 14.1622 168.958 14.7581C169.478 15.3465 169.738 16.0442 169.738 16.8513C169.738 16.9342 169.731 17.0511 169.716 17.202H164.749C164.824 17.7753 165.066 18.2316 165.473 18.571C165.888 18.9029 166.397 19.0689 167 19.0689C167.43 19.0689 167.8 18.9821 168.109 18.8086C168.426 18.6276 168.663 18.3938 168.822 18.1071L169.478 18.4918C169.229 18.8916 168.89 19.2084 168.46 19.4422C168.03 19.6761 167.54 19.793 166.989 19.793C166.099 19.793 165.375 19.5139 164.817 18.9557C164.258 18.3975 163.979 17.6885 163.979 16.8286C163.979 15.9838 164.255 15.2786 164.805 14.7129C165.356 14.1471 166.065 13.8643 166.932 13.8643ZM166.932 14.5884C166.344 14.5884 165.85 14.7657 165.45 15.1202C165.058 15.4671 164.824 15.9197 164.749 16.4779H168.969C168.894 15.882 168.663 15.4181 168.279 15.0862C167.894 14.7543 167.445 14.5884 166.932 14.5884ZM175.791 14.0001H176.538V19.4309C176.538 20.2455 176.259 20.8867 175.701 21.3543C175.143 21.822 174.475 22.0558 173.698 22.0558C172.371 22.0558 171.477 21.5957 171.017 20.6755L171.673 20.3021C172.012 20.9885 172.687 21.3317 173.698 21.3317C174.347 21.3317 174.856 21.1582 175.226 20.8113C175.603 20.4718 175.791 20.0117 175.791 19.4309V18.5484C175.271 19.3781 174.509 19.793 173.506 19.793C172.699 19.793 172.009 19.5063 171.435 18.9331C170.87 18.3598 170.587 17.6583 170.587 16.8286C170.587 15.9989 170.87 15.2974 171.435 14.7242C172.009 14.1509 172.699 13.8643 173.506 13.8643C174.509 13.8643 175.271 14.2791 175.791 15.1089V14.0001ZM171.978 18.4239C172.408 18.8539 172.936 19.0689 173.562 19.0689C174.188 19.0689 174.716 18.8539 175.146 18.4239C175.576 17.9865 175.791 17.4547 175.791 16.8286C175.791 16.2026 175.576 15.6746 175.146 15.2446C174.716 14.8071 174.188 14.5884 173.562 14.5884C172.936 14.5884 172.408 14.8071 171.978 15.2446C171.548 15.6746 171.333 16.2026 171.333 16.8286C171.333 17.4547 171.548 17.9865 171.978 18.4239ZM178.866 14.9391C179.213 14.2527 179.809 13.9095 180.654 13.9095V14.6337C180.141 14.6337 179.714 14.7845 179.375 15.0862C179.036 15.3879 178.866 15.8631 178.866 16.5118V19.6572H178.119V14.0001H178.866V14.9391ZM186.2 14.0001H186.946V19.6572H186.2V18.5484C185.679 19.3781 184.917 19.793 183.914 19.793C183.107 19.793 182.417 19.5063 181.844 18.9331C181.278 18.3598 180.995 17.6583 180.995 16.8286C180.995 15.9989 181.278 15.2974 181.844 14.7242C182.417 14.1509 183.107 13.8643 183.914 13.8643C184.917 13.8643 185.679 14.2791 186.2 15.1089V14.0001ZM182.387 18.4239C182.817 18.8539 183.345 19.0689 183.971 19.0689C184.597 19.0689 185.125 18.8539 185.555 18.4239C185.985 17.9865 186.2 17.4547 186.2 16.8286C186.2 16.2026 185.985 15.6746 185.555 15.2446C185.125 14.8071 184.597 14.5884 183.971 14.5884C183.345 14.5884 182.817 14.8071 182.387 15.2446C181.957 15.6746 181.742 16.2026 181.742 16.8286C181.742 17.4547 181.957 17.9865 182.387 18.4239ZM194.558 13.8643C195.191 13.8643 195.701 14.0679 196.085 14.4753C196.478 14.8826 196.674 15.4332 196.674 16.1271V19.6572H195.927V16.1271C195.927 15.6369 195.799 15.2597 195.542 14.9957C195.293 14.7242 194.961 14.5884 194.547 14.5884C194.079 14.5884 193.698 14.7468 193.404 15.0636C193.117 15.3729 192.974 15.8594 192.974 16.5231V19.6572H192.227V16.1271C192.227 15.6293 192.106 15.2484 191.865 14.9844C191.631 14.7204 191.311 14.5884 190.903 14.5884C190.451 14.5884 190.066 14.7468 189.749 15.0636C189.433 15.3804 189.274 15.8669 189.274 16.5231V19.6572H188.527V14.0001H189.274V14.826C189.681 14.1849 190.258 13.8643 191.005 13.8643C191.82 13.8643 192.393 14.2075 192.725 14.8939C193.132 14.2075 193.743 13.8643 194.558 13.8643ZM198.231 16.5231V15.799H202.304V16.5231H198.231ZM206.508 19.793C205.693 19.793 205.014 19.5252 204.471 18.9897C203.928 18.4466 203.657 17.7451 203.657 16.8852C203.657 15.9197 203.8 15.1805 204.087 14.6676C204.373 14.1471 204.954 13.6757 205.829 13.2533C205.995 13.1703 206.214 13.0723 206.485 12.9591C206.764 12.846 206.972 12.7555 207.108 12.6876C207.251 12.6197 207.406 12.533 207.571 12.4274C207.737 12.3142 207.862 12.1898 207.945 12.054C208.028 11.9182 208.081 11.7561 208.103 11.5675L208.692 11.9069C208.661 12.0879 208.601 12.2577 208.511 12.4161C208.42 12.5745 208.326 12.7027 208.228 12.8007C208.137 12.8988 207.99 13.0082 207.786 13.1289C207.59 13.242 207.436 13.325 207.323 13.3778C207.217 13.423 207.028 13.5022 206.757 13.6154C206.493 13.7285 206.316 13.8039 206.225 13.8417C205.697 14.0679 205.309 14.3055 205.06 14.5545C204.811 14.7958 204.634 15.1126 204.528 15.5049C204.784 15.1654 205.109 14.9165 205.501 14.7581C205.901 14.5922 206.289 14.5092 206.666 14.5092C207.421 14.5092 208.043 14.7581 208.533 15.2559C209.031 15.7462 209.28 16.3761 209.28 17.1454C209.28 17.9073 209.016 18.5409 208.488 19.0462C207.967 19.5441 207.307 19.793 206.508 19.793ZM206.508 19.0462C207.096 19.0462 207.579 18.869 207.956 18.5145C208.341 18.1524 208.533 17.6961 208.533 17.1454C208.533 16.5873 208.352 16.1309 207.99 15.7764C207.636 15.4143 207.16 15.2333 206.564 15.2333C206.029 15.2333 205.542 15.403 205.105 15.7425C204.667 16.0743 204.449 16.5194 204.449 17.0775C204.449 17.6508 204.645 18.1222 205.037 18.4918C205.437 18.8614 205.927 19.0462 206.508 19.0462ZM215.156 18.9444C214.583 19.5101 213.882 19.793 213.052 19.793C212.222 19.793 211.517 19.5101 210.936 18.9444C210.363 18.3711 210.076 17.6659 210.076 16.8286C210.076 15.9914 210.363 15.2899 210.936 14.7242C211.517 14.1509 212.222 13.8643 213.052 13.8643C213.882 13.8643 214.583 14.1509 215.156 14.7242C215.737 15.2899 216.028 15.9914 216.028 16.8286C216.028 17.6659 215.737 18.3711 215.156 18.9444ZM211.468 18.4239C211.898 18.8539 212.426 19.0689 213.052 19.0689C213.678 19.0689 214.206 18.8539 214.636 18.4239C215.066 17.9865 215.281 17.4547 215.281 16.8286C215.281 16.2026 215.066 15.6746 214.636 15.2446C214.206 14.8071 213.678 14.5884 213.052 14.5884C212.426 14.5884 211.898 14.8071 211.468 15.2446C211.038 15.6746 210.823 16.2026 210.823 16.8286C210.823 17.4547 211.038 17.9865 211.468 18.4239ZM221.129 14.0001V14.7242H219.127V19.6572H218.38V14.7242H216.377V14.0001H221.129ZM226.683 14.0001H227.43V19.6572H226.683V18.5484C226.163 19.3781 225.401 19.793 224.398 19.793C223.591 19.793 222.901 19.5063 222.327 18.9331C221.762 18.3598 221.479 17.6583 221.479 16.8286C221.479 15.9989 221.762 15.2974 222.327 14.7242C222.901 14.1509 223.591 13.8643 224.398 13.8643C225.401 13.8643 226.163 14.2791 226.683 15.1089V14.0001ZM222.871 18.4239C223.301 18.8539 223.829 19.0689 224.455 19.0689C225.081 19.0689 225.609 18.8539 226.039 18.4239C226.469 17.9865 226.683 17.4547 226.683 16.8286C226.683 16.2026 226.469 15.6746 226.039 15.2446C225.609 14.8071 225.081 14.5884 224.455 14.5884C223.829 14.5884 223.301 14.8071 222.871 15.2446C222.441 15.6746 222.226 16.2026 222.226 16.8286C222.226 17.4547 222.441 17.9865 222.871 18.4239Z" fill="#1D2530"/>
<path d="M233.452 21.52H233.904V26.8H233.376V22.1008L232.192 22.4553L232.056 22.0028L233.452 21.52ZM236.015 21.52H236.468V26.8H235.94V22.1008L234.756 22.4553L234.62 22.0028L236.015 21.52ZM238.232 23.6622C238.151 23.7426 238.053 23.7829 237.938 23.7829C237.822 23.7829 237.724 23.7426 237.643 23.6622C237.563 23.5817 237.523 23.4837 237.523 23.368C237.523 23.2524 237.563 23.1543 237.643 23.0738C237.724 22.9934 237.822 22.9532 237.938 22.9532C238.053 22.9532 238.151 22.9934 238.232 23.0738C238.312 23.1543 238.352 23.2524 238.352 23.368C238.352 23.4837 238.312 23.5817 238.232 23.6622ZM238.232 26.7548C238.151 26.8352 238.053 26.8754 237.938 26.8754C237.822 26.8754 237.724 26.8352 237.643 26.7548C237.563 26.6743 237.523 26.5762 237.523 26.4606C237.523 26.3449 237.563 26.2469 237.643 26.1664C237.724 26.086 237.822 26.0457 237.938 26.0457C238.053 26.0457 238.151 26.086 238.232 26.1664C238.312 26.2469 238.352 26.3449 238.352 26.4606C238.352 26.5762 238.312 26.6743 238.232 26.7548ZM240.317 21.52H240.77V26.8H240.242V22.1008L239.057 22.4553L238.922 22.0028L240.317 21.52ZM242.88 21.52H243.333V26.8H242.805V22.1008L241.621 22.4553L241.485 22.0028L242.88 21.52Z" fill="#8E8E93"/>
</svg>
