<svg width="260" height="429" viewBox="0 0 260 429" fill="none" xmlns="http://www.w3.org/2000/svg">
<path d="M255.292 22.1898V407.143C255.292 416.64 247.587 424.31 238.084 424.31H22.4511C12.9486 424.31 5.2431 416.609 5.2431 407.143V22.1898C5.2431 12.6931 12.9486 4.99219 22.4511 4.99219H238.084C247.617 5.02263 255.292 12.6931 255.292 22.1898Z" fill="#C0D8FB"/>
<path d="M250.937 5.02246H8.95844V166.224H250.937V5.02246Z" fill="#F0F6FF"/>
<path d="M160.816 25.964H99.8117C90.766 25.964 83.4564 18.6588 83.4564 9.61865H177.172C177.141 18.6588 169.832 25.964 160.816 25.964Z" fill="#2B478B"/>
<path d="M238.541 428.936H22.0243C10.3594 428.936 0.887329 418.953 0.887329 406.686V22.6461C0.887329 10.3795 10.3594 0.395752 22.0243 0.395752H238.541C250.206 0.395752 259.678 10.3795 259.678 22.6461V406.686C259.678 418.953 250.206 428.936 238.541 428.936ZM22.0243 9.61856C15.202 9.61856 9.65886 15.4627 9.65886 22.6461V406.686C9.65886 413.869 15.202 419.714 22.0243 419.714H238.541C245.363 419.714 250.906 413.869 250.906 406.686V22.6461C250.906 15.4627 245.363 9.61856 238.541 9.61856H22.0243Z" fill="#2B478B"/>
<path d="M237.415 424.188H16.4515C10.1469 424.188 4.99976 419.074 4.99976 412.773V397.28H255.567V406.046C255.567 416.061 247.435 424.188 237.415 424.188Z" fill="#2B478B"/>
<path d="M229.069 32.4779L226.572 34.2737L224.074 32.5083C224.623 31.7169 225.536 31.1995 226.572 31.1995C227.577 31.1995 228.491 31.7169 229.069 32.4779Z" fill="#2B478B"/>
<path d="M226.572 26.8469C224.075 26.8469 221.851 28.0949 220.511 29.9821L222.095 31.0779C223.1 29.6777 224.714 28.7645 226.572 28.7645C228.4 28.7645 230.014 29.6777 231.019 31.0474L232.603 29.9212C231.232 28.0645 229.039 26.8469 226.572 26.8469Z" fill="#2B478B"/>
<path d="M226.572 18.5977C221.272 18.5977 216.612 21.2153 213.749 25.2332L215.333 26.329C217.831 22.7981 221.942 20.5153 226.572 20.5153C231.171 20.5153 235.252 22.7981 237.749 26.2681L239.303 25.1419C236.47 21.1545 231.81 18.5977 226.572 18.5977Z" fill="#2B478B"/>
<path d="M226.572 23.103C222.795 23.103 219.475 24.9598 217.435 27.821L219.019 28.9167C220.694 26.573 223.465 25.0206 226.572 25.0206C229.648 25.0206 232.389 26.5426 234.095 28.8559L235.648 27.7296C233.607 24.9293 230.288 23.103 226.572 23.103Z" fill="#2B478B"/>
<g clip-path="url(#clip0_14664_22)">
<path d="M216.956 150.992H43.4079V167.542H216.956V150.992Z" fill="white"/>
<path d="M135.481 128.146C135.481 128.146 133.098 130.571 130.714 133.294C129.692 134.4 128.713 135.591 127.862 136.655C125.01 140.228 122.328 141.249 119.178 144.738C117.22 146.908 114.666 148.567 109.898 149.333C105.131 150.099 87.6779 151.332 87.6779 151.332C87.6779 151.332 87.2522 149.035 87.5502 148.269C87.6353 148.056 87.4225 147.631 87.1245 147.035C86.3583 145.504 85.0813 143.164 87.5502 142.866C90.913 142.483 107.302 138.527 108.068 137.335C108.834 136.144 113.261 130.656 115.645 125.678C118.029 120.7 121.604 114.617 125.265 108.66C128.458 103.427 129.394 103.172 131.097 101.641L133.098 113.808L135.481 128.146Z" fill="#6D9BFF"/>
<path d="M79.6754 150.822H68.0119V150.311C68.0119 147.121 70.6085 144.483 73.8437 144.483C77.0362 144.483 79.6754 147.078 79.6754 150.311V150.822Z" fill="#A5A5A5"/>
<path d="M80.0587 144.185C79.1223 143.845 76.2702 142.483 74.7378 142.483C73.2054 142.483 70.6513 145.079 69.204 146.355C67.7567 147.631 69.7574 148.822 70.9067 148.227C72.0986 147.631 73.2054 146.142 74.3121 146.185C75.4189 146.227 75.9297 147.206 76.5256 147.419C76.8236 147.504 76.9939 148.355 76.4405 148.737C75.8445 149.163 74.5249 149.163 74.1844 149.376C73.4608 149.844 73.929 151.077 75.1635 151.077C76.3979 151.077 77.4195 151.205 78.9094 150.907C80.3567 150.609 82.1871 151.035 83.2939 150.567C84.4432 150.099 87.6358 151.248 87.6358 151.248L85.3371 144.994C85.3371 145.079 81.8892 144.908 80.0587 144.185Z" fill="#FDD2BB"/>
<path d="M80.9102 144.185C81.1656 145.121 81.7615 145.759 82.2298 147.206C83.2939 150.311 81.9318 150.907 81.9318 150.907C81.9318 150.907 87.8913 151.332 88.9554 150.907C88.9554 150.907 90.4027 149.29 88.9554 146.1C87.5081 142.909 87.5081 142.909 87.5081 142.909C87.5081 142.909 86.6142 142.909 83.975 143.292C81.8041 143.589 80.9102 144.185 80.9102 144.185Z" fill="#2C5CFF"/>
<path d="M164.173 80.7092C164.173 80.7092 162.981 84.1979 162.853 87.2185C162.725 90.2391 162.725 94.4085 163.619 96.0252C164.513 97.6419 173.835 103.088 173.835 103.088C173.835 103.088 163.236 105.3 152.764 104.662C142.293 104.023 140.037 99.5989 140.037 99.5989C140.037 99.5989 147.997 96.4932 148.21 95.6848C148.423 94.8765 149.955 88.8777 149.955 88.8777L164.173 80.7092Z" fill="#F6C1AA"/>
<path opacity="0.28" d="M163.406 95.4721C162.768 93.6002 162.768 89.9413 162.853 87.2185C162.981 84.1979 164.173 80.7092 164.173 80.7092L149.997 88.7926C149.997 88.7926 148.465 94.8339 148.252 95.5997C148.039 96.4081 140.079 99.5138 140.079 99.5138C140.079 99.5138 140.164 99.684 140.377 99.9393C148.082 98.6629 155.744 97.0888 163.406 95.4721Z" fill="#EB9271"/>
<path d="M145.699 79.9861C146.04 77.476 146.125 68.329 146.125 68.329L158.342 64.032L169.026 69.9882C169.026 69.9882 166.472 78.0716 166.43 80.6243C166.387 83.1769 166.217 86.5805 164.599 89.0055C163.024 91.4305 158.853 95.217 157.874 95.6849C154.936 97.0464 153.021 96.1104 150.807 94.8341C149.871 94.281 148.594 91.5156 147.359 88.8779C146.082 86.2401 145.359 82.4962 145.699 79.9861Z" fill="#FDD2BB"/>
<path d="M164.854 73.6468C164.854 73.6468 164.897 76.9228 165.748 79.05C165.918 79.4754 165.791 80.7517 165.62 82.2833C166.046 81.7728 166.514 81.3048 166.94 80.8368C167.834 79.9009 168.643 78.9649 169.409 77.9864C169.877 76.1144 170.686 73.6043 170.643 72.1578C170.558 67.7757 170.558 65.3507 162.555 61.4366C161.023 60.7134 157.916 58.6712 156.341 59.2669C153.957 60.1603 153.276 61.0112 151.403 62.5853C151.403 62.5853 148.891 62.0748 145.741 65.4783C143.911 67.4779 144.464 70.3709 144.549 72.5407C144.762 76.9653 145.954 76.71 145.954 76.71C146.124 74.4552 145.741 73.5192 146.422 70.1157C146.635 68.967 148.338 68.5841 149.53 68.3288C150.637 68.0735 151.02 67.6481 154.723 71.3494C156.937 73.5617 158.128 73.3916 164.854 73.6468Z" fill="#5C3000"/>
<path d="M165.153 80.539C165.748 78.3267 166.685 76.71 167.707 76.7525C168.686 76.8376 169.707 78.667 168.473 80.7517C167.238 82.8364 166.43 84.1127 165.748 84.921C165.067 85.8145 164.769 81.9429 165.153 80.539Z" fill="#FDD2BB"/>
<path d="M165.748 80.7942C166.089 79.603 166.642 78.114 167.536 78.199C168.43 78.2841 168.558 79.2627 167.323 80.9644C166.089 82.6236 165.833 83.5171 165.833 83.5171C165.833 83.5171 165.578 81.475 165.748 80.7942Z" fill="#EB9271"/>
<path d="M155.063 125.508C153.743 133.251 153.147 152.269 149.87 150.822C148.082 150.014 142.548 150.056 137.865 150.227C134.034 150.397 130.842 150.652 130.842 150.652C130.842 150.652 130.629 142.058 130.714 133.294C130.757 129.082 130.842 124.87 131.097 121.509C131.182 120.403 131.225 119.339 131.267 118.318C131.565 108.491 129.948 102.79 131.097 101.683C132.374 100.45 147.23 96.7058 147.954 94.9189L149.061 100.152C151.785 104.491 155.318 103.173 155.318 103.173C155.318 103.173 156.382 117.765 155.063 125.508Z" fill="#6D9BFF"/>
<path d="M151.572 104.619C150.848 108.916 150.678 112.277 149.444 120.53C148.209 128.784 148.805 132.188 148.252 137.378C147.698 142.568 146.677 150.269 146.677 150.269L155.573 151.588C155.573 151.588 155.871 136.697 156.34 126.231C156.808 115.765 158.553 106.448 158.553 106.448L159.745 100.067C159.745 100.067 156.467 103.555 153.062 103.215C149.614 102.789 151.572 104.619 151.572 104.619Z" fill="#2C5CFF"/>
<path d="M178.177 110.788C177.837 113.979 179.327 117.935 178.646 122.402C178.177 125.38 177.581 128.997 176.943 132.613C176.049 137.761 176.56 150.779 176.56 150.779C176.56 150.779 156.255 150.056 152.807 151.035C149.402 151.971 151.53 133.081 151.317 125.21C151.104 117.34 154.297 103.13 154.297 103.13C154.297 103.13 156.936 103.13 160.98 99.9816C163.492 98.0671 163.917 95.5144 163.917 95.5144C164.386 97.3438 178.22 101.513 179.327 102.96C179.497 103.172 179.625 103.598 179.71 104.151C179.838 105.555 178.475 107.81 178.177 110.788Z" fill="#6D9BFF"/>
<path d="M154.254 103.13C155.488 102.789 159.617 100.492 161.15 98.4499C162.682 96.4077 163.108 94.1104 163.108 94.1104C163.108 94.1104 164.555 96.4503 164.725 97.9393C164.895 99.4284 161.405 106.661 160.766 108.66C160.766 108.66 159.66 108.448 157.616 106.703C155.573 104.959 154.254 103.13 154.254 103.13Z" fill="#2C5CFF"/>
<path d="M148.465 94.7061C148.465 94.7061 147.784 95.7271 149.316 98.2372C150.849 100.747 154.211 103.172 154.211 103.172L148.763 108.448C148.763 108.448 147.486 105.3 146.72 102.577C145.953 99.8539 146.081 96.9609 146.464 96.11C146.89 95.3017 148.465 94.7061 148.465 94.7061Z" fill="#2C5CFF"/>
<path d="M155.871 114.83C155.828 115.638 155.147 116.191 154.339 116.148C153.53 116.106 152.976 115.425 153.019 114.617C153.062 113.808 153.743 113.255 154.551 113.298C155.36 113.34 155.956 114.021 155.871 114.83Z" fill="#2C5CFF"/>
<path d="M154.765 130.146C154.722 130.954 154.041 131.507 153.232 131.465C152.424 131.422 151.87 130.741 151.913 129.933C151.955 129.125 152.636 128.572 153.445 128.614C154.254 128.657 154.85 129.337 154.765 130.146Z" fill="#2C5CFF"/>
<path d="M153.657 145.419C153.615 146.227 152.934 146.78 152.125 146.738C151.316 146.695 150.763 146.015 150.805 145.206C150.848 144.398 151.529 143.845 152.338 143.887C153.147 143.972 153.743 144.653 153.657 145.419Z" fill="#2C5CFF"/>
<path d="M161.916 120.488C165.449 120.785 169.323 121.211 170.812 121.041V123.296C170.812 123.296 167.279 122.913 164.172 122.913C159.745 122.913 159.745 122.913 159.745 122.913L160.128 120.488C160.128 120.488 160.085 120.36 161.916 120.488Z" fill="#2C5CFF"/>
<path d="M134.162 148.567H114.666V150.822H134.162V148.567Z" fill="#E9EBEE"/>
<path d="M159.235 148.567H134.12V150.822H159.235V148.567Z" fill="#E9EBEE"/>
<path d="M135.482 147.588V148.567H136.674H138.972V147.588H136.674H135.482Z" fill="#D5D5D7"/>
<path d="M131.097 147.588V148.567H132.289H134.587V147.588H132.289H131.097Z" fill="#D5D5D7"/>
<path d="M126.712 147.588V148.567H127.904H130.203V147.588H127.904H126.712Z" fill="#D5D5D7"/>
<path d="M122.328 147.588V148.567H123.52H125.818V147.588H123.52H122.328Z" fill="#D5D5D7"/>
<path d="M154.509 147.588H153.275V148.567H154.509H156.765V147.588H154.509Z" fill="#D5D5D7"/>
<path d="M148.89 147.588V148.567H150.125H152.381V147.588H150.125H148.89Z" fill="#D5D5D7"/>
<path d="M144.506 147.588V148.567H145.74H147.996V147.588H145.74H144.506Z" fill="#D5D5D7"/>
<path d="M140.121 147.588V148.567H141.356H143.612V147.588H141.356H140.121Z" fill="#D5D5D7"/>
<path d="M117.943 147.588V148.567H119.135H121.434V147.588H119.135H117.943Z" fill="#D5D5D7"/>
<path d="M120.966 87.0481H52.1336C51.0269 87.0481 50.1755 87.9415 50.3032 89.0902L55.1134 135.676C55.2411 136.782 56.2201 137.718 57.3695 137.718H126.201C127.308 137.718 128.159 136.825 128.032 135.676L123.222 89.0902C123.094 87.9415 122.072 87.0481 120.966 87.0481Z" fill="#FAFCFF"/>
<path d="M120.966 87.0481H52.1336C51.0269 87.0481 50.1755 87.9415 50.3032 89.0902L55.1134 135.676C55.2411 136.782 56.2201 137.718 57.3695 137.718H126.201C127.308 137.718 128.159 136.825 128.032 135.676L123.222 89.0902C123.094 87.9415 122.072 87.0481 120.966 87.0481Z" fill="#6B6B6B"/>
<path d="M119.689 87.0483H50.8575C49.7507 87.0483 48.8994 87.9418 48.9845 89.0905L53.1136 135.676C53.1987 136.783 54.2203 137.719 55.3271 137.719H124.159C125.266 137.719 126.117 136.825 126.032 135.676L121.903 89.0905C121.818 87.9418 120.796 87.0483 119.689 87.0483Z" fill="#D5D5D7"/>
<path d="M108.111 133.932C107.685 133.932 107.26 133.592 107.217 133.124L106.877 129.295C106.834 128.869 107.175 128.486 107.6 128.486C108.026 128.486 108.452 128.827 108.494 129.295L108.835 133.124C108.877 133.592 108.579 133.932 108.111 133.932Z" fill="#E9EBEE"/>
<path d="M110.665 133.932C110.239 133.932 109.813 133.591 109.771 133.123L109.43 129.294C109.388 128.869 109.728 128.486 110.154 128.486C110.579 128.486 111.005 128.826 111.048 129.294L111.388 133.123C111.431 133.591 111.133 133.932 110.665 133.932Z" fill="#E9EBEE"/>
<path d="M113.219 133.932C112.793 133.932 112.368 133.591 112.325 133.123L111.984 129.294C111.942 128.869 112.282 128.486 112.708 128.486C113.134 128.486 113.559 128.826 113.602 129.294L113.943 133.123C113.985 133.591 113.645 133.932 113.219 133.932Z" fill="#E9EBEE"/>
<path d="M115.773 133.932C115.347 133.932 114.922 133.591 114.879 133.123L114.539 129.294C114.496 128.869 114.837 128.486 115.262 128.486C115.688 128.486 116.114 128.826 116.156 129.294L116.497 133.123C116.539 133.591 116.199 133.932 115.773 133.932Z" fill="#E9EBEE"/>
<path d="M118.327 133.932C117.901 133.932 117.476 133.591 117.433 133.123L117.092 129.294C117.05 128.869 117.39 128.486 117.816 128.486C118.242 128.486 118.667 128.826 118.71 129.294L119.051 133.123C119.093 133.591 118.753 133.932 118.327 133.932Z" fill="#E9EBEE"/>
<path d="M103.556 149.205H93.9778V150.992L103.556 151.29V149.205Z" fill="#6B6B6B"/>
<path d="M90.4025 141.122L92.8289 112.405H82.3147L77.7599 140.824C77.1214 144.1 78.143 147.589 80.1863 149.163L82.5275 150.992H95.5106L95.2978 149.205C91.5093 147.759 89.9768 144.27 90.4025 141.122Z" fill="#6B6B6B"/>
<path d="M88.8697 141.122L91.296 112.405H80.7818L76.2271 140.825C75.5886 144.101 76.6102 147.589 78.6534 149.163L80.9947 150.993H93.9778L91.3812 148.993C89.4656 147.504 88.444 144.271 88.8697 141.122Z" fill="#A5A5A5"/>
<path d="M89.0827 145.164H76.2698C76.6529 146.823 77.5043 148.312 78.6111 149.163L80.9523 150.992H93.9354L91.3388 148.993C90.3172 148.142 89.5084 146.78 89.0827 145.164Z" fill="#6B6B6B"/>
<path d="M196.013 144.568C196.013 144.568 192.054 142.399 188.862 140.952C185.669 139.506 181.029 142.101 181.029 142.101C181.029 142.101 180.476 140.612 179.667 138.74C178.858 136.783 177.837 134.4 176.9 132.656C176.39 131.635 175.921 130.869 175.538 130.486C173.921 128.784 174.091 126.785 173.623 125.806C173.623 125.764 173.58 125.721 173.58 125.679C173.24 124.402 174.133 119.212 175.113 114.489C176.134 109.597 177.496 101.981 177.496 101.981C177.965 102.407 179.582 102.79 180.433 103.811C180.433 103.811 186.223 112.575 188.649 118.616C193.076 129.593 193.8 131.848 194.523 135.889C195.332 139.888 196.013 144.568 196.013 144.568Z" fill="#6D9BFF"/>
<path d="M146.422 146.823C149.827 146.142 152.339 147.802 154.467 147.929C156.596 148.057 164.215 147.249 164.215 147.249L162.513 143.335C162.513 143.335 153.829 143.164 150.892 144.143C147.954 145.121 146.422 146.823 146.422 146.823Z" fill="#FDD2BB"/>
<path d="M164.258 142.782C164.258 142.782 159.746 141.973 157.575 141.931C153.914 141.846 149.785 141.846 148.933 142.526C148.082 143.207 143.698 148.185 143.102 148.993C142.506 149.801 142.804 150.737 144.634 150.099C146.464 149.461 149.487 145.972 151.317 145.164C153.148 144.356 156.553 145.036 156.553 145.036L163.321 144.398L164.258 142.782Z" fill="#FDD2BB"/>
<path opacity="0.28" d="M158.937 142.017C153.531 143.336 148.253 145.123 143.698 148.228C143.4 148.569 143.187 148.866 143.059 148.994C142.463 149.802 142.761 150.738 144.592 150.1C146.422 149.462 149.444 145.973 151.275 145.165C153.105 144.357 156.511 145.037 156.511 145.037L163.279 144.399L164.215 142.783C164.258 142.783 161.236 142.272 158.937 142.017Z" fill="#EB9271"/>
<path d="M159.746 142.952C159.746 142.952 153.446 142.526 151.828 142.356C150.168 142.186 148.891 143.547 147.997 145.164C147.061 146.781 145.188 149.589 145.613 150.397C145.997 151.248 147.061 151.163 147.912 150.227C148.806 149.291 149.955 146.951 151.19 146.483C152.424 146.015 156.596 145.036 156.596 145.036L159.746 142.952Z" fill="#FDD2BB"/>
<path opacity="0.28" d="M151.914 143.973C149.317 145.079 147.019 151.12 147.913 150.227C148.806 149.291 149.956 146.951 151.19 146.483C152.425 146.015 156.596 145.036 156.596 145.036L159.789 142.909C159.789 142.909 158.214 142.781 156.426 142.654C154.851 142.952 153.361 143.377 151.914 143.973Z" fill="#EB9271"/>
<path d="M170.813 148.568C170.813 148.568 167.578 148.355 166.429 149.461C165.28 150.567 164.13 151.078 163.066 150.95C161.959 150.822 160.001 149.844 159.107 149.291C158.213 148.738 155.319 150.61 154.425 151.035C153.488 151.503 152.68 150.695 153.105 149.716C153.573 148.738 154.51 147.802 155.276 147.419C156.042 147.036 159.32 146.228 159.32 146.228H159.278H159.235C158.852 146.185 157.362 146.015 156.383 146.057C155.276 146.142 154.127 146.823 153.063 148.185C152.041 149.546 150.934 151.078 150.338 151.333C150.168 151.418 149.955 151.375 149.785 151.163C149.402 150.78 149.232 149.929 149.742 148.823C150.509 147.206 152.467 144.653 153.488 143.377C154.51 142.101 156.042 141.973 157.532 141.931C158.98 141.888 162.385 141.888 162.385 141.888C162.385 141.888 166.131 141.803 168.217 141.803C169.494 141.846 170.813 148.568 170.813 148.568Z" fill="#FDD2BB"/>
<path opacity="0.28" d="M168.259 141.845C167.791 141.845 167.28 141.845 166.727 141.845C166.77 144.483 166.599 147.121 166.174 149.716C166.259 149.631 166.344 149.546 166.472 149.461C167.621 148.355 170.856 148.567 170.856 148.567C170.856 148.567 169.494 141.845 168.259 141.845Z" fill="#EB9271"/>
<path opacity="0.28" d="M159.32 146.185H159.278H159.235C158.852 146.142 157.362 145.972 156.383 146.015C155.277 146.1 154.127 146.78 153.063 148.142C152.041 149.503 150.935 151.035 150.339 151.29C150.168 151.375 149.956 151.333 149.785 151.12C150.892 149.759 152.041 147.674 152.595 146.738C153.446 145.291 155.915 145.036 156.554 145.036C157.149 145.036 159.32 146.185 159.32 146.185Z" fill="#EB9271"/>
<path d="M183.711 136.059C183.711 136.059 180.519 138.527 176.091 139.888C171.239 141.377 168.259 141.845 168.259 141.845C168.259 141.845 168.6 145.845 168.727 150.014C168.727 150.014 179.369 151.673 186.308 150.354C193.246 148.993 194.992 149.248 196.141 146.227C197.29 143.207 195.375 137.293 194.481 134.698C193.587 132.06 188.01 134.102 183.711 136.059Z" fill="#6D9BFF"/>
<path d="M166.982 141.803C168.132 143.335 168.089 145.632 168.387 148.823C168.6 151.035 167.834 150.993 167.834 150.993L173.666 150.822C173.666 150.822 174.304 147.461 173.41 144.356C172.474 141.25 172.474 141.25 172.474 141.25L166.982 141.803Z" fill="#2C5CFF"/>
<path d="M202.185 138.101C202.313 137.25 202.994 136.484 203.846 136.229C204.484 136.059 205.208 136.101 205.676 135.633C206.187 135.123 205.974 134.272 205.974 133.548C205.974 132.102 206.91 130.741 208.273 130.23C208.869 130.017 209.55 129.975 210.018 129.549C210.486 129.124 210.656 128.443 210.827 127.805C211.295 126.231 212.274 124.869 213.551 123.848C214.104 123.423 214.786 123.083 215.424 123.253C215.935 123.423 216.318 123.891 216.446 124.401C216.573 124.912 216.488 125.465 216.318 125.976C215.637 127.89 213.679 129.252 213.253 131.251C213.04 132.23 213.253 133.293 213.04 134.272C212.785 135.42 211.976 136.399 210.912 136.867C210.401 137.08 209.763 137.207 209.422 137.675C209.039 138.186 209.167 138.952 209.081 139.59C208.911 140.994 207.549 142.057 206.144 142.142C204.74 142.228 203.377 141.377 202.611 140.228C202.526 140.27 202.058 138.994 202.185 138.101Z" fill="#4BBD6D"/>
<path d="M208.698 136.74C209.209 136.101 209.294 135.208 208.953 134.485C208.698 133.974 208.187 133.464 208.23 132.911C208.272 132.272 208.953 131.889 209.464 131.421C210.443 130.571 210.784 129.039 210.273 127.848C209.209 125.295 211.507 123.083 211.294 120.36C211.252 119.764 211.082 119.084 210.528 118.743C210.103 118.488 209.549 118.531 209.124 118.786C208.698 118.999 208.4 119.424 208.144 119.849C207.421 121.211 207.421 122.657 206.953 124.061C206.484 125.38 205.378 126.061 204.611 127.167C204.015 128.018 203.845 129.209 204.186 130.188C204.356 130.698 204.654 131.166 204.526 131.677C204.399 132.272 203.845 132.613 203.462 133.081C202.653 134.059 202.738 135.633 203.547 136.612C204.356 137.59 205.761 138.016 206.995 137.803C207.038 137.803 208.187 137.335 208.698 136.74Z" fill="#44AB63"/>
<path d="M208.017 138.314C207.932 137.59 207.378 136.91 206.655 136.697C206.144 136.527 205.505 136.569 205.122 136.144C204.739 135.676 204.909 134.995 204.952 134.4C204.995 133.208 204.228 132.017 203.079 131.592C202.568 131.422 202.015 131.336 201.632 130.996C201.249 130.613 201.121 130.06 200.993 129.55C200.61 128.231 199.844 127.039 198.78 126.189C198.354 125.848 197.758 125.508 197.205 125.678C196.779 125.806 196.438 126.189 196.353 126.614C196.226 127.039 196.311 127.507 196.438 127.933C196.992 129.55 198.609 130.741 198.907 132.4C199.078 133.251 198.865 134.102 199.035 134.953C199.205 135.889 199.886 136.74 200.78 137.165C201.206 137.378 201.717 137.505 202.015 137.888C202.313 138.356 202.185 138.952 202.27 139.505C202.398 140.654 203.505 141.59 204.654 141.675C205.846 141.76 206.995 141.122 207.676 140.143C207.634 140.101 208.102 139.037 208.017 138.314Z" fill="#44AB63"/>
<path d="M200.695 134.57C200.525 133.974 200.057 133.506 199.844 132.953C199.418 131.974 199.674 130.826 200.099 129.805C200.44 129.081 200.866 128.316 200.823 127.55C200.78 127.039 200.568 126.571 200.397 126.103C200.057 124.955 200.099 123.721 200.184 122.53C200.227 121.806 200.27 121.041 200.568 120.402C200.865 119.722 201.419 119.126 202.143 118.998C203.122 118.828 204.101 119.594 204.441 120.53C204.824 121.466 204.739 122.487 204.611 123.466C204.484 124.444 204.356 125.465 204.654 126.444C204.952 127.55 205.761 128.401 206.229 129.464C206.782 130.741 206.655 132.315 205.974 133.506C205.633 134.102 205.122 134.655 204.909 135.335C204.484 136.739 205.378 138.228 205.548 139.675C205.676 140.611 205.463 141.632 204.824 142.313C203.42 143.929 201.078 142.823 200.568 140.994C200.312 140.058 200.014 138.867 200.142 137.888C200.27 136.782 201.036 135.718 200.695 134.57Z" fill="#4BBD6D"/>
<path d="M210.443 150.992H201.078L197.971 135.931H213.55L210.443 150.992Z" fill="#D5D5D7"/>
<path d="M219.234 151.268H38.7475V157.096H219.234V151.268Z" stroke="#D4DBF1" stroke-width="0.282631" stroke-miterlimit="10"/>
</g>
<defs>
<clipPath id="clip0_14664_22">
<rect width="180.913" height="108.36" fill="white" transform="translate(43.4076 59.1592)"/>
</clipPath>
</defs>
</svg>
