<svg width="182" height="227" viewBox="0 0 182 227" fill="none" xmlns="http://www.w3.org/2000/svg">
<path d="M41.7707 1.34412C51.6912 -0.766155 62.0277 2.23938 69.3881 9.20969C72.6203 12.2792 76.1725 16.148 79.4367 20.7203C87.5331 32.0071 72.0442 43.198 74.0923 47.0029C76.1404 50.8397 80.9407 53.8452 78.8286 61.8387C76.7485 69.8322 62.9558 80.1918 58.4756 80.6394C12.9372 85.3076 -6.8078 60.2401 8.39298 46.7151C23.5938 33.1901 17.4175 13.5901 29.7701 5.98034C33.6103 3.61427 37.8025 2.20742 41.7707 1.34412Z" fill="#233862"/>
<path d="M64.9394 71.2708C64.9394 71.2708 107.821 89.9436 115.598 89.5918C123.374 89.2401 171.345 75.0117 171.345 75.0117L170.128 83.261C170.128 83.261 133.103 104.524 120.174 105.739C107.437 106.922 63.8833 94.324 59.6591 91.6382C55.4349 88.9524 52.7148 73.9566 64.9394 71.2708Z" fill="#FDB888"/>
<path d="M70.1234 91.6705C66.3472 94.2924 61.643 96.4346 55.7227 97.8095C33.5136 102.925 25.0012 84.1886 21.801 71.3032C24.8412 69.5766 27.6893 69.1929 29.3214 69.001C30.9215 68.8092 32.6175 68.6813 34.0256 68.6173C36.5217 66.6989 40.2339 58.8973 41.066 46.7472L42.122 47.035L59.6269 51.831C59.6269 51.831 58.8269 57.3945 58.4428 62.6382C58.1548 66.7628 58.0908 70.6956 58.8589 71.6549C60.2349 71.9426 61.035 72.1345 61.035 72.1345C61.035 72.1345 61.035 72.1345 61.035 72.1664C61.259 72.5181 66.3472 80.8633 70.1234 91.6705Z" fill="#FFB27D"/>
<path d="M59.5949 51.7986C59.5949 51.7986 58.7949 57.3621 58.4109 62.6058C48.4904 61.6146 43.8822 52.1823 42.0901 47.0026L59.5949 51.7986Z" fill="#ED985F"/>
<path d="M62.5707 57.0108C62.5707 57.0108 39.0175 55.6999 40.0415 41.0878C41.0656 26.4437 38.7295 16.4359 53.8022 16.6277C68.875 16.8515 71.4032 22.6388 72.2352 27.5948C73.0993 32.5507 68.715 56.9788 62.5707 57.0108Z" fill="#FFB27D"/>
<path d="M72.1716 19.4094C68.8434 14.7413 66.0273 15.5086 64.3952 16.7236C52.0426 8.73017 43.0182 18.5781 43.0182 18.5781C40.6821 28.9696 32.6817 34.4371 32.6817 34.4371C32.6817 34.4371 36.8419 37.7624 46.8584 35.5562C59.627 32.7105 64.0112 21.6476 64.6193 19.953C65.9633 21.3598 67.6914 22.2231 69.0355 25.2607C70.6035 28.8417 71.5956 30.92 71.6276 36.8032C71.5956 36.8032 77.1318 26.4117 72.1716 19.4094Z" fill="#233862"/>
<path d="M15.0808 139.503C12.9687 128.632 6.02438 85.2436 12.9687 71.271C15.4648 66.2511 25.2253 65.8034 35.9458 66.2511C39.2739 68.3933 51.9785 76.5467 57.2268 75.5235C57.2908 75.5235 57.3868 75.4916 57.5148 75.4596C59.9789 74.8521 60.907 73.1255 58.8589 71.6227C58.8589 71.6227 64.1711 71.1111 70.7635 72.3581C74.4756 73.0615 84.5241 78.2413 84.5241 78.2413C84.5241 78.2413 79.4678 87.3858 72.0115 90.5193C73.2915 101.87 71.4035 106.858 59.6269 133.045C49.6744 155.171 60.971 175.122 60.971 175.122C60.971 175.122 2.40821 222.156 2.08819 198.207C1.83218 180.174 17.8009 153.38 15.0808 139.503Z" fill="white"/>
<path d="M63.8508 226.249C67.051 225.897 69.8991 224.138 71.6912 221.484C71.9792 221.069 72.2672 220.621 72.5872 220.11C79.2436 210.038 81.8357 179.151 96.8444 146.25C100.493 138.256 113.613 136.818 117.165 127.737C117.165 127.737 125.966 98.385 100.333 97.5217C74.6993 96.6584 31.6893 179.151 30.9852 187.816C30.3452 196.257 14.0564 231.876 63.8508 226.249Z" fill="#FDCD51"/>
<path d="M165.744 225.577H129.262C129.262 225.577 127.886 219.758 130.286 215.793C132.398 212.308 131.598 210.293 130.03 207.416C131.694 208.087 133.807 208.695 136.175 208.567C137.999 208.471 139.919 207.64 141.615 206.648C143.183 208.439 149.903 216.049 152.015 217.551C154.384 219.31 165.008 218.67 165.744 225.577Z" fill="#233862"/>
<path d="M117.999 106.059C120.207 122.525 128.783 174.451 143.92 199.806C148.784 207.991 131.631 212.564 131.535 212.532C129.231 211.924 125.391 208.247 123.631 206.681C111.342 195.618 86.413 164.283 86.413 139.184C86.413 126.938 86.1891 103.533 95.1175 97.5855C100.59 93.9085 117.135 99.5359 117.999 106.059Z" fill="#FDCD51"/>
<path d="M42.09 225.577C42.09 225.577 43.4341 223.691 45.8022 220.142C48.6183 215.889 51.7225 207.544 55.4667 196.833C59.4349 185.578 64.1071 171.765 69.9954 157.345C71.8195 152.9 73.7395 148.392 75.7877 143.916C79.4358 135.922 89.4843 137.009 93.0685 127.961C93.0685 127.961 107.021 96.5943 81.3879 95.6991C55.7547 94.8358 7.0483 179.631 4.23217 187.848C1.16002 196.865 -13.8167 234.21 42.09 225.577Z" fill="#FCE29E"/>
<path d="M138.959 225.577H102.477C102.477 225.577 101.101 219.758 103.501 215.793C105.613 212.308 104.813 210.293 103.245 207.416C104.909 208.087 107.021 208.695 109.389 208.567C111.213 208.471 113.133 207.64 114.83 206.648C116.398 208.439 123.118 216.049 125.23 217.551C127.598 219.31 138.223 218.67 138.959 225.577Z" fill="#2B478B"/>
<path d="M55.4665 196.833C59.4347 185.578 64.107 171.765 69.9952 157.345C68.4591 146.442 65.163 136.882 59.5947 133.045C59.5947 133.045 46.1221 174.771 55.4665 196.833Z" fill="#FFDB7D"/>
<path d="M96.7171 104.908C98.9252 121.374 101.997 174.483 117.134 199.806C121.998 207.991 104.845 212.564 104.749 212.532C102.445 211.924 98.6052 208.247 96.8451 206.681C84.5565 195.618 59.6272 164.283 59.6272 139.184C59.6272 126.938 74.0279 104.524 82.9244 98.5768C88.3966 94.8998 95.821 98.353 96.7171 104.908Z" fill="#FCE29E"/>
<path d="M175.696 53.8131L138.319 49.8484C137.231 49.7205 136.206 50.36 135.822 51.3831L122.446 86.4905C121.87 88.0252 122.958 89.6879 124.59 89.7518L161.68 91.2546C162.672 91.2865 163.6 90.711 164.016 89.7838L177.68 57.1704C178.289 55.6357 177.296 53.973 175.696 53.8131Z" fill="#233862"/>
<path d="M178.928 54.1331L141.55 50.1683C140.462 50.0404 139.438 50.6799 139.054 51.7031L125.678 86.8105C125.102 88.3452 126.19 90.0079 127.822 90.0718L164.911 91.5746C165.903 91.6065 166.831 91.031 167.247 90.1038L180.912 57.4904C181.52 55.9876 180.528 54.293 178.928 54.1331Z" fill="#2B478B"/>
<path d="M158.222 70.5359C158.671 69.2889 158.03 68.2657 156.782 68.2657C155.534 68.2657 154.126 69.2889 153.678 70.5359C153.23 71.7828 153.87 72.806 155.118 72.806C156.366 72.806 157.774 71.7828 158.222 70.5359Z" fill="#EBF3FA"/>
<path d="M177.808 57.4582C178.032 56.8507 177.712 56.3391 177.104 56.3391C176.496 56.3391 175.792 56.8507 175.568 57.4582C175.344 58.0657 175.664 58.5773 176.272 58.5773C176.912 58.5773 177.584 58.0657 177.808 57.4582Z" fill="#EBF3FA"/>
<path d="M21.8013 71.2708C21.8013 71.2708 73.5798 90.3272 81.3562 89.9435C86.3804 89.6877 128.206 75.0117 128.206 75.0117L131.951 82.1099C131.951 82.1099 91.2766 108.233 80.0761 108.105C57.995 107.849 20.7132 94.292 16.521 91.6382C12.3288 88.9843 9.57667 73.9566 21.8013 71.2708Z" fill="#FFB27D"/>
<path d="M128.206 75.0119C128.206 75.0119 131.95 69.2566 135.694 69.0648C139.439 68.9049 145.871 71.6226 148.079 72.0383C150.287 72.454 156.559 74.5003 154.703 77.5698C152.847 80.6393 144.175 81.3108 140.431 80.6393C136.687 79.9678 131.95 82.1421 131.95 82.1421L128.206 75.0119Z" fill="#FFB27D"/>
<path d="M134.671 69.2567C134.671 69.2567 140.623 66.5389 142.319 66.0273C144.015 65.5157 143.663 66.0273 143.183 67.658C142.671 69.2567 139.631 70.7914 139.631 71.303C139.631 71.8146 134.671 69.2567 134.671 69.2567Z" fill="#FFB27D"/>
<path d="M175.088 71.9426C175.088 71.9426 171.344 66.0274 170.128 65.7716C166.384 65.0362 166.384 69.9602 167.184 73.1256C168.048 76.5148 170.928 79.7442 171.696 79.4564C172.496 79.2006 175.953 75.076 175.088 71.9426Z" fill="#FFB27D"/>
<path d="M175.217 73.1256C175.217 73.1256 176.401 79.7762 170.096 83.2294L171.953 78.6571L175.217 73.1256Z" fill="#FFB27D"/>
<path d="M66.9877 48.6013C66.9877 48.6013 64.7476 47.706 58.5072 48.2176C58.5072 48.2176 58.8272 50.6476 63.4675 50.9034C66.0596 51.0313 66.9877 48.6013 66.9877 48.6013Z" fill="white"/>
<path d="M48.4587 80.6712C48.4587 80.6712 43.8185 95.3153 27.9137 98.6406C27.9137 98.6406 1.64045 90.5511 14.7291 72.6777C14.7291 72.6777 27.6897 63.0856 48.4587 80.6712Z" fill="white"/>
</svg>
