<svg width="189" height="54" viewBox="0 0 189 54" fill="none" xmlns="http://www.w3.org/2000/svg">
<path d="M6.73541 46.276H117.269C120.501 46.276 123.125 43.6541 123.125 40.4248V11.1686C123.125 7.93926 120.501 5.31738 117.269 5.31738H6.73541C3.50325 5.31738 0.87915 7.93926 0.87915 11.1686V40.3928C0.87915 43.6541 3.50325 46.276 6.73541 46.276Z" fill="#FCE29E"/>
<path d="M135.701 26.7716C135.701 34.4134 138.933 41.2878 144.085 46.1478C148.853 50.6242 155.254 53.3739 162.326 53.3739C162.902 53.3739 163.478 53.3419 164.022 53.31C170.678 52.8943 176.695 50.0166 181.143 45.5723C181.719 44.9967 182.295 44.3892 182.807 43.7498C183.639 42.7586 184.407 41.7034 185.079 40.5843C187.543 36.5556 188.951 31.8235 188.951 26.7716C188.951 19.4176 185.975 12.767 181.143 7.97095C176.311 3.17487 169.686 0.169312 162.326 0.169312C154.966 0.169312 148.309 3.14289 143.509 7.97095C138.709 12.799 135.701 19.4496 135.701 26.7716Z" fill="white"/>
<path d="M146.869 38.8257C147.349 39.1454 147.861 39.4332 148.437 39.625C152.597 43.2381 159.19 49.0573 164.022 53.3099C170.678 52.8942 176.695 50.0165 181.143 45.5722C181.719 44.9966 182.295 44.3891 182.807 43.7497C183.639 42.7585 184.407 41.7033 185.079 40.5842C184.503 39.5611 183.831 38.5379 182.999 37.5148C178.711 31.9833 175.223 30.0968 176.183 22.9666C176.695 19.0978 174.198 5.38095 165.302 4.67752C164.566 4.61358 160.054 3.84622 156.79 4.77346C148.885 6.91571 137.781 32.5588 146.869 38.8257Z" fill="#233862"/>
<path d="M156.086 37.2914C156.054 37.2914 159.799 39.5616 162.743 38.9541C165.527 38.3785 168.375 34.6056 168.311 34.6056C167.159 34.3178 166.103 33.0069 166.583 26.1644L166.039 26.2284L157.11 27.4114C157.11 27.4114 157.142 30.1931 156.982 32.815C156.886 35.0212 156.598 37.0995 156.086 37.2914Z" fill="#FFB27D"/>
<path d="M157.142 27.4436C157.142 27.4436 157.174 30.2253 157.014 32.8471C161.942 33.007 164.854 28.6905 166.07 26.2605L157.142 27.4436Z" fill="#ED975D"/>
<path d="M155.35 29.8094C155.35 29.8094 166.999 30.7366 167.479 23.4785C167.959 16.2204 169.751 11.4563 162.326 10.529C154.902 9.63378 153.27 12.3196 152.534 14.6857C151.798 17.0837 152.31 29.3617 155.35 29.8094Z" fill="#FFB27D"/>
<path d="M153.782 10.9131C153.782 10.9131 159.67 18.7148 164.502 20.2816C169.334 21.8483 171.542 20.6653 171.542 20.6653C171.542 20.6653 169.142 17.6277 168.246 13.3432C167.99 12.0962 167.062 11.073 165.814 10.6893C162.39 9.66616 155.734 8.06743 153.782 10.9131Z" fill="#233862"/>
<path d="M158.422 11.3604C158.422 11.3604 155.478 13.1829 154.358 14.7496C153.27 16.2524 152.182 20.2491 152.406 21.9438C152.406 21.9438 150.23 13.7904 153.142 10.6889C156.214 7.39561 158.422 11.3604 158.422 11.3604Z" fill="#233862"/>
<path d="M144.085 46.1481C148.854 50.6244 155.254 53.3742 162.326 53.3742H164.086C164.054 53.3422 164.054 53.3422 164.022 53.3103C170.679 52.8946 176.695 50.0169 181.143 45.5725C181.719 44.997 182.295 44.3895 182.807 43.75C181.879 41.7356 180.983 40.1049 180.247 39.0498C176.951 34.4455 167.415 33.87 167.415 33.87C167.383 33.87 167.383 33.902 167.351 33.902C163.734 36.0442 161.334 36.7157 159.766 36.7157C157.462 36.7157 156.918 35.2449 156.822 34.8932C156.822 34.8292 156.822 34.8292 156.822 34.8292C156.822 34.8292 149.942 35.9803 146.87 38.8579C146.23 39.4655 145.75 40.1369 145.558 40.8723C145.301 41.7996 144.757 43.718 144.085 46.1481Z" fill="#FCE29E"/>
<path d="M29.9373 25.781H10.0003V28.3709H29.9373V25.781Z" fill="white"/>
<path d="M34.8647 30.9608H9.99939V33.5507H34.8647V30.9608Z" fill="white"/>
<path d="M55.1542 30.9608H36.8493V33.5507H55.1542V30.9608Z" fill="white"/>
<path d="M28.3044 36.0125H9.99939V38.6023H28.3044V36.0125Z" fill="white"/>
<path d="M45.3937 25.7809H32.0811V28.3707H45.3937V25.7809Z" fill="white"/>
<path d="M75.1547 25.7809H48.2414V28.3707H75.1547V25.7809Z" fill="white"/>
<path d="M38.4507 12.9915H10.1933V16.6364H38.4507V12.9915Z" fill="white"/>
<path d="M80.5948 12.991H41.5529V16.636H80.5948V12.991Z" fill="white"/>
</svg>
