<svg width="243" height="85" viewBox="0 0 243 85" fill="none" xmlns="http://www.w3.org/2000/svg">
<path d="M12.425 84.2814H230.772C237.268 84.2814 242.548 79.0057 242.548 72.515V12.5319C242.548 6.04121 237.268 0.765503 230.772 0.765503H12.425C5.92869 0.765503 0.648438 6.04121 0.648438 12.5319V72.515C0.648438 79.0057 5.92869 84.2814 12.425 84.2814Z" fill="white"/>
<path d="M127.984 36.7054H97.6464V40.6383H127.984V36.7054Z" fill="#CBE1FD"/>
<path d="M135.471 44.5703H97.6451V48.5031H135.471V44.5703Z" fill="#CBE1FD"/>
<path d="M166.321 44.5703H138.479V48.5031H166.321V44.5703Z" fill="#CBE1FD"/>
<path d="M125.486 52.2444H97.6451V56.1771H125.486V52.2444Z" fill="#CBE1FD"/>
<path d="M151.472 36.7047H131.247V40.6375H151.472V36.7047Z" fill="#CBE1FD"/>
<path d="M196.722 36.7047H155.824V40.6375H196.722V36.7047Z" fill="#CBE1FD"/>
<path d="M140.88 17.2327H97.9342V22.7961H140.88V17.2327Z" fill="#CBE1FD"/>
<path d="M205.011 17.2324H145.648V22.7959H205.011V17.2324Z" fill="#CBE1FD"/>
<circle cx="43" cy="32" r="30" fill="#CBE1FD"/>
<mask id="mask0_14608_20" style="mask-type:alpha" maskUnits="userSpaceOnUse" x="20" y="11" width="64" height="64">
<path d="M83.3986 43.1817C83.3986 49.1751 81.7226 54.7818 78.8218 59.5507C78.0161 60.8718 77.1136 62.1285 76.1467 63.2885C75.5343 64.0296 74.8574 64.7707 74.1806 65.4474C72.5046 67.1229 70.6674 68.6052 68.6369 69.8619C64.318 72.5685 59.2899 74.2763 53.9074 74.5985C53.2305 74.6308 52.5537 74.663 51.8769 74.663C45.4629 74.663 39.468 72.7296 34.5044 69.443C32.9896 68.4441 31.6037 67.3485 30.2822 66.1241C27.8971 63.9007 25.8666 61.2907 24.2873 58.4229C21.7733 53.9118 20.3551 48.6917 20.3551 43.1495C20.3551 34.4494 23.8682 26.5549 29.6053 20.8516C35.3102 15.1482 43.1745 11.636 51.9091 11.636C60.6114 11.636 68.5079 15.1482 74.2128 20.8516C79.8854 26.6194 83.3986 34.4817 83.3986 43.1817Z" fill="#DFEBFD"/>
</mask>
<g mask="url(#mask0_14608_20)">
<path d="M37.7929 64.1107C37.7929 64.1107 36.1059 65.8274 34.419 67.755C33.696 68.5381 33.0031 69.3814 32.4006 70.1343C30.3823 72.6643 28.4844 73.3871 26.2552 75.8568C24.8695 77.3929 23.062 78.5675 19.688 79.1096C16.3141 79.6517 3.96301 80.5252 3.96301 80.5252C3.96301 80.5252 3.66177 78.8988 3.87264 78.3566C3.93289 78.206 3.78227 77.9049 3.57139 77.4832C3.02915 76.3989 2.12541 74.7424 3.87264 74.5316C6.25248 74.2605 17.8504 71.4595 18.3927 70.6162C18.9349 69.7729 22.0679 65.8876 23.7549 62.3638C25.4418 58.8399 27.9723 54.533 30.563 50.3165C32.8224 46.6119 33.4851 46.4312 34.6901 45.3469L36.1059 53.9608L37.7929 64.1107Z" fill="#6D9BFF"/>
<path d="M58.0986 30.5275C58.0986 30.5275 57.2551 32.9972 57.1648 35.1356C57.0744 37.274 57.0744 40.2256 57.707 41.3701C58.3396 42.5146 64.9369 46.3697 64.9369 46.3697C64.9369 46.3697 57.4359 47.9359 50.0252 47.4841C42.6145 47.0323 41.0179 43.9 41.0179 43.9C41.0179 43.9 46.6513 41.7014 46.8019 41.1291C46.9525 40.5569 48.037 36.3102 48.037 36.3102L58.0986 30.5275Z" fill="#F6C1AA"/>
<path opacity="0.28" d="M57.556 40.9786C57.1041 39.6534 57.1041 37.0632 57.1644 35.1356C57.2548 32.9972 58.0982 30.5275 58.0982 30.5275L48.0668 36.25C48.0668 36.25 46.9823 40.5268 46.8316 41.0689C46.681 41.6412 41.0477 43.8398 41.0477 43.8398C41.0477 43.8398 41.108 43.9603 41.2586 44.141C46.7111 43.2375 52.1336 42.1231 57.556 40.9786Z" fill="#EB9271"/>
<path d="M45.025 30.0156C45.266 28.2386 45.3262 21.7632 45.3262 21.7632L53.972 18.7212L61.5333 22.9378C61.5333 22.9378 59.7258 28.6603 59.6957 30.4674C59.6656 32.2745 59.5451 34.6839 58.4003 36.4007C57.2857 38.1174 54.3335 40.798 53.6406 41.1293C51.562 42.0931 50.2064 41.4305 48.6399 40.5269C47.9772 40.1354 47.0735 38.1777 46.1999 36.3103C45.2961 34.443 44.784 31.7926 45.025 30.0156Z" fill="#FDD2BB"/>
<path d="M58.5807 25.5282C58.5807 25.5282 58.6109 27.8473 59.2134 29.3532C59.3339 29.6544 59.2435 30.5579 59.123 31.6422C59.4242 31.2808 59.7556 30.9495 60.0568 30.6182C60.6895 29.9556 61.2618 29.293 61.8041 28.6002C62.1355 27.275 62.7078 25.498 62.6777 24.474C62.6174 21.3718 62.6174 19.6551 56.954 16.8842C55.8695 16.3722 53.6704 14.9265 52.5558 15.3482C50.8689 15.9806 50.3869 16.583 49.0614 17.6974C49.0614 17.6974 47.284 17.336 45.0548 19.7454C43.7595 21.161 44.1511 23.2091 44.2113 24.7451C44.3619 27.8774 45.2054 27.6967 45.2054 27.6967C45.3259 26.1004 45.9388 26.166 46.4208 23.7565C46.5714 22.9433 46.7897 22.7252 47.6332 22.5444C48.4164 22.3637 48.7903 21.2815 51.4111 23.9018C52.9776 25.4679 53.8211 25.3475 58.5807 25.5282Z" fill="#5C3000"/>
<path d="M58.7922 30.4078C59.2139 28.8416 59.8767 27.6971 60.5996 27.7273C61.2925 27.7875 62.0155 29.0826 61.1419 30.5584C60.2683 32.0342 59.6959 32.9378 59.2139 33.51C58.7319 34.1425 58.5211 31.4017 58.7922 30.4078Z" fill="#FDD2BB"/>
<path d="M59.2126 30.5882C59.4536 29.7449 59.8452 28.6908 60.4778 28.751C61.1104 28.8112 61.2008 29.504 60.3272 30.7087C59.4536 31.8833 59.2728 32.5158 59.2728 32.5158C59.2728 32.5158 59.0921 31.0701 59.2126 30.5882Z" fill="#EB9271"/>
<path d="M51.6517 62.2425C50.7179 67.7241 50.2961 81.187 47.9765 80.163C46.7113 79.5908 42.7951 79.6209 39.4814 79.7413C36.7702 79.8618 34.5108 80.0425 34.5108 80.0425C34.5108 80.0425 34.3602 73.9586 34.4204 67.7542C34.4506 64.7725 34.5108 61.7908 34.6916 59.4114C34.7518 58.6283 34.7819 57.8754 34.8121 57.1525C35.0229 50.1952 33.8782 46.1593 34.6916 45.3762C35.5953 44.5028 46.1088 41.8524 46.6209 40.5874L47.4041 44.292C49.3321 47.364 51.8325 46.4304 51.8325 46.4304C51.8325 46.4304 52.5856 56.761 51.6517 62.2425Z" fill="#6D9BFF"/>
<path d="M49.1811 47.4544C48.669 50.4963 48.5485 52.8757 47.6749 58.7186C46.8013 64.5616 47.223 66.9711 46.8314 70.6455C46.4398 74.32 45.7168 79.7714 45.7168 79.7714L52.0128 80.7051C52.0128 80.7051 52.2237 70.1636 52.5551 62.7545C52.8864 55.3454 54.1216 48.7494 54.1216 48.7494L54.965 44.2317C54.965 44.2317 52.6455 46.7014 50.2355 46.4605C47.7954 46.1593 49.1811 47.4544 49.1811 47.4544Z" fill="#2C5CFF"/>
<path d="M68.0091 51.8213C67.7681 54.0802 68.8224 56.8812 68.3404 60.0436C68.0091 62.1519 67.5873 64.712 67.1354 67.272C66.5028 70.9164 66.8643 80.1326 66.8643 80.1326C66.8643 80.1326 52.4949 79.6206 50.0548 80.3133C47.6448 80.9759 49.1511 67.6033 49.0004 62.0314C48.8498 56.4595 51.1092 46.4 51.1092 46.4C51.1092 46.4 52.9769 46.4 55.8387 44.1712C57.6161 42.8159 57.9173 41.0088 57.9173 41.0088C58.2487 42.3039 68.0392 45.2555 68.8224 46.2795C68.9429 46.4301 69.0333 46.7313 69.0935 47.1228C69.1839 48.1167 68.2199 49.713 68.0091 51.8213Z" fill="#6D9BFF"/>
<path d="M51.0792 46.4C51.9528 46.1591 54.8749 44.5327 55.9594 43.087C57.0439 41.6413 57.3452 40.0149 57.3452 40.0149C57.3452 40.0149 58.3694 41.6714 58.4899 42.7256C58.6104 43.7797 56.1402 48.8998 55.6883 50.3154C55.6883 50.3154 54.9051 50.1648 53.4591 48.93C52.0131 47.6951 51.0792 46.4 51.0792 46.4Z" fill="#2C5CFF"/>
<path d="M46.983 40.4366C46.983 40.4366 46.501 41.1595 47.5855 42.9365C48.67 44.7135 51.0499 46.4302 51.0499 46.4302L47.1939 50.1649C47.1939 50.1649 46.2901 47.9361 45.7479 46.0086C45.2057 44.081 45.296 42.0329 45.5672 41.4306C45.8684 40.8583 46.983 40.4366 46.983 40.4366Z" fill="#2C5CFF"/>
<path d="M52.2234 54.6828C52.1933 55.2551 51.7113 55.6466 51.139 55.6165C50.5666 55.5864 50.175 55.1045 50.2051 54.5322C50.2352 53.96 50.7172 53.5684 51.2896 53.5985C51.8619 53.6287 52.2837 54.1106 52.2234 54.6828Z" fill="#2C5CFF"/>
<path d="M51.4406 65.5258C51.4105 66.0981 50.9285 66.4896 50.3561 66.4595C49.7838 66.4294 49.3922 65.9475 49.4223 65.3752C49.4524 64.803 49.9344 64.4114 50.5068 64.4416C51.0791 64.4717 51.5009 64.9536 51.4406 65.5258Z" fill="#2C5CFF"/>
<path d="M56.5016 58.6886C59.0019 58.8994 61.7433 59.2006 62.7976 59.0801V60.6764C62.7976 60.6764 60.2973 60.4053 58.0982 60.4053C54.9652 60.4053 54.9652 60.4053 54.9652 60.4053L55.2363 58.6886C55.2363 58.6886 55.2062 58.5982 56.5016 58.6886Z" fill="#2C5CFF"/>
<path d="M80.6309 75.7359C80.6309 75.7359 77.8293 74.1999 75.57 73.1758C73.3106 72.1518 70.027 73.989 70.027 73.989C70.027 73.989 69.6354 72.9349 69.0631 71.6097C68.4907 70.2242 67.7677 68.5376 67.105 67.3028C66.7435 66.5799 66.4121 66.0378 66.141 65.7667C64.9962 64.562 65.1167 63.1464 64.7854 62.4537C64.7854 62.4236 64.7552 62.3935 64.7552 62.3633C64.5142 61.4598 65.1469 57.7853 65.8397 54.4422C66.5627 50.9786 67.5267 45.5874 67.5267 45.5874C67.8581 45.8886 69.0028 46.1597 69.6053 46.8825C69.6053 46.8825 73.7022 53.0869 75.4194 57.3637C78.5523 65.1342 79.0644 66.7305 79.5766 69.5918C80.1489 72.4229 80.6309 75.7359 80.6309 75.7359Z" fill="#6D9BFF"/>
<path d="M71.9257 69.7123C71.9257 69.7123 69.6663 71.4592 66.5334 72.423C63.0992 73.4771 60.9905 73.8084 60.9905 73.8084C60.9905 73.8084 61.2315 76.6396 61.3219 79.5912C61.3219 79.5912 68.853 80.7658 73.7633 79.8321C78.6736 78.8683 79.9087 79.049 80.722 76.9106C81.5354 74.7722 80.1798 70.5858 79.5472 68.7485C78.9146 66.8812 74.9683 68.3269 71.9257 69.7123Z" fill="#6D9BFF"/>
<path d="M60.0859 73.7785C60.8993 74.8628 60.8692 76.4892 61.0801 78.7481C61.2307 80.3143 60.6884 80.2842 60.6884 80.2842L64.8155 80.1637C64.8155 80.1637 65.2674 77.7843 64.6347 75.5856C63.972 73.387 63.972 73.387 63.972 73.387L60.0859 73.7785Z" fill="#2C5CFF"/>
</g>
</svg>
