<svg width="104" height="74" viewBox="0 0 104 74" fill="none" xmlns="http://www.w3.org/2000/svg">
<path d="M91.188 0.705078H12.176C5.87174 0.705078 0.719543 5.85288 0.719543 12.1517V46.7795C0.719543 52.5668 5.45575 57.2989 11.248 57.2989H13.2642L9.45591 73.3498L33.3612 57.2989H91.86C98.1643 57.2989 103.317 52.1511 103.317 45.8523V12.8232C103.317 6.14064 97.8443 0.705078 91.188 0.705078Z" fill="#88EEFB"/>
<path d="M93.3004 29.4563H10.9284C9.80832 29.4563 8.88031 28.529 8.88031 27.4099C8.88031 26.2909 9.80832 25.3636 10.9284 25.3636H93.3004C94.4204 25.3636 95.3485 26.2909 95.3485 27.4099C95.3485 28.529 94.4204 29.4563 93.3004 29.4563Z" fill="white"/>
<path d="M93.3004 38.5687H10.9284C9.80832 38.5687 8.88031 37.6414 8.88031 36.5223C8.88031 35.4032 9.80832 34.476 10.9284 34.476H93.3004C94.4204 34.476 95.3485 35.4032 95.3485 36.5223C95.3485 37.6734 94.4204 38.5687 93.3004 38.5687Z" fill="white"/>
<path d="M93.3004 47.7131H10.9284C9.80832 47.7131 8.88031 46.7858 8.88031 45.6668C8.88031 44.5477 9.80832 43.6205 10.9284 43.6205H93.3004C94.4204 43.6205 95.3485 44.5477 95.3485 45.6668C95.3485 46.7858 94.4204 47.7131 93.3004 47.7131Z" fill="white"/>
<path d="M48.4341 15.2917H13.4563C12.1122 15.2917 11.0242 14.2046 11.0242 12.8617C11.0242 11.5187 12.1122 10.4316 13.4563 10.4316H48.4341C49.7782 10.4316 50.8663 11.5187 50.8663 12.8617C50.8343 14.2046 49.7462 15.2917 48.4341 15.2917Z" fill="white"/>
<path d="M78.4835 15.2918H57.4264C56.3704 15.2918 55.5063 14.4285 55.5063 13.3734V12.3502C55.5063 11.2951 56.3704 10.4318 57.4264 10.4318H78.4835C79.5395 10.4318 80.4036 11.2951 80.4036 12.3502V13.3734C80.4036 14.4285 79.5395 15.2918 78.4835 15.2918Z" fill="white"/>
</svg>
