<svg width="162" height="162" viewBox="0 0 162 162" fill="none" xmlns="http://www.w3.org/2000/svg">
<path d="M8.35134 60.2524C2.7963 53.224 7.20704 42.8329 16.1218 41.9465V41.9465C22.7346 41.289 27.3654 35.1092 26.1396 28.5778V28.5778C24.4872 19.7729 33.2216 12.6218 41.5272 15.9798V15.9798C47.6881 18.4707 54.6604 15.1509 56.6103 8.79794V8.79794C59.239 0.233607 70.2962 -2.03921 76.0899 4.79391V4.79391C80.3875 9.86263 88.104 10.1632 92.7829 5.44417V5.44417C99.0905 -0.91756 109.937 2.20851 111.892 10.9514V10.9514C113.342 17.4367 120.035 21.2889 126.371 19.2848V19.2848C134.912 16.5831 143.064 24.3919 140.732 33.0416V33.0416C139.002 39.4579 143.138 45.9792 149.679 47.1491V47.1491C158.498 48.7263 162.087 59.429 156.002 66.004V66.004C151.488 70.8813 152.12 78.5777 157.369 82.6537V82.6537C164.444 88.1486 162.648 99.2932 154.205 102.287V102.287C147.942 104.508 144.924 111.617 147.678 117.665V117.665C151.389 125.819 144.62 134.852 135.752 133.579V133.579C129.174 132.635 123.199 137.527 122.826 144.162V144.162C122.323 153.107 112.131 157.96 104.871 152.712V152.712C99.4848 148.819 91.9206 150.374 88.507 156.075V156.075C83.9051 163.762 72.6253 163.322 68.6352 155.301V155.301C65.6755 149.351 58.2552 147.213 52.5829 150.675V150.675C44.9361 155.342 35.1525 149.711 35.3471 140.755V140.755C35.4914 134.111 29.9149 128.769 23.2834 129.198V129.198C14.3434 129.777 8.29734 120.245 12.632 112.404V112.404C15.8473 106.589 13.3921 99.267 7.32054 96.5656V96.5656C-0.8645 92.9237 -1.78794 81.6732 5.6937 76.7454V76.7454C11.2435 73.09 12.472 65.4661 8.35134 60.2524V60.2524Z" fill="url(#paint0_linear_20_3)"/>
<defs>
<linearGradient id="paint0_linear_20_3" x1="144.502" y1="5.75161" x2="95.3828" y2="139.245" gradientUnits="userSpaceOnUse">
<stop stop-color="#237249"/>
<stop offset="1" stop-color="#35C66B"/>
</linearGradient>
</defs>
</svg>
