<svg width="266" height="83" viewBox="0 0 266 83" fill="none" xmlns="http://www.w3.org/2000/svg">
<path d="M0 4C0 1.79086 1.79086 0 4 0H266V79C266 81.2091 264.209 83 262 83H4C1.79086 83 0 81.2091 0 79V4Z" fill="#F5F7F8"/>
<path d="M14.7615 11.8138C15.1355 11.9751 15.4325 12.2208 15.6525 12.5508C15.8798 12.8735 15.9935 13.2438 15.9935 13.6618C15.9935 14.2558 15.7845 14.7618 15.3665 15.1798C14.9485 15.5978 14.4425 15.8068 13.8485 15.8068H10.4935V8.10679H13.5955C14.1675 8.10679 14.6551 8.31213 15.0585 8.72279C15.4618 9.12613 15.6635 9.61013 15.6635 10.1748C15.6635 10.8935 15.3628 11.4398 14.7615 11.8138ZM13.5955 8.83279H11.2635V11.5168H13.5955C13.9548 11.5168 14.2591 11.3885 14.5085 11.1318C14.7651 10.8678 14.8935 10.5488 14.8935 10.1748C14.8935 9.80813 14.7651 9.49279 14.5085 9.22879C14.2591 8.96479 13.9548 8.83279 13.5955 8.83279ZM13.8485 15.0808C14.2298 15.0808 14.5525 14.9451 14.8165 14.6738C15.0878 14.3951 15.2235 14.0578 15.2235 13.6618C15.2235 13.2731 15.0878 12.9395 14.8165 12.6608C14.5525 12.3821 14.2298 12.2428 13.8485 12.2428H11.2635V15.0808H13.8485ZM21.9348 10.3068H22.6608V15.8068H21.9348V14.7288C21.4288 15.5355 20.6881 15.9388 19.7128 15.9388C18.9281 15.9388 18.2571 15.6601 17.6998 15.1028C17.1498 14.5455 16.8748 13.8635 16.8748 13.0568C16.8748 12.2501 17.1498 11.5681 17.6998 11.0108C18.2571 10.4535 18.9281 10.1748 19.7128 10.1748C20.6881 10.1748 21.4288 10.5781 21.9348 11.3848V10.3068ZM18.2278 14.6078C18.6458 15.0258 19.1591 15.2348 19.7678 15.2348C20.3764 15.2348 20.8898 15.0258 21.3078 14.6078C21.7258 14.1825 21.9348 13.6655 21.9348 13.0568C21.9348 12.4481 21.7258 11.9348 21.3078 11.5168C20.8898 11.0915 20.3764 10.8788 19.7678 10.8788C19.1591 10.8788 18.6458 11.0915 18.2278 11.5168C17.8098 11.9348 17.6008 12.4481 17.6008 13.0568C17.6008 13.6655 17.8098 14.1825 18.2278 14.6078ZM29.5879 10.3068V15.8068H28.8619V11.4178L26.9369 14.5418H26.8489L24.9239 11.4178V15.8068H24.1979V10.3068H25.0339L26.8929 13.3208L28.7519 10.3068H29.5879ZM37.7706 10.3068H38.4966V15.8068H37.7706V13.4088H34.6026V15.8068H33.8766V10.3068H34.6026V12.7048H37.7706V10.3068ZM42.5729 10.1748C43.3869 10.1748 44.0432 10.4645 44.5419 11.0438C45.0479 11.6158 45.3009 12.2941 45.3009 13.0788C45.3009 13.1595 45.2936 13.2731 45.2789 13.4198H40.4499C40.5232 13.9771 40.7579 14.4208 41.1539 14.7508C41.5572 15.0735 42.0522 15.2348 42.6389 15.2348C43.0569 15.2348 43.4162 15.1505 43.7169 14.9818C44.0249 14.8058 44.2559 14.5785 44.4099 14.2998L45.0479 14.6738C44.8059 15.0625 44.4759 15.3705 44.0579 15.5978C43.6399 15.8251 43.1632 15.9388 42.6279 15.9388C41.7626 15.9388 41.0586 15.6675 40.5159 15.1248C39.9732 14.5821 39.7019 13.8928 39.7019 13.0568C39.7019 12.2355 39.9696 11.5498 40.5049 10.9998C41.0402 10.4498 41.7296 10.1748 42.5729 10.1748ZM42.5729 10.8788C42.0009 10.8788 41.5206 11.0511 41.1319 11.3958C40.7506 11.7331 40.5232 12.1731 40.4499 12.7158H44.5529C44.4796 12.1365 44.2559 11.6855 43.8819 11.3628C43.5079 11.0401 43.0716 10.8788 42.5729 10.8788ZM51.0647 15.1138C50.5074 15.6638 49.8254 15.9388 49.0187 15.9388C48.2121 15.9388 47.5264 15.6638 46.9617 15.1138C46.4044 14.5565 46.1257 13.8708 46.1257 13.0568C46.1257 12.2428 46.4044 11.5608 46.9617 11.0108C47.5264 10.4535 48.2121 10.1748 49.0187 10.1748C49.8254 10.1748 50.5074 10.4535 51.0647 11.0108C51.6294 11.5608 51.9117 12.2428 51.9117 13.0568C51.9117 13.8708 51.6294 14.5565 51.0647 15.1138ZM47.4787 14.6078C47.8967 15.0258 48.4101 15.2348 49.0187 15.2348C49.6274 15.2348 50.1407 15.0258 50.5587 14.6078C50.9767 14.1825 51.1857 13.6655 51.1857 13.0568C51.1857 12.4481 50.9767 11.9348 50.5587 11.5168C50.1407 11.0915 49.6274 10.8788 49.0187 10.8788C48.4101 10.8788 47.8967 11.0915 47.4787 11.5168C47.0607 11.9348 46.8517 12.4481 46.8517 13.0568C46.8517 13.6655 47.0607 14.1825 47.4787 14.6078ZM55.5686 15.9388C54.7766 15.9388 54.1166 15.6785 53.5886 15.1578C53.0606 14.6298 52.7966 13.9478 52.7966 13.1118C52.7966 12.1731 52.936 11.4545 53.2146 10.9558C53.4933 10.4498 54.058 9.99146 54.9086 9.58079C55.07 9.50013 55.2826 9.40479 55.5466 9.29479C55.818 9.18479 56.0196 9.09679 56.1516 9.03079C56.291 8.96479 56.4413 8.88046 56.6026 8.77779C56.764 8.66779 56.885 8.54679 56.9656 8.41479C57.0463 8.28279 57.0976 8.12513 57.1196 7.94179L57.6916 8.27179C57.6623 8.44779 57.6036 8.61279 57.5156 8.76679C57.4276 8.92079 57.336 9.04546 57.2406 9.14079C57.1526 9.23613 57.0096 9.34246 56.8116 9.45979C56.621 9.56979 56.4706 9.65046 56.3606 9.70179C56.258 9.74579 56.0746 9.82279 55.8106 9.93279C55.554 10.0428 55.3816 10.1161 55.2936 10.1528C54.7803 10.3728 54.4026 10.6038 54.1606 10.8458C53.9186 11.0805 53.7463 11.3885 53.6436 11.7698C53.893 11.4398 54.2083 11.1978 54.5896 11.0438C54.9783 10.8825 55.356 10.8018 55.7226 10.8018C56.456 10.8018 57.061 11.0438 57.5376 11.5278C58.0216 12.0045 58.2636 12.6168 58.2636 13.3648C58.2636 14.1055 58.007 14.7215 57.4936 15.2128C56.9876 15.6968 56.346 15.9388 55.5686 15.9388ZM55.5686 15.2128C56.1406 15.2128 56.61 15.0405 56.9766 14.6958C57.3506 14.3438 57.5376 13.9001 57.5376 13.3648C57.5376 12.8221 57.3616 12.3785 57.0096 12.0338C56.665 11.6818 56.203 11.5058 55.6236 11.5058C55.103 11.5058 54.63 11.6708 54.2046 12.0008C53.7793 12.3235 53.5666 12.7561 53.5666 13.2988C53.5666 13.8561 53.7573 14.3145 54.1386 14.6738C54.5273 15.0331 55.004 15.2128 55.5686 15.2128ZM63.6011 15.8068H62.7321L61.0161 13.5408L59.3001 15.8068H58.4311L60.5871 12.9578L58.5741 10.3068H59.4431L61.0161 12.3858L62.5891 10.3068H63.4581L61.4561 12.9578L63.6011 15.8068ZM68.8108 15.1138C68.2535 15.6638 67.5715 15.9388 66.7648 15.9388C65.9582 15.9388 65.2725 15.6638 64.7078 15.1138C64.1505 14.5565 63.8718 13.8708 63.8718 13.0568C63.8718 12.2428 64.1505 11.5608 64.7078 11.0108C65.2725 10.4535 65.9582 10.1748 66.7648 10.1748C67.5715 10.1748 68.2535 10.4535 68.8108 11.0108C69.3755 11.5608 69.6578 12.2428 69.6578 13.0568C69.6578 13.8708 69.3755 14.5565 68.8108 15.1138ZM65.2248 14.6078C65.6428 15.0258 66.1562 15.2348 66.7648 15.2348C67.3735 15.2348 67.8868 15.0258 68.3048 14.6078C68.7228 14.1825 68.9318 13.6655 68.9318 13.0568C68.9318 12.4481 68.7228 11.9348 68.3048 11.5168C67.8868 11.0915 67.3735 10.8788 66.7648 10.8788C66.1562 10.8788 65.6428 11.0915 65.2248 11.5168C64.8068 11.9348 64.5978 12.4481 64.5978 13.0568C64.5978 13.6655 64.8068 14.1825 65.2248 14.6078ZM75.2779 15.1028H76.0479V17.2808H75.3219V15.8068H70.8339V17.2808H70.1079V15.1028H70.7789C71.1529 14.6115 71.3399 13.9185 71.3399 13.0238V10.3068H75.2779V15.1028ZM71.6589 15.1028H74.5519V11.0108H72.0659V13.0238C72.0659 13.8671 71.9302 14.5601 71.6589 15.1028ZM81.1502 10.3068H81.7662V15.8068H81.0402V11.5718L77.7622 15.8068H77.1462V10.3068H77.8722V14.5418L81.1502 10.3068ZM88.6914 10.3068V15.8068H87.9654V11.4178L86.0404 14.5418H85.9524L84.0274 11.4178V15.8068H83.3014V10.3068H84.1374L85.9964 13.3208L87.8554 10.3068H88.6914ZM94.8391 15.1138C94.2818 15.6638 93.5998 15.9388 92.7931 15.9388C91.9865 15.9388 91.3008 15.6638 90.7361 15.1138C90.1788 14.5565 89.9001 13.8708 89.9001 13.0568C89.9001 12.2428 90.1788 11.5608 90.7361 11.0108C91.3008 10.4535 91.9865 10.1748 92.7931 10.1748C93.5998 10.1748 94.2818 10.4535 94.8391 11.0108C95.4038 11.5608 95.6861 12.2428 95.6861 13.0568C95.6861 13.8708 95.4038 14.5565 94.8391 15.1138ZM91.2531 14.6078C91.6711 15.0258 92.1845 15.2348 92.7931 15.2348C93.4018 15.2348 93.9151 15.0258 94.3331 14.6078C94.7511 14.1825 94.9601 13.6655 94.9601 13.0568C94.9601 12.4481 94.7511 11.9348 94.3331 11.5168C93.9151 11.0915 93.4018 10.8788 92.7931 10.8788C92.1845 10.8788 91.6711 11.0915 91.2531 11.5168C90.8351 11.9348 90.6261 12.4481 90.6261 13.0568C90.6261 13.6655 90.8351 14.1825 91.2531 14.6078ZM102.214 15.9388C101.385 15.9388 100.696 15.6638 100.146 15.1138C99.596 14.5565 99.321 13.8708 99.321 13.0568C99.321 12.2428 99.596 11.5608 100.146 11.0108C100.696 10.4535 101.385 10.1748 102.214 10.1748C102.757 10.1748 103.244 10.3068 103.677 10.5708C104.11 10.8275 104.425 11.1758 104.623 11.6158L104.029 11.9568C103.882 11.6268 103.644 11.3665 103.314 11.1758C102.991 10.9778 102.625 10.8788 102.214 10.8788C101.605 10.8788 101.092 11.0915 100.674 11.5168C100.256 11.9348 100.047 12.4481 100.047 13.0568C100.047 13.6655 100.256 14.1825 100.674 14.6078C101.092 15.0258 101.605 15.2348 102.214 15.2348C102.625 15.2348 102.991 15.1395 103.314 14.9488C103.637 14.7508 103.89 14.4868 104.073 14.1568L104.678 14.5088C104.451 14.9488 104.117 15.2971 103.677 15.5538C103.237 15.8105 102.749 15.9388 102.214 15.9388ZM110.276 15.1138C109.718 15.6638 109.036 15.9388 108.23 15.9388C107.423 15.9388 106.737 15.6638 106.173 15.1138C105.615 14.5565 105.337 13.8708 105.337 13.0568C105.337 12.2428 105.615 11.5608 106.173 11.0108C106.737 10.4535 107.423 10.1748 108.23 10.1748C109.036 10.1748 109.718 10.4535 110.276 11.0108C110.84 11.5608 111.123 12.2428 111.123 13.0568C111.123 13.8708 110.84 14.5565 110.276 15.1138ZM106.69 14.6078C107.108 15.0258 107.621 15.2348 108.23 15.2348C108.838 15.2348 109.352 15.0258 109.77 14.6078C110.188 14.1825 110.397 13.6655 110.397 13.0568C110.397 12.4481 110.188 11.9348 109.77 11.5168C109.352 11.0915 108.838 10.8788 108.23 10.8788C107.621 10.8788 107.108 11.0915 106.69 11.5168C106.272 11.9348 106.063 12.4481 106.063 13.0568C106.063 13.6655 106.272 14.1825 106.69 14.6078ZM114.961 12.9798C115.599 13.2218 115.918 13.6618 115.918 14.2998C115.918 14.7545 115.738 15.1431 115.379 15.4658C115.027 15.7811 114.521 15.9388 113.861 15.9388C112.753 15.9388 112.027 15.4988 111.683 14.6188L112.299 14.2558C112.526 14.9085 113.047 15.2348 113.861 15.2348C114.286 15.2348 114.612 15.1431 114.84 14.9598C115.074 14.7765 115.192 14.5418 115.192 14.2558C115.192 13.9991 115.096 13.7901 114.906 13.6288C114.715 13.4675 114.458 13.3868 114.136 13.3868H113.333V12.6828H113.916C114.231 12.6828 114.477 12.6058 114.653 12.4518C114.836 12.2905 114.928 12.0705 114.928 11.7918C114.928 11.5278 114.821 11.3115 114.609 11.1428C114.396 10.9668 114.11 10.8788 113.751 10.8788C113.061 10.8788 112.603 11.1538 112.376 11.7038L111.771 11.3518C112.137 10.5671 112.797 10.1748 113.751 10.1748C114.33 10.1748 114.792 10.3288 115.137 10.6368C115.481 10.9375 115.654 11.3078 115.654 11.7478C115.654 12.3125 115.423 12.7231 114.961 12.9798ZM121.534 15.1028H122.304V17.2808H121.578V15.8068H117.09V17.2808H116.364V15.1028H117.035C117.409 14.6115 117.596 13.9185 117.596 13.0238V10.3068H121.534V15.1028ZM117.915 15.1028H120.808V11.0108H118.322V13.0238C118.322 13.8671 118.186 14.5601 117.915 15.1028ZM127.917 10.3068H128.643V15.8068H127.917V14.7288C127.411 15.5355 126.671 15.9388 125.695 15.9388C124.911 15.9388 124.24 15.6601 123.682 15.1028C123.132 14.5455 122.857 13.8635 122.857 13.0568C122.857 12.2501 123.132 11.5681 123.682 11.0108C124.24 10.4535 124.911 10.1748 125.695 10.1748C126.671 10.1748 127.411 10.5781 127.917 11.3848V10.3068ZM124.21 14.6078C124.628 15.0258 125.142 15.2348 125.75 15.2348C126.359 15.2348 126.872 15.0258 127.29 14.6078C127.708 14.1825 127.917 13.6655 127.917 13.0568C127.917 12.4481 127.708 11.9348 127.29 11.5168C126.872 11.0915 126.359 10.8788 125.75 10.8788C125.142 10.8788 124.628 11.0915 124.21 11.5168C123.792 11.9348 123.583 12.4481 123.583 13.0568C123.583 13.6655 123.792 14.1825 124.21 14.6078ZM134.14 10.3068V11.0108H132.193V15.8068H131.467V11.0108H129.52V10.3068H134.14ZM137.258 12.3968C137.771 12.3968 138.204 12.5581 138.556 12.8808C138.915 13.1961 139.095 13.6031 139.095 14.1018C139.095 14.6005 138.915 15.0111 138.556 15.3338C138.204 15.6491 137.771 15.8068 137.258 15.8068H135.025V10.3068H135.751V12.3968H137.258ZM137.258 15.1028C137.566 15.1028 137.826 15.0111 138.039 14.8278C138.259 14.6445 138.369 14.4025 138.369 14.1018C138.369 13.8011 138.259 13.5591 138.039 13.3758C137.826 13.1925 137.566 13.1008 137.258 13.1008H135.751V15.1028H137.258ZM147.892 8.10679V8.83279H145.527V15.8068H144.757V8.83279H142.392V8.10679H147.892ZM150.435 10.1748C151.249 10.1748 151.906 10.4645 152.404 11.0438C152.91 11.6158 153.163 12.2941 153.163 13.0788C153.163 13.1595 153.156 13.2731 153.141 13.4198H148.312C148.386 13.9771 148.62 14.4208 149.016 14.7508C149.42 15.0735 149.915 15.2348 150.501 15.2348C150.919 15.2348 151.279 15.1505 151.579 14.9818C151.887 14.8058 152.118 14.5785 152.272 14.2998L152.91 14.6738C152.668 15.0625 152.338 15.3705 151.92 15.5978C151.502 15.8251 151.026 15.9388 150.49 15.9388C149.625 15.9388 148.921 15.6675 148.378 15.1248C147.836 14.5821 147.564 13.8928 147.564 13.0568C147.564 12.2355 147.832 11.5498 148.367 10.9998C148.903 10.4498 149.592 10.1748 150.435 10.1748ZM150.435 10.8788C149.863 10.8788 149.383 11.0511 148.994 11.3958C148.613 11.7331 148.386 12.1731 148.312 12.7158H152.415C152.342 12.1365 152.118 11.6855 151.744 11.3628C151.37 11.0401 150.934 10.8788 150.435 10.8788ZM154.318 15.8068V7.77679H155.044V15.8068H154.318ZM159.126 10.1748C159.94 10.1748 160.596 10.4645 161.095 11.0438C161.601 11.6158 161.854 12.2941 161.854 13.0788C161.854 13.1595 161.846 13.2731 161.832 13.4198H157.003C157.076 13.9771 157.311 14.4208 157.707 14.7508C158.11 15.0735 158.605 15.2348 159.192 15.2348C159.61 15.2348 159.969 15.1505 160.27 14.9818C160.578 14.8058 160.809 14.5785 160.963 14.2998L161.601 14.6738C161.359 15.0625 161.029 15.3705 160.611 15.5978C160.193 15.8251 159.716 15.9388 159.181 15.9388C158.315 15.9388 157.611 15.6675 157.069 15.1248C156.526 14.5821 156.255 13.8928 156.255 13.0568C156.255 12.2355 156.522 11.5498 157.058 10.9998C157.593 10.4498 158.282 10.1748 159.126 10.1748ZM159.126 10.8788C158.554 10.8788 158.073 11.0511 157.685 11.3958C157.303 11.7331 157.076 12.1731 157.003 12.7158H161.106C161.032 12.1365 160.809 11.6855 160.435 11.3628C160.061 11.0401 159.624 10.8788 159.126 10.8788ZM167.738 10.3068H168.464V15.5868C168.464 16.3788 168.193 17.0021 167.65 17.4568C167.108 17.9115 166.459 18.1388 165.703 18.1388C164.413 18.1388 163.544 17.6915 163.096 16.7968L163.734 16.4338C164.064 17.1011 164.721 17.4348 165.703 17.4348C166.334 17.4348 166.829 17.2661 167.188 16.9288C167.555 16.5988 167.738 16.1515 167.738 15.5868V14.7288C167.232 15.5355 166.492 15.9388 165.516 15.9388C164.732 15.9388 164.061 15.6601 163.503 15.1028C162.953 14.5455 162.678 13.8635 162.678 13.0568C162.678 12.2501 162.953 11.5681 163.503 11.0108C164.061 10.4535 164.732 10.1748 165.516 10.1748C166.492 10.1748 167.232 10.5781 167.738 11.3848V10.3068ZM164.031 14.6078C164.449 15.0258 164.963 15.2348 165.571 15.2348C166.18 15.2348 166.693 15.0258 167.111 14.6078C167.529 14.1825 167.738 13.6655 167.738 13.0568C167.738 12.4481 167.529 11.9348 167.111 11.5168C166.693 11.0915 166.18 10.8788 165.571 10.8788C164.963 10.8788 164.449 11.0915 164.031 11.5168C163.613 11.9348 163.404 12.4481 163.404 13.0568C163.404 13.6655 163.613 14.1825 164.031 14.6078ZM170.728 11.2198C171.065 10.5525 171.644 10.2188 172.466 10.2188V10.9228C171.967 10.9228 171.553 11.0695 171.223 11.3628C170.893 11.6561 170.728 12.1181 170.728 12.7488V15.8068H170.002V10.3068H170.728V11.2198ZM177.858 10.3068H178.584V15.8068H177.858V14.7288C177.352 15.5355 176.611 15.9388 175.636 15.9388C174.851 15.9388 174.18 15.6601 173.623 15.1028C173.073 14.5455 172.798 13.8635 172.798 13.0568C172.798 12.2501 173.073 11.5681 173.623 11.0108C174.18 10.4535 174.851 10.1748 175.636 10.1748C176.611 10.1748 177.352 10.5781 177.858 11.3848V10.3068ZM174.151 14.6078C174.569 15.0258 175.082 15.2348 175.691 15.2348C176.299 15.2348 176.813 15.0258 177.231 14.6078C177.649 14.1825 177.858 13.6655 177.858 13.0568C177.858 12.4481 177.649 11.9348 177.231 11.5168C176.813 11.0915 176.299 10.8788 175.691 10.8788C175.082 10.8788 174.569 11.0915 174.151 11.5168C173.733 11.9348 173.524 12.4481 173.524 13.0568C173.524 13.6655 173.733 14.1825 174.151 14.6078ZM185.984 10.1748C186.6 10.1748 187.095 10.3728 187.469 10.7688C187.85 11.1648 188.041 11.7001 188.041 12.3748V15.8068H187.315V12.3748C187.315 11.8981 187.19 11.5315 186.941 11.2748C186.699 11.0108 186.376 10.8788 185.973 10.8788C185.518 10.8788 185.148 11.0328 184.862 11.3408C184.583 11.6415 184.444 12.1145 184.444 12.7598V15.8068H183.718V12.3748C183.718 11.8908 183.6 11.5205 183.366 11.2638C183.138 11.0071 182.827 10.8788 182.431 10.8788C181.991 10.8788 181.617 11.0328 181.309 11.3408C181.001 11.6488 180.847 12.1218 180.847 12.7598V15.8068H180.121V10.3068H180.847V11.1098C181.243 10.4865 181.804 10.1748 182.53 10.1748C183.322 10.1748 183.879 10.5085 184.202 11.1758C184.598 10.5085 185.192 10.1748 185.984 10.1748ZM189.555 12.7598V12.0558H193.515V12.7598H189.555ZM197.602 15.9388C196.81 15.9388 196.15 15.6785 195.622 15.1578C195.094 14.6298 194.83 13.9478 194.83 13.1118C194.83 12.1731 194.969 11.4545 195.248 10.9558C195.526 10.4498 196.091 9.99146 196.942 9.58079C197.103 9.50013 197.316 9.40479 197.58 9.29479C197.851 9.18479 198.053 9.09679 198.185 9.03079C198.324 8.96479 198.474 8.88046 198.636 8.77779C198.797 8.66779 198.918 8.54679 198.999 8.41479C199.079 8.28279 199.131 8.12513 199.153 7.94179L199.725 8.27179C199.695 8.44779 199.637 8.61279 199.549 8.76679C199.461 8.92079 199.369 9.04546 199.274 9.14079C199.186 9.23613 199.043 9.34246 198.845 9.45979C198.654 9.56979 198.504 9.65046 198.394 9.70179C198.291 9.74579 198.108 9.82279 197.844 9.93279C197.587 10.0428 197.415 10.1161 197.327 10.1528C196.813 10.3728 196.436 10.6038 196.194 10.8458C195.952 11.0805 195.779 11.3885 195.677 11.7698C195.926 11.4398 196.241 11.1978 196.623 11.0438C197.011 10.8825 197.389 10.8018 197.756 10.8018C198.489 10.8018 199.094 11.0438 199.571 11.5278C200.055 12.0045 200.297 12.6168 200.297 13.3648C200.297 14.1055 200.04 14.7215 199.527 15.2128C199.021 15.6968 198.379 15.9388 197.602 15.9388ZM197.602 15.2128C198.174 15.2128 198.643 15.0405 199.01 14.6958C199.384 14.3438 199.571 13.9001 199.571 13.3648C199.571 12.8221 199.395 12.3785 199.043 12.0338C198.698 11.6818 198.236 11.5058 197.657 11.5058C197.136 11.5058 196.663 11.6708 196.238 12.0008C195.812 12.3235 195.6 12.7561 195.6 13.2988C195.6 13.8561 195.79 14.3145 196.172 14.6738C196.56 15.0331 197.037 15.2128 197.602 15.2128ZM206.01 15.1138C205.453 15.6638 204.771 15.9388 203.964 15.9388C203.157 15.9388 202.472 15.6638 201.907 15.1138C201.35 14.5565 201.071 13.8708 201.071 13.0568C201.071 12.2428 201.35 11.5608 201.907 11.0108C202.472 10.4535 203.157 10.1748 203.964 10.1748C204.771 10.1748 205.453 10.4535 206.01 11.0108C206.575 11.5608 206.857 12.2428 206.857 13.0568C206.857 13.8708 206.575 14.5565 206.01 15.1138ZM202.424 14.6078C202.842 15.0258 203.355 15.2348 203.964 15.2348C204.573 15.2348 205.086 15.0258 205.504 14.6078C205.922 14.1825 206.131 13.6655 206.131 13.0568C206.131 12.4481 205.922 11.9348 205.504 11.5168C205.086 11.0915 204.573 10.8788 203.964 10.8788C203.355 10.8788 202.842 11.0915 202.424 11.5168C202.006 11.9348 201.797 12.4481 201.797 13.0568C201.797 13.6655 202.006 14.1825 202.424 14.6078ZM211.817 10.3068V11.0108H209.87V15.8068H209.144V11.0108H207.197V10.3068H211.817ZM217.217 10.3068H217.943V15.8068H217.217V14.7288C216.711 15.5355 215.97 15.9388 214.995 15.9388C214.21 15.9388 213.539 15.6601 212.982 15.1028C212.432 14.5455 212.157 13.8635 212.157 13.0568C212.157 12.2501 212.432 11.5681 212.982 11.0108C213.539 10.4535 214.21 10.1748 214.995 10.1748C215.97 10.1748 216.711 10.5781 217.217 11.3848V10.3068ZM213.51 14.6078C213.928 15.0258 214.441 15.2348 215.05 15.2348C215.659 15.2348 216.172 15.0258 216.59 14.6078C217.008 14.1825 217.217 13.6655 217.217 13.0568C217.217 12.4481 217.008 11.9348 216.59 11.5168C216.172 11.0915 215.659 10.8788 215.05 10.8788C214.441 10.8788 213.928 11.0915 213.51 11.5168C213.092 11.9348 212.883 12.4481 212.883 13.0568C212.883 13.6655 213.092 14.1825 213.51 14.6078ZM220.69 14.8718L220.03 17.3468H219.37L219.81 14.8718H220.69ZM229.603 10.3068H230.329V15.8068H229.603V14.7288C229.097 15.5355 228.356 15.9388 227.381 15.9388C226.596 15.9388 225.925 15.6601 225.368 15.1028C224.818 14.5455 224.543 13.8635 224.543 13.0568C224.543 12.2501 224.818 11.5681 225.368 11.0108C225.925 10.4535 226.596 10.1748 227.381 10.1748C228.356 10.1748 229.097 10.5781 229.603 11.3848V10.3068ZM225.896 14.6078C226.314 15.0258 226.827 15.2348 227.436 15.2348C228.044 15.2348 228.558 15.0258 228.976 14.6078C229.394 14.1825 229.603 13.6655 229.603 13.0568C229.603 12.4481 229.394 11.9348 228.976 11.5168C228.558 11.0915 228.044 10.8788 227.436 10.8788C226.827 10.8788 226.314 11.0915 225.896 11.5168C225.478 11.9348 225.269 12.4481 225.269 13.0568C225.269 13.6655 225.478 14.1825 225.896 14.6078ZM15.7735 25.3068V30.8068H15.0475V26.4178L13.1225 29.5418H13.0345L11.1095 26.4178V30.8068H10.3835V25.3068H11.2195L13.0785 28.3208L14.9375 25.3068H15.7735ZM19.5452 27.3968C20.0585 27.3968 20.4912 27.5581 20.8432 27.8808C21.2025 28.1961 21.3822 28.6031 21.3822 29.1018C21.3822 29.6005 21.2025 30.0111 20.8432 30.3338C20.4912 30.6491 20.0585 30.8068 19.5452 30.8068H17.3122V25.3068H18.0382V27.3968H19.5452ZM22.1522 25.3068H22.8782V30.8068H22.1522V25.3068ZM19.5452 30.1028C19.8532 30.1028 20.1135 30.0111 20.3262 29.8278C20.5462 29.6445 20.6562 29.4025 20.6562 29.1018C20.6562 28.8011 20.5462 28.5591 20.3262 28.3758C20.1135 28.1925 19.8532 28.1008 19.5452 28.1008H18.0382V30.1028H19.5452ZM31.7935 25.3068V30.8068H31.0675V26.0108H27.8995V30.8068H27.1735V25.3068H31.7935ZM37.9378 30.1138C37.3804 30.6638 36.6984 30.9388 35.8918 30.9388C35.0851 30.9388 34.3994 30.6638 33.8348 30.1138C33.2774 29.5565 32.9988 28.8708 32.9988 28.0568C32.9988 27.2428 33.2774 26.5608 33.8348 26.0108C34.3994 25.4535 35.0851 25.1748 35.8918 25.1748C36.6984 25.1748 37.3804 25.4535 37.9378 26.0108C38.5024 26.5608 38.7848 27.2428 38.7848 28.0568C38.7848 28.8708 38.5024 29.5565 37.9378 30.1138ZM34.3518 29.6078C34.7698 30.0258 35.2831 30.2348 35.8918 30.2348C36.5004 30.2348 37.0138 30.0258 37.4318 29.6078C37.8498 29.1825 38.0588 28.6655 38.0588 28.0568C38.0588 27.4481 37.8498 26.9348 37.4318 26.5168C37.0138 26.0915 36.5004 25.8788 35.8918 25.8788C35.2831 25.8788 34.7698 26.0915 34.3518 26.5168C33.9338 26.9348 33.7248 27.4481 33.7248 28.0568C33.7248 28.6655 33.9338 29.1825 34.3518 29.6078ZM44.4048 30.1028H45.1748V32.2808H44.4488V30.8068H39.9608V32.2808H39.2348V30.1028H39.9058C40.2798 29.6115 40.4668 28.9185 40.4668 28.0238V25.3068H44.4048V30.1028ZM40.7858 30.1028H43.6788V26.0108H41.1928V28.0238C41.1928 28.8671 41.0572 29.5601 40.7858 30.1028ZM50.7171 30.8068H49.7491L46.9991 28.1558V30.8068H46.2731V25.3068H46.9991V27.7378L49.6171 25.3068H50.6071L47.7691 27.9468L50.7171 30.8068ZM56.2187 25.3068V30.8068H55.4927V26.0108H53.0067V28.4638C53.0067 29.3805 52.8307 30.0111 52.4787 30.3558C52.134 30.7005 51.6573 30.8508 51.0487 30.8068V30.1248C51.4667 30.1688 51.7747 30.0698 51.9727 29.8278C52.178 29.5858 52.2807 29.1311 52.2807 28.4638V25.3068H56.2187ZM62.4535 25.1748C63.2602 25.1748 63.9422 25.4535 64.4995 26.0108C65.0642 26.5608 65.3465 27.2428 65.3465 28.0568C65.3465 28.8708 65.0642 29.5565 64.4995 30.1138C63.9422 30.6638 63.2602 30.9388 62.4535 30.9388C61.7128 30.9388 61.0748 30.7005 60.5395 30.2238C60.0115 29.7398 59.7072 29.1348 59.6265 28.4088H58.4825V30.8068H57.7565V25.3068H58.4825V27.7048H59.6265C59.7072 26.9788 60.0115 26.3775 60.5395 25.9008C61.0748 25.4168 61.7128 25.1748 62.4535 25.1748ZM60.9135 29.6078C61.3315 30.0258 61.8448 30.2348 62.4535 30.2348C63.0622 30.2348 63.5755 30.0258 63.9935 29.6078C64.4115 29.1825 64.6205 28.6655 64.6205 28.0568C64.6205 27.4481 64.4115 26.9348 63.9935 26.5168C63.5755 26.0915 63.0622 25.8788 62.4535 25.8788C61.8448 25.8788 61.3315 26.0915 60.9135 26.5168C60.4955 26.9348 60.2865 27.4481 60.2865 28.0568C60.2865 28.6655 60.4955 29.1825 60.9135 29.6078ZM70.0109 25.3068H70.7369V30.8068H70.0109V28.7168C69.5856 28.9368 69.0613 29.0468 68.4379 29.0468C67.7193 29.0468 67.1693 28.8818 66.7879 28.5518C66.4139 28.2145 66.2269 27.7195 66.2269 27.0668V25.3068H66.9529V27.0668C66.9529 27.5288 67.0739 27.8625 67.3159 28.0678C67.5579 28.2658 67.9246 28.3648 68.4159 28.3648C68.9879 28.3648 69.5196 28.2585 70.0109 28.0458V25.3068ZM76.2839 25.3068H76.8999V30.8068H76.1739V26.5718L72.8959 30.8068H72.2799V25.3068H73.0059V29.5418L76.2839 25.3068ZM83.8252 25.3068V30.8068H83.0992V26.4178L81.1742 29.5418H81.0862L79.1612 26.4178V30.8068H78.4352V25.3068H79.2712L81.1302 28.3208L82.9892 25.3068H83.8252ZM90.6549 25.1748C91.4689 25.1748 92.1253 25.4645 92.6239 26.0438C93.1299 26.6158 93.3829 27.2941 93.3829 28.0788C93.3829 28.1595 93.3756 28.2731 93.3609 28.4198H88.5319C88.6053 28.9771 88.8399 29.4208 89.2359 29.7508C89.6393 30.0735 90.1343 30.2348 90.7209 30.2348C91.1389 30.2348 91.4983 30.1505 91.7989 29.9818C92.1069 29.8058 92.3379 29.5785 92.4919 29.2998L93.1299 29.6738C92.8879 30.0625 92.5579 30.3705 92.1399 30.5978C91.7219 30.8251 91.2453 30.9388 90.7099 30.9388C89.8446 30.9388 89.1406 30.6675 88.5979 30.1248C88.0553 29.5821 87.7839 28.8928 87.7839 28.0568C87.7839 27.2355 88.0516 26.5498 88.5869 25.9998C89.1223 25.4498 89.8116 25.1748 90.6549 25.1748ZM90.6549 25.8788C90.0829 25.8788 89.6026 26.0511 89.2139 26.3958C88.8326 26.7331 88.6053 27.1731 88.5319 27.7158H92.6349C92.5616 27.1365 92.3379 26.6855 91.9639 26.3628C91.5899 26.0401 91.1536 25.8788 90.6549 25.8788ZM98.0578 25.3068V26.0108H95.2638V30.8068H94.5378V25.3068H98.0578ZM103.336 30.1138C102.779 30.6638 102.097 30.9388 101.29 30.9388C100.484 30.9388 99.7979 30.6638 99.2332 30.1138C98.6759 29.5565 98.3972 28.8708 98.3972 28.0568C98.3972 27.2428 98.6759 26.5608 99.2332 26.0108C99.7979 25.4535 100.484 25.1748 101.29 25.1748C102.097 25.1748 102.779 25.4535 103.336 26.0108C103.901 26.5608 104.183 27.2428 104.183 28.0568C104.183 28.8708 103.901 29.5565 103.336 30.1138ZM99.7502 29.6078C100.168 30.0258 100.682 30.2348 101.29 30.2348C101.899 30.2348 102.412 30.0258 102.83 29.6078C103.248 29.1825 103.457 28.6655 103.457 28.0568C103.457 27.4481 103.248 26.9348 102.83 26.5168C102.412 26.0915 101.899 25.8788 101.29 25.8788C100.682 25.8788 100.168 26.0915 99.7502 26.5168C99.3322 26.9348 99.1232 27.4481 99.1232 28.0568C99.1232 28.6655 99.3322 29.1825 99.7502 29.6078ZM112.042 25.3068H112.768V30.8068H112.042V28.4088H108.874V30.8068H108.148V25.3068H108.874V27.7048H112.042V25.3068ZM119.033 25.3068H119.759V30.8068H119.033V29.7288C118.527 30.5355 117.787 30.9388 116.811 30.9388C116.027 30.9388 115.356 30.6601 114.798 30.1028C114.248 29.5455 113.973 28.8635 113.973 28.0568C113.973 27.2501 114.248 26.5681 114.798 26.0108C115.356 25.4535 116.027 25.1748 116.811 25.1748C117.787 25.1748 118.527 25.5781 119.033 26.3848V25.3068ZM115.326 29.6078C115.744 30.0258 116.258 30.2348 116.866 30.2348C117.475 30.2348 117.988 30.0258 118.406 29.6078C118.824 29.1825 119.033 28.6655 119.033 28.0568C119.033 27.4481 118.824 26.9348 118.406 26.5168C117.988 26.0915 117.475 25.8788 116.866 25.8788C116.258 25.8788 115.744 26.0915 115.326 26.5168C114.908 26.9348 114.699 27.4481 114.699 28.0568C114.699 28.6655 114.908 29.1825 115.326 29.6078ZM127.545 27.9798C128.146 28.1998 128.447 28.6288 128.447 29.2668C128.447 29.7141 128.296 30.0845 127.996 30.3778C127.702 30.6638 127.277 30.8068 126.72 30.8068H124.047V25.3068H126.5C127.035 25.3068 127.449 25.4461 127.743 25.7248C128.036 25.9961 128.183 26.3481 128.183 26.7808C128.183 27.3308 127.97 27.7305 127.545 27.9798ZM126.5 26.0108H124.773V27.6828H126.5C127.138 27.6828 127.457 27.3968 127.457 26.8248C127.457 26.5681 127.372 26.3701 127.204 26.2308C127.042 26.0841 126.808 26.0108 126.5 26.0108ZM126.72 30.1028C127.042 30.1028 127.288 30.0258 127.457 29.8718C127.633 29.7178 127.721 29.5015 127.721 29.2228C127.721 28.9661 127.633 28.7645 127.457 28.6178C127.288 28.4638 127.042 28.3868 126.72 28.3868H124.773V30.1028H126.72ZM134.277 25.3068H135.003V30.8068H134.277V29.7288C133.771 30.5355 133.03 30.9388 132.055 30.9388C131.27 30.9388 130.599 30.6601 130.042 30.1028C129.492 29.5455 129.217 28.8635 129.217 28.0568C129.217 27.2501 129.492 26.5681 130.042 26.0108C130.599 25.4535 131.27 25.1748 132.055 25.1748C133.03 25.1748 133.771 25.5781 134.277 26.3848V25.3068ZM130.57 29.6078C130.988 30.0258 131.501 30.2348 132.11 30.2348C132.718 30.2348 133.232 30.0258 133.65 29.6078C134.068 29.1825 134.277 28.6655 134.277 28.0568C134.277 27.4481 134.068 26.9348 133.65 26.5168C133.232 26.0915 132.718 25.8788 132.11 25.8788C131.501 25.8788 130.988 26.0915 130.57 26.5168C130.152 26.9348 129.943 27.4481 129.943 28.0568C129.943 28.6655 130.152 29.1825 130.57 29.6078ZM143.184 25.3068H143.91V30.8068H136.54V25.3068H137.266V30.1028H139.862V25.3068H140.588V30.1028H143.184V25.3068ZM150.758 30.9388C149.929 30.9388 149.24 30.6638 148.69 30.1138C148.14 29.5565 147.865 28.8708 147.865 28.0568C147.865 27.2428 148.14 26.5608 148.69 26.0108C149.24 25.4535 149.929 25.1748 150.758 25.1748C151.301 25.1748 151.788 25.3068 152.221 25.5708C152.654 25.8275 152.969 26.1758 153.167 26.6158L152.573 26.9568C152.426 26.6268 152.188 26.3665 151.858 26.1758C151.535 25.9778 151.169 25.8788 150.758 25.8788C150.149 25.8788 149.636 26.0915 149.218 26.5168C148.8 26.9348 148.591 27.4481 148.591 28.0568C148.591 28.6655 148.8 29.1825 149.218 29.6078C149.636 30.0258 150.149 30.2348 150.758 30.2348C151.169 30.2348 151.535 30.1395 151.858 29.9488C152.181 29.7508 152.434 29.4868 152.617 29.1568L153.222 29.5088C152.995 29.9488 152.661 30.2971 152.221 30.5538C151.781 30.8105 151.293 30.9388 150.758 30.9388ZM158.941 25.3068H159.667V30.8068H158.941V29.7288C158.435 30.5355 157.694 30.9388 156.719 30.9388C155.934 30.9388 155.263 30.6601 154.706 30.1028C154.156 29.5455 153.881 28.8635 153.881 28.0568C153.881 27.2501 154.156 26.5681 154.706 26.0108C155.263 25.4535 155.934 25.1748 156.719 25.1748C157.694 25.1748 158.435 25.5781 158.941 26.3848V25.3068ZM155.234 29.6078C155.652 30.0258 156.165 30.2348 156.774 30.2348C157.382 30.2348 157.896 30.0258 158.314 29.6078C158.732 29.1825 158.941 28.6655 158.941 28.0568C158.941 27.4481 158.732 26.9348 158.314 26.5168C157.896 26.0915 157.382 25.8788 156.774 25.8788C156.165 25.8788 155.652 26.0915 155.234 26.5168C154.816 26.9348 154.607 27.4481 154.607 28.0568C154.607 28.6655 154.816 29.1825 155.234 29.6078ZM162.084 24.4268V23.7888H164.944V24.4268H162.084ZM165.208 25.3068H165.824V30.8068H165.098V26.5718L161.82 30.8068H161.204V25.3068H161.93V29.5418L165.208 25.3068ZM171.319 25.3068V26.0108H169.372V30.8068H168.646V26.0108H166.699V25.3068H171.319ZM172.354 30.7408C172.237 30.8581 172.094 30.9168 171.925 30.9168C171.757 30.9168 171.614 30.8581 171.496 30.7408C171.379 30.6235 171.32 30.4805 171.32 30.3118C171.32 30.1431 171.379 30.0001 171.496 29.8828C171.614 29.7655 171.757 29.7068 171.925 29.7068C172.094 29.7068 172.237 29.7655 172.354 29.8828C172.472 30.0001 172.53 30.1431 172.53 30.3118C172.53 30.4805 172.472 30.6235 172.354 30.7408ZM182.215 30.8068H181.203L177.595 27.0778V30.8068H176.825V23.1068H177.595V26.6268L181.093 23.1068H182.105L178.409 26.8468L182.215 30.8068ZM185.165 30.9388C184.337 30.9388 183.647 30.6638 183.097 30.1138C182.547 29.5565 182.272 28.8708 182.272 28.0568C182.272 27.2428 182.547 26.5608 183.097 26.0108C183.647 25.4535 184.337 25.1748 185.165 25.1748C185.708 25.1748 186.196 25.3068 186.628 25.5708C187.061 25.8275 187.376 26.1758 187.574 26.6158L186.98 26.9568C186.834 26.6268 186.595 26.3665 186.265 26.1758C185.943 25.9778 185.576 25.8788 185.165 25.8788C184.557 25.8788 184.043 26.0915 183.625 26.5168C183.207 26.9348 182.998 27.4481 182.998 28.0568C182.998 28.6655 183.207 29.1825 183.625 29.6078C184.043 30.0258 184.557 30.2348 185.165 30.2348C185.576 30.2348 185.943 30.1395 186.265 29.9488C186.588 29.7508 186.841 29.4868 187.024 29.1568L187.629 29.5088C187.402 29.9488 187.068 30.2971 186.628 30.5538C186.188 30.8105 185.701 30.9388 185.165 30.9388ZM192.524 25.3068V26.0108H190.577V30.8068H189.851V26.0108H187.904V25.3068H192.524ZM197.924 25.3068H198.65V30.8068H197.924V29.7288C197.418 30.5355 196.677 30.9388 195.702 30.9388C194.917 30.9388 194.246 30.6601 193.689 30.1028C193.139 29.5455 192.864 28.8635 192.864 28.0568C192.864 27.2501 193.139 26.5681 193.689 26.0108C194.246 25.4535 194.917 25.1748 195.702 25.1748C196.677 25.1748 197.418 25.5781 197.924 26.3848V25.3068ZM194.217 29.6078C194.635 30.0258 195.148 30.2348 195.757 30.2348C196.366 30.2348 196.879 30.0258 197.297 29.6078C197.715 29.1825 197.924 28.6655 197.924 28.0568C197.924 27.4481 197.715 26.9348 197.297 26.5168C196.879 26.0915 196.366 25.8788 195.757 25.8788C195.148 25.8788 194.635 26.0915 194.217 26.5168C193.799 26.9348 193.59 27.4481 193.59 28.0568C193.59 28.6655 193.799 29.1825 194.217 29.6078ZM204.147 25.3068V26.0108H202.2V30.8068H201.474V26.0108H199.527V25.3068H204.147ZM209.036 25.3068H209.652V30.8068H208.926V26.5718L205.648 30.8068H205.032V25.3068H205.758V29.5418L209.036 25.3068ZM212.397 29.8718L211.737 32.3468H211.077L211.517 29.8718H212.397ZM221.2 30.1028H221.97V32.2808H221.244V30.8068H216.756V32.2808H216.03V30.1028H216.701C217.075 29.6115 217.262 28.9185 217.262 28.0238V25.3068H221.2V30.1028ZM217.581 30.1028H220.474V26.0108H217.988V28.0238C217.988 28.8671 217.852 29.5601 217.581 30.1028ZM227.578 25.3068V30.8068H226.852V26.0108H224.366V28.4638C224.366 29.3805 224.19 30.0111 223.838 30.3558C223.493 30.7005 223.017 30.8508 222.408 30.8068V30.1248C222.826 30.1688 223.134 30.0698 223.332 29.8278C223.537 29.5858 223.64 29.1311 223.64 28.4638V25.3068H227.578ZM233.076 25.3068V30.8068H232.35V28.6948H231.404L229.71 30.8068H228.786L230.524 28.6728C230.084 28.6068 229.721 28.4235 229.435 28.1228C229.149 27.8221 229.006 27.4518 229.006 27.0118C229.006 26.5131 229.182 26.1061 229.534 25.7908C229.893 25.4681 230.33 25.3068 230.843 25.3068H233.076ZM230.843 28.0128H232.35V26.0108H230.843C230.535 26.0108 230.271 26.1025 230.051 26.2858C229.838 26.4691 229.732 26.7111 229.732 27.0118C229.732 27.3125 229.838 27.5545 230.051 27.7378C230.271 27.9211 230.535 28.0128 230.843 28.0128ZM13.8815 42.9798C14.4828 43.1998 14.7835 43.6288 14.7835 44.2668C14.7835 44.7141 14.6331 45.0845 14.3325 45.3778C14.0391 45.6638 13.6138 45.8068 13.0565 45.8068H10.3835V40.3068H12.8365C13.3718 40.3068 13.7861 40.4461 14.0795 40.7248C14.3728 40.9961 14.5195 41.3481 14.5195 41.7808C14.5195 42.3308 14.3068 42.7305 13.8815 42.9798ZM12.8365 41.0108H11.1095V42.6828H12.8365C13.4745 42.6828 13.7935 42.3968 13.7935 41.8248C13.7935 41.5681 13.7091 41.3701 13.5405 41.2308C13.3791 41.0841 13.1445 41.0108 12.8365 41.0108ZM13.0565 45.1028C13.3791 45.1028 13.6248 45.0258 13.7935 44.8718C13.9695 44.7178 14.0575 44.5015 14.0575 44.2228C14.0575 43.9661 13.9695 43.7645 13.7935 43.6178C13.6248 43.4638 13.3791 43.3868 13.0565 43.3868H11.1095V45.1028H13.0565ZM20.6135 40.3068H21.3395V45.8068H20.6135V44.7288C20.1075 45.5355 19.3668 45.9388 18.3915 45.9388C17.6068 45.9388 16.9358 45.6601 16.3785 45.1028C15.8285 44.5455 15.5535 43.8635 15.5535 43.0568C15.5535 42.2501 15.8285 41.5681 16.3785 41.0108C16.9358 40.4535 17.6068 40.1748 18.3915 40.1748C19.3668 40.1748 20.1075 40.5781 20.6135 41.3848V40.3068ZM16.9065 44.6078C17.3245 45.0258 17.8378 45.2348 18.4465 45.2348C19.0551 45.2348 19.5685 45.0258 19.9865 44.6078C20.4045 44.1825 20.6135 43.6655 20.6135 43.0568C20.6135 42.4481 20.4045 41.9348 19.9865 41.5168C19.5685 41.0915 19.0551 40.8788 18.4465 40.8788C17.8378 40.8788 17.3245 41.0915 16.9065 41.5168C16.4885 41.9348 16.2795 42.4481 16.2795 43.0568C16.2795 43.6655 16.4885 44.1825 16.9065 44.6078ZM25.4396 45.9388C24.611 45.9388 23.9216 45.6638 23.3716 45.1138C22.8216 44.5565 22.5466 43.8708 22.5466 43.0568C22.5466 42.2428 22.8216 41.5608 23.3716 41.0108C23.9216 40.4535 24.611 40.1748 25.4396 40.1748C25.9823 40.1748 26.47 40.3068 26.9026 40.5708C27.3353 40.8275 27.6506 41.1758 27.8486 41.6158L27.2546 41.9568C27.108 41.6268 26.8696 41.3665 26.5396 41.1758C26.217 40.9778 25.8503 40.8788 25.4396 40.8788C24.831 40.8788 24.3176 41.0915 23.8996 41.5168C23.4816 41.9348 23.2726 42.4481 23.2726 43.0568C23.2726 43.6655 23.4816 44.1825 23.8996 44.6078C24.3176 45.0258 24.831 45.2348 25.4396 45.2348C25.8503 45.2348 26.217 45.1395 26.5396 44.9488C26.8623 44.7508 27.1153 44.4868 27.2986 44.1568L27.9036 44.5088C27.6763 44.9488 27.3426 45.2971 26.9026 45.5538C26.4626 45.8105 25.975 45.9388 25.4396 45.9388ZM36.316 40.3068V45.8068H35.59V41.0108H32.422V45.8068H31.696V40.3068H36.316ZM42.4602 45.1138C41.9029 45.6638 41.2209 45.9388 40.4142 45.9388C39.6076 45.9388 38.9219 45.6638 38.3572 45.1138C37.7999 44.5565 37.5212 43.8708 37.5212 43.0568C37.5212 42.2428 37.7999 41.5608 38.3572 41.0108C38.9219 40.4535 39.6076 40.1748 40.4142 40.1748C41.2209 40.1748 41.9029 40.4535 42.4602 41.0108C43.0249 41.5608 43.3072 42.2428 43.3072 43.0568C43.3072 43.8708 43.0249 44.5565 42.4602 45.1138ZM38.8742 44.6078C39.2922 45.0258 39.8056 45.2348 40.4142 45.2348C41.0229 45.2348 41.5362 45.0258 41.9542 44.6078C42.3722 44.1825 42.5812 43.6655 42.5812 43.0568C42.5812 42.4481 42.3722 41.9348 41.9542 41.5168C41.5362 41.0915 41.0229 40.8788 40.4142 40.8788C39.8056 40.8788 39.2922 41.0915 38.8742 41.5168C38.4562 41.9348 38.2472 42.4481 38.2472 43.0568C38.2472 43.6655 38.4562 44.1825 38.8742 44.6078ZM48.9273 45.1028H49.6973V47.2808H48.9713V45.8068H44.4833V47.2808H43.7573V45.1028H44.4283C44.8023 44.6115 44.9893 43.9185 44.9893 43.0238V40.3068H48.9273V45.1028ZM45.3083 45.1028H48.2013V41.0108H45.7153V43.0238C45.7153 43.8671 45.5796 44.5601 45.3083 45.1028ZM55.3107 40.3068H56.0367V45.8068H55.3107V44.7288C54.8047 45.5355 54.0641 45.9388 53.0887 45.9388C52.3041 45.9388 51.6331 45.6601 51.0757 45.1028C50.5257 44.5455 50.2507 43.8635 50.2507 43.0568C50.2507 42.2501 50.5257 41.5681 51.0757 41.0108C51.6331 40.4535 52.3041 40.1748 53.0887 40.1748C54.0641 40.1748 54.8047 40.5781 55.3107 41.3848V40.3068ZM51.6037 44.6078C52.0217 45.0258 52.5351 45.2348 53.1437 45.2348C53.7524 45.2348 54.2657 45.0258 54.6837 44.6078C55.1017 44.1825 55.3107 43.6655 55.3107 43.0568C55.3107 42.4481 55.1017 41.9348 54.6837 41.5168C54.2657 41.0915 53.7524 40.8788 53.1437 40.8788C52.5351 40.8788 52.0217 41.0915 51.6037 41.5168C51.1857 41.9348 50.9767 42.4481 50.9767 43.0568C50.9767 43.6655 51.1857 44.1825 51.6037 44.6078ZM60.5219 40.1748C61.3066 40.1748 61.9739 40.4535 62.5239 41.0108C63.0812 41.5681 63.3599 42.2501 63.3599 43.0568C63.3599 43.8635 63.0812 44.5455 62.5239 45.1028C61.9739 45.6601 61.3066 45.9388 60.5219 45.9388C59.5466 45.9388 58.8059 45.5355 58.2999 44.7288V48.0068H57.5739V40.3068H58.2999V41.3848C58.8059 40.5781 59.5466 40.1748 60.5219 40.1748ZM58.9269 44.6078C59.3449 45.0258 59.8582 45.2348 60.4669 45.2348C61.0756 45.2348 61.5889 45.0258 62.0069 44.6078C62.4249 44.1825 62.6339 43.6655 62.6339 43.0568C62.6339 42.4481 62.4249 41.9348 62.0069 41.5168C61.5889 41.0915 61.0756 40.8788 60.4669 40.8788C59.8582 40.8788 59.3449 41.0915 58.9269 41.5168C58.5089 41.9348 58.2999 42.4481 58.2999 43.0568C58.2999 43.6655 58.5089 44.1825 58.9269 44.6078ZM69.1761 45.1138C68.6187 45.6638 67.9367 45.9388 67.1301 45.9388C66.3234 45.9388 65.6377 45.6638 65.0731 45.1138C64.5157 44.5565 64.2371 43.8708 64.2371 43.0568C64.2371 42.2428 64.5157 41.5608 65.0731 41.0108C65.6377 40.4535 66.3234 40.1748 67.1301 40.1748C67.9367 40.1748 68.6187 40.4535 69.1761 41.0108C69.7407 41.5608 70.0231 42.2428 70.0231 43.0568C70.0231 43.8708 69.7407 44.5565 69.1761 45.1138ZM65.5901 44.6078C66.0081 45.0258 66.5214 45.2348 67.1301 45.2348C67.7387 45.2348 68.2521 45.0258 68.6701 44.6078C69.0881 44.1825 69.2971 43.6655 69.2971 43.0568C69.2971 42.4481 69.0881 41.9348 68.6701 41.5168C68.2521 41.0915 67.7387 40.8788 67.1301 40.8788C66.5214 40.8788 66.0081 41.0915 65.5901 41.5168C65.1721 41.9348 64.9631 42.4481 64.9631 43.0568C64.9631 43.6655 65.1721 44.1825 65.5901 44.6078ZM75.682 45.8068H74.714L71.964 43.1558V45.8068H71.238V40.3068H71.964V42.7378L74.582 40.3068H75.572L72.734 42.9468L75.682 45.8068ZM79.5335 42.7598V42.0558H86.1335V42.7598H79.5335ZM92.9729 45.9388C92.1809 45.9388 91.5209 45.6785 90.9929 45.1578C90.4649 44.6298 90.2009 43.9478 90.2009 43.1118C90.2009 42.1731 90.3403 41.4545 90.6189 40.9558C90.8976 40.4498 91.4623 39.9915 92.3129 39.5808C92.4743 39.5001 92.6869 39.4048 92.9509 39.2948C93.2223 39.1848 93.4239 39.0968 93.5559 39.0308C93.6953 38.9648 93.8456 38.8805 94.0069 38.7778C94.1683 38.6678 94.2893 38.5468 94.3699 38.4148C94.4506 38.2828 94.5019 38.1251 94.5239 37.9418L95.0959 38.2718C95.0666 38.4478 95.0079 38.6128 94.9199 38.7668C94.8319 38.9208 94.7403 39.0455 94.6449 39.1408C94.5569 39.2361 94.4139 39.3425 94.2159 39.4598C94.0253 39.5698 93.8749 39.6505 93.7649 39.7018C93.6623 39.7458 93.4789 39.8228 93.2149 39.9328C92.9583 40.0428 92.7859 40.1161 92.6979 40.1528C92.1846 40.3728 91.8069 40.6038 91.5649 40.8458C91.3229 41.0805 91.1506 41.3885 91.0479 41.7698C91.2973 41.4398 91.6126 41.1978 91.9939 41.0438C92.3826 40.8825 92.7603 40.8018 93.1269 40.8018C93.8603 40.8018 94.4653 41.0438 94.9419 41.5278C95.4259 42.0045 95.6679 42.6168 95.6679 43.3648C95.6679 44.1055 95.4113 44.7215 94.8979 45.2128C94.3919 45.6968 93.7503 45.9388 92.9729 45.9388ZM92.9729 45.2128C93.5449 45.2128 94.0143 45.0405 94.3809 44.6958C94.7549 44.3438 94.9419 43.9001 94.9419 43.3648C94.9419 42.8221 94.7659 42.3785 94.4139 42.0338C94.0693 41.6818 93.6073 41.5058 93.0279 41.5058C92.5073 41.5058 92.0343 41.6708 91.6089 42.0008C91.1836 42.3235 90.9709 42.7561 90.9709 43.2988C90.9709 43.8561 91.1616 44.3145 91.5429 44.6738C91.9316 45.0331 92.4083 45.2128 92.9729 45.2128ZM99.3131 40.1748C100.127 40.1748 100.783 40.4645 101.282 41.0438C101.788 41.6158 102.041 42.2941 102.041 43.0788C102.041 43.1595 102.034 43.2731 102.019 43.4198H97.1901C97.2635 43.9771 97.4981 44.4208 97.8941 44.7508C98.2975 45.0735 98.7925 45.2348 99.3791 45.2348C99.7971 45.2348 100.156 45.1505 100.457 44.9818C100.765 44.8058 100.996 44.5785 101.15 44.2998L101.788 44.6738C101.546 45.0625 101.216 45.3705 100.798 45.5978C100.38 45.8251 99.9035 45.9388 99.3681 45.9388C98.5028 45.9388 97.7988 45.6675 97.2561 45.1248C96.7135 44.5821 96.4421 43.8928 96.4421 43.0568C96.4421 42.2355 96.7098 41.5498 97.2451 40.9998C97.7805 40.4498 98.4698 40.1748 99.3131 40.1748ZM99.3131 40.8788C98.7411 40.8788 98.2608 41.0511 97.8721 41.3958C97.4908 41.7331 97.2635 42.1731 97.1901 42.7158H101.293C101.22 42.1365 100.996 41.6855 100.622 41.3628C100.248 41.0401 99.8118 40.8788 99.3131 40.8788ZM105.759 45.9388C104.93 45.9388 104.241 45.6638 103.691 45.1138C103.141 44.5565 102.866 43.8708 102.866 43.0568C102.866 42.2428 103.141 41.5608 103.691 41.0108C104.241 40.4535 104.93 40.1748 105.759 40.1748C106.302 40.1748 106.789 40.3068 107.222 40.5708C107.655 40.8275 107.97 41.1758 108.168 41.6158L107.574 41.9568C107.427 41.6268 107.189 41.3665 106.859 41.1758C106.536 40.9778 106.17 40.8788 105.759 40.8788C105.15 40.8788 104.637 41.0915 104.219 41.5168C103.801 41.9348 103.592 42.4481 103.592 43.0568C103.592 43.6655 103.801 44.1825 104.219 44.6078C104.637 45.0258 105.15 45.2348 105.759 45.2348C106.17 45.2348 106.536 45.1395 106.859 44.9488C107.182 44.7508 107.435 44.4868 107.618 44.1568L108.223 44.5088C107.996 44.9488 107.662 45.2971 107.222 45.5538C106.782 45.8105 106.294 45.9388 105.759 45.9388ZM113.885 40.3068V45.8068H113.159V41.0108H109.991V45.8068H109.265V40.3068H113.885ZM119.931 40.3068V45.8068H119.205V41.0108H116.719V43.4638C116.719 44.3805 116.543 45.0111 116.191 45.3558C115.846 45.7005 115.369 45.8508 114.761 45.8068V45.1248C115.179 45.1688 115.487 45.0698 115.685 44.8278C115.89 44.5858 115.993 44.1311 115.993 43.4638V40.3068H119.931ZM126.198 40.3068H126.924V45.8068H126.198V44.7288C125.692 45.5355 124.952 45.9388 123.976 45.9388C123.192 45.9388 122.521 45.6601 121.963 45.1028C121.413 44.5455 121.138 43.8635 121.138 43.0568C121.138 42.2501 121.413 41.5681 121.963 41.0108C122.521 40.4535 123.192 40.1748 123.976 40.1748C124.952 40.1748 125.692 40.5781 126.198 41.3848V40.3068ZM122.491 44.6078C122.909 45.0258 123.423 45.2348 124.031 45.2348C124.64 45.2348 125.153 45.0258 125.571 44.6078C125.989 44.1825 126.198 43.6655 126.198 43.0568C126.198 42.4481 125.989 41.9348 125.571 41.5168C125.153 41.0915 124.64 40.8788 124.031 40.8788C123.423 40.8788 122.909 41.0915 122.491 41.5168C122.073 41.9348 121.864 42.4481 121.864 43.0568C121.864 43.6655 122.073 44.1825 122.491 44.6078ZM132.422 40.3068V41.0108H130.475V45.8068H129.749V41.0108H127.802V40.3068H132.422ZM137.2 40.3068H137.926V45.8068H137.2V43.4088H134.032V45.8068H133.306V40.3068H134.032V42.7048H137.2V40.3068ZM141.695 42.3968C142.208 42.3968 142.641 42.5581 142.993 42.8808C143.352 43.1961 143.532 43.6031 143.532 44.1018C143.532 44.6005 143.352 45.0111 142.993 45.3338C142.641 45.6491 142.208 45.8068 141.695 45.8068H139.462V40.3068H140.188V42.3968H141.695ZM144.302 40.3068H145.028V45.8068H144.302V40.3068ZM141.695 45.1028C142.003 45.1028 142.263 45.0111 142.476 44.8278C142.696 44.6445 142.806 44.4025 142.806 44.1018C142.806 43.8011 142.696 43.5591 142.476 43.3758C142.263 43.1925 142.003 43.1008 141.695 43.1008H140.188V45.1028H141.695ZM147.453 39.4268V38.7888H150.313V39.4268H147.453ZM150.577 40.3068H151.193V45.8068H150.467V41.5718L147.189 45.8068H146.573V40.3068H147.299V44.5418L150.577 40.3068ZM160.098 40.3068V45.8068H159.372V41.0108H156.204V45.8068H155.478V40.3068H160.098ZM164.581 40.1748C165.366 40.1748 166.033 40.4535 166.583 41.0108C167.141 41.5681 167.419 42.2501 167.419 43.0568C167.419 43.8635 167.141 44.5455 166.583 45.1028C166.033 45.6601 165.366 45.9388 164.581 45.9388C163.606 45.9388 162.865 45.5355 162.359 44.7288V48.0068H161.633V40.3068H162.359V41.3848C162.865 40.5781 163.606 40.1748 164.581 40.1748ZM162.986 44.6078C163.404 45.0258 163.918 45.2348 164.526 45.2348C165.135 45.2348 165.648 45.0258 166.066 44.6078C166.484 44.1825 166.693 43.6655 166.693 43.0568C166.693 42.4481 166.484 41.9348 166.066 41.5168C165.648 41.0915 165.135 40.8788 164.526 40.8788C163.918 40.8788 163.404 41.0915 162.986 41.5168C162.568 41.9348 162.359 42.4481 162.359 43.0568C162.359 43.6655 162.568 44.1825 162.986 44.6078ZM173.236 45.1138C172.678 45.6638 171.996 45.9388 171.19 45.9388C170.383 45.9388 169.697 45.6638 169.133 45.1138C168.575 44.5565 168.297 43.8708 168.297 43.0568C168.297 42.2428 168.575 41.5608 169.133 41.0108C169.697 40.4535 170.383 40.1748 171.19 40.1748C171.996 40.1748 172.678 40.4535 173.236 41.0108C173.8 41.5608 174.083 42.2428 174.083 43.0568C174.083 43.8708 173.8 44.5565 173.236 45.1138ZM169.65 44.6078C170.068 45.0258 170.581 45.2348 171.19 45.2348C171.798 45.2348 172.312 45.0258 172.73 44.6078C173.148 44.1825 173.357 43.6655 173.357 43.0568C173.357 42.4481 173.148 41.9348 172.73 41.5168C172.312 41.0915 171.798 40.8788 171.19 40.8788C170.581 40.8788 170.068 41.0915 169.65 41.5168C169.232 41.9348 169.023 42.4481 169.023 43.0568C169.023 43.6655 169.232 44.1825 169.65 44.6078ZM177.74 45.9388C176.948 45.9388 176.288 45.6785 175.76 45.1578C175.232 44.6298 174.968 43.9478 174.968 43.1118C174.968 42.1731 175.107 41.4545 175.386 40.9558C175.664 40.4498 176.229 39.9915 177.08 39.5808C177.241 39.5001 177.454 39.4048 177.718 39.2948C177.989 39.1848 178.191 39.0968 178.323 39.0308C178.462 38.9648 178.612 38.8805 178.774 38.7778C178.935 38.6678 179.056 38.5468 179.137 38.4148C179.217 38.2828 179.269 38.1251 179.291 37.9418L179.863 38.2718C179.833 38.4478 179.775 38.6128 179.687 38.7668C179.599 38.9208 179.507 39.0455 179.412 39.1408C179.324 39.2361 179.181 39.3425 178.983 39.4598C178.792 39.5698 178.642 39.6505 178.532 39.7018C178.429 39.7458 178.246 39.8228 177.982 39.9328C177.725 40.0428 177.553 40.1161 177.465 40.1528C176.951 40.3728 176.574 40.6038 176.332 40.8458C176.09 41.0805 175.917 41.3885 175.815 41.7698C176.064 41.4398 176.379 41.1978 176.761 41.0438C177.149 40.8825 177.527 40.8018 177.894 40.8018C178.627 40.8018 179.232 41.0438 179.709 41.5278C180.193 42.0045 180.435 42.6168 180.435 43.3648C180.435 44.1055 180.178 44.7215 179.665 45.2128C179.159 45.6968 178.517 45.9388 177.74 45.9388ZM177.74 45.2128C178.312 45.2128 178.781 45.0405 179.148 44.6958C179.522 44.3438 179.709 43.9001 179.709 43.3648C179.709 42.8221 179.533 42.3785 179.181 42.0338C178.836 41.6818 178.374 41.5058 177.795 41.5058C177.274 41.5058 176.801 41.6708 176.376 42.0008C175.95 42.3235 175.738 42.7561 175.738 43.2988C175.738 43.8561 175.928 44.3145 176.31 44.6738C176.698 45.0331 177.175 45.2128 177.74 45.2128ZM185.433 40.3068H186.159V45.8068H185.433V43.4088H182.265V45.8068H181.539V40.3068H182.265V42.7048H185.433V40.3068ZM189.927 42.3968C190.44 42.3968 190.873 42.5581 191.225 42.8808C191.584 43.1961 191.764 43.6031 191.764 44.1018C191.764 44.6005 191.584 45.0111 191.225 45.3338C190.873 45.6491 190.44 45.8068 189.927 45.8068H187.694V40.3068H188.42V42.3968H189.927ZM192.534 40.3068H193.26V45.8068H192.534V40.3068ZM189.927 45.1028C190.235 45.1028 190.495 45.0111 190.708 44.8278C190.928 44.6445 191.038 44.4025 191.038 44.1018C191.038 43.8011 190.928 43.5591 190.708 43.3758C190.495 43.1925 190.235 43.1008 189.927 43.1008H188.42V45.1028H189.927ZM195.685 39.4268V38.7888H198.545V39.4268H195.685ZM198.809 40.3068H199.425V45.8068H198.699V41.5718L195.421 45.8068H194.805V40.3068H195.531V44.5418L198.809 40.3068ZM15.0035 55.3068V60.8068H14.2775V56.0108H11.1095V60.8068H10.3835V55.3068H15.0035ZM19.0797 55.1748C19.8937 55.1748 20.5501 55.4645 21.0487 56.0438C21.5547 56.6158 21.8077 57.2941 21.8077 58.0788C21.8077 58.1595 21.8004 58.2731 21.7857 58.4198H16.9567C17.0301 58.9771 17.2647 59.4208 17.6607 59.7508C18.0641 60.0735 18.5591 60.2348 19.1457 60.2348C19.5637 60.2348 19.9231 60.1505 20.2237 59.9818C20.5317 59.8058 20.7627 59.5785 20.9167 59.2998L21.5547 59.6738C21.3127 60.0625 20.9827 60.3705 20.5647 60.5978C20.1467 60.8251 19.6701 60.9388 19.1347 60.9388C18.2694 60.9388 17.5654 60.6675 17.0227 60.1248C16.4801 59.5821 16.2087 58.8928 16.2087 58.0568C16.2087 57.2355 16.4764 56.5498 17.0117 55.9998C17.5471 55.4498 18.2364 55.1748 19.0797 55.1748ZM19.0797 55.8788C18.5077 55.8788 18.0274 56.0511 17.6387 56.3958C17.2574 56.7331 17.0301 57.1731 16.9567 57.7158H21.0597C20.9864 57.1365 20.7627 56.6855 20.3887 56.3628C20.0147 56.0401 19.5784 55.8788 19.0797 55.8788ZM25.9106 55.1748C26.6952 55.1748 27.3626 55.4535 27.9126 56.0108C28.4699 56.5681 28.7486 57.2501 28.7486 58.0568C28.7486 58.8635 28.4699 59.5455 27.9126 60.1028C27.3626 60.6601 26.6952 60.9388 25.9106 60.9388C24.9352 60.9388 24.1946 60.5355 23.6886 59.7288V63.0068H22.9626V55.3068H23.6886V56.3848C24.1946 55.5781 24.9352 55.1748 25.9106 55.1748ZM24.3156 59.6078C24.7336 60.0258 25.2469 60.2348 25.8556 60.2348C26.4642 60.2348 26.9776 60.0258 27.3956 59.6078C27.8136 59.1825 28.0226 58.6655 28.0226 58.0568C28.0226 57.4481 27.8136 56.9348 27.3956 56.5168C26.9776 56.0915 26.4642 55.8788 25.8556 55.8788C25.2469 55.8788 24.7336 56.0915 24.3156 56.5168C23.8976 56.9348 23.6886 57.4481 23.6886 58.0568C23.6886 58.6655 23.8976 59.1825 24.3156 59.6078ZM33.9597 55.3068H34.5757V60.8068H33.8497V56.5718L30.5717 60.8068H29.9557V55.3068H30.6817V59.5418L33.9597 55.3068ZM40.72 60.1138C40.1627 60.6638 39.4807 60.9388 38.674 60.9388C37.8673 60.9388 37.1817 60.6638 36.617 60.1138C36.0597 59.5565 35.781 58.8708 35.781 58.0568C35.781 57.2428 36.0597 56.5608 36.617 56.0108C37.1817 55.4535 37.8673 55.1748 38.674 55.1748C39.4807 55.1748 40.1627 55.4535 40.72 56.0108C41.2847 56.5608 41.567 57.2428 41.567 58.0568C41.567 58.8708 41.2847 59.5565 40.72 60.1138ZM37.134 59.6078C37.552 60.0258 38.0653 60.2348 38.674 60.2348C39.2827 60.2348 39.796 60.0258 40.214 59.6078C40.632 59.1825 40.841 58.6655 40.841 58.0568C40.841 57.4481 40.632 56.9348 40.214 56.5168C39.796 56.0915 39.2827 55.8788 38.674 55.8788C38.0653 55.8788 37.552 56.0915 37.134 56.5168C36.716 56.9348 36.507 57.4481 36.507 58.0568C36.507 58.6655 36.716 59.1825 37.134 59.6078ZM47.1871 60.1028H47.9571V62.2808H47.2311V60.8068H42.7431V62.2808H42.0171V60.1028H42.6881C43.0621 59.6115 43.2491 58.9185 43.2491 58.0238V55.3068H47.1871V60.1028ZM43.5681 60.1028H46.4611V56.0108H43.9751V58.0238C43.9751 58.8671 43.8394 59.5601 43.5681 60.1028ZM55.6993 55.3068H56.4253V60.8068H55.6993V58.4088H52.5313V60.8068H51.8053V55.3068H52.5313V57.7048H55.6993V55.3068ZM62.6906 55.3068H63.4166V60.8068H62.6906V59.7288C62.1846 60.5355 61.4439 60.9388 60.4686 60.9388C59.6839 60.9388 59.0129 60.6601 58.4556 60.1028C57.9056 59.5455 57.6306 58.8635 57.6306 58.0568C57.6306 57.2501 57.9056 56.5681 58.4556 56.0108C59.0129 55.4535 59.6839 55.1748 60.4686 55.1748C61.4439 55.1748 62.1846 55.5781 62.6906 56.3848V55.3068ZM58.9836 59.6078C59.4016 60.0258 59.9149 60.2348 60.5236 60.2348C61.1323 60.2348 61.6456 60.0258 62.0636 59.6078C62.4816 59.1825 62.6906 58.6655 62.6906 58.0568C62.6906 57.4481 62.4816 56.9348 62.0636 56.5168C61.6456 56.0915 61.1323 55.8788 60.5236 55.8788C59.9149 55.8788 59.4016 56.0915 58.9836 56.5168C58.5656 56.9348 58.3566 57.4481 58.3566 58.0568C58.3566 58.6655 58.5656 59.1825 58.9836 59.6078ZM69.1338 53.1068H69.7938V60.8068H69.0238V53.9538L67.2968 54.4708L67.0988 53.8108L69.1338 53.1068ZM79.5821 55.3068V60.8068H78.8561V56.4178L76.9311 59.5418H76.8431L74.9181 56.4178V60.8068H74.1921V55.3068H75.0281L76.8871 58.3208L78.7461 55.3068H79.5821ZM83.6618 55.1748C84.4758 55.1748 85.1321 55.4645 85.6308 56.0438C86.1368 56.6158 86.3898 57.2941 86.3898 58.0788C86.3898 58.1595 86.3824 58.2731 86.3678 58.4198H81.5388C81.6121 58.9771 81.8468 59.4208 82.2428 59.7508C82.6461 60.0735 83.1411 60.2348 83.7278 60.2348C84.1458 60.2348 84.5051 60.1505 84.8058 59.9818C85.1138 59.8058 85.3448 59.5785 85.4988 59.2998L86.1368 59.6738C85.8948 60.0625 85.5648 60.3705 85.1468 60.5978C84.7288 60.8251 84.2521 60.9388 83.7168 60.9388C82.8514 60.9388 82.1474 60.6675 81.6048 60.1248C81.0621 59.5821 80.7908 58.8928 80.7908 58.0568C80.7908 57.2355 81.0584 56.5498 81.5938 55.9998C82.1291 55.4498 82.8184 55.1748 83.6618 55.1748ZM83.6618 55.8788C83.0898 55.8788 82.6094 56.0511 82.2208 56.3958C81.8394 56.7331 81.6121 57.1731 81.5388 57.7158H85.6418C85.5684 57.1365 85.3448 56.6855 84.9708 56.3628C84.5968 56.0401 84.1604 55.8788 83.6618 55.8788ZM90.1076 60.9388C89.2789 60.9388 88.5896 60.6638 88.0396 60.1138C87.4896 59.5565 87.2146 58.8708 87.2146 58.0568C87.2146 57.2428 87.4896 56.5608 88.0396 56.0108C88.5896 55.4535 89.2789 55.1748 90.1076 55.1748C90.6503 55.1748 91.1379 55.3068 91.5706 55.5708C92.0033 55.8275 92.3186 56.1758 92.5166 56.6158L91.9226 56.9568C91.7759 56.6268 91.5376 56.3665 91.2076 56.1758C90.8849 55.9778 90.5183 55.8788 90.1076 55.8788C89.4989 55.8788 88.9856 56.0915 88.5676 56.5168C88.1496 56.9348 87.9406 57.4481 87.9406 58.0568C87.9406 58.6655 88.1496 59.1825 88.5676 59.6078C88.9856 60.0258 89.4989 60.2348 90.1076 60.2348C90.5183 60.2348 90.8849 60.1395 91.2076 59.9488C91.5303 59.7508 91.7833 59.4868 91.9666 59.1568L92.5716 59.5088C92.3443 59.9488 92.0106 60.2971 91.5706 60.5538C91.1306 60.8105 90.6429 60.9388 90.1076 60.9388ZM97.4665 55.3068V60.8068H96.7405V58.6948H95.7945L94.1005 60.8068H93.1765L94.9145 58.6728C94.4745 58.6068 94.1115 58.4235 93.8255 58.1228C93.5395 57.8221 93.3965 57.4518 93.3965 57.0118C93.3965 56.5131 93.5725 56.1061 93.9245 55.7908C94.2838 55.4681 94.7202 55.3068 95.2335 55.3068H97.4665ZM95.2335 58.0128H96.7405V56.0108H95.2335C94.9255 56.0108 94.6615 56.1025 94.4415 56.2858C94.2288 56.4691 94.1225 56.7111 94.1225 57.0118C94.1225 57.3125 94.2288 57.5545 94.4415 57.7378C94.6615 57.9211 94.9255 58.0128 95.2335 58.0128ZM103.517 60.1028H104.397V62.2808H103.671V60.8068H99.0065V55.3068H99.7325V60.1028H102.791V55.3068H103.517V60.1028ZM105.715 58.7168L105.55 55.3068V53.1068H106.43V55.3068L106.265 58.7168H105.715ZM106.419 60.7408C106.301 60.8581 106.158 60.9168 105.99 60.9168C105.821 60.9168 105.678 60.8581 105.561 60.7408C105.443 60.6235 105.385 60.4805 105.385 60.3118C105.385 60.1431 105.443 60.0001 105.561 59.8828C105.678 59.7655 105.821 59.7068 105.99 59.7068C106.158 59.7068 106.301 59.7655 106.419 59.8828C106.536 60.0001 106.595 60.1431 106.595 60.3118C106.595 60.4805 106.536 60.6235 106.419 60.7408ZM114.443 56.8248C114.868 56.9861 115.198 57.2318 115.433 57.5618C115.668 57.8918 115.785 58.2805 115.785 58.7278C115.785 59.3731 115.543 59.9048 115.059 60.3228C114.582 60.7335 113.937 60.9388 113.123 60.9388C112.39 60.9388 111.803 60.7738 111.363 60.4438C110.923 60.1138 110.619 59.6995 110.45 59.2008L111.11 58.8268C111.205 59.2155 111.411 59.5455 111.726 59.8168C112.049 60.0808 112.514 60.2128 113.123 60.2128C113.724 60.2128 114.19 60.0771 114.52 59.8058C114.85 59.5271 115.015 59.1678 115.015 58.7278C115.015 58.2878 114.861 57.9321 114.553 57.6608C114.252 57.3821 113.834 57.2428 113.299 57.2428H112.419V56.5168H113.024C113.545 56.5168 113.959 56.3848 114.267 56.1208C114.575 55.8568 114.729 55.5158 114.729 55.0978C114.729 54.6871 114.579 54.3535 114.278 54.0968C113.985 53.8328 113.581 53.7008 113.068 53.7008C112.122 53.7008 111.499 54.1041 111.198 54.9108L110.56 54.5368C110.751 54.0675 111.051 53.6898 111.462 53.4038C111.88 53.1178 112.415 52.9748 113.068 52.9748C113.794 52.9748 114.381 53.1801 114.828 53.5908C115.275 53.9941 115.499 54.5001 115.499 55.1088C115.499 55.8788 115.147 56.4508 114.443 56.8248ZM121.73 55.3068H122.456V60.8068H121.73V59.7288C121.224 60.5355 120.483 60.9388 119.508 60.9388C118.723 60.9388 118.052 60.6601 117.495 60.1028C116.945 59.5455 116.67 58.8635 116.67 58.0568C116.67 57.2501 116.945 56.5681 117.495 56.0108C118.052 55.4535 118.723 55.1748 119.508 55.1748C120.483 55.1748 121.224 55.5781 121.73 56.3848V55.3068ZM118.023 59.6078C118.441 60.0258 118.954 60.2348 119.563 60.2348C120.171 60.2348 120.685 60.0258 121.103 59.6078C121.521 59.1825 121.73 58.6655 121.73 58.0568C121.73 57.4481 121.521 56.9348 121.103 56.5168C120.685 56.0915 120.171 55.8788 119.563 55.8788C118.954 55.8788 118.441 56.0915 118.023 56.5168C117.605 56.9348 117.396 57.4481 117.396 58.0568C117.396 58.6655 117.605 59.1825 118.023 59.6078ZM128.701 55.1748C129.53 55.1748 130.197 55.4498 130.703 55.9998C131.209 56.5425 131.462 57.2281 131.462 58.0568C131.462 58.8855 131.205 59.5748 130.692 60.1248C130.186 60.6675 129.515 60.9388 128.679 60.9388C128.085 60.9388 127.568 60.8105 127.128 60.5538C126.695 60.2898 126.384 59.9341 126.193 59.4868L126.82 59.1238C126.945 59.4611 127.168 59.7325 127.491 59.9378C127.814 60.1358 128.21 60.2348 128.679 60.2348C129.229 60.2348 129.687 60.0661 130.054 59.7288C130.421 59.3841 130.641 58.9441 130.714 58.4088H127.975V57.7048H130.714C130.648 57.1695 130.432 56.7331 130.065 56.3958C129.706 56.0511 129.251 55.8788 128.701 55.8788C128.283 55.8788 127.913 55.9778 127.59 56.1758C127.267 56.3738 127.029 56.6415 126.875 56.9788L126.237 56.6158C126.457 56.1685 126.783 55.8165 127.216 55.5598C127.656 55.3031 128.151 55.1748 128.701 55.1748ZM136.418 55.3068V56.0108H134.471V60.8068H133.745V56.0108H131.798V55.3068H136.418ZM141.697 60.1138C141.139 60.6638 140.457 60.9388 139.651 60.9388C138.844 60.9388 138.158 60.6638 137.594 60.1138C137.036 59.5565 136.758 58.8708 136.758 58.0568C136.758 57.2428 137.036 56.5608 137.594 56.0108C138.158 55.4535 138.844 55.1748 139.651 55.1748C140.457 55.1748 141.139 55.4535 141.697 56.0108C142.261 56.5608 142.544 57.2428 142.544 58.0568C142.544 58.8708 142.261 59.5565 141.697 60.1138ZM138.111 59.6078C138.529 60.0258 139.042 60.2348 139.651 60.2348C140.259 60.2348 140.773 60.0258 141.191 59.6078C141.609 59.1825 141.818 58.6655 141.818 58.0568C141.818 57.4481 141.609 56.9348 141.191 56.5168C140.773 56.0915 140.259 55.8788 139.651 55.8788C139.042 55.8788 138.529 56.0915 138.111 56.5168C137.693 56.9348 137.484 57.4481 137.484 58.0568C137.484 58.6655 137.693 59.1825 138.111 59.6078ZM150.006 57.9798C150.608 58.1998 150.908 58.6288 150.908 59.2668C150.908 59.7141 150.758 60.0845 150.457 60.3778C150.164 60.6638 149.739 60.8068 149.181 60.8068H146.508V55.3068H148.961C149.497 55.3068 149.911 55.4461 150.204 55.7248C150.498 55.9961 150.644 56.3481 150.644 56.7808C150.644 57.3308 150.432 57.7305 150.006 57.9798ZM148.961 56.0108H147.234V57.6828H148.961C149.599 57.6828 149.918 57.3968 149.918 56.8248C149.918 56.5681 149.834 56.3701 149.665 56.2308C149.504 56.0841 149.269 56.0108 148.961 56.0108ZM149.181 60.1028C149.504 60.1028 149.75 60.0258 149.918 59.8718C150.094 59.7178 150.182 59.5015 150.182 59.2228C150.182 58.9661 150.094 58.7645 149.918 58.6178C149.75 58.4638 149.504 58.3868 149.181 58.3868H147.234V60.1028H149.181ZM154.956 55.1748C155.741 55.1748 156.408 55.4535 156.958 56.0108C157.516 56.5681 157.794 57.2501 157.794 58.0568C157.794 58.8635 157.516 59.5455 156.958 60.1028C156.408 60.6601 155.741 60.9388 154.956 60.9388C153.981 60.9388 153.24 60.5355 152.734 59.7288V63.0068H152.008V55.3068H152.734V56.3848C153.24 55.5781 153.981 55.1748 154.956 55.1748ZM153.361 59.6078C153.779 60.0258 154.293 60.2348 154.901 60.2348C155.51 60.2348 156.023 60.0258 156.441 59.6078C156.859 59.1825 157.068 58.6655 157.068 58.0568C157.068 57.4481 156.859 56.9348 156.441 56.5168C156.023 56.0915 155.51 55.8788 154.901 55.8788C154.293 55.8788 153.779 56.0915 153.361 56.5168C152.943 56.9348 152.734 57.4481 152.734 58.0568C152.734 58.6655 152.943 59.1825 153.361 59.6078ZM161.543 55.1748C162.357 55.1748 163.013 55.4645 163.512 56.0438C164.018 56.6158 164.271 57.2941 164.271 58.0788C164.271 58.1595 164.263 58.2731 164.249 58.4198H159.42C159.493 58.9771 159.728 59.4208 160.124 59.7508C160.527 60.0735 161.022 60.2348 161.609 60.2348C162.027 60.2348 162.386 60.1505 162.687 59.9818C162.995 59.8058 163.226 59.5785 163.38 59.2998L164.018 59.6738C163.776 60.0625 163.446 60.3705 163.028 60.5978C162.61 60.8251 162.133 60.9388 161.598 60.9388C160.732 60.9388 160.028 60.6675 159.486 60.1248C158.943 59.5821 158.672 58.8928 158.672 58.0568C158.672 57.2355 158.939 56.5498 159.475 55.9998C160.01 55.4498 160.699 55.1748 161.543 55.1748ZM161.543 55.8788C160.971 55.8788 160.49 56.0511 160.102 56.3958C159.72 56.7331 159.493 57.1731 159.42 57.7158H163.523C163.449 57.1365 163.226 56.6855 162.852 56.3628C162.478 56.0401 162.041 55.8788 161.543 55.8788ZM170.815 55.3068V60.8068H170.089V56.4178L168.164 59.5418H168.076L166.151 56.4178V60.8068H165.425V55.3068H166.261L168.12 58.3208L169.979 55.3068H170.815ZM176.314 55.3068V60.8068H175.588V58.6948H174.642L172.948 60.8068H172.024L173.762 58.6728C173.322 58.6068 172.959 58.4235 172.673 58.1228C172.387 57.8221 172.244 57.4518 172.244 57.0118C172.244 56.5131 172.42 56.1061 172.772 55.7908C173.132 55.4681 173.568 55.3068 174.081 55.3068H176.314ZM174.081 58.0128H175.588V56.0108H174.081C173.773 56.0108 173.509 56.1025 173.289 56.2858C173.077 56.4691 172.97 56.7111 172.97 57.0118C172.97 57.3125 173.077 57.5545 173.289 57.7378C173.509 57.9211 173.773 58.0128 174.081 58.0128ZM184.102 57.9798C184.704 58.1998 185.004 58.6288 185.004 59.2668C185.004 59.7141 184.854 60.0845 184.553 60.3778C184.26 60.6638 183.835 60.8068 183.277 60.8068H180.604V55.3068H183.057C183.593 55.3068 184.007 55.4461 184.3 55.7248C184.594 55.9961 184.74 56.3481 184.74 56.7808C184.74 57.3308 184.528 57.7305 184.102 57.9798ZM183.057 56.0108H181.33V57.6828H183.057C183.695 57.6828 184.014 57.3968 184.014 56.8248C184.014 56.5681 183.93 56.3701 183.761 56.2308C183.6 56.0841 183.365 56.0108 183.057 56.0108ZM183.277 60.1028C183.6 60.1028 183.846 60.0258 184.014 59.8718C184.19 59.7178 184.278 59.5015 184.278 59.2228C184.278 58.9661 184.19 58.7645 184.014 58.6178C183.846 58.4638 183.6 58.3868 183.277 58.3868H181.33V60.1028H183.277ZM188.337 57.3968C188.851 57.3968 189.283 57.5581 189.635 57.8808C189.995 58.1961 190.174 58.6031 190.174 59.1018C190.174 59.6005 189.995 60.0111 189.635 60.3338C189.283 60.6491 188.851 60.8068 188.337 60.8068H186.104V55.3068H186.83V57.3968H188.337ZM190.944 55.3068H191.67V60.8068H190.944V55.3068ZM188.337 60.1028C188.645 60.1028 188.906 60.0111 189.118 59.8278C189.338 59.6445 189.448 59.4025 189.448 59.1018C189.448 58.8011 189.338 58.5591 189.118 58.3758C188.906 58.1925 188.645 58.1008 188.337 58.1008H186.83V60.1028H188.337ZM198.528 60.9388C197.7 60.9388 197.01 60.6638 196.46 60.1138C195.91 59.5565 195.635 58.8708 195.635 58.0568C195.635 57.2428 195.91 56.5608 196.46 56.0108C197.01 55.4535 197.7 55.1748 198.528 55.1748C199.071 55.1748 199.559 55.3068 199.991 55.5708C200.424 55.8275 200.739 56.1758 200.937 56.6158L200.343 56.9568C200.197 56.6268 199.958 56.3665 199.628 56.1758C199.306 55.9778 198.939 55.8788 198.528 55.8788C197.92 55.8788 197.406 56.0915 196.988 56.5168C196.57 56.9348 196.361 57.4481 196.361 58.0568C196.361 58.6655 196.57 59.1825 196.988 59.6078C197.406 60.0258 197.92 60.2348 198.528 60.2348C198.939 60.2348 199.306 60.1395 199.628 59.9488C199.951 59.7508 200.204 59.4868 200.387 59.1568L200.992 59.5088C200.765 59.9488 200.431 60.2971 199.991 60.5538C199.551 60.8105 199.064 60.9388 198.528 60.9388ZM207.425 55.3068V60.8068H206.699V56.4178L204.774 59.5418H204.686L202.761 56.4178V60.8068H202.035V55.3068H202.871L204.73 58.3208L206.589 55.3068H207.425ZM213.573 60.1138C213.015 60.6638 212.333 60.9388 211.527 60.9388C210.72 60.9388 210.034 60.6638 209.47 60.1138C208.912 59.5565 208.634 58.8708 208.634 58.0568C208.634 57.2428 208.912 56.5608 209.47 56.0108C210.034 55.4535 210.72 55.1748 211.527 55.1748C212.333 55.1748 213.015 55.4535 213.573 56.0108C214.137 56.5608 214.42 57.2428 214.42 58.0568C214.42 58.8708 214.137 59.5565 213.573 60.1138ZM209.987 59.6078C210.405 60.0258 210.918 60.2348 211.527 60.2348C212.135 60.2348 212.649 60.0258 213.067 59.6078C213.485 59.1825 213.694 58.6655 213.694 58.0568C213.694 57.4481 213.485 56.9348 213.067 56.5168C212.649 56.0915 212.135 55.8788 211.527 55.8788C210.918 55.8788 210.405 56.0915 209.987 56.5168C209.569 56.9348 209.36 57.4481 209.36 58.0568C209.36 58.6655 209.569 59.1825 209.987 59.6078ZM221.618 60.8068H220.738L218.494 58.1558V60.8068H217.768V58.1558L215.524 60.8068H214.644L217.108 57.9468L214.754 55.3068H215.634L217.768 57.7488V55.3068H218.494V57.7488L220.628 55.3068H221.508L219.154 57.9468L221.618 60.8068ZM224.707 55.1748C225.521 55.1748 226.177 55.4645 226.676 56.0438C227.182 56.6158 227.435 57.2941 227.435 58.0788C227.435 58.1595 227.427 58.2731 227.413 58.4198H222.584C222.657 58.9771 222.892 59.4208 223.288 59.7508C223.691 60.0735 224.186 60.2348 224.773 60.2348C225.191 60.2348 225.55 60.1505 225.851 59.9818C226.159 59.8058 226.39 59.5785 226.544 59.2998L227.182 59.6738C226.94 60.0625 226.61 60.3705 226.192 60.5978C225.774 60.8251 225.297 60.9388 224.762 60.9388C223.896 60.9388 223.192 60.6675 222.65 60.1248C222.107 59.5821 221.836 58.8928 221.836 58.0568C221.836 57.2355 222.103 56.5498 222.639 55.9998C223.174 55.4498 223.863 55.1748 224.707 55.1748ZM224.707 55.8788C224.135 55.8788 223.654 56.0511 223.266 56.3958C222.884 56.7331 222.657 57.1731 222.584 57.7158H226.687C226.613 57.1365 226.39 56.6855 226.016 56.3628C225.642 56.0401 225.205 55.8788 224.707 55.8788ZM232.335 55.3068V56.0108H230.388V60.8068H229.662V56.0108H227.715V55.3068H232.335ZM235.546 55.1748C236.36 55.1748 237.016 55.4645 237.515 56.0438C238.021 56.6158 238.274 57.2941 238.274 58.0788C238.274 58.1595 238.266 58.2731 238.252 58.4198H233.423C233.496 58.9771 233.731 59.4208 234.127 59.7508C234.53 60.0735 235.025 60.2348 235.612 60.2348C236.03 60.2348 236.389 60.1505 236.69 59.9818C236.998 59.8058 237.229 59.5785 237.383 59.2998L238.021 59.6738C237.779 60.0625 237.449 60.3705 237.031 60.5978C236.613 60.8251 236.136 60.9388 235.601 60.9388C234.735 60.9388 234.031 60.6675 233.489 60.1248C232.946 59.5821 232.675 58.8928 232.675 58.0568C232.675 57.2355 232.942 56.5498 233.478 55.9998C234.013 55.4498 234.702 55.1748 235.546 55.1748ZM235.546 55.8788C234.974 55.8788 234.493 56.0511 234.105 56.3958C233.723 56.7331 233.496 57.1731 233.423 57.7158H237.526C237.452 57.1365 237.229 56.6855 236.855 56.3628C236.481 56.0401 236.044 55.8788 235.546 55.8788ZM14.9925 75.1138C14.4351 75.6638 13.7531 75.9388 12.9465 75.9388C12.1398 75.9388 11.4541 75.6638 10.8895 75.1138C10.3321 74.5565 10.0535 73.8708 10.0535 73.0568C10.0535 72.2428 10.3321 71.5608 10.8895 71.0108C11.4541 70.4535 12.1398 70.1748 12.9465 70.1748C13.7531 70.1748 14.4351 70.4535 14.9925 71.0108C15.5571 71.5608 15.8395 72.2428 15.8395 73.0568C15.8395 73.8708 15.5571 74.5565 14.9925 75.1138ZM11.4065 74.6078C11.8245 75.0258 12.3378 75.2348 12.9465 75.2348C13.5551 75.2348 14.0685 75.0258 14.4865 74.6078C14.9045 74.1825 15.1135 73.6655 15.1135 73.0568C15.1135 72.4481 14.9045 71.9348 14.4865 71.5168C14.0685 71.0915 13.5551 70.8788 12.9465 70.8788C12.3378 70.8788 11.8245 71.0915 11.4065 71.5168C10.9885 71.9348 10.7795 72.4481 10.7795 73.0568C10.7795 73.6655 10.9885 74.1825 11.4065 74.6078ZM21.5644 75.1028H22.4444V77.2808H21.7184V75.8068H17.0544V70.3068H17.7804V75.1028H20.8384V70.3068H21.5644V75.1028ZM25.8688 70.1748C26.6828 70.1748 27.3391 70.4645 27.8378 71.0438C28.3438 71.6158 28.5968 72.2941 28.5968 73.0788C28.5968 73.1595 28.5895 73.2731 28.5748 73.4198H23.7458C23.8191 73.9771 24.0538 74.4208 24.4498 74.7508C24.8531 75.0735 25.3481 75.2348 25.9348 75.2348C26.3528 75.2348 26.7121 75.1505 27.0128 74.9818C27.3208 74.8058 27.5518 74.5785 27.7058 74.2998L28.3438 74.6738C28.1018 75.0625 27.7718 75.3705 27.3538 75.5978C26.9358 75.8251 26.4591 75.9388 25.9238 75.9388C25.0585 75.9388 24.3545 75.6675 23.8118 75.1248C23.2691 74.5821 22.9978 73.8928 22.9978 73.0568C22.9978 72.2355 23.2655 71.5498 23.8008 70.9998C24.3361 70.4498 25.0255 70.1748 25.8688 70.1748ZM25.8688 70.8788C25.2968 70.8788 24.8165 71.0511 24.4278 71.3958C24.0465 71.7331 23.8191 72.1731 23.7458 72.7158H27.8488C27.7755 72.1365 27.5518 71.6855 27.1778 71.3628C26.8038 71.0401 26.3675 70.8788 25.8688 70.8788ZM33.6456 70.3068H34.3716V75.8068H33.6456V73.4088H30.4776V75.8068H29.7516V70.3068H30.4776V72.7048H33.6456V70.3068ZM39.9109 70.3068H40.5269V75.8068H39.8009V71.5718L36.5229 75.8068H35.9069V70.3068H36.6329V74.5418L39.9109 70.3068ZM46.0222 70.3068V71.0108H44.0752V75.8068H43.3492V71.0108H41.4022V70.3068H46.0222ZM49.1399 72.3968C49.6532 72.3968 50.0859 72.5581 50.4379 72.8808C50.7972 73.1961 50.9769 73.6031 50.9769 74.1018C50.9769 74.6005 50.7972 75.0111 50.4379 75.3338C50.0859 75.6491 49.6532 75.8068 49.1399 75.8068H46.9069V70.3068H47.6329V72.3968H49.1399ZM49.1399 75.1028C49.4479 75.1028 49.7082 75.0111 49.9209 74.8278C50.1409 74.6445 50.2509 74.4025 50.2509 74.1018C50.2509 73.8011 50.1409 73.5591 49.9209 73.3758C49.7082 73.1925 49.4479 73.1008 49.1399 73.1008H47.6329V75.1028H49.1399ZM59.4439 70.3068V75.8068H58.7179V71.0108H55.5499V75.8068H54.8239V70.3068H59.4439ZM63.9272 70.1748C64.7118 70.1748 65.3792 70.4535 65.9292 71.0108C66.4865 71.5681 66.7652 72.2501 66.7652 73.0568C66.7652 73.8635 66.4865 74.5455 65.9292 75.1028C65.3792 75.6601 64.7118 75.9388 63.9272 75.9388C62.9518 75.9388 62.2112 75.5355 61.7052 74.7288V78.0068H60.9792V70.3068H61.7052V71.3848C62.2112 70.5781 62.9518 70.1748 63.9272 70.1748ZM62.3322 74.6078C62.7502 75.0258 63.2635 75.2348 63.8722 75.2348C64.4808 75.2348 64.9942 75.0258 65.4122 74.6078C65.8302 74.1825 66.0392 73.6655 66.0392 73.0568C66.0392 72.4481 65.8302 71.9348 65.4122 71.5168C64.9942 71.0915 64.4808 70.8788 63.8722 70.8788C63.2635 70.8788 62.7502 71.0915 62.3322 71.5168C61.9142 71.9348 61.7052 72.4481 61.7052 73.0568C61.7052 73.6655 61.9142 74.1825 62.3322 74.6078ZM72.5813 75.1138C72.024 75.6638 71.342 75.9388 70.5353 75.9388C69.7287 75.9388 69.043 75.6638 68.4783 75.1138C67.921 74.5565 67.6423 73.8708 67.6423 73.0568C67.6423 72.2428 67.921 71.5608 68.4783 71.0108C69.043 70.4535 69.7287 70.1748 70.5353 70.1748C71.342 70.1748 72.024 70.4535 72.5813 71.0108C73.146 71.5608 73.4283 72.2428 73.4283 73.0568C73.4283 73.8708 73.146 74.5565 72.5813 75.1138ZM68.9953 74.6078C69.4133 75.0258 69.9267 75.2348 70.5353 75.2348C71.144 75.2348 71.6573 75.0258 72.0753 74.6078C72.4933 74.1825 72.7023 73.6655 72.7023 73.0568C72.7023 72.4481 72.4933 71.9348 72.0753 71.5168C71.6573 71.0915 71.144 70.8788 70.5353 70.8788C69.9267 70.8788 69.4133 71.0915 68.9953 71.5168C68.5773 71.9348 68.3683 72.4481 68.3683 73.0568C68.3683 73.6655 68.5773 74.1825 68.9953 74.6078ZM77.2062 75.9388C76.3776 75.9388 75.6882 75.6638 75.1382 75.1138C74.5882 74.5565 74.3132 73.8708 74.3132 73.0568C74.3132 72.2428 74.5882 71.5608 75.1382 71.0108C75.6882 70.4535 76.3776 70.1748 77.2062 70.1748C77.7489 70.1748 78.2366 70.3068 78.6692 70.5708C79.1019 70.8275 79.4172 71.1758 79.6152 71.6158L79.0212 71.9568C78.8746 71.6268 78.6362 71.3665 78.3062 71.1758C77.9836 70.9778 77.6169 70.8788 77.2062 70.8788C76.5976 70.8788 76.0842 71.0915 75.6662 71.5168C75.2482 71.9348 75.0392 72.4481 75.0392 73.0568C75.0392 73.6655 75.2482 74.1825 75.6662 74.6078C76.0842 75.0258 76.5976 75.2348 77.2062 75.2348C77.6169 75.2348 77.9836 75.1395 78.3062 74.9488C78.6289 74.7508 78.8819 74.4868 79.0652 74.1568L79.6702 74.5088C79.4429 74.9488 79.1092 75.2971 78.6692 75.5538C78.2292 75.8105 77.7416 75.9388 77.2062 75.9388ZM84.5651 70.3068V71.0108H82.6181V75.8068H81.8921V71.0108H79.9451V70.3068H84.5651ZM89.844 75.1138C89.2867 75.6638 88.6047 75.9388 87.798 75.9388C86.9914 75.9388 86.3057 75.6638 85.741 75.1138C85.1837 74.5565 84.905 73.8708 84.905 73.0568C84.905 72.2428 85.1837 71.5608 85.741 71.0108C86.3057 70.4535 86.9914 70.1748 87.798 70.1748C88.6047 70.1748 89.2867 70.4535 89.844 71.0108C90.4087 71.5608 90.691 72.2428 90.691 73.0568C90.691 73.8708 90.4087 74.5565 89.844 75.1138ZM86.258 74.6078C86.676 75.0258 87.1894 75.2348 87.798 75.2348C88.4067 75.2348 88.92 75.0258 89.338 74.6078C89.756 74.1825 89.965 73.6655 89.965 73.0568C89.965 72.4481 89.756 71.9348 89.338 71.5168C88.92 71.0915 88.4067 70.8788 87.798 70.8788C87.1894 70.8788 86.676 71.0915 86.258 71.5168C85.84 71.9348 85.631 72.4481 85.631 73.0568C85.631 73.6655 85.84 74.1825 86.258 74.6078ZM95.6511 70.3068V71.0108H93.7041V75.8068H92.9781V71.0108H91.0311V70.3068H95.6511ZM100.496 70.3068H101.266L98.9118 76.3128C98.6991 76.8555 98.3948 77.2808 97.9988 77.5888C97.6101 77.9041 97.1738 78.0435 96.6898 78.0068V77.3248C97.3498 77.3981 97.8521 77.0168 98.1968 76.1808L98.3398 75.8398L95.8758 70.3068H96.6458L98.7138 74.9158L100.496 70.3068ZM108.897 70.3068H109.513V75.8068H108.787V71.5718L105.509 75.8068H104.893V70.3068H105.619V74.5418L108.897 70.3068ZM117.759 70.3068H118.529L116.175 76.3128C115.962 76.8555 115.658 77.2808 115.262 77.5888C114.873 77.9041 114.437 78.0435 113.953 78.0068V77.3248C114.613 77.3981 115.115 77.0168 115.46 76.1808L115.603 75.8398L113.139 70.3068H113.909L115.977 74.9158L117.759 70.3068ZM123.693 75.1028H124.463V77.2808H123.737V75.8068H119.249V77.2808H118.523V75.1028H119.194C119.568 74.6115 119.755 73.9185 119.755 73.0238V70.3068H123.693V75.1028ZM120.074 75.1028H122.967V71.0108H120.481V73.0238C120.481 73.8671 120.345 74.5601 120.074 75.1028ZM129.955 75.1138C129.398 75.6638 128.716 75.9388 127.909 75.9388C127.103 75.9388 126.417 75.6638 125.852 75.1138C125.295 74.5565 125.016 73.8708 125.016 73.0568C125.016 72.2428 125.295 71.5608 125.852 71.0108C126.417 70.4535 127.103 70.1748 127.909 70.1748C128.716 70.1748 129.398 70.4535 129.955 71.0108C130.52 71.5608 130.802 72.2428 130.802 73.0568C130.802 73.8708 130.52 74.5565 129.955 75.1138ZM126.369 74.6078C126.787 75.0258 127.301 75.2348 127.909 75.2348C128.518 75.2348 129.031 75.0258 129.449 74.6078C129.867 74.1825 130.076 73.6655 130.076 73.0568C130.076 72.4481 129.867 71.9348 129.449 71.5168C129.031 71.0915 128.518 70.8788 127.909 70.8788C127.301 70.8788 126.787 71.0915 126.369 71.5168C125.951 71.9348 125.742 72.4481 125.742 73.0568C125.742 73.6655 125.951 74.1825 126.369 74.6078ZM134.459 75.9388C133.667 75.9388 133.007 75.6785 132.479 75.1578C131.951 74.6298 131.687 73.9478 131.687 73.1118C131.687 72.1731 131.827 71.4545 132.105 70.9558C132.384 70.4498 132.949 69.9915 133.799 69.5808C133.961 69.5001 134.173 69.4048 134.437 69.2948C134.709 69.1848 134.91 69.0968 135.042 69.0308C135.182 68.9648 135.332 68.8805 135.493 68.7778C135.655 68.6678 135.776 68.5468 135.856 68.4148C135.937 68.2828 135.988 68.1251 136.01 67.9418L136.582 68.2718C136.553 68.4478 136.494 68.6128 136.406 68.7668C136.318 68.9208 136.227 69.0455 136.131 69.1408C136.043 69.2361 135.9 69.3425 135.702 69.4598C135.512 69.5698 135.361 69.6505 135.251 69.7018C135.149 69.7458 134.965 69.8228 134.701 69.9328C134.445 70.0428 134.272 70.1161 134.184 70.1528C133.671 70.3728 133.293 70.6038 133.051 70.8458C132.809 71.0805 132.637 71.3885 132.534 71.7698C132.784 71.4398 133.099 71.1978 133.48 71.0438C133.869 70.8825 134.247 70.8018 134.613 70.8018C135.347 70.8018 135.952 71.0438 136.428 71.5278C136.912 72.0045 137.154 72.6168 137.154 73.3648C137.154 74.1055 136.898 74.7215 136.384 75.2128C135.878 75.6968 135.237 75.9388 134.459 75.9388ZM134.459 75.2128C135.031 75.2128 135.501 75.0405 135.867 74.6958C136.241 74.3438 136.428 73.9001 136.428 73.3648C136.428 72.8221 136.252 72.3785 135.9 72.0338C135.556 71.6818 135.094 71.5058 134.514 71.5058C133.994 71.5058 133.521 71.6708 133.095 72.0008C132.67 72.3235 132.457 72.7561 132.457 73.2988C132.457 73.8561 132.648 74.3145 133.029 74.6738C133.418 75.0331 133.895 75.2128 134.459 75.2128ZM140.821 75.9388C139.993 75.9388 139.303 75.6638 138.753 75.1138C138.203 74.5565 137.928 73.8708 137.928 73.0568C137.928 72.2428 138.203 71.5608 138.753 71.0108C139.303 70.4535 139.993 70.1748 140.821 70.1748C141.364 70.1748 141.852 70.3068 142.284 70.5708C142.717 70.8275 143.032 71.1758 143.23 71.6158L142.636 71.9568C142.49 71.6268 142.251 71.3665 141.921 71.1758C141.599 70.9778 141.232 70.8788 140.821 70.8788C140.213 70.8788 139.699 71.0915 139.281 71.5168C138.863 71.9348 138.654 72.4481 138.654 73.0568C138.654 73.6655 138.863 74.1825 139.281 74.6078C139.699 75.0258 140.213 75.2348 140.821 75.2348C141.232 75.2348 141.599 75.1395 141.921 74.9488C142.244 74.7508 142.497 74.4868 142.68 74.1568L143.285 74.5088C143.058 74.9488 142.724 75.2971 142.284 75.5538C141.844 75.8105 141.357 75.9388 140.821 75.9388ZM148.18 70.3068V71.0108H146.233V75.8068H145.507V71.0108H143.56V70.3068H148.18ZM152.563 72.9798C153.164 73.1998 153.465 73.6288 153.465 74.2668C153.465 74.7141 153.315 75.0845 153.014 75.3778C152.721 75.6638 152.295 75.8068 151.738 75.8068H149.065V70.3068H151.518C152.053 70.3068 152.468 70.4461 152.761 70.7248C153.054 70.9961 153.201 71.3481 153.201 71.7808C153.201 72.3308 152.988 72.7305 152.563 72.9798ZM151.518 71.0108H149.791V72.6828H151.518C152.156 72.6828 152.475 72.3968 152.475 71.8248C152.475 71.5681 152.391 71.3701 152.222 71.2308C152.061 71.0841 151.826 71.0108 151.518 71.0108ZM151.738 75.1028C152.061 75.1028 152.306 75.0258 152.475 74.8718C152.651 74.7178 152.739 74.5015 152.739 74.2228C152.739 73.9661 152.651 73.7645 152.475 73.6178C152.306 73.4638 152.061 73.3868 151.738 73.3868H149.791V75.1028H151.738ZM159.174 75.1138C158.617 75.6638 157.935 75.9388 157.128 75.9388C156.321 75.9388 155.636 75.6638 155.071 75.1138C154.514 74.5565 154.235 73.8708 154.235 73.0568C154.235 72.2428 154.514 71.5608 155.071 71.0108C155.636 70.4535 156.321 70.1748 157.128 70.1748C157.935 70.1748 158.617 70.4535 159.174 71.0108C159.739 71.5608 160.021 72.2428 160.021 73.0568C160.021 73.8708 159.739 74.5565 159.174 75.1138ZM155.588 74.6078C156.006 75.0258 156.519 75.2348 157.128 75.2348C157.737 75.2348 158.25 75.0258 158.668 74.6078C159.086 74.1825 159.295 73.6655 159.295 73.0568C159.295 72.4481 159.086 71.9348 158.668 71.5168C158.25 71.0915 157.737 70.8788 157.128 70.8788C156.519 70.8788 156.006 71.0915 155.588 71.5168C155.17 71.9348 154.961 72.4481 154.961 73.0568C154.961 73.6655 155.17 74.1825 155.588 74.6078ZM166.549 75.9388C165.72 75.9388 165.031 75.6638 164.481 75.1138C163.931 74.5565 163.656 73.8708 163.656 73.0568C163.656 72.2428 163.931 71.5608 164.481 71.0108C165.031 70.4535 165.72 70.1748 166.549 70.1748C167.092 70.1748 167.579 70.3068 168.012 70.5708C168.445 70.8275 168.76 71.1758 168.958 71.6158L168.364 71.9568C168.217 71.6268 167.979 71.3665 167.649 71.1758C167.326 70.9778 166.96 70.8788 166.549 70.8788C165.94 70.8788 165.427 71.0915 165.009 71.5168C164.591 71.9348 164.382 72.4481 164.382 73.0568C164.382 73.6655 164.591 74.1825 165.009 74.6078C165.427 75.0258 165.94 75.2348 166.549 75.2348C166.96 75.2348 167.326 75.1395 167.649 74.9488C167.972 74.7508 168.225 74.4868 168.408 74.1568L169.013 74.5088C168.786 74.9488 168.452 75.2971 168.012 75.5538C167.572 75.8105 167.084 75.9388 166.549 75.9388ZM172.543 70.1748C173.357 70.1748 174.013 70.4645 174.512 71.0438C175.018 71.6158 175.271 72.2941 175.271 73.0788C175.271 73.1595 175.263 73.2731 175.249 73.4198H170.42C170.493 73.9771 170.728 74.4208 171.124 74.7508C171.527 75.0735 172.022 75.2348 172.609 75.2348C173.027 75.2348 173.386 75.1505 173.687 74.9818C173.995 74.8058 174.226 74.5785 174.38 74.2998L175.018 74.6738C174.776 75.0625 174.446 75.3705 174.028 75.5978C173.61 75.8251 173.133 75.9388 172.598 75.9388C171.732 75.9388 171.028 75.6675 170.486 75.1248C169.943 74.5821 169.672 73.8928 169.672 73.0568C169.672 72.2355 169.939 71.5498 170.475 70.9998C171.01 70.4498 171.699 70.1748 172.543 70.1748ZM172.543 70.8788C171.971 70.8788 171.49 71.0511 171.102 71.3958C170.72 71.7331 170.493 72.1731 170.42 72.7158H174.523C174.449 72.1365 174.226 71.6855 173.852 71.3628C173.478 71.0401 173.041 70.8788 172.543 70.8788ZM179.373 70.1748C180.158 70.1748 180.825 70.4535 181.375 71.0108C181.933 71.5681 182.211 72.2501 182.211 73.0568C182.211 73.8635 181.933 74.5455 181.375 75.1028C180.825 75.6601 180.158 75.9388 179.373 75.9388C178.398 75.9388 177.657 75.5355 177.151 74.7288V78.0068H176.425V70.3068H177.151V71.3848C177.657 70.5781 178.398 70.1748 179.373 70.1748ZM177.778 74.6078C178.196 75.0258 178.71 75.2348 179.318 75.2348C179.927 75.2348 180.44 75.0258 180.858 74.6078C181.276 74.1825 181.485 73.6655 181.485 73.0568C181.485 72.4481 181.276 71.9348 180.858 71.5168C180.44 71.0915 179.927 70.8788 179.318 70.8788C178.71 70.8788 178.196 71.0915 177.778 71.5168C177.36 71.9348 177.151 72.4481 177.151 73.0568C177.151 73.6655 177.36 74.1825 177.778 74.6078ZM186.917 72.9798C187.518 73.1998 187.819 73.6288 187.819 74.2668C187.819 74.7141 187.668 75.0845 187.368 75.3778C187.074 75.6638 186.649 75.8068 186.092 75.8068H183.419V70.3068H185.872C186.407 70.3068 186.821 70.4461 187.115 70.7248C187.408 70.9961 187.555 71.3481 187.555 71.7808C187.555 72.3308 187.342 72.7305 186.917 72.9798ZM185.872 71.0108H184.145V72.6828H185.872C186.51 72.6828 186.829 72.3968 186.829 71.8248C186.829 71.5681 186.744 71.3701 186.576 71.2308C186.414 71.0841 186.18 71.0108 185.872 71.0108ZM186.092 75.1028C186.414 75.1028 186.66 75.0258 186.829 74.8718C187.005 74.7178 187.093 74.5015 187.093 74.2228C187.093 73.9661 187.005 73.7645 186.829 73.6178C186.66 73.4638 186.414 73.3868 186.092 73.3868H184.145V75.1028H186.092ZM192.923 70.3068H193.539V75.8068H192.813V71.5718L189.535 75.8068H188.919V70.3068H189.645V74.5418L192.923 70.3068ZM197.637 75.9388C196.808 75.9388 196.119 75.6638 195.569 75.1138C195.019 74.5565 194.744 73.8708 194.744 73.0568C194.744 72.2428 195.019 71.5608 195.569 71.0108C196.119 70.4535 196.808 70.1748 197.637 70.1748C198.18 70.1748 198.667 70.3068 199.1 70.5708C199.533 70.8275 199.848 71.1758 200.046 71.6158L199.452 71.9568C199.305 71.6268 199.067 71.3665 198.737 71.1758C198.414 70.9778 198.048 70.8788 197.637 70.8788C197.028 70.8788 196.515 71.0915 196.097 71.5168C195.679 71.9348 195.47 72.4481 195.47 73.0568C195.47 73.6655 195.679 74.1825 196.097 74.6078C196.515 75.0258 197.028 75.2348 197.637 75.2348C198.048 75.2348 198.414 75.1395 198.737 74.9488C199.06 74.7508 199.313 74.4868 199.496 74.1568L200.101 74.5088C199.874 74.9488 199.54 75.2971 199.1 75.5538C198.66 75.8105 198.172 75.9388 197.637 75.9388ZM205.82 70.3068H206.546V75.8068H205.82V74.7288C205.314 75.5355 204.573 75.9388 203.598 75.9388C202.813 75.9388 202.142 75.6601 201.585 75.1028C201.035 74.5455 200.76 73.8635 200.76 73.0568C200.76 72.2501 201.035 71.5681 201.585 71.0108C202.142 70.4535 202.813 70.1748 203.598 70.1748C204.573 70.1748 205.314 70.5781 205.82 71.3848V70.3068ZM202.113 74.6078C202.531 75.0258 203.044 75.2348 203.653 75.2348C204.261 75.2348 204.775 75.0258 205.193 74.6078C205.611 74.1825 205.82 73.6655 205.82 73.0568C205.82 72.4481 205.611 71.9348 205.193 71.5168C204.775 71.0915 204.261 70.8788 203.653 70.8788C203.044 70.8788 202.531 71.0915 202.113 71.5168C201.695 71.9348 201.486 72.4481 201.486 73.0568C201.486 73.6655 201.695 74.1825 202.113 74.6078Z" fill="#1D2530"/>
<path d="M247.23 73.6159H247.614V78.1022H247.166V74.1094L246.159 74.4106L246.044 74.0261L247.23 73.6159ZM249.408 73.6159H249.792V78.1022H249.344V74.1094L248.338 74.4106L248.222 74.0261L249.408 73.6159ZM251.291 75.4361C251.223 75.5044 251.139 75.5386 251.041 75.5386C250.943 75.5386 250.86 75.5044 250.791 75.4361C250.723 75.3677 250.689 75.2844 250.689 75.1861C250.689 75.0878 250.723 75.0045 250.791 74.9361C250.86 74.8678 250.943 74.8336 251.041 74.8336C251.139 74.8336 251.223 74.8678 251.291 74.9361C251.36 75.0045 251.394 75.0878 251.394 75.1861C251.394 75.2844 251.36 75.3677 251.291 75.4361ZM251.291 78.0638C251.223 78.1321 251.139 78.1663 251.041 78.1663C250.943 78.1663 250.86 78.1321 250.791 78.0638C250.723 77.9954 250.689 77.9121 250.689 77.8138C250.689 77.7156 250.723 77.6322 250.791 77.5639C250.86 77.4955 250.943 77.4613 251.041 77.4613C251.139 77.4613 251.223 77.4955 251.291 77.5639C251.36 77.6322 251.394 77.7156 251.394 77.8138C251.394 77.9121 251.36 77.9954 251.291 78.0638ZM253.063 73.6159H253.448V78.1022H252.999V74.1094L251.993 74.4106L251.877 74.0261L253.063 73.6159ZM257.228 77.5511C256.933 77.9698 256.517 78.1791 255.978 78.1791C255.44 78.1791 255.021 77.9698 254.722 77.5511C254.427 77.1281 254.28 76.5641 254.28 75.8591C254.28 75.1541 254.427 74.5922 254.722 74.1735C255.021 73.7505 255.44 73.539 255.978 73.539C256.517 73.539 256.933 73.7505 257.228 74.1735C257.527 74.5922 257.677 75.1541 257.677 75.8591C257.677 76.5641 257.527 77.1281 257.228 77.5511ZM255.055 77.2498C255.277 77.5788 255.585 77.7433 255.978 77.7433C256.371 77.7433 256.677 77.5788 256.895 77.2498C257.117 76.9208 257.228 76.4572 257.228 75.8591C257.228 75.2609 257.117 74.7973 256.895 74.4683C256.677 74.1393 256.371 73.9748 255.978 73.9748C255.585 73.9748 255.277 74.1393 255.055 74.4683C254.837 74.7973 254.728 75.2609 254.728 75.8591C254.728 76.4572 254.837 76.9208 255.055 77.2498Z" fill="#8E8E93"/>
</svg>
