<svg width="298" height="34" viewBox="0 0 298 34" fill="none" xmlns="http://www.w3.org/2000/svg">
<path d="M0 0H293C295.761 0 298 2.23858 298 5V29C298 31.7614 295.761 34 293 34H5C2.23858 34 0 31.7614 0 29V0Z" fill="#EFFCDE"/>
<path d="M18.2331 20.8967L17.4665 18.8682H13.5511L12.7845 20.8967H11.9118L15.0842 12.6412H15.9333L19.1058 20.8967H18.2331ZM13.8459 18.0898H17.1717L15.5088 13.6672L13.8459 18.0898ZM27.2419 14.9999V20.8967H26.4636V18.6323H25.4493L23.6331 20.8967H22.6425L24.5058 18.6087C24.0341 18.538 23.6449 18.3414 23.3383 18.0191C23.0317 17.6967 22.8783 17.2996 22.8783 16.8279C22.8783 16.2933 23.067 15.8569 23.4444 15.5188C23.8297 15.1729 24.2975 14.9999 24.8479 14.9999H27.2419ZM24.8479 17.9011H26.4636V15.7547H24.8479C24.5176 15.7547 24.2346 15.853 23.9987 16.0495C23.7707 16.2461 23.6567 16.5055 23.6567 16.8279C23.6567 17.1503 23.7707 17.4097 23.9987 17.6063C24.2346 17.8028 24.5176 17.9011 24.8479 17.9011ZM37.6202 14.9999V20.8967H36.8419V16.1911L34.778 19.5404H34.6837L32.6198 16.1911V20.8967H31.8414V14.9999H32.7377L34.7308 18.2313L36.7239 14.9999H37.6202ZM44.2114 20.1537C43.6139 20.7434 42.8827 21.0382 42.0178 21.0382C41.153 21.0382 40.4178 20.7434 39.8124 20.1537C39.2149 19.5561 38.9161 18.821 38.9161 17.9483C38.9161 17.0756 39.2149 16.3444 39.8124 15.7547C40.4178 15.1572 41.153 14.8584 42.0178 14.8584C42.8827 14.8584 43.6139 15.1572 44.2114 15.7547C44.8168 16.3444 45.1195 17.0756 45.1195 17.9483C45.1195 18.821 44.8168 19.5561 44.2114 20.1537ZM40.3667 19.6112C40.8149 20.0593 41.3653 20.2834 42.0178 20.2834C42.6704 20.2834 43.2208 20.0593 43.6689 19.6112C44.1171 19.1552 44.3412 18.6009 44.3412 17.9483C44.3412 17.2957 44.1171 16.7454 43.6689 16.2972C43.2208 15.8412 42.6704 15.6132 42.0178 15.6132C41.3653 15.6132 40.8149 15.8412 40.3667 16.2972C39.9186 16.7454 39.6945 17.2957 39.6945 17.9483C39.6945 18.6009 39.9186 19.1552 40.3667 19.6112ZM50.196 14.9999V15.7547H47.2004V20.8967H46.4221V14.9999H50.196ZM55.7468 14.9999H56.5723L54.0485 21.4392C53.8205 22.021 53.4942 22.477 53.0696 22.8072C52.6529 23.1453 52.1851 23.2947 51.6662 23.2554V22.5242C52.3738 22.6028 52.9124 22.194 53.2819 21.2976L53.4352 20.932L50.7935 14.9999H51.619L53.8362 19.9414L55.7468 14.9999ZM65.4147 14.9999V20.8967H64.6363V15.7547H61.2398V20.8967H60.4614V14.9999H65.4147ZM72.0022 20.1537C71.4047 20.7434 70.6735 21.0382 69.8086 21.0382C68.9437 21.0382 68.2086 20.7434 67.6032 20.1537C67.0057 19.5561 66.7069 18.821 66.7069 17.9483C66.7069 17.0756 67.0057 16.3444 67.6032 15.7547C68.2086 15.1572 68.9437 14.8584 69.8086 14.8584C70.6735 14.8584 71.4047 15.1572 72.0022 15.7547C72.6076 16.3444 72.9103 17.0756 72.9103 17.9483C72.9103 18.821 72.6076 19.5561 72.0022 20.1537ZM68.1575 19.6112C68.6057 20.0593 69.156 20.2834 69.8086 20.2834C70.4612 20.2834 71.0115 20.0593 71.4597 19.6112C71.9078 19.1552 72.1319 18.6009 72.1319 17.9483C72.1319 17.2957 71.9078 16.7454 71.4597 16.2972C71.0115 15.8412 70.4612 15.6132 69.8086 15.6132C69.156 15.6132 68.6057 15.8412 68.1575 16.2972C67.7094 16.7454 67.4853 17.2957 67.4853 17.9483C67.4853 18.6009 67.7094 19.1552 68.1575 19.6112ZM78.9358 20.1419H79.7613V22.477H78.9829V20.8967H74.1712V22.477H73.3928V20.1419H74.1122C74.5132 19.6151 74.7137 18.8721 74.7137 17.9129V14.9999H78.9358V20.1419ZM75.0557 20.1419H78.1574V15.7547H75.4921V17.9129C75.4921 18.8171 75.3466 19.5601 75.0557 20.1419ZM85.7034 20.8967H84.6656L81.7172 18.0544V20.8967H80.9388V14.9999H81.7172V17.6063L84.524 14.9999H85.5855L82.5427 17.8304L85.7034 20.8967ZM91.6018 14.9999V20.8967H90.8234V15.7547H88.1581V18.3846C88.1581 19.3674 87.9694 20.0436 87.592 20.4131C87.2225 20.7827 86.7114 20.9438 86.0589 20.8967V20.1655C86.507 20.2126 86.8372 20.1065 87.0495 19.847C87.2697 19.5876 87.3797 19.1001 87.3797 18.3846V14.9999H91.6018ZM98.2864 14.8584C99.1513 14.8584 99.8825 15.1572 100.48 15.7547C101.085 16.3444 101.388 17.0756 101.388 17.9483C101.388 18.821 101.085 19.5561 100.48 20.1537C99.8825 20.7434 99.1513 21.0382 98.2864 21.0382C97.4923 21.0382 96.8083 20.7827 96.2344 20.2716C95.6683 19.7527 95.342 19.1041 95.2555 18.3257H94.029V20.8967H93.2506V14.9999H94.029V17.5709H95.2555C95.342 16.7925 95.6683 16.1478 96.2344 15.6368C96.8083 15.1178 97.4923 14.8584 98.2864 14.8584ZM96.6353 19.6112C97.0835 20.0593 97.6339 20.2834 98.2864 20.2834C98.939 20.2834 99.4894 20.0593 99.9375 19.6112C100.386 19.1552 100.61 18.6009 100.61 17.9483C100.61 17.2957 100.386 16.7454 99.9375 16.2972C99.4894 15.8412 98.939 15.6132 98.2864 15.6132C97.6339 15.6132 97.0835 15.8412 96.6353 16.2972C96.1872 16.7454 95.9631 17.2957 95.9631 17.9483C95.9631 18.6009 96.1872 19.1552 96.6353 19.6112ZM106.389 14.9999H107.167V20.8967H106.389V18.6559C105.933 18.8918 105.371 19.0097 104.703 19.0097C103.932 19.0097 103.342 18.8328 102.934 18.479C102.533 18.1173 102.332 17.5866 102.332 16.8869V14.9999H103.11V16.8869C103.11 17.3822 103.24 17.7399 103.5 17.9601C103.759 18.1724 104.152 18.2785 104.679 18.2785C105.292 18.2785 105.862 18.1645 106.389 17.9365V14.9999ZM113.115 14.9999H113.775V20.8967H112.997V16.3562L109.482 20.8967H108.822V14.9999H109.6V19.5404L113.115 14.9999ZM119.667 14.9999V15.7547H117.579V20.8967H116.801V15.7547H114.713V14.9999H119.667ZM123.009 17.2407C123.56 17.2407 124.024 17.4136 124.401 17.7596C124.786 18.0977 124.979 18.534 124.979 19.0687C124.979 19.6033 124.786 20.0436 124.401 20.3895C124.024 20.7276 123.56 20.8967 123.009 20.8967H120.615V14.9999H121.394V17.2407H123.009ZM123.009 20.1419C123.34 20.1419 123.619 20.0436 123.847 19.847C124.083 19.6505 124.2 19.391 124.2 19.0687C124.2 18.7463 124.083 18.4869 123.847 18.2903C123.619 18.0937 123.34 17.9955 123.009 17.9955H121.394V20.1419H123.009ZM133.278 14.9999H134.057V20.8967H133.278V18.3257H129.882V20.8967H129.103V14.9999H129.882V17.5709H133.278V14.9999ZM138.427 14.8584C139.3 14.8584 140.003 15.169 140.538 15.7901C141.08 16.4033 141.352 17.1306 141.352 17.9719C141.352 18.0584 141.344 18.1802 141.328 18.3375H136.151C136.229 18.935 136.481 19.4107 136.906 19.7645C137.338 20.1104 137.869 20.2834 138.498 20.2834C138.946 20.2834 139.331 20.193 139.653 20.0122C139.984 19.8235 140.231 19.5797 140.396 19.281L141.08 19.6819C140.821 20.0986 140.467 20.4289 140.019 20.6726C139.571 20.9163 139.06 21.0382 138.486 21.0382C137.558 21.0382 136.803 20.7473 136.222 20.1655C135.64 19.5837 135.349 18.8446 135.349 17.9483C135.349 17.0677 135.636 16.3326 136.21 15.7429C136.784 15.1532 137.523 14.8584 138.427 14.8584ZM138.427 15.6132C137.814 15.6132 137.299 15.7979 136.882 16.1675C136.473 16.5291 136.229 17.0009 136.151 17.5827H140.55C140.471 16.9616 140.231 16.478 139.83 16.1321C139.429 15.7861 138.962 15.6132 138.427 15.6132ZM145.338 21.0382C144.449 21.0382 143.71 20.7434 143.121 20.1537C142.531 19.5561 142.236 18.821 142.236 17.9483C142.236 17.0756 142.531 16.3444 143.121 15.7547C143.71 15.1572 144.449 14.8584 145.338 14.8584C145.92 14.8584 146.442 14.9999 146.906 15.283C147.37 15.5581 147.708 15.9316 147.921 16.4033L147.284 16.7689C147.126 16.4151 146.871 16.136 146.517 15.9316C146.171 15.7193 145.778 15.6132 145.338 15.6132C144.685 15.6132 144.135 15.8412 143.687 16.2972C143.239 16.7454 143.014 17.2957 143.014 17.9483C143.014 18.6009 143.239 19.1552 143.687 19.6112C144.135 20.0593 144.685 20.2834 145.338 20.2834C145.778 20.2834 146.171 20.1812 146.517 19.9768C146.863 19.7645 147.134 19.4814 147.331 19.1276L147.98 19.505C147.736 19.9768 147.378 20.3502 146.906 20.6254C146.435 20.9006 145.912 21.0382 145.338 21.0382ZM153.862 20.8967H152.824L149.875 18.0544V20.8967H149.097V14.9999H149.875V17.6063L152.682 14.9999H153.744L150.701 17.8304L153.862 20.8967ZM159.279 20.1537C158.681 20.7434 157.95 21.0382 157.085 21.0382C156.22 21.0382 155.485 20.7434 154.88 20.1537C154.282 19.5561 153.984 18.821 153.984 17.9483C153.984 17.0756 154.282 16.3444 154.88 15.7547C155.485 15.1572 156.22 14.8584 157.085 14.8584C157.95 14.8584 158.681 15.1572 159.279 15.7547C159.884 16.3444 160.187 17.0756 160.187 17.9483C160.187 18.821 159.884 19.5561 159.279 20.1537ZM155.434 19.6112C155.882 20.0593 156.433 20.2834 157.085 20.2834C157.738 20.2834 158.288 20.0593 158.736 19.6112C159.184 19.1552 159.409 18.6009 159.409 17.9483C159.409 17.2957 159.184 16.7454 158.736 16.2972C158.288 15.8412 157.738 15.6132 157.085 15.6132C156.433 15.6132 155.882 15.8412 155.434 16.2972C154.986 16.7454 154.762 17.2957 154.762 17.9483C154.762 18.6009 154.986 19.1552 155.434 19.6112ZM166.094 14.9999V20.8967H165.316V15.7547H162.651V18.3846C162.651 19.3674 162.462 20.0436 162.085 20.4131C161.715 20.7827 161.204 20.9438 160.551 20.8967V20.1655C161 20.2126 161.33 20.1065 161.542 19.847C161.762 19.5876 161.872 19.1001 161.872 18.3846V14.9999H166.094ZM170.137 17.2407C170.688 17.2407 171.152 17.4136 171.529 17.7596C171.914 18.0977 172.107 18.534 172.107 19.0687C172.107 19.6033 171.914 20.0436 171.529 20.3895C171.152 20.7276 170.688 20.8967 170.137 20.8967H167.743V14.9999H168.522V17.2407H170.137ZM170.137 20.1419C170.468 20.1419 170.747 20.0436 170.975 19.847C171.211 19.6505 171.328 19.391 171.328 19.0687C171.328 18.7463 171.211 18.4869 170.975 18.2903C170.747 18.0937 170.468 17.9955 170.137 17.9955H168.522V20.1419H170.137ZM178.048 20.8967H177.01L174.061 18.0544V20.8967H173.283V14.9999H174.061V17.6063L176.868 14.9999H177.93L174.887 17.8304L178.048 20.8967ZM183.465 20.1537C182.867 20.7434 182.136 21.0382 181.271 21.0382C180.406 21.0382 179.671 20.7434 179.066 20.1537C178.468 19.5561 178.169 18.821 178.169 17.9483C178.169 17.0756 178.468 16.3444 179.066 15.7547C179.671 15.1572 180.406 14.8584 181.271 14.8584C182.136 14.8584 182.867 15.1572 183.465 15.7547C184.07 16.3444 184.373 17.0756 184.373 17.9483C184.373 18.821 184.07 19.5561 183.465 20.1537ZM179.62 19.6112C180.068 20.0593 180.619 20.2834 181.271 20.2834C181.924 20.2834 182.474 20.0593 182.922 19.6112C183.37 19.1552 183.594 18.6009 183.594 17.9483C183.594 17.2957 183.37 16.7454 182.922 16.2972C182.474 15.8412 181.924 15.6132 181.271 15.6132C180.619 15.6132 180.068 15.8412 179.62 16.2972C179.172 16.7454 178.948 17.2957 178.948 17.9483C178.948 18.6009 179.172 19.1552 179.62 19.6112ZM193.695 14.9999H194.473V20.8967H193.695V19.7409C193.152 20.6058 192.358 21.0382 191.313 21.0382C190.471 21.0382 189.752 20.7394 189.154 20.1419C188.565 19.5443 188.27 18.8131 188.27 17.9483C188.27 17.0834 188.565 16.3522 189.154 15.7547C189.752 15.1572 190.471 14.8584 191.313 14.8584C192.358 14.8584 193.152 15.2908 193.695 16.1557V14.9999ZM189.721 19.6112C190.169 20.0593 190.719 20.2834 191.372 20.2834C192.024 20.2834 192.575 20.0593 193.023 19.6112C193.471 19.1552 193.695 18.6009 193.695 17.9483C193.695 17.2957 193.471 16.7454 193.023 16.2972C192.575 15.8412 192.024 15.6132 191.372 15.6132C190.719 15.6132 190.169 15.8412 189.721 16.2972C189.272 16.7454 189.048 17.2957 189.048 17.9483C189.048 18.6009 189.272 19.1552 189.721 19.6112ZM198.869 21.0382C197.981 21.0382 197.242 20.7434 196.652 20.1537C196.062 19.5561 195.768 18.821 195.768 17.9483C195.768 17.0756 196.062 16.3444 196.652 15.7547C197.242 15.1572 197.981 14.8584 198.869 14.8584C199.451 14.8584 199.974 14.9999 200.438 15.283C200.902 15.5581 201.24 15.9316 201.452 16.4033L200.815 16.7689C200.658 16.4151 200.402 16.136 200.049 15.9316C199.703 15.7193 199.31 15.6132 198.869 15.6132C198.217 15.6132 197.666 15.8412 197.218 16.2972C196.77 16.7454 196.546 17.2957 196.546 17.9483C196.546 18.6009 196.77 19.1552 197.218 19.6112C197.666 20.0593 198.217 20.2834 198.869 20.2834C199.31 20.2834 199.703 20.1812 200.049 19.9768C200.395 19.7645 200.666 19.4814 200.862 19.1276L201.511 19.505C201.267 19.9768 200.91 20.3502 200.438 20.6254C199.966 20.9006 199.443 21.0382 198.869 21.0382ZM205.319 21.0382C204.43 21.0382 203.691 20.7434 203.102 20.1537C202.512 19.5561 202.217 18.821 202.217 17.9483C202.217 17.0756 202.512 16.3444 203.102 15.7547C203.691 15.1572 204.43 14.8584 205.319 14.8584C205.901 14.8584 206.424 14.9999 206.887 15.283C207.351 15.5581 207.689 15.9316 207.902 16.4033L207.265 16.7689C207.108 16.4151 206.852 16.136 206.498 15.9316C206.152 15.7193 205.759 15.6132 205.319 15.6132C204.666 15.6132 204.116 15.8412 203.668 16.2972C203.22 16.7454 202.996 17.2957 202.996 17.9483C202.996 18.6009 203.22 19.1552 203.668 19.6112C204.116 20.0593 204.666 20.2834 205.319 20.2834C205.759 20.2834 206.152 20.1812 206.498 19.9768C206.844 19.7645 207.115 19.4814 207.312 19.1276L207.961 19.505C207.717 19.9768 207.359 20.3502 206.887 20.6254C206.416 20.9006 205.893 21.0382 205.319 21.0382ZM213.371 14.9999H214.031V20.8967H213.253V16.3562L209.739 20.8967H209.078V14.9999H209.856V19.5404L213.371 14.9999ZM218.425 21.0382C217.537 21.0382 216.798 20.7434 216.208 20.1537C215.618 19.5561 215.324 18.821 215.324 17.9483C215.324 17.0756 215.618 16.3444 216.208 15.7547C216.798 15.1572 217.537 14.8584 218.425 14.8584C219.007 14.8584 219.53 14.9999 219.994 15.283C220.458 15.5581 220.796 15.9316 221.008 16.4033L220.371 16.7689C220.214 16.4151 219.958 16.136 219.605 15.9316C219.259 15.7193 218.866 15.6132 218.425 15.6132C217.773 15.6132 217.222 15.8412 216.774 16.2972C216.326 16.7454 216.102 17.2957 216.102 17.9483C216.102 18.6009 216.326 19.1552 216.774 19.6112C217.222 20.0593 217.773 20.2834 218.425 20.2834C218.866 20.2834 219.259 20.1812 219.605 19.9768C219.951 19.7645 220.222 19.4814 220.418 19.1276L221.067 19.505C220.823 19.9768 220.466 20.3502 219.994 20.6254C219.522 20.9006 218.999 21.0382 218.425 21.0382ZM226.315 14.9999V15.7547H224.228V20.8967H223.449V15.7547H221.362V14.9999H226.315ZM229.758 14.8584C230.63 14.8584 231.334 15.169 231.869 15.7901C232.411 16.4033 232.682 17.1306 232.682 17.9719C232.682 18.0584 232.675 18.1802 232.659 18.3375H227.481C227.56 18.935 227.812 19.4107 228.236 19.7645C228.669 20.1104 229.199 20.2834 229.828 20.2834C230.276 20.2834 230.662 20.193 230.984 20.0122C231.314 19.8235 231.562 19.5797 231.727 19.281L232.411 19.6819C232.152 20.0986 231.798 20.4289 231.35 20.6726C230.902 20.9163 230.39 21.0382 229.817 21.0382C228.889 21.0382 228.134 20.7473 227.552 20.1655C226.97 19.5837 226.679 18.8446 226.679 17.9483C226.679 17.0677 226.966 16.3326 227.54 15.7429C228.114 15.1532 228.853 14.8584 229.758 14.8584ZM229.758 15.6132C229.144 15.6132 228.629 15.7979 228.213 16.1675C227.804 16.5291 227.56 17.0009 227.481 17.5827H231.88C231.802 16.9616 231.562 16.478 231.161 16.1321C230.76 15.7861 230.292 15.6132 229.758 15.6132ZM238.095 14.9999H238.874V20.8967H238.095V18.3257H234.699V20.8967H233.921V14.9999H234.699V17.5709H238.095V14.9999ZM244.765 14.9999V15.7547H242.678V20.8967H241.9V15.7547H239.812V14.9999H244.765ZM250.425 20.1537C249.828 20.7434 249.096 21.0382 248.232 21.0382C247.367 21.0382 246.632 20.7434 246.026 20.1537C245.429 19.5561 245.13 18.821 245.13 17.9483C245.13 17.0756 245.429 16.3444 246.026 15.7547C246.632 15.1572 247.367 14.8584 248.232 14.8584C249.096 14.8584 249.828 15.1572 250.425 15.7547C251.031 16.3444 251.333 17.0756 251.333 17.9483C251.333 18.821 251.031 19.5561 250.425 20.1537ZM246.58 19.6112C247.029 20.0593 247.579 20.2834 248.232 20.2834C248.884 20.2834 249.434 20.0593 249.883 19.6112C250.331 19.1552 250.555 18.6009 250.555 17.9483C250.555 17.2957 250.331 16.7454 249.883 16.2972C249.434 15.8412 248.884 15.6132 248.232 15.6132C247.579 15.6132 247.029 15.8412 246.58 16.2972C246.132 16.7454 245.908 17.2957 245.908 17.9483C245.908 18.6009 246.132 19.1552 246.58 19.6112ZM256.386 17.8657C257.031 18.1016 257.353 18.5616 257.353 19.2456C257.353 19.7252 257.192 20.1222 256.87 20.4367C256.555 20.7434 256.099 20.8967 255.502 20.8967H252.636V14.9999H255.266C255.84 14.9999 256.284 15.1493 256.598 15.4481C256.913 15.739 257.07 16.1164 257.07 16.5802C257.07 17.1699 256.842 17.5984 256.386 17.8657ZM255.266 15.7547H253.414V17.5473H255.266C255.95 17.5473 256.292 17.2407 256.292 16.6274C256.292 16.3522 256.201 16.14 256.021 15.9906C255.848 15.8333 255.596 15.7547 255.266 15.7547ZM255.502 20.1419C255.848 20.1419 256.111 20.0593 256.292 19.8942C256.48 19.7291 256.575 19.4972 256.575 19.1984C256.575 18.9232 256.48 18.707 256.292 18.5498C256.111 18.3846 255.848 18.3021 255.502 18.3021H253.414V20.1419H255.502ZM260.184 18.6559C260.184 18.2706 260.262 17.9208 260.42 17.6063C260.577 17.2839 260.765 17.0127 260.986 16.7925C261.206 16.5724 261.426 16.3601 261.646 16.1557C261.866 15.9513 262.055 15.7272 262.212 15.4834C262.369 15.2318 262.448 14.9645 262.448 14.6815C262.448 14.2255 262.291 13.8835 261.976 13.6555C261.67 13.4196 261.273 13.3016 260.785 13.3016C259.818 13.3016 259.221 13.6987 258.992 14.4928L258.297 14.1036C258.478 13.5768 258.792 13.1798 259.24 12.9125C259.696 12.6373 260.211 12.4997 260.785 12.4997C261.477 12.4997 262.063 12.6923 262.542 13.0776C263.03 13.455 263.274 13.9896 263.274 14.6815C263.274 15.0196 263.195 15.3341 263.038 15.625C262.88 15.9159 262.692 16.1714 262.472 16.3915C262.251 16.6038 262.031 16.8161 261.811 17.0284C261.591 17.2407 261.402 17.4883 261.245 17.7714C261.088 18.0466 261.009 18.3414 261.009 18.6559H260.184ZM261.056 20.8259C260.931 20.9517 260.777 21.0146 260.596 21.0146C260.416 21.0146 260.262 20.9517 260.136 20.8259C260.011 20.7001 259.948 20.5468 259.948 20.366C259.948 20.1851 260.011 20.0318 260.136 19.906C260.262 19.7802 260.416 19.7173 260.596 19.7173C260.777 19.7173 260.931 19.7802 261.056 19.906C261.182 20.0318 261.245 20.1851 261.245 20.366C261.245 20.5468 261.182 20.7001 261.056 20.8259Z" fill="#1D2530"/>
<path d="M274.789 23.135H275.261V28.6386H274.71V23.7404L273.476 24.1099L273.334 23.6382L274.789 23.135ZM277.461 23.135H277.933V28.6386H277.382V23.7404L276.148 24.1099L276.006 23.6382L277.461 23.135ZM279.771 25.3679C279.687 25.4517 279.585 25.4937 279.465 25.4937C279.344 25.4937 279.242 25.4517 279.158 25.3679C279.074 25.284 279.032 25.1818 279.032 25.0612C279.032 24.9407 279.074 24.8385 279.158 24.7546C279.242 24.6707 279.344 24.6288 279.465 24.6288C279.585 24.6288 279.687 24.6707 279.771 24.7546C279.855 24.8385 279.897 24.9407 279.897 25.0612C279.897 25.1818 279.855 25.284 279.771 25.3679ZM279.771 28.5914C279.687 28.6753 279.585 28.7172 279.465 28.7172C279.344 28.7172 279.242 28.6753 279.158 28.5914C279.074 28.5076 279.032 28.4054 279.032 28.2848C279.032 28.1642 279.074 28.062 279.158 27.9782C279.242 27.8943 279.344 27.8524 279.465 27.8524C279.585 27.8524 279.687 27.8943 279.771 27.9782C279.855 28.062 279.897 28.1642 279.897 28.2848C279.897 28.4054 279.855 28.5076 279.771 28.5914ZM284.382 27.9624C284.021 28.4761 283.509 28.733 282.849 28.733C282.189 28.733 281.675 28.4761 281.308 27.9624C280.946 27.4435 280.766 26.7516 280.766 25.8868C280.766 25.0219 280.946 24.3327 281.308 23.819C281.675 23.3001 282.189 23.0406 282.849 23.0406C283.509 23.0406 284.021 23.3001 284.382 23.819C284.749 24.3327 284.933 25.0219 284.933 25.8868C284.933 26.7516 284.749 27.4435 284.382 27.9624ZM281.717 27.5929C281.989 27.9965 282.367 28.1983 282.849 28.1983C283.331 28.1983 283.706 27.9965 283.973 27.5929C284.246 27.1893 284.382 26.6206 284.382 25.8868C284.382 25.153 284.246 24.5843 283.973 24.1807C283.706 23.7771 283.331 23.5753 282.849 23.5753C282.367 23.5753 281.989 23.7771 281.717 24.1807C281.45 24.5843 281.316 25.153 281.316 25.8868C281.316 26.6206 281.45 27.1893 281.717 27.5929ZM287.408 25.3522C287.922 25.3522 288.357 25.5042 288.713 25.8082C289.075 26.1069 289.256 26.5184 289.256 27.0426C289.256 27.5667 289.075 27.9808 288.713 28.2848C288.357 28.5836 287.922 28.733 287.408 28.733C286.994 28.733 286.625 28.6334 286.3 28.4342C285.975 28.2298 285.755 27.9389 285.639 27.5615L286.103 27.2942C286.182 27.5877 286.336 27.8131 286.567 27.9703C286.803 28.1223 287.083 28.1983 287.408 28.1983C287.786 28.1983 288.095 28.0987 288.336 27.8996C288.582 27.6951 288.706 27.4095 288.706 27.0426C288.706 26.6756 288.582 26.3926 288.336 26.1934C288.095 25.989 287.786 25.8868 287.408 25.8868H285.914L286.111 23.135H289.059V23.6539H286.598L286.481 25.3522H287.408Z" fill="#8E8E93"/>
</svg>
