<svg width="207" height="34" viewBox="0 0 207 34" fill="none" xmlns="http://www.w3.org/2000/svg">
<path d="M0 0H202C204.761 0 207 2.23858 207 5V29C207 31.7614 204.761 34 202 34H5C2.23858 34 0 31.7614 0 29V0Z" fill="#EFFCDE"/>
<path d="M18.6352 20.9348H17.5432L13.6501 16.911V20.9348H12.8192V12.6261H13.6501V16.4243L17.4246 12.6261H18.5165L14.5284 16.6617L18.6352 20.9348ZM24.1564 15H24.9398V20.9348H24.1564V19.7715C23.6104 20.642 22.8112 21.0772 21.7588 21.0772C20.9121 21.0772 20.188 20.7765 19.5867 20.1751C18.9932 19.5737 18.6964 18.8378 18.6964 17.9674C18.6964 17.0969 18.9932 16.361 19.5867 15.7597C20.188 15.1583 20.9121 14.8576 21.7588 14.8576C22.8112 14.8576 23.6104 15.2928 24.1564 16.1632V15ZM20.1564 19.641C20.6074 20.092 21.1613 20.3175 21.8181 20.3175C22.4749 20.3175 23.0288 20.092 23.4799 19.641C23.9309 19.182 24.1564 18.6242 24.1564 17.9674C24.1564 17.3106 23.9309 16.7567 23.4799 16.3056C23.0288 15.8467 22.4749 15.6172 21.8181 15.6172C21.1613 15.6172 20.6074 15.8467 20.1564 16.3056C19.7054 16.7567 19.4798 17.3106 19.4798 17.9674C19.4798 18.6242 19.7054 19.182 20.1564 19.641ZM31.3937 20.9348H30.3492L27.3819 18.0742V20.9348H26.5985V15H27.3819V17.6232L30.2068 15H31.275L28.2127 17.8487L31.3937 20.9348ZM39.7041 15H40.5349L37.9949 21.4808C37.7654 22.0663 37.437 22.5253 37.0097 22.8576C36.5903 23.1979 36.1195 23.3482 35.5972 23.3087V22.5727C36.3094 22.6519 36.8514 22.2404 37.2233 21.3383L37.3776 20.9704L34.7189 15H35.5497L37.7812 19.9733L39.7041 15ZM44.0155 21.0772C43.1213 21.0772 42.3775 20.7804 41.784 20.187C41.1905 19.5856 40.8938 18.8457 40.8938 17.9674C40.8938 17.089 41.1905 16.3531 41.784 15.7597C42.3775 15.1583 43.1213 14.8576 44.0155 14.8576C44.601 14.8576 45.1272 15 45.5941 15.2849C46.061 15.5618 46.4012 15.9377 46.6149 16.4125L45.9739 16.7804C45.8157 16.4243 45.5585 16.1434 45.2024 15.9377C44.8542 15.724 44.4586 15.6172 44.0155 15.6172C43.3587 15.6172 42.8048 15.8467 42.3537 16.3056C41.9027 16.7567 41.6772 17.3106 41.6772 17.9674C41.6772 18.6242 41.9027 19.182 42.3537 19.641C42.8048 20.092 43.3587 20.3175 44.0155 20.3175C44.4586 20.3175 44.8542 20.2147 45.2024 20.0089C45.5506 19.7953 45.8236 19.5104 46.0214 19.1543L46.6742 19.5342C46.4289 20.0089 46.0689 20.3848 45.5941 20.6618C45.1193 20.9387 44.5931 21.0772 44.0155 21.0772ZM51.9561 15V15.7597H49.8552V20.9348H49.0718V15.7597H46.9709V15H51.9561ZM57.7828 15H58.5662V20.9348H57.7828V19.7715C57.2368 20.642 56.4376 21.0772 55.3852 21.0772C54.5385 21.0772 53.8144 20.7765 53.213 20.1751C52.6196 19.5737 52.3228 18.8378 52.3228 17.9674C52.3228 17.0969 52.6196 16.361 53.213 15.7597C53.8144 15.1583 54.5385 14.8576 55.3852 14.8576C56.4376 14.8576 57.2368 15.2928 57.7828 16.1632V15ZM53.7828 19.641C54.2338 20.092 54.7877 20.3175 55.4445 20.3175C56.1013 20.3175 56.6552 20.092 57.1062 19.641C57.5573 19.182 57.7828 18.6242 57.7828 17.9674C57.7828 17.3106 57.5573 16.7567 57.1062 16.3056C56.6552 15.8467 56.1013 15.6172 55.4445 15.6172C54.7877 15.6172 54.2338 15.8467 53.7828 16.3056C53.3317 16.7567 53.1062 17.3106 53.1062 17.9674C53.1062 18.6242 53.3317 19.182 53.7828 19.641ZM64.4266 15H65.21V20.9348H64.4266V18.3472H61.0082V20.9348H60.2248V15H61.0082V17.5876H64.4266V15ZM71.84 20.187C71.2386 20.7804 70.5027 21.0772 69.6323 21.0772C68.7618 21.0772 68.022 20.7804 67.4127 20.187C66.8113 19.5856 66.5106 18.8457 66.5106 17.9674C66.5106 17.089 66.8113 16.3531 67.4127 15.7597C68.022 15.1583 68.7618 14.8576 69.6323 14.8576C70.5027 14.8576 71.2386 15.1583 71.84 15.7597C72.4493 16.3531 72.7539 17.089 72.7539 17.9674C72.7539 18.8457 72.4493 19.5856 71.84 20.187ZM67.9705 19.641C68.4216 20.092 68.9755 20.3175 69.6323 20.3175C70.289 20.3175 70.8429 20.092 71.294 19.641C71.745 19.182 71.9705 18.6242 71.9705 17.9674C71.9705 17.3106 71.745 16.7567 71.294 16.3056C70.8429 15.8467 70.289 15.6172 69.6323 15.6172C68.9755 15.6172 68.4216 15.8467 67.9705 16.3056C67.5195 16.7567 67.294 17.3106 67.294 17.9674C67.294 18.6242 67.5195 19.182 67.9705 19.641ZM77.8394 17.8843C78.4882 18.1217 78.8127 18.5846 78.8127 19.273C78.8127 19.7557 78.6504 20.1553 78.326 20.4718C78.0095 20.7804 77.5505 20.9348 76.9491 20.9348H74.0649V15H76.7118C77.2894 15 77.7365 15.1504 78.053 15.451C78.3695 15.7438 78.5278 16.1237 78.5278 16.5905C78.5278 17.184 78.2983 17.6153 77.8394 17.8843ZM76.7118 15.7597H74.8482V17.5638H76.7118C77.4002 17.5638 77.7444 17.2552 77.7444 16.638C77.7444 16.361 77.6534 16.1474 77.4714 15.997C77.2973 15.8388 77.0441 15.7597 76.7118 15.7597ZM76.9491 20.1751C77.2973 20.1751 77.5624 20.092 77.7444 19.9258C77.9343 19.7597 78.0293 19.5262 78.0293 19.2255C78.0293 18.9486 77.9343 18.731 77.7444 18.5727C77.5624 18.4066 77.2973 18.3235 76.9491 18.3235H74.8482V20.1751H76.9491ZM84.3201 15H84.9848V20.9348H84.2014V16.365L80.6643 20.9348H79.9996V15H80.783V19.5698L84.3201 15ZM90.9144 15V15.7597H88.8135V20.9348H88.0302V15.7597H85.9293V15H90.9144ZM94.2786 17.2552C94.8325 17.2552 95.2994 17.4293 95.6792 17.7775C96.0669 18.1177 96.2608 18.5569 96.2608 19.095C96.2608 19.6331 96.0669 20.0762 95.6792 20.4244C95.2994 20.7646 94.8325 20.9348 94.2786 20.9348H91.8691V15H92.6525V17.2552H94.2786ZM94.2786 20.1751C94.611 20.1751 94.8919 20.0762 95.1213 19.8784C95.3587 19.6805 95.4774 19.4194 95.4774 19.095C95.4774 18.7705 95.3587 18.5094 95.1213 18.3116C94.8919 18.1138 94.611 18.0149 94.2786 18.0149H92.6525V20.1751H94.2786ZM104.258 15H105.041V20.9348H104.258V18.6795C103.799 18.9169 103.233 19.0356 102.56 19.0356C101.785 19.0356 101.191 18.8576 100.78 18.5015C100.376 18.1375 100.175 17.6034 100.175 16.8991V15H100.958V16.8991C100.958 17.3976 101.088 17.7577 101.35 17.9792C101.611 18.1929 102.006 18.2997 102.537 18.2997C103.154 18.2997 103.727 18.185 104.258 17.9555V15ZM111.81 15H112.593V20.9348H111.81V19.7715C111.264 20.642 110.465 21.0772 109.412 21.0772C108.566 21.0772 107.841 20.7765 107.24 20.1751C106.647 19.5737 106.35 18.8378 106.35 17.9674C106.35 17.0969 106.647 16.361 107.24 15.7597C107.841 15.1583 108.566 14.8576 109.412 14.8576C110.465 14.8576 111.264 15.2928 111.81 16.1632V15ZM107.81 19.641C108.261 20.092 108.815 20.3175 109.472 20.3175C110.128 20.3175 110.682 20.092 111.133 19.641C111.584 19.182 111.81 18.6242 111.81 17.9674C111.81 17.3106 111.584 16.7567 111.133 16.3056C110.682 15.8467 110.128 15.6172 109.472 15.6172C108.815 15.6172 108.261 15.8467 107.81 16.3056C107.359 16.7567 107.133 17.3106 107.133 17.9674C107.133 18.6242 107.359 19.182 107.81 19.641ZM118.525 15V15.7597H116.424V20.9348H115.641V15.7597H113.54V15H118.525ZM126.649 15H127.432V20.9348H126.649V18.3472H123.23V20.9348H122.447V15H123.23V17.5876H126.649V15ZM134.193 15H134.976V20.9348H134.193V19.7715C133.647 20.642 132.847 21.0772 131.795 21.0772C130.948 21.0772 130.224 20.7765 129.623 20.1751C129.029 19.5737 128.733 18.8378 128.733 17.9674C128.733 17.0969 129.029 16.361 129.623 15.7597C130.224 15.1583 130.948 14.8576 131.795 14.8576C132.847 14.8576 133.647 15.2928 134.193 16.1632V15ZM130.193 19.641C130.644 20.092 131.198 20.3175 131.854 20.3175C132.511 20.3175 133.065 20.092 133.516 19.641C133.967 19.182 134.193 18.6242 134.193 17.9674C134.193 17.3106 133.967 16.7567 133.516 16.3056C133.065 15.8467 132.511 15.6172 131.854 15.6172C131.198 15.6172 130.644 15.8467 130.193 16.3056C129.742 16.7567 129.516 17.3106 129.516 17.9674C129.516 18.6242 129.742 19.182 130.193 19.641ZM142.368 21.0772C141.474 21.0772 140.73 20.7804 140.136 20.187C139.543 19.5856 139.246 18.8457 139.246 17.9674C139.246 17.089 139.543 16.3531 140.136 15.7597C140.73 15.1583 141.474 14.8576 142.368 14.8576C142.953 14.8576 143.479 15 143.946 15.2849C144.413 15.5618 144.753 15.9377 144.967 16.4125L144.326 16.7804C144.168 16.4243 143.911 16.1434 143.555 15.9377C143.206 15.724 142.811 15.6172 142.368 15.6172C141.711 15.6172 141.157 15.8467 140.706 16.3056C140.255 16.7567 140.029 17.3106 140.029 17.9674C140.029 18.6242 140.255 19.182 140.706 19.641C141.157 20.092 141.711 20.3175 142.368 20.3175C142.811 20.3175 143.206 20.2147 143.555 20.0089C143.903 19.7953 144.176 19.5104 144.374 19.1543L145.026 19.5342C144.781 20.0089 144.421 20.3848 143.946 20.6618C143.472 20.9387 142.945 21.0772 142.368 21.0772ZM151.197 15H151.98V20.9348H151.197V19.7715C150.651 20.642 149.852 21.0772 148.799 21.0772C147.953 21.0772 147.229 20.7765 146.627 20.1751C146.034 19.5737 145.737 18.8378 145.737 17.9674C145.737 17.0969 146.034 16.361 146.627 15.7597C147.229 15.1583 147.953 14.8576 148.799 14.8576C149.852 14.8576 150.651 15.2928 151.197 16.1632V15ZM147.197 19.641C147.648 20.092 148.202 20.3175 148.859 20.3175C149.516 20.3175 150.07 20.092 150.521 19.641C150.972 19.182 151.197 18.6242 151.197 17.9674C151.197 17.3106 150.972 16.7567 150.521 16.3056C150.07 15.8467 149.516 15.6172 148.859 15.6172C148.202 15.6172 147.648 15.8467 147.197 16.3056C146.746 16.7567 146.521 17.3106 146.521 17.9674C146.521 18.6242 146.746 19.182 147.197 19.641ZM154.589 14.0504V13.362H157.675V14.0504H154.589ZM157.96 15H158.624V20.9348H157.841V16.365L154.304 20.9348H153.639V15H154.423V19.5698L157.96 15ZM164.554 15V15.7597H162.453V20.9348H161.67V15.7597H159.569V15H164.554ZM167.17 18.6795C167.17 18.2918 167.25 17.9397 167.408 17.6232C167.566 17.2987 167.756 17.0257 167.978 16.8042C168.199 16.5826 168.421 16.369 168.642 16.1632C168.864 15.9575 169.054 15.732 169.212 15.4867C169.37 15.2334 169.449 14.9644 169.449 14.6795C169.449 14.2206 169.291 13.8764 168.975 13.6469C168.666 13.4095 168.266 13.2908 167.776 13.2908C166.802 13.2908 166.201 13.6904 165.972 14.4896L165.271 14.0979C165.453 13.5678 165.77 13.1681 166.221 12.8991C166.68 12.6221 167.198 12.4837 167.776 12.4837C168.472 12.4837 169.062 12.6775 169.544 13.0653C170.035 13.4451 170.28 13.9832 170.28 14.6795C170.28 15.0198 170.201 15.3363 170.043 15.6291C169.885 15.9219 169.695 16.179 169.473 16.4006C169.252 16.6143 169.03 16.8279 168.808 17.0416C168.587 17.2552 168.397 17.5045 168.239 17.7893C168.08 18.0663 168.001 18.363 168.001 18.6795H167.17ZM168.049 20.8635C167.922 20.9901 167.768 21.0534 167.586 21.0534C167.404 21.0534 167.25 20.9901 167.123 20.8635C166.996 20.7369 166.933 20.5826 166.933 20.4006C166.933 20.2186 166.996 20.0643 167.123 19.9377C167.25 19.8111 167.404 19.7478 167.586 19.7478C167.768 19.7478 167.922 19.8111 168.049 19.9377C168.175 20.0643 168.239 20.2186 168.239 20.4006C168.239 20.5826 168.175 20.7369 168.049 20.8635Z" fill="#1D2530"/>
<path d="M180.614 23.2324H181.089V28.7715H180.535V23.8417L179.293 24.2136L179.15 23.7388L180.614 23.2324ZM183.304 23.2324H183.778V28.7715H183.224V23.8417L181.982 24.2136L181.84 23.7388L183.304 23.2324ZM185.629 25.4797C185.544 25.5641 185.441 25.6063 185.32 25.6063C185.199 25.6063 185.096 25.5641 185.012 25.4797C184.927 25.3953 184.885 25.2924 184.885 25.1711C184.885 25.0498 184.927 24.9469 185.012 24.8625C185.096 24.7781 185.199 24.7359 185.32 24.7359C185.441 24.7359 185.544 24.7781 185.629 24.8625C185.713 24.9469 185.755 25.0498 185.755 25.1711C185.755 25.2924 185.713 25.3953 185.629 25.4797ZM185.629 28.724C185.544 28.8084 185.441 28.8506 185.32 28.8506C185.199 28.8506 185.096 28.8084 185.012 28.724C184.927 28.6396 184.885 28.5368 184.885 28.4154C184.885 28.2941 184.927 28.1912 185.012 28.1068C185.096 28.0224 185.199 27.9802 185.32 27.9802C185.441 27.9802 185.544 28.0224 185.629 28.1068C185.713 28.1912 185.755 28.2941 185.755 28.4154C185.755 28.5368 185.713 28.6396 185.629 28.724ZM190.269 28.091C189.905 28.608 189.391 28.8665 188.726 28.8665C188.062 28.8665 187.545 28.608 187.176 28.091C186.812 27.5687 186.63 26.8724 186.63 26.002C186.63 25.1315 186.812 24.4378 187.176 23.9208C187.545 23.3986 188.062 23.1375 188.726 23.1375C189.391 23.1375 189.905 23.3986 190.269 23.9208C190.639 24.4378 190.823 25.1315 190.823 26.002C190.823 26.8724 190.639 27.5687 190.269 28.091ZM187.587 27.7191C187.861 28.1253 188.241 28.3284 188.726 28.3284C189.212 28.3284 189.589 28.1253 189.858 27.7191C190.132 27.3129 190.269 26.7405 190.269 26.002C190.269 25.2634 190.132 24.691 189.858 24.2848C189.589 23.8786 189.212 23.6755 188.726 23.6755C188.241 23.6755 187.861 23.8786 187.587 24.2848C187.318 24.691 187.183 25.2634 187.183 26.002C187.183 26.7405 187.318 27.3129 187.587 27.7191ZM195.175 24.9654C195.175 25.3821 195.061 25.7514 194.834 26.0732L193.022 28.7715H192.397L193.758 26.7458C193.616 26.7774 193.468 26.7933 193.315 26.7933C192.772 26.7933 192.326 26.6245 191.978 26.2868C191.63 25.9439 191.456 25.5034 191.456 24.9654C191.456 24.4273 191.63 23.9894 191.978 23.6518C192.326 23.3089 192.772 23.1375 193.315 23.1375C193.858 23.1375 194.304 23.3089 194.652 23.6518C195.001 23.9894 195.175 24.4273 195.175 24.9654ZM192.366 24.0316C192.128 24.269 192.009 24.5803 192.009 24.9654C192.009 25.3505 192.128 25.6617 192.366 25.8991C192.608 26.1365 192.925 26.2552 193.315 26.2552C193.705 26.2552 194.019 26.1365 194.257 25.8991C194.499 25.6617 194.621 25.3505 194.621 24.9654C194.621 24.5803 194.499 24.269 194.257 24.0316C194.019 23.7942 193.705 23.6755 193.315 23.6755C192.925 23.6755 192.608 23.7942 192.366 24.0316Z" fill="#8E8E93"/>
</svg>
