<svg width="291" height="34" viewBox="0 0 291 34" fill="none" xmlns="http://www.w3.org/2000/svg">
<path d="M0 0H286C288.761 0 291 2.23858 291 5V29C291 31.7614 288.761 34 286 34H4.99999C2.23857 34 0 31.7614 0 29V0Z" fill="#EFFCDE"/>
<path d="M19.1051 11.7784V19.554H18.3275V12.9559L15.6061 17.5102H15.495L12.7736 12.9559V19.554H11.996V11.7784H12.9624L15.5505 16.1106L18.1387 11.7784H19.1051ZM25.4233 18.8542C24.8605 19.4096 24.1718 19.6873 23.3573 19.6873C22.5427 19.6873 21.8503 19.4096 21.2801 18.8542C20.7173 18.2914 20.4359 17.599 20.4359 16.777C20.4359 15.955 20.7173 15.2663 21.2801 14.7109C21.8503 14.1481 22.5427 13.8667 23.3573 13.8667C24.1718 13.8667 24.8605 14.1481 25.4233 14.7109C25.9936 15.2663 26.2787 15.955 26.2787 16.777C26.2787 17.599 25.9936 18.2914 25.4233 18.8542ZM21.8021 18.3432C22.2243 18.7654 22.7426 18.9764 23.3573 18.9764C23.9719 18.9764 24.4903 18.7654 24.9124 18.3432C25.3345 17.9137 25.5455 17.3917 25.5455 16.777C25.5455 16.1624 25.3345 15.644 24.9124 15.2219C24.4903 14.7924 23.9719 14.5777 23.3573 14.5777C22.7426 14.5777 22.2243 14.7924 21.8021 15.2219C21.38 15.644 21.169 16.1624 21.169 16.777C21.169 17.3917 21.38 17.9137 21.8021 18.3432ZM31.06 14V14.7109H28.2386V19.554H27.5055V14H31.06ZM36.2881 14H37.0657L34.6886 20.065C34.4738 20.613 34.1665 21.0425 33.7666 21.3535C33.3741 21.6719 32.9335 21.8126 32.4448 21.7756V21.0869C33.1113 21.161 33.6185 20.7759 33.9666 19.9317L34.111 19.5873L31.6228 14H32.4004L34.4886 18.6543L36.2881 14ZM45.283 14V19.554H44.5498V14.7109H42.0395V17.188C42.0395 18.1137 41.8617 18.7505 41.5063 19.0986C41.1582 19.4466 40.6769 19.5984 40.0622 19.554V18.8653C40.4843 18.9098 40.7954 18.8098 40.9953 18.5654C41.2027 18.321 41.3063 17.8619 41.3063 17.188V14H45.283ZM50.8792 14H51.5013V19.554H50.7681V15.2775L47.458 19.554H46.8359V14H47.569V18.2766L50.8792 14ZM59.8274 14V19.554H59.0943V17.4213H58.139L56.4284 19.554H55.4953L57.2504 17.3991C56.8061 17.3324 56.4395 17.1473 56.1507 16.8437C55.8619 16.5401 55.7175 16.1661 55.7175 15.7218C55.7175 15.2182 55.8952 14.8072 56.2507 14.4888C56.6135 14.163 57.0542 14 57.5725 14H59.8274ZM57.5725 16.7326H59.0943V14.7109H57.5725C57.2615 14.7109 56.9949 14.8035 56.7728 14.9886C56.558 15.1738 56.4506 15.4182 56.4506 15.7218C56.4506 16.0254 56.558 16.2698 56.7728 16.4549C56.9949 16.64 57.2615 16.7326 57.5725 16.7326ZM68.6472 19.554H67.6697L64.8927 16.877V19.554H64.1596V14H64.8927V16.4549L67.5364 14H68.5361L65.6702 16.6659L68.6472 19.554ZM73.8716 14H74.6048V19.554H73.8716V18.4654C73.3607 19.28 72.6127 19.6873 71.6278 19.6873C70.8355 19.6873 70.1579 19.4059 69.5951 18.8431C69.0397 18.2803 68.762 17.5916 68.762 16.777C68.762 15.9624 69.0397 15.2738 69.5951 14.7109C70.1579 14.1481 70.8355 13.8667 71.6278 13.8667C72.6127 13.8667 73.3607 14.274 73.8716 15.0886V14ZM70.1283 18.3432C70.5504 18.7654 71.0687 18.9764 71.6834 18.9764C72.298 18.9764 72.8164 18.7654 73.2385 18.3432C73.6606 17.9137 73.8716 17.3917 73.8716 16.777C73.8716 16.1624 73.6606 15.644 73.2385 15.2219C72.8164 14.7924 72.298 14.5777 71.6834 14.5777C71.0687 14.5777 70.5504 14.7924 70.1283 15.2219C69.7062 15.644 69.4951 16.1624 69.4951 16.777C69.4951 17.3917 69.7062 17.9137 70.1283 18.3432ZM78.7452 19.6873C77.9084 19.6873 77.2123 19.4096 76.6569 18.8542C76.1015 18.2914 75.8238 17.599 75.8238 16.777C75.8238 15.955 76.1015 15.2663 76.6569 14.7109C77.2123 14.1481 77.9084 13.8667 78.7452 13.8667C79.2932 13.8667 79.7856 14 80.2225 14.2666C80.6594 14.5258 80.9779 14.8776 81.1778 15.3219L80.578 15.6662C80.4299 15.333 80.1892 15.0701 79.856 14.8776C79.5301 14.6776 79.1599 14.5777 78.7452 14.5777C78.1305 14.5777 77.6122 14.7924 77.1901 15.2219C76.7679 15.644 76.5569 16.1624 76.5569 16.777C76.5569 17.3917 76.7679 17.9137 77.1901 18.3432C77.6122 18.7654 78.1305 18.9764 78.7452 18.9764C79.1599 18.9764 79.5301 18.8801 79.856 18.6876C80.1818 18.4877 80.4373 18.2211 80.6224 17.8878L81.2333 18.2433C81.0038 18.6876 80.6668 19.0393 80.2225 19.2985C79.7782 19.5577 79.2858 19.6873 78.7452 19.6873ZM86.1763 14V14.7109H84.2102V19.554H83.4771V14.7109H81.511V14H86.1763ZM91.507 18.8542C90.9442 19.4096 90.2555 19.6873 89.4409 19.6873C88.6263 19.6873 87.9339 19.4096 87.3637 18.8542C86.8009 18.2914 86.5195 17.599 86.5195 16.777C86.5195 15.955 86.8009 15.2663 87.3637 14.7109C87.9339 14.1481 88.6263 13.8667 89.4409 13.8667C90.2555 13.8667 90.9442 14.1481 91.507 14.7109C92.0772 15.2663 92.3623 15.955 92.3623 16.777C92.3623 17.599 92.0772 18.2914 91.507 18.8542ZM87.8858 18.3432C88.3079 18.7654 88.8263 18.9764 89.4409 18.9764C90.0555 18.9764 90.5739 18.7654 90.996 18.3432C91.4181 17.9137 91.6292 17.3917 91.6292 16.777C91.6292 16.1624 91.4181 15.644 90.996 15.2219C90.5739 14.7924 90.0555 14.5777 89.4409 14.5777C88.8263 14.5777 88.3079 14.7924 87.8858 15.2219C87.4637 15.644 87.2526 16.1624 87.2526 16.777C87.2526 17.3917 87.4637 17.9137 87.8858 18.3432ZM99.032 14V19.554H98.2989V15.1219L96.355 18.2766H96.2661L94.3222 15.1219V19.554H93.5891V14H94.4333L96.3106 17.0436L98.1878 14H99.032ZM104.629 14H105.251V19.554H104.518V15.2775L101.208 19.554H100.586V14H101.319V18.2766L104.629 14ZM109.667 16.6993C110.312 16.9436 110.634 17.388 110.634 18.0322C110.634 18.4914 110.452 18.8838 110.089 19.2097C109.734 19.5281 109.223 19.6873 108.557 19.6873C107.438 19.6873 106.705 19.243 106.357 18.3544L106.979 17.9878C107.209 18.6469 107.735 18.9764 108.557 18.9764C108.986 18.9764 109.316 18.8838 109.545 18.6987C109.782 18.5136 109.901 18.2766 109.901 17.9878C109.901 17.7286 109.804 17.5176 109.612 17.3546C109.419 17.1917 109.16 17.1103 108.834 17.1103H108.023V16.3994H108.612C108.931 16.3994 109.179 16.3216 109.356 16.1661C109.541 16.0032 109.634 15.781 109.634 15.4996C109.634 15.233 109.527 15.0146 109.312 14.8442C109.097 14.6665 108.808 14.5777 108.445 14.5777C107.749 14.5777 107.287 14.8554 107.057 15.4107L106.446 15.0553C106.816 14.2629 107.483 13.8667 108.445 13.8667C109.031 13.8667 109.497 14.0223 109.845 14.3333C110.193 14.6369 110.367 15.0109 110.367 15.4552C110.367 16.0254 110.134 16.4401 109.667 16.6993ZM115.791 14H116.413V19.554H115.68V15.2775L112.37 19.554H111.748V14H112.481V18.2766L115.791 14ZM120.941 13.8667C121.733 13.8667 122.407 14.1481 122.962 14.7109C123.525 15.2738 123.806 15.9624 123.806 16.777C123.806 17.5916 123.525 18.2803 122.962 18.8431C122.407 19.4059 121.733 19.6873 120.941 19.6873C119.956 19.6873 119.208 19.28 118.697 18.4654V21.7756H117.964V14H118.697V15.0886C119.208 14.274 119.956 13.8667 120.941 13.8667ZM119.33 18.3432C119.752 18.7654 120.27 18.9764 120.885 18.9764C121.5 18.9764 122.018 18.7654 122.44 18.3432C122.862 17.9137 123.073 17.3917 123.073 16.777C123.073 16.1624 122.862 15.644 122.44 15.2219C122.018 14.7924 121.5 14.5777 120.885 14.5777C120.27 14.5777 119.752 14.7924 119.33 15.2219C118.908 15.644 118.697 16.1624 118.697 16.777C118.697 17.3917 118.908 17.9137 119.33 18.3432ZM129.68 18.8542C129.117 19.4096 128.428 19.6873 127.614 19.6873C126.799 19.6873 126.107 19.4096 125.536 18.8542C124.974 18.2914 124.692 17.599 124.692 16.777C124.692 15.955 124.974 15.2663 125.536 14.7109C126.107 14.1481 126.799 13.8667 127.614 13.8667C128.428 13.8667 129.117 14.1481 129.68 14.7109C130.25 15.2663 130.535 15.955 130.535 16.777C130.535 17.599 130.25 18.2914 129.68 18.8542ZM126.059 18.3432C126.481 18.7654 126.999 18.9764 127.614 18.9764C128.228 18.9764 128.747 18.7654 129.169 18.3432C129.591 17.9137 129.802 17.3917 129.802 16.777C129.802 16.1624 129.591 15.644 129.169 15.2219C128.747 14.7924 128.228 14.5777 127.614 14.5777C126.999 14.5777 126.481 14.7924 126.059 15.2219C125.636 15.644 125.425 16.1624 125.425 16.777C125.425 17.3917 125.636 17.9137 126.059 18.3432ZM135.294 16.6993C135.901 16.9214 136.205 17.3546 136.205 17.9989C136.205 18.4506 136.053 18.8246 135.75 19.1208C135.453 19.4096 135.024 19.554 134.461 19.554H131.762V14H134.239C134.78 14 135.198 14.1407 135.494 14.4221C135.79 14.6961 135.938 15.0516 135.938 15.4885C135.938 16.0439 135.724 16.4475 135.294 16.6993ZM134.239 14.7109H132.495V16.3994H134.239C134.883 16.3994 135.205 16.1106 135.205 15.5329C135.205 15.2738 135.12 15.0738 134.95 14.9331C134.787 14.785 134.55 14.7109 134.239 14.7109ZM134.461 18.8431C134.787 18.8431 135.035 18.7654 135.205 18.6098C135.383 18.4543 135.472 18.2359 135.472 17.9545C135.472 17.6953 135.383 17.4916 135.205 17.3435C135.035 17.188 134.787 17.1103 134.461 17.1103H132.495V18.8431H134.461ZM142.092 14H142.825V19.554H142.092V18.4654C141.581 19.28 140.833 19.6873 139.848 19.6873C139.056 19.6873 138.378 19.4059 137.816 18.8431C137.26 18.2803 136.983 17.5916 136.983 16.777C136.983 15.9624 137.26 15.2738 137.816 14.7109C138.378 14.1481 139.056 13.8667 139.848 13.8667C140.833 13.8667 141.581 14.274 142.092 15.0886V14ZM138.349 18.3432C138.771 18.7654 139.289 18.9764 139.904 18.9764C140.519 18.9764 141.037 18.7654 141.459 18.3432C141.881 17.9137 142.092 17.3917 142.092 16.777C142.092 16.1624 141.881 15.644 141.459 15.2219C141.037 14.7924 140.519 14.5777 139.904 14.5777C139.289 14.5777 138.771 14.7924 138.349 15.2219C137.927 15.644 137.716 16.1624 137.716 16.777C137.716 17.3917 137.927 17.9137 138.349 18.3432ZM148.376 14V14.7109H146.41V19.554H145.677V14.7109H143.711V14H148.376ZM151.525 16.1106C152.043 16.1106 152.48 16.2735 152.836 16.5993C153.198 16.9177 153.38 17.3287 153.38 17.8323C153.38 18.3358 153.198 18.7505 152.836 19.0764C152.48 19.3948 152.043 19.554 151.525 19.554H149.27V14H150.003V16.1106H151.525ZM151.525 18.8431C151.836 18.8431 152.099 18.7505 152.313 18.5654C152.536 18.3803 152.647 18.1359 152.647 17.8323C152.647 17.5287 152.536 17.2843 152.313 17.0992C152.099 16.914 151.836 16.8215 151.525 16.8215H150.003V18.8431H151.525ZM160.864 14H161.597V19.554H160.864V17.4435C160.434 17.6657 159.905 17.7767 159.275 17.7767C158.549 17.7767 157.994 17.6101 157.609 17.2769C157.231 16.9362 157.042 16.4364 157.042 15.7773V14H157.776V15.7773C157.776 16.2438 157.898 16.5808 158.142 16.7881C158.386 16.9881 158.757 17.0881 159.253 17.0881C159.831 17.0881 160.367 16.9807 160.864 16.7659V14ZM167.931 14H168.664V19.554H167.931V18.4654C167.42 19.28 166.672 19.6873 165.687 19.6873C164.895 19.6873 164.218 19.4059 163.655 18.8431C163.099 18.2803 162.822 17.5916 162.822 16.777C162.822 15.9624 163.099 15.2738 163.655 14.7109C164.218 14.1481 164.895 13.8667 165.687 13.8667C166.672 13.8667 167.42 14.274 167.931 15.0886V14ZM164.188 18.3432C164.61 18.7654 165.128 18.9764 165.743 18.9764C166.358 18.9764 166.876 18.7654 167.298 18.3432C167.72 17.9137 167.931 17.3917 167.931 16.777C167.931 16.1624 167.72 15.644 167.298 15.2219C166.876 14.7924 166.358 14.5777 165.743 14.5777C165.128 14.5777 164.61 14.7924 164.188 15.2219C163.766 15.644 163.555 16.1624 163.555 16.777C163.555 17.3917 163.766 17.9137 164.188 18.3432ZM174.216 14V14.7109H172.249V19.554H171.516V14.7109H169.55V14H174.216ZM182.551 14V19.554H181.818V14.7109H178.619V19.554H177.886V14H182.551ZM188.756 18.8542C188.193 19.4096 187.504 19.6873 186.69 19.6873C185.875 19.6873 185.183 19.4096 184.613 18.8542C184.05 18.2914 183.768 17.599 183.768 16.777C183.768 15.955 184.05 15.2663 184.613 14.7109C185.183 14.1481 185.875 13.8667 186.69 13.8667C187.504 13.8667 188.193 14.1481 188.756 14.7109C189.326 15.2663 189.611 15.955 189.611 16.777C189.611 17.599 189.326 18.2914 188.756 18.8542ZM185.135 18.3432C185.557 18.7654 186.075 18.9764 186.69 18.9764C187.304 18.9764 187.823 18.7654 188.245 18.3432C188.667 17.9137 188.878 17.3917 188.878 16.777C188.878 16.1624 188.667 15.644 188.245 15.2219C187.823 14.7924 187.304 14.5777 186.69 14.5777C186.075 14.5777 185.557 14.7924 185.135 15.2219C184.713 15.644 184.501 16.1624 184.501 16.777C184.501 17.3917 184.713 17.9137 185.135 18.3432ZM195.286 18.8431H196.064V21.0425H195.331V19.554H190.799V21.0425H190.066V18.8431H190.743C191.121 18.347 191.31 17.6472 191.31 16.7437V14H195.286V18.8431ZM191.632 18.8431H194.553V14.7109H192.043V16.7437C192.043 17.5953 191.906 18.2951 191.632 18.8431ZM202.538 19.6873C201.701 19.6873 201.005 19.4096 200.45 18.8542C199.894 18.2914 199.617 17.599 199.617 16.777C199.617 15.955 199.894 15.2663 200.45 14.7109C201.005 14.1481 201.701 13.8667 202.538 13.8667C203.086 13.8667 203.579 14 204.015 14.2666C204.452 14.5258 204.771 14.8776 204.971 15.3219L204.371 15.6662C204.223 15.333 203.982 15.0701 203.649 14.8776C203.323 14.6776 202.953 14.5777 202.538 14.5777C201.923 14.5777 201.405 14.7924 200.983 15.2219C200.561 15.644 200.35 16.1624 200.35 16.777C200.35 17.3917 200.561 17.9137 200.983 18.3432C201.405 18.7654 201.923 18.9764 202.538 18.9764C202.953 18.9764 203.323 18.8801 203.649 18.6876C203.975 18.4877 204.23 18.2211 204.415 17.8878L205.026 18.2433C204.797 18.6876 204.46 19.0393 204.015 19.2985C203.571 19.5577 203.079 19.6873 202.538 19.6873ZM209.611 16.6993C210.218 16.9214 210.522 17.3546 210.522 17.9989C210.522 18.4506 210.37 18.8246 210.067 19.1208C209.77 19.4096 209.341 19.554 208.778 19.554H206.079V14H208.556C209.097 14 209.515 14.1407 209.811 14.4221C210.107 14.6961 210.255 15.0516 210.255 15.4885C210.255 16.0439 210.041 16.4475 209.611 16.6993ZM208.556 14.7109H206.812V16.3994H208.556C209.2 16.3994 209.522 16.1106 209.522 15.5329C209.522 15.2738 209.437 15.0738 209.267 14.9331C209.104 14.785 208.867 14.7109 208.556 14.7109ZM208.778 18.8431C209.104 18.8431 209.352 18.7654 209.522 18.6098C209.7 18.4543 209.789 18.2359 209.789 17.9545C209.789 17.6953 209.7 17.4916 209.522 17.3435C209.352 17.188 209.104 17.1103 208.778 17.1103H206.812V18.8431H208.778ZM216.287 18.8542C215.724 19.4096 215.036 19.6873 214.221 19.6873C213.406 19.6873 212.714 19.4096 212.144 18.8542C211.581 18.2914 211.3 17.599 211.3 16.777C211.3 15.955 211.581 15.2663 212.144 14.7109C212.714 14.1481 213.406 13.8667 214.221 13.8667C215.036 13.8667 215.724 14.1481 216.287 14.7109C216.857 15.2663 217.142 15.955 217.142 16.777C217.142 17.599 216.857 18.2914 216.287 18.8542ZM212.666 18.3432C213.088 18.7654 213.606 18.9764 214.221 18.9764C214.836 18.9764 215.354 18.7654 215.776 18.3432C216.198 17.9137 216.409 17.3917 216.409 16.777C216.409 16.1624 216.198 15.644 215.776 15.2219C215.354 14.7924 214.836 14.5777 214.221 14.5777C213.606 14.5777 213.088 14.7924 212.666 15.2219C212.244 15.644 212.033 16.1624 212.033 16.777C212.033 17.3917 212.244 17.9137 212.666 18.3432ZM222.412 14H223.035V19.554H222.301V15.2775L218.991 19.554H218.369V14H219.102V18.2766L222.412 14ZM231.294 14H232.027V19.554H231.294V17.1325H228.095V19.554H227.362V14H228.095V16.4216H231.294V14ZM237.576 14H238.354L235.977 20.065C235.762 20.613 235.455 21.0425 235.055 21.3535C234.662 21.6719 234.222 21.8126 233.733 21.7756V21.0869C234.4 21.161 234.907 20.7759 235.255 19.9317L235.399 19.5873L232.911 14H233.689L235.777 18.6543L237.576 14ZM245.619 19.554H244.73L242.464 16.877V19.554H241.731V16.877L239.465 19.554H238.576L241.064 16.6659L238.687 14H239.576L241.731 16.466V14H242.464V16.466L244.619 14H245.507L243.13 16.6659L245.619 19.554ZM251.282 18.8431H252.059V21.0425H251.326V19.554H246.794V21.0425H246.061V18.8431H246.739C247.116 18.347 247.305 17.6472 247.305 16.7437V14H251.282V18.8431ZM247.627 18.8431H250.549V14.7109H248.038V16.7437C248.038 17.5953 247.901 18.2951 247.627 18.8431ZM255.423 16.1106C255.942 16.1106 256.379 16.2735 256.734 16.5993C257.097 16.9177 257.278 17.3287 257.278 17.8323C257.278 18.3358 257.097 18.7505 256.734 19.0764C256.379 19.3948 255.942 19.554 255.423 19.554H253.168V14H253.901V16.1106H255.423ZM258.056 14H258.789V19.554H258.056V14ZM255.423 18.8431C255.734 18.8431 255.997 18.7505 256.212 18.5654C256.434 18.3803 256.545 18.1359 256.545 17.8323C256.545 17.5287 256.434 17.2843 256.212 17.0992C255.997 16.914 255.734 16.8215 255.423 16.8215H253.901V18.8431H255.423ZM261.905 17.4435C261.905 17.0806 261.979 16.7511 262.127 16.4549C262.275 16.1513 262.453 15.8958 262.66 15.6884C262.867 15.4811 263.075 15.2812 263.282 15.0886C263.489 14.8961 263.667 14.685 263.815 14.4555C263.963 14.2185 264.037 13.9667 264.037 13.7001C264.037 13.2706 263.889 12.9485 263.593 12.7337C263.304 12.5116 262.93 12.4005 262.471 12.4005C261.56 12.4005 260.997 12.7745 260.783 13.5224L260.127 13.1558C260.298 12.6597 260.594 12.2857 261.016 12.0339C261.445 11.7747 261.93 11.6452 262.471 11.6452C263.123 11.6452 263.674 11.8266 264.126 12.1894C264.585 12.5449 264.815 13.0485 264.815 13.7001C264.815 14.0186 264.741 14.3148 264.593 14.5888C264.445 14.8628 264.267 15.1034 264.059 15.3108C263.852 15.5107 263.645 15.7107 263.437 15.9106C263.23 16.1106 263.052 16.3438 262.904 16.6104C262.756 16.8696 262.682 17.1473 262.682 17.4435H261.905ZM262.727 19.4874C262.608 19.6059 262.464 19.6651 262.293 19.6651C262.123 19.6651 261.979 19.6059 261.86 19.4874C261.742 19.3689 261.682 19.2245 261.682 19.0542C261.682 18.8838 261.742 18.7394 261.86 18.6209C261.979 18.5025 262.123 18.4432 262.293 18.4432C262.464 18.4432 262.608 18.5025 262.727 18.6209C262.845 18.7394 262.904 18.8838 262.904 19.0542C262.904 19.2245 262.845 19.3689 262.727 19.4874Z" fill="#1D2530"/>
<path d="M268.072 21.2552H268.516V26.4389H267.998V21.8254L266.835 22.1734L266.702 21.7291L268.072 21.2552ZM270.589 21.2552H271.033V26.4389H270.515V21.8254L269.352 22.1734L269.219 21.7291L270.589 21.2552ZM272.765 23.3583C272.686 23.4373 272.589 23.4768 272.476 23.4768C272.362 23.4768 272.266 23.4373 272.187 23.3583C272.108 23.2793 272.068 23.183 272.068 23.0695C272.068 22.9559 272.108 22.8597 272.187 22.7807C272.266 22.7017 272.362 22.6622 272.476 22.6622C272.589 22.6622 272.686 22.7017 272.765 22.7807C272.844 22.8597 272.883 22.9559 272.883 23.0695C272.883 23.183 272.844 23.2793 272.765 23.3583ZM272.765 26.3945C272.686 26.4735 272.589 26.513 272.476 26.513C272.362 26.513 272.266 26.4735 272.187 26.3945C272.108 26.3155 272.068 26.2192 272.068 26.1057C272.068 25.9921 272.108 25.8958 272.187 25.8169C272.266 25.7379 272.362 25.6984 272.476 25.6984C272.589 25.6984 272.686 25.7379 272.765 25.8169C272.844 25.8958 272.883 25.9921 272.883 26.1057C272.883 26.2192 272.844 26.3155 272.765 26.3945ZM277.108 25.802C276.767 26.2859 276.286 26.5278 275.664 26.5278C275.041 26.5278 274.558 26.2859 274.212 25.802C273.871 25.3133 273.701 24.6616 273.701 23.847C273.701 23.0325 273.871 22.3833 274.212 21.8995C274.558 21.4107 275.041 21.1663 275.664 21.1663C276.286 21.1663 276.767 21.4107 277.108 21.8995C277.453 22.3833 277.626 23.0325 277.626 23.847C277.626 24.6616 277.453 25.3133 277.108 25.802ZM274.597 25.454C274.854 25.8341 275.209 26.0242 275.664 26.0242C276.118 26.0242 276.471 25.8341 276.722 25.454C276.979 25.0739 277.108 24.5382 277.108 23.847C277.108 23.1559 276.979 22.6202 276.722 22.2401C276.471 21.86 276.118 21.6699 275.664 21.6699C275.209 21.6699 274.854 21.86 274.597 22.2401C274.345 22.6202 274.219 23.1559 274.219 23.847C274.219 24.5382 274.345 25.0739 274.597 25.454ZM279.958 23.1065C280.466 23.1065 280.883 23.267 281.209 23.5879C281.535 23.9038 281.698 24.3136 281.698 24.8171C281.698 25.3207 281.535 25.7329 281.209 26.0538C280.883 26.3698 280.466 26.5278 279.958 26.5278C279.449 26.5278 279.032 26.3698 278.706 26.0538C278.38 25.7329 278.217 25.3207 278.217 24.8171C278.217 24.4271 278.324 24.0815 278.536 23.7804L280.232 21.2552H280.817L279.543 23.1509C279.676 23.1213 279.815 23.1065 279.958 23.1065ZM279.069 25.691C279.296 25.9131 279.592 26.0242 279.958 26.0242C280.323 26.0242 280.617 25.9131 280.839 25.691C281.066 25.4688 281.18 25.1775 281.18 24.8171C281.18 24.4568 281.066 24.1655 280.839 23.9433C280.617 23.7212 280.323 23.6101 279.958 23.6101C279.592 23.6101 279.296 23.7212 279.069 23.9433C278.847 24.1655 278.736 24.4568 278.736 24.8171C278.736 25.1775 278.847 25.4688 279.069 25.691Z" fill="#8E8E93"/>
</svg>
