<svg width="246" height="238" viewBox="0 0 246 238" fill="none" xmlns="http://www.w3.org/2000/svg">
<path d="M172.429 13.0808L161.917 28.3832L151.596 43.401C150.968 44.16 150.244 44.4175 149.452 44.3362C146.981 44.1058 143.91 40.5547 141.52 38.5893L141.275 38.386C138.121 35.7972 137.684 31.1346 140.292 28.0037L156.06 9.08236L160.743 3.47101C163.35 0.340047 168.047 -0.0936775 171.2 2.49513L171.446 2.69844C174.6 5.27369 175.036 9.94981 172.429 13.0808Z" fill="#FDCD51"/>
<path d="M167.005 71.2864L165.435 71.8828L154.895 75.8541C154.649 75.9489 154.404 76.0303 154.144 76.0845C150.649 76.979 146.936 75.1357 145.625 71.7201L145.475 71.3135C144.069 67.6539 145.939 63.5064 149.639 62.1104L159.469 58.3966L160.178 58.1255L161.748 57.5291C165.435 56.1331 169.612 57.99 171.005 61.6631L171.155 62.0697C172.575 65.7564 170.704 69.9039 167.005 71.2864Z" fill="#FDCD51"/>
<path d="M158.445 71.5304C156.683 72.1946 153.503 73.3738 151.796 73.6042C151.318 73.6719 150.431 73.4144 149.598 72.5063C149.107 71.9642 148.629 71.1916 148.274 70.1344C148.11 69.6329 147.973 69.1314 147.919 68.6163C147.851 68.0199 147.864 67.41 147.973 66.8136C148.069 66.2715 148.438 65.7835 148.984 65.526C148.984 65.526 148.984 65.526 148.997 65.526C150.813 64.6721 153.257 63.6149 155.387 63.0321C156.861 62.6255 158.363 63.2761 158.827 64.5637L159.045 65.1601L160.178 68.2368C160.643 69.5244 159.878 70.9883 158.445 71.5304Z" fill="#FCE29E"/>
<path d="M158.445 71.5303C156.684 72.1945 153.503 73.3737 151.796 73.6041C151.318 73.6718 150.431 73.4143 149.598 72.5062C149.516 72.3029 149.434 72.086 149.352 71.8556C149.189 71.3541 149.052 70.8526 148.997 70.3376C148.929 69.7412 148.943 69.1313 149.052 68.5349C149.148 67.9927 149.516 67.5048 150.062 67.2473C150.062 67.2473 150.062 67.2473 150.076 67.2473C151.892 66.3934 154.335 65.3362 156.465 64.7533C157.407 64.4958 158.363 64.672 159.059 65.16L160.192 68.2367C160.643 69.5243 159.878 70.9882 158.445 71.5303Z" fill="#FDCD51"/>
<path d="M162.226 86.006L154.09 88.2017C151.618 88.8659 149.052 87.4156 148.369 84.9623L148.124 84.0542C147.455 81.6009 148.915 79.0528 151.386 78.3751L159.523 76.1794C161.994 75.5152 164.561 76.9655 165.243 79.4188L165.489 80.3269C166.158 82.7801 164.697 85.3418 162.226 86.006Z" fill="#FDCD51"/>
<path d="M157.83 85.6128C156.342 86.0059 153.639 86.7107 152.219 86.7785C151.7 86.8056 150.677 86.3718 150.008 85.03C149.844 84.7047 149.707 84.3252 149.598 83.8915C149.502 83.4984 149.421 83.1053 149.421 82.6987C149.407 82.2243 149.475 81.7635 149.598 81.3162C149.721 80.9096 150.062 80.5572 150.513 80.3945C150.513 80.3945 150.513 80.3945 150.526 80.3945C152.069 79.8524 154.158 79.2018 155.96 78.8901C157.202 78.6732 158.376 79.2696 158.677 80.2861L158.881 81.018L159.509 83.2002C159.783 84.2168 159.045 85.2875 157.83 85.6128Z" fill="#FDCD51"/>
<path d="M157.83 85.6127C156.342 86.0057 153.639 86.7105 152.219 86.7783C151.7 86.8054 150.676 86.3717 150.007 85.0299C149.912 84.6639 149.857 84.2979 149.844 83.9184C149.83 83.4576 149.898 82.9832 150.021 82.5359C150.144 82.1293 150.485 81.7769 150.936 81.6143C150.936 81.6143 150.936 81.6143 150.949 81.6143C152.492 81.0721 154.581 80.4215 156.383 80.1098C157.407 79.9336 158.404 80.3131 158.868 81.0179L159.496 83.2001C159.782 84.2166 159.045 85.2874 157.83 85.6127Z" fill="#FCE29E"/>
<path d="M166.768 55.8868C166.713 55.9139 166.659 55.9275 166.59 55.941L155.928 58.6518C151.245 59.8446 146.399 57.3235 145.157 53.054L144.529 50.8719C143.341 46.765 145.894 42.482 150.249 41.0859L153.771 40.1913L160.911 38.3751C165.594 37.1824 170.44 39.7034 171.683 43.9729L172.311 46.1551C173.485 50.2077 171.014 54.4366 166.768 55.8868Z" fill="#FDCD51"/>
<path d="M161.894 52.9322L156.72 55.2499C156.706 55.2499 156.706 55.2499 156.693 55.2634C156.488 55.3177 156.269 55.3583 156.065 55.3854C155.983 55.399 155.887 55.4125 155.805 55.4125C155.764 55.4125 155.737 55.4125 155.696 55.4125C155.123 55.399 154.74 54.7891 154.986 54.2605C155.478 53.2032 155.614 51.9834 155.273 50.7771L155.15 50.3298V50.3162L154.754 48.8524C154.44 47.6868 153.757 46.7109 152.87 46.0061C152.761 45.9248 152.652 45.8434 152.542 45.7621C151.519 45.0573 151.778 43.4579 152.979 43.1327C152.993 43.1327 153.007 43.1327 153.007 43.1191L158.686 42.2652C160.092 41.8857 161.444 42.9565 161.826 44.3525L162.276 46.0196L163.246 49.5708C163.628 50.9804 163.287 52.5526 161.894 52.9322Z" fill="#FDCD51"/>
<path d="M161.894 52.9321L156.72 55.2498C156.706 55.2498 156.706 55.2498 156.693 55.2634C156.57 55.2905 156.188 55.3447 155.696 55.426C155.123 55.4125 154.74 54.8025 154.986 54.2739C155.478 53.2167 155.614 51.9969 155.273 50.7906L155.15 50.3433V50.3297L154.754 48.8659C154.44 47.7003 153.758 46.7244 152.87 46.0196C153.048 45.7485 153.321 45.5452 153.689 45.4503C153.703 45.4503 153.717 45.4503 153.717 45.4367L159.396 44.5829C160.584 44.2576 161.73 44.9759 162.29 46.0331L163.259 49.5843C163.628 50.9803 163.287 52.5526 161.894 52.9321Z" fill="#FCE29E"/>
<path d="M142.554 101.004C142.554 101.004 129.488 126.96 116.205 144.892C110.921 152.021 105.611 157.877 101.065 160.33C96.6276 162.715 92.8596 166.429 89.7469 170.55C81.6921 181.203 77.9651 194.554 77.9651 194.554L44.0121 143.564C44.0121 143.564 45.1725 93.7122 49.2409 85.3766C55.1796 73.2187 58.0465 48.6724 60.3401 43.7795C62.033 40.147 66.8658 21.429 67.33 20.0465C67.5348 19.4501 69.1457 18.542 71.2345 18.542C72.9137 18.542 75.7534 20.1549 76.477 23.4621C80.1084 40.1741 75.7397 51.1935 75.7807 51.695C77.064 64.5441 73.2141 74.0726 75.9172 76.5936C76.0128 76.6885 76.2039 76.6478 76.4633 76.4716C81.146 73.4897 110.198 31.4454 113.775 30.5372C117.57 29.5614 142.554 101.004 142.554 101.004Z" fill="#FFDB7D"/>
<path d="M88.1906 184.442C88.1906 184.442 87.7264 207.104 86.4022 237.628H0.775757C20.3393 196.194 37.3636 161.306 37.3636 161.306C37.3636 161.306 86.1291 162.783 88.1906 184.442Z" fill="#D2E3FC"/>
<path d="M146.226 150.096H87.071C81.2552 150.096 76.4906 145.366 76.4906 139.592V10.5043C76.4906 4.73033 81.2552 0 87.071 0H146.226C152.042 0 156.806 4.73033 156.806 10.5043V139.592C156.806 145.366 152.042 150.096 146.226 150.096Z" fill="#2B478B"/>
<path d="M152.834 11.4936V137.586C152.834 141.869 149.339 145.366 145.052 145.366H88.2451C83.972 145.366 80.4634 141.869 80.4634 137.586V11.4936C80.4634 7.21054 83.9583 3.71362 88.2451 3.71362H145.052C149.325 3.71362 152.834 7.2241 152.834 11.4936Z" fill="#C0D8FB"/>
<path d="M145.052 3.71362L88.9552 145.38H88.2589C83.9858 145.38 80.4772 141.883 80.4772 137.6V11.4936C80.4772 7.21054 83.9721 3.71362 88.2589 3.71362H145.052Z" fill="#CBE1FD"/>
<path d="M128.519 8.40369H104.778C102.839 8.40369 101.256 6.83143 101.256 4.90676V4.3646C101.256 2.43994 102.839 0.867676 104.778 0.867676H128.519C130.458 0.867676 132.041 2.43994 132.041 4.3646V4.90676C132.041 6.84498 130.458 8.40369 128.519 8.40369Z" fill="#2B478B"/>
<path d="M91.2486 201.493C84.7502 202.822 70.743 197.753 70.743 197.753L73.0093 176.08L57.1728 194.079C49.118 191.098 36.517 183.331 29.0356 178.506C25.3086 176.093 22.8512 174.413 22.8512 174.413C33.418 157.538 44.0394 141.748 44.0394 141.748C47.1521 147.942 54.5379 153.323 62.5381 157.619C75.8353 164.776 90.8527 168.95 90.8527 168.95C90.839 181.827 91.2486 201.493 91.2486 201.493Z" fill="#DCEAFF"/>
<path d="M239.115 237.641H176.302C173.285 235.635 157.653 225.05 151.182 217.148C149.816 215.481 144.792 201.046 140.943 189.349C138.54 182.03 136.574 175.781 136.246 174.344C136.137 173.843 136.055 172.854 136.014 171.512V171.498C135.85 166.714 136.069 157.47 136.301 150.137V150.096V150.002C136.315 149.676 136.328 149.365 136.328 149.053V149.039C136.328 149.012 136.328 148.971 136.328 148.944C136.369 147.67 136.41 146.464 136.451 145.38C136.547 142.655 136.629 140.595 136.669 139.795L136.683 139.416C136.779 139.362 139.809 137.762 143.837 140.649C144.806 141.354 145.707 143.035 146.54 145.231C147.072 146.64 147.564 148.253 148.014 149.947C149.776 156.48 151.045 164.301 151.714 166.388C152.806 169.777 165.639 184.645 166.445 185.567C166.459 185.581 166.472 185.594 166.486 185.608V162.119L156.793 136.366L152.806 125.794L150.813 120.481C150.813 120.481 147.741 115.48 145.175 109.462C144.042 106.832 143.018 103.999 142.376 101.316C142.226 100.679 142.089 100.042 141.994 99.4182C141.612 97.1411 141.584 95.0402 142.117 93.3324C143.059 90.2828 145.161 89.7 146.786 89.7678C146.95 89.7678 147.113 89.7813 147.277 89.8084C147.441 89.822 147.591 89.8626 147.741 89.9033C148.028 89.9846 148.301 90.0931 148.547 90.2421C148.956 90.4861 149.325 90.8114 149.598 91.218C149.598 91.218 150.963 92.9936 152.806 95.3791C154.021 96.9514 155.428 98.7811 156.793 100.557C159.209 103.715 161.448 106.656 162.076 107.51C165.407 112.172 174.39 127.366 174.39 127.366L184.903 127.8C186.568 127.868 188.152 128.532 189.367 129.657C193.108 133.127 201.162 140.622 202.159 141.734C202.159 142.1 208.425 145.095 213.258 147.752C216.712 149.202 223.293 154.352 223.293 154.352C224.658 155.545 225.695 156.738 226.214 157.876C228.467 162.742 234.583 205.098 237.504 226.039C238.46 232.776 239.074 237.289 239.115 237.641Z" fill="#FFDB7D"/>
<path d="M174.404 127.366C174.404 127.366 184.138 143.143 185.435 143.862C186.718 144.566 191.742 145.569 192.316 143.862C192.875 142.154 174.404 127.366 174.404 127.366Z" fill="#FDCD51"/>
<path d="M223.347 154.407C223.333 154.393 223.32 154.38 223.292 154.366C223.292 154.366 216.712 149.216 213.258 147.765C208.821 145.326 203.169 142.601 202.282 141.883C203.319 143.048 210.569 151.208 213.354 151.818C215.811 152.36 221.381 153.865 223.347 154.407Z" fill="#FDCD51"/>
<path d="M166.499 185.608V162.119C166.499 162.119 172.124 171.458 172.547 176.567C172.984 181.691 170.213 189.986 166.499 185.608Z" fill="#FDCD51"/>
<path d="M146.117 99.4322C145.298 98.0361 143.823 95.5015 143.318 94.0784C143.181 93.6717 143.195 92.8721 143.687 92.0182C143.823 91.9097 143.96 91.8013 144.11 91.7064C144.437 91.4896 144.779 91.2862 145.147 91.1507C145.571 91.0016 146.021 90.9203 146.472 90.9067C146.881 90.9067 147.304 91.1372 147.605 91.5573C148.574 92.9669 149.816 94.8916 150.649 96.6265C151.018 97.3991 151.086 98.2394 150.854 98.9036L148.834 100.367C147.987 100.991 146.786 100.571 146.117 99.4322Z" fill="#FCE29E"/>
<path d="M101.529 48.7596H86.5523C86.0336 48.7596 85.6104 48.3394 85.6104 47.8244V47.3771C85.6104 46.8621 86.0336 46.4419 86.5523 46.4419H101.529C102.048 46.4419 102.471 46.8621 102.471 47.3771V47.8244C102.471 48.3394 102.048 48.7596 101.529 48.7596Z" fill="white"/>
<path d="M101.706 57.1089H86.3749C85.9517 57.1089 85.6104 56.77 85.6104 56.3498C85.6104 55.9297 85.9517 55.5908 86.3749 55.5908H101.706C102.129 55.5908 102.471 55.9297 102.471 56.3498C102.471 56.77 102.129 57.1089 101.706 57.1089Z" fill="white"/>
<path d="M94.9211 60.687H86.1974C85.8697 60.687 85.6104 60.4295 85.6104 60.1042V59.7518C85.6104 59.4265 85.8697 59.1689 86.1974 59.1689H94.9211C95.2488 59.1689 95.5082 59.4265 95.5082 59.7518V60.1042C95.5082 60.4159 95.2351 60.687 94.9211 60.687Z" fill="white"/>
<path d="M112.696 60.687H98.6072C98.2113 60.687 97.87 60.3617 97.87 59.9551V59.9009C97.87 59.5078 98.1976 59.1689 98.6072 59.1689H112.696C113.092 59.1689 113.433 59.4942 113.433 59.9009V59.9551C113.42 60.3617 113.092 60.687 112.696 60.687Z" fill="white"/>
<path d="M125.857 57.1089H105.761C105.338 57.1089 104.996 56.77 104.996 56.3498C104.996 55.9297 105.338 55.5908 105.761 55.5908H125.857C126.28 55.5908 126.622 55.9297 126.622 56.3498C126.622 56.77 126.28 57.1089 125.857 57.1089Z" fill="white"/>
<path d="M101.706 64.2651H86.3749C85.9517 64.2651 85.6104 63.9263 85.6104 63.5061C85.6104 63.0859 85.9517 62.7471 86.3749 62.7471H101.706C102.129 62.7471 102.471 63.0859 102.471 63.5061C102.471 63.9263 102.129 64.2651 101.706 64.2651Z" fill="white"/>
<path d="M125.857 64.2651H105.761C105.338 64.2651 104.996 63.9263 104.996 63.5061C104.996 63.0859 105.338 62.7471 105.761 62.7471H125.857C126.28 62.7471 126.622 63.0859 126.622 63.5061C126.622 63.9263 126.28 64.2651 125.857 64.2651Z" fill="white"/>
<path d="M116.109 48.7596H105.365C104.915 48.7596 104.56 48.3936 104.56 47.9599V47.2416C104.56 46.7943 104.928 46.4419 105.365 46.4419H116.109C116.56 46.4419 116.915 46.8078 116.915 47.2416V47.9599C116.915 48.4072 116.546 48.7596 116.109 48.7596Z" fill="white"/>
<path d="M102.553 122.908H91.9177C91.5491 122.908 91.2488 122.61 91.2488 122.244V121.932C91.2488 121.566 91.5491 121.268 91.9177 121.268H102.553C102.921 121.268 103.222 121.566 103.222 121.932V122.244C103.235 122.61 102.921 122.908 102.553 122.908Z" fill="#699DEE"/>
<path d="M102.689 127.123H91.7947C91.4944 127.123 91.2487 126.879 91.2487 126.58C91.2487 126.282 91.4944 126.038 91.7947 126.038H102.689C102.99 126.038 103.235 126.282 103.235 126.58C103.222 126.879 102.99 127.123 102.689 127.123Z" fill="#699DEE"/>
<path d="M97.8563 129.671H91.6582C91.4261 129.671 91.2487 129.481 91.2487 129.264V129.007C91.2487 128.776 91.4398 128.6 91.6582 128.6H97.8563C98.0884 128.6 98.2659 128.79 98.2659 129.007V129.264C98.2795 129.481 98.0884 129.671 97.8563 129.671Z" fill="#699DEE"/>
<path d="M110.498 129.671H100.478C100.191 129.671 99.9587 129.44 99.9587 129.156V129.115C99.9587 128.831 100.191 128.6 100.478 128.6H110.498C110.785 128.6 111.017 128.831 111.017 129.115V129.156C111.017 129.44 110.785 129.671 110.498 129.671Z" fill="#699DEE"/>
<path d="M119.864 127.123H105.57C105.269 127.123 105.024 126.879 105.024 126.58C105.024 126.282 105.269 126.038 105.57 126.038H119.864C120.164 126.038 120.41 126.282 120.41 126.58C120.396 126.879 120.15 127.123 119.864 127.123Z" fill="#699DEE"/>
<path d="M102.689 132.219H91.7947C91.4944 132.219 91.2487 131.975 91.2487 131.677C91.2487 131.378 91.4944 131.135 91.7947 131.135H102.689C102.99 131.135 103.235 131.378 103.235 131.677C103.222 131.975 102.99 132.219 102.689 132.219Z" fill="#699DEE"/>
<path d="M119.864 132.219H105.57C105.269 132.219 105.024 131.975 105.024 131.677C105.024 131.378 105.269 131.135 105.57 131.135H119.864C120.164 131.135 120.41 131.378 120.41 131.677C120.396 131.975 120.15 132.219 119.864 132.219Z" fill="#699DEE"/>
<path d="M112.928 122.908H105.283C104.969 122.908 104.71 122.65 104.71 122.338V121.823C104.71 121.511 104.969 121.254 105.283 121.254H112.928C113.242 121.254 113.502 121.511 113.502 121.823V122.338C113.502 122.65 113.242 122.908 112.928 122.908Z" fill="#699DEE"/>
<path d="M109.611 20.5409H98.9758C98.6072 20.5409 98.3069 20.2427 98.3069 19.8768V19.565C98.3069 19.1991 98.6072 18.9009 98.9758 18.9009H109.611C109.98 18.9009 110.28 19.1991 110.28 19.565V19.8768C110.28 20.2427 109.98 20.5409 109.611 20.5409Z" fill="#699DEE"/>
<path d="M109.747 24.7691H98.8529C98.5525 24.7691 98.3068 24.5252 98.3068 24.227C98.3068 23.9288 98.5525 23.6848 98.8529 23.6848H109.747C110.048 23.6848 110.293 23.9288 110.293 24.227C110.28 24.5252 110.048 24.7691 109.747 24.7691Z" fill="#699DEE"/>
<path d="M104.914 27.3173H98.7163C98.4842 27.3173 98.3068 27.1276 98.3068 26.9107V26.6532C98.3068 26.4228 98.4979 26.2466 98.7163 26.2466H104.914C105.147 26.2466 105.324 26.4363 105.324 26.6532V26.9107C105.338 27.1276 105.147 27.3173 104.914 27.3173Z" fill="#699DEE"/>
<path d="M117.556 27.3173H107.536C107.249 27.3173 107.017 27.0869 107.017 26.8023V26.7616C107.017 26.477 107.249 26.2466 107.536 26.2466H117.556C117.843 26.2466 118.075 26.477 118.075 26.7616V26.8023C118.075 27.0869 117.843 27.3173 117.556 27.3173Z" fill="#699DEE"/>
<path d="M126.922 24.7691H112.628C112.328 24.7691 112.082 24.5252 112.082 24.227C112.082 23.9288 112.328 23.6848 112.628 23.6848H126.922C127.222 23.6848 127.468 23.9288 127.468 24.227C127.454 24.5252 127.209 24.7691 126.922 24.7691Z" fill="#699DEE"/>
<path d="M119.987 20.5403H112.341C112.027 20.5403 111.768 20.2828 111.768 19.971V19.456C111.768 19.1442 112.027 18.8867 112.341 18.8867H119.987C120.301 18.8867 120.56 19.1442 120.56 19.456V19.971C120.56 20.2963 120.301 20.5403 119.987 20.5403Z" fill="#699DEE"/>
<path d="M119.017 91.8748H107.372C106.962 91.8748 106.635 91.5495 106.635 91.1429V90.7905C106.635 90.3839 106.962 90.0586 107.372 90.0586H119.017C119.427 90.0586 119.754 90.3839 119.754 90.7905V91.1429C119.754 91.536 119.427 91.8748 119.017 91.8748Z" fill="white"/>
<path d="M119.154 96.4967H107.222C106.894 96.4967 106.635 96.2256 106.635 95.9139C106.635 95.5886 106.908 95.3311 107.222 95.3311H119.154C119.481 95.3311 119.741 95.6021 119.741 95.9139C119.754 96.2256 119.481 96.4967 119.154 96.4967Z" fill="white"/>
<path d="M113.884 99.2753H107.099C106.853 99.2753 106.648 99.0719 106.648 98.828V98.5569C106.648 98.3129 106.853 98.1096 107.099 98.1096H113.884C114.13 98.1096 114.335 98.3129 114.335 98.5569V98.828C114.335 99.0719 114.13 99.2753 113.884 99.2753Z" fill="white"/>
<path d="M127.714 99.2751H116.751C116.437 99.2751 116.178 99.0176 116.178 98.7059V98.6652C116.178 98.3535 116.437 98.0959 116.751 98.0959H127.714C128.028 98.0959 128.287 98.3535 128.287 98.6652V98.7059C128.287 99.0176 128.028 99.2751 127.714 99.2751Z" fill="white"/>
<path d="M137.967 96.4967H122.321C121.994 96.4967 121.734 96.2256 121.734 95.9139C121.734 95.5886 122.007 95.3311 122.321 95.3311H137.967C138.294 95.3311 138.554 95.6021 138.554 95.9139C138.554 96.2256 138.281 96.4967 137.967 96.4967Z" fill="white"/>
<path d="M119.154 102.068H107.222C106.894 102.068 106.635 101.796 106.635 101.485C106.635 101.159 106.908 100.902 107.222 100.902H119.154C119.481 100.902 119.741 101.173 119.741 101.485C119.754 101.796 119.481 102.068 119.154 102.068Z" fill="white"/>
<path d="M137.967 102.068H122.321C121.994 102.068 121.734 101.796 121.734 101.485C121.734 101.159 122.007 100.902 122.321 100.902H137.967C138.294 100.902 138.554 101.173 138.554 101.485C138.554 101.796 138.281 102.068 137.967 102.068Z" fill="white"/>
<path d="M119.154 104.968H107.222C106.894 104.968 106.635 104.697 106.635 104.385C106.635 104.06 106.908 103.802 107.222 103.802H119.154C119.481 103.802 119.741 104.073 119.741 104.385C119.754 104.697 119.481 104.968 119.154 104.968Z" fill="white"/>
<path d="M137.967 104.968H122.321C121.994 104.968 121.734 104.697 121.734 104.385C121.734 104.06 122.007 103.802 122.321 103.802H137.967C138.294 103.802 138.554 104.073 138.554 104.385C138.554 104.697 138.281 104.968 137.967 104.968Z" fill="white"/>
<path d="M130.376 91.8747H122.007C121.666 91.8747 121.379 91.5901 121.379 91.2512V90.6955C121.379 90.3567 121.666 90.072 122.007 90.072H130.376C130.717 90.072 131.004 90.3567 131.004 90.6955V91.2512C131.004 91.5901 130.717 91.8747 130.376 91.8747Z" fill="white"/>
<path d="M91.4261 11.9608L90.6206 12.5436L89.8015 11.9744C89.979 11.7168 90.2793 11.5542 90.6206 11.5542C90.9483 11.5542 91.2487 11.7168 91.4261 11.9608Z" fill="white"/>
<path d="M90.6207 10.1445C89.8016 10.1445 89.0917 10.5512 88.6548 11.1611L89.1736 11.5135C89.5012 11.0662 90.0337 10.768 90.6344 10.768C91.2351 10.768 91.7538 11.0526 92.0815 11.5135L92.6003 11.1475C92.1361 10.5376 91.4262 10.1445 90.6207 10.1445Z" fill="white"/>
<path d="M90.6207 7.47437C88.9005 7.47437 87.3715 8.32826 86.4568 9.62944L86.9756 9.98184C87.7811 8.84331 89.119 8.09784 90.6344 8.09784C92.1224 8.09784 93.4604 8.82976 94.2658 9.95473L94.771 9.58877C93.8426 8.3147 92.3272 7.47437 90.6207 7.47437Z" fill="white"/>
<path d="M90.6207 8.93823C89.392 8.93823 88.3135 9.53461 87.6445 10.4563L88.1633 10.8087C88.7094 10.0497 89.6105 9.54816 90.6207 9.54816C91.631 9.54816 92.5184 10.0361 93.0645 10.7816L93.5696 10.4156C92.9143 9.53461 91.8358 8.93823 90.6207 8.93823Z" fill="white"/>
<path d="M86.0745 97.0932C86.0745 98.2724 86.4704 99.3567 87.153 100.224C87.3714 100.509 87.6308 100.78 87.9039 101.01C88.1769 101.241 88.4772 101.444 88.8049 101.62C89.5285 102.013 90.3612 102.23 91.2486 102.23C92.3545 102.23 93.3784 101.891 94.2111 101.308C94.2521 101.281 94.2931 101.254 94.334 101.214C94.7163 100.929 95.0576 100.604 95.3443 100.224C96.0132 99.3567 96.4228 98.2724 96.4228 97.0932C96.4228 94.2605 94.1019 91.9563 91.2486 91.9563C88.3953 91.9563 86.0745 94.2605 86.0745 97.0932Z" fill="white"/>
<path d="M92.6548 100.386L92.177 99.9662C92.1361 99.9798 92.0951 99.9798 92.0541 99.9933C91.9722 99.9391 91.8767 99.8713 91.7811 99.8171C91.8084 99.6274 91.8357 99.4512 91.863 99.2885C91.9313 98.7328 91.9449 98.4075 91.9449 98.3533C92.1907 98.3397 92.3681 98.3126 92.3681 98.3126C92.846 98.2042 92.8733 96.5777 92.764 95.7374C92.8596 95.7374 92.9415 95.7238 93.0234 95.6832C93.3784 95.5205 93.4057 94.9784 93.4057 94.9784C93.4057 94.9784 93.2965 95.1681 93.1463 95.2359C93.1463 95.2359 93.747 94.4091 93.0508 93.8534C92.3545 93.2841 91.6446 93.6636 91.235 93.6772C90.3476 93.7314 89.7606 93.7856 89.4739 94.3684C89.1872 94.9377 89.2964 96.5235 89.8561 97.1063C89.8698 97.1605 89.8698 97.2148 89.8834 97.269C89.9107 97.4723 89.9927 97.6485 90.1019 97.784C89.979 98.4617 89.6923 98.9768 89.4466 99.3156C89.2691 99.4512 89.1189 99.6138 88.9687 99.8307L88.9551 99.8442C88.682 100.224 88.4636 100.725 88.2861 101.294C88.2861 101.294 88.2861 101.294 88.2861 101.308C88.5728 101.511 88.9005 101.688 89.2281 101.823C89.2554 101.837 89.2691 101.837 89.2964 101.85H89.31C89.351 101.864 89.3783 101.877 89.4193 101.891C89.5012 101.932 89.5967 101.959 89.6787 101.986C89.7742 102.013 89.8698 102.04 89.9654 102.067C90.0063 102.081 90.0473 102.094 90.1019 102.094C90.1428 102.108 90.1838 102.108 90.2247 102.121H90.2384C90.2657 102.121 90.293 102.135 90.3203 102.135C90.3749 102.148 90.4432 102.162 90.4978 102.162C90.5114 102.162 90.5251 102.162 90.5387 102.162C90.5797 102.162 90.607 102.175 90.6343 102.175C90.6889 102.175 90.7299 102.189 90.7708 102.189C90.8254 102.189 90.8801 102.203 90.9347 102.203C90.9893 102.203 91.0439 102.203 91.0848 102.216C91.1394 102.216 91.1941 102.216 91.2487 102.216C91.3033 102.216 91.3579 102.216 91.4261 102.216H91.4398C91.4534 102.216 91.4671 102.216 91.4807 102.216C91.5081 102.216 91.5354 102.216 91.5627 102.216C91.5627 102.216 91.5627 102.216 91.5763 102.216C91.6309 102.216 91.6855 102.216 91.7401 102.203C92.4364 102.135 93.1054 101.932 93.6924 101.62C93.3784 101.105 92.9961 100.712 92.6548 100.386Z" fill="#699DEE"/>
<path d="M136.874 126.953C136.874 128.145 137.284 129.23 137.953 130.111C138.171 130.395 138.431 130.666 138.717 130.897C139.618 131.656 140.806 132.117 142.089 132.117C143.25 132.117 144.328 131.737 145.202 131.087C145.584 130.802 145.926 130.463 146.212 130.097C146.895 129.23 147.291 128.132 147.291 126.939C147.291 124.079 144.956 121.761 142.076 121.761C139.195 121.761 136.874 124.093 136.874 126.953Z" fill="white"/>
<path d="M144.738 129.88C144.738 129.867 144.724 129.853 144.711 129.839C144.683 129.812 144.656 129.785 144.629 129.758C144.56 129.704 144.478 129.663 144.369 129.623C144.369 129.623 144.369 129.623 144.356 129.623C143.905 129.433 143.304 129.365 143.304 129.365C143.141 129.338 143.004 129.324 142.936 129.311C142.758 129.175 142.526 128.62 142.485 127.766C142.485 127.766 142.676 127.318 142.936 127.454C143.345 127.671 144.11 126.79 143.864 125.624C143.837 125.502 143.809 125.38 143.769 125.285C143.85 125.326 143.946 125.353 144.042 125.353C144.274 125.353 144.629 124.757 144.683 124.567C144.738 124.364 144.683 123.713 144.356 123.523C144.042 123.334 143.55 123.55 143.523 123.564C143.687 123.347 144.233 123.388 144.328 123.401C143.059 123.144 142.786 123.957 142.772 124.025C141.966 123.293 140.724 124.553 140.424 124.892C140.396 124.906 140.383 124.933 140.356 124.946C140.287 124.987 140.205 125.055 140.123 125.15C139.96 125.34 139.919 125.583 139.919 125.827C139.919 126.248 140.082 126.627 140.082 126.627C140.151 127.332 140.356 128.199 140.683 128.227C140.683 128.227 140.792 128.227 140.97 128.213C140.97 128.227 140.97 128.227 140.97 128.24C140.97 128.362 140.984 128.498 140.984 128.62V128.701C140.984 129.053 140.956 129.392 140.888 129.433C140.861 129.433 140.833 129.433 140.82 129.433C140.792 129.433 140.724 129.446 140.724 129.446C140.437 129.487 140.233 129.514 140.096 129.541C139.809 129.582 139.741 129.623 139.673 129.677C139.659 129.69 139.646 129.704 139.618 129.731C139.414 129.894 139.031 130.246 138.69 130.937C139.605 131.696 140.779 132.157 142.062 132.157C143.222 132.157 144.301 131.778 145.175 131.127C145.052 130.585 144.888 130.165 144.738 129.88Z" fill="#FDCD51"/>
<path d="M136.874 23.0068C136.874 24.1996 137.284 25.2839 137.953 26.1649C138.171 26.4496 138.431 26.7206 138.717 26.951C139.618 27.7101 140.806 28.1709 142.089 28.1709C143.25 28.1709 144.328 27.7914 145.202 27.1408C145.584 26.8562 145.926 26.5173 146.212 26.1514C146.895 25.2839 147.291 24.186 147.291 22.9933C147.291 20.1334 144.956 17.8157 142.076 17.8157C139.195 17.8157 136.874 20.147 136.874 23.0068Z" fill="white"/>
<path d="M144.738 25.9348C144.738 25.9212 144.724 25.9077 144.711 25.8941C144.683 25.867 144.656 25.8399 144.629 25.8128C144.56 25.7586 144.478 25.7179 144.369 25.6772C144.369 25.6772 144.369 25.6772 144.356 25.6772C143.905 25.4875 143.304 25.4197 143.304 25.4197C143.141 25.3926 143.004 25.3791 142.936 25.3655C142.895 25.3248 142.854 25.2706 142.799 25.1893C142.649 24.9318 142.513 24.4574 142.485 23.8204C142.485 23.8204 142.676 23.3731 142.936 23.5086C143.345 23.7255 144.11 22.8445 143.864 21.6788C143.837 21.5568 143.81 21.4349 143.769 21.34C143.85 21.3806 143.946 21.4078 144.042 21.4078C144.274 21.4078 144.629 20.8114 144.683 20.6216C144.738 20.4183 144.683 19.7677 144.356 19.578C144.042 19.3882 143.55 19.6051 143.523 19.6186C143.687 19.4018 144.233 19.4424 144.328 19.456C143.059 19.1985 142.786 20.0117 142.772 20.0795C141.966 19.3476 140.724 20.6081 140.424 20.9469C140.396 20.9605 140.383 20.9876 140.356 21.0011C140.287 21.0418 140.205 21.1096 140.123 21.2044C139.96 21.3942 139.919 21.6382 139.919 21.8821C139.919 22.3023 140.082 22.6818 140.082 22.6818C140.151 23.3866 140.356 24.2541 140.683 24.2812C140.683 24.2812 140.792 24.2812 140.97 24.2676C140.97 24.2812 140.97 24.2812 140.97 24.2947C140.97 24.4167 140.984 24.5523 140.984 24.6743V24.7556C140.984 25.108 140.956 25.4468 140.888 25.4875C140.861 25.4875 140.833 25.4875 140.82 25.4875C140.792 25.4875 140.724 25.501 140.724 25.501C140.437 25.5417 140.233 25.5688 140.096 25.5959C139.809 25.6501 139.741 25.6772 139.673 25.7315C139.659 25.745 139.646 25.7721 139.618 25.7857C139.414 25.9348 139.031 26.3007 138.69 26.992C138.745 27.0326 138.786 27.0733 138.84 27.114C138.854 27.114 138.854 27.1275 138.867 27.1275C138.908 27.1546 138.949 27.1817 138.99 27.2088C139.018 27.2359 139.045 27.2495 139.072 27.2766C139.1 27.2902 139.127 27.3173 139.154 27.3308C139.195 27.3579 139.236 27.385 139.277 27.4121C139.304 27.4257 139.332 27.4528 139.359 27.4664C139.4 27.4935 139.427 27.507 139.468 27.5341C139.509 27.5612 139.55 27.5748 139.591 27.6019C139.591 27.6019 139.591 27.6019 139.605 27.6019L139.618 27.6155C139.646 27.629 139.687 27.6561 139.714 27.6697C139.728 27.6697 139.741 27.6832 139.741 27.6832C139.755 27.6968 139.782 27.6968 139.796 27.7103C139.809 27.7239 139.837 27.7239 139.85 27.7374C139.891 27.751 139.932 27.7781 139.973 27.7917C140.014 27.8052 140.055 27.8323 140.096 27.8459C140.11 27.8594 140.137 27.8594 140.151 27.873C140.164 27.873 140.192 27.8865 140.205 27.9001C140.246 27.9136 140.287 27.9272 140.328 27.9408C140.369 27.9543 140.41 27.9679 140.451 27.9814C140.492 27.995 140.519 28.0085 140.56 28.0085H140.574C140.601 28.0085 140.615 28.0221 140.642 28.0221C140.765 28.0627 140.888 28.0898 141.024 28.1034C141.079 28.117 141.134 28.1305 141.188 28.1305C141.202 28.1305 141.216 28.1305 141.229 28.1305H141.243C141.284 28.1305 141.311 28.1441 141.352 28.1441C141.366 28.1441 141.366 28.1441 141.379 28.1441H141.393C141.434 28.1441 141.461 28.1576 141.489 28.1576H141.502C141.516 28.1576 141.53 28.1576 141.53 28.1576C141.584 28.1576 141.652 28.1712 141.707 28.1712H141.721C141.734 28.1712 141.762 28.1712 141.775 28.1712C141.789 28.1712 141.803 28.1712 141.816 28.1712C141.871 28.1712 141.939 28.1712 141.994 28.1712C143.154 28.1712 144.233 27.7917 145.106 27.1411C145.052 26.6531 144.888 26.2194 144.738 25.9348Z" fill="#FDCD51"/>
<path d="M207.565 227.991L188.807 237.641H176.315C173.298 235.635 157.666 225.05 151.195 217.148C149.83 215.481 144.806 201.046 140.956 189.349C141.475 190.907 152.233 213.651 155.291 216.24C158.349 218.828 174.445 233.887 178.882 233.724C183.182 233.575 206.091 228.343 207.511 228.018C207.524 228.004 207.538 228.004 207.565 227.991Z" fill="#FDCD51"/>
<path d="M245.314 237.641H177.667C181.053 236.313 194.036 231.393 207.497 228.018C207.524 228.018 207.538 228.005 207.565 228.005C219.115 225.104 231.02 223.342 237.477 225.985L237.518 226.053L245.314 237.641Z" fill="#D2E3FC"/>
<path d="M91.2486 201.852C84.7502 203.18 70.743 198.111 70.743 198.111L73.0093 176.438L57.1728 194.438C49.118 191.456 36.517 183.689 29.0356 178.864C48.217 176.79 62.5381 157.991 62.5381 157.991C75.8353 165.147 90.8527 169.322 90.8527 169.322C90.839 182.185 91.2486 201.852 91.2486 201.852Z" fill="#CBE1FD"/>
<path d="M46.6471 182.171C46.6607 180.721 47.8485 179.569 49.3093 179.582C50.77 179.596 51.9305 180.775 51.9168 182.225C51.9032 183.676 50.7154 184.828 49.2546 184.814C47.7939 184.787 46.6334 183.608 46.6471 182.171Z" fill="#FFDB7D"/>
</svg>
