<svg width="52" height="37" viewBox="0 0 52 37" fill="none" xmlns="http://www.w3.org/2000/svg">
<path d="M6.22596 0.197021H45.6671C48.8071 0.197021 51.3873 2.74516 51.3873 5.87612V23.0625C51.3873 25.936 49.0255 28.2808 46.1313 28.2808H45.121L47.0186 36.2505L35.0866 28.2808H5.89831C2.75831 28.2808 0.191701 25.7327 0.191701 22.6152V6.22854C0.178049 2.90782 2.90848 0.197021 6.22596 0.197021Z" fill="#DFEBFD"/>
<path d="M5.17479 12.6667H46.2951C46.8549 12.6667 47.3191 12.2058 47.3191 11.6501C47.3191 11.0944 46.8549 10.6335 46.2951 10.6335H5.17479C4.61505 10.6335 4.15088 11.0944 4.15088 11.6501C4.15088 12.2194 4.61505 12.6667 5.17479 12.6667Z" fill="#CBE1FD"/>
<path d="M5.17479 17.1937H46.2951C46.8549 17.1937 47.3191 16.7329 47.3191 16.1772C47.3191 15.6215 46.8549 15.1606 46.2951 15.1606H5.17479C4.61505 15.1606 4.15088 15.6215 4.15088 16.1772C4.15088 16.7464 4.61505 17.1937 5.17479 17.1937Z" fill="#CBE1FD"/>
<path d="M5.17479 21.7209H46.2951C46.8549 21.7209 47.3191 21.26 47.3191 20.7043C47.3191 20.1486 46.8549 19.6877 46.2951 19.6877H5.17479C4.61505 19.6877 4.15088 20.1486 4.15088 20.7043C4.15088 21.2736 4.61505 21.7209 5.17479 21.7209Z" fill="#CBE1FD"/>
<path d="M27.578 5.64579H45.0391C45.7081 5.64579 46.2541 5.10362 46.2541 4.43947C46.2541 3.77531 45.7081 3.23315 45.0391 3.23315H27.578C26.909 3.23315 26.3629 3.77531 26.3629 4.43947C26.3629 5.10362 26.909 5.64579 27.578 5.64579Z" fill="#CBE1FD"/>
<path d="M12.5742 5.64565H23.0864C23.6188 5.64565 24.042 5.21192 24.042 4.69687V4.19537C24.042 3.66676 23.6051 3.24658 23.0864 3.24658H12.5742C12.0417 3.24658 11.6185 3.68031 11.6185 4.19537V4.69687C11.6185 5.21192 12.0554 5.64565 12.5742 5.64565Z" fill="#CBE1FD"/>
</svg>
